M48
; DRILL file {KiCad 9.0.4-9.0.4-0~ubuntu25.04.1} date 2025-11-25T09:33:15+0100
; FORMAT={-:-/ absolute / metric / decimal}
; #@! TF.CreationDate,2025-11-25T09:33:15+01:00
; #@! TF.GenerationSoftware,Kicad,Pcbnew,9.0.4-9.0.4-0~ubuntu25.04.1
; #@! TF.FileFunction,Plated,1,2,PTH
FMAT,2
METRIC
; #@! TA.AperFunction,Plated,PTH,ViaDrill
T1C0.300
; #@! TA.AperFunction,Plated,PTH,ComponentDrill
T2C1.000
%
G90
G05
T1
X83.0Y-95.75
X83.0Y-97.25
X83.0Y-98.75
X83.0Y-100.25
X83.0Y-101.75
X83.0Y-103.25
X83.0Y-104.75
X83.0Y-106.25
X83.0Y-107.75
X83.0Y-109.25
X83.0Y-110.75
X83.0Y-112.25
X83.5Y-94.7
X83.6Y-113.3
X84.5Y-94.0
X84.5Y-114.0
X86.0Y-94.0
X86.0Y-114.0
X87.5Y-94.0
X87.5Y-114.0
X89.0Y-94.0
X89.0Y-114.0
X90.5Y-94.0
X90.5Y-114.0
X92.0Y-94.0
X92.0Y-114.0
X92.9Y-100.8
X93.0Y-99.0
X93.5Y-94.0
X93.5Y-114.0
X94.2Y-102.9
X94.5Y-98.2
X94.6Y-101.7
X94.9Y-104.2
X94.9Y-106.2
X94.9Y-108.4
X95.0Y-94.0
X95.0Y-114.0
X95.6Y-110.4
X95.8Y-99.0
X96.0Y-112.2
X96.5Y-94.0
X96.5Y-114.0
X96.6Y-111.0
X97.2Y-98.3
X98.0Y-94.0
X98.0Y-114.0
X98.13Y-106.0
X98.6Y-99.1
X99.5Y-94.0
X99.5Y-114.0
X99.9Y-98.3
X100.3Y-101.6
X101.0Y-94.0
X101.0Y-114.0
X101.3Y-109.8
X101.4Y-99.0
X101.4Y-101.0
X102.5Y-94.0
X102.5Y-114.0
X102.6Y-105.8
X102.7Y-98.3
X102.7Y-101.8
X103.7Y-112.7
X103.9Y-101.2
X103.9Y-104.5
X104.0Y-94.0
X104.0Y-98.8
X104.0Y-114.0
X104.8Y-98.2
X105.0Y-110.6
X105.1Y-112.7
X105.5Y-94.0
X105.5Y-114.0
X105.7Y-103.4
X105.8Y-101.7
X106.3Y-98.2
X107.0Y-94.0
X107.0Y-114.0
X107.2Y-100.3
X107.2Y-103.4
X107.2Y-105.3
X107.3Y-99.0
X108.0Y-112.4
X108.4Y-101.5
X108.5Y-94.0
X108.5Y-114.0
X109.0Y-110.1
X109.3Y-108.8
X109.6Y-102.7
X109.7Y-105.4
X110.0Y-94.0
X110.0Y-114.0
X111.5Y-94.0
X111.5Y-114.0
X113.0Y-94.0
X113.0Y-114.0
X114.5Y-94.0
X114.5Y-114.0
X115.5Y-94.6
X115.5Y-113.3
X116.0Y-95.75
X116.0Y-97.25
X116.0Y-98.75
X116.0Y-100.25
X116.0Y-101.75
X116.0Y-103.25
X116.0Y-104.75
X116.0Y-106.25
X116.0Y-107.75
X116.0Y-109.25
X116.0Y-110.75
X116.0Y-112.25
T2
X94.46Y-100.0
X95.845Y-102.84
X97.23Y-100.0
X98.615Y-102.84
X100.0Y-100.0
X101.385Y-102.84
X102.77Y-100.0
X104.155Y-102.84
X105.54Y-100.0
M30
