%TF.GenerationSoftware,KiCad,Pcbnew,9.0.4-9.0.4-0~ubuntu25.04.1*%
%TF.CreationDate,2025-11-25T09:33:18+01:00*%
%TF.ProjectId,Inverter_Motor_Adapt,496e7665-7274-4657-925f-4d6f746f725f,rev?*%
%TF.SameCoordinates,Original*%
%TF.FileFunction,Legend,Top*%
%TF.FilePolarity,Positive*%
%FSLAX46Y46*%
G04 Gerber Fmt 4.6, Leading zero omitted, Abs format (unit mm)*
G04 Created by KiCad (PCBNEW 9.0.4-9.0.4-0~ubuntu25.04.1) date 2025-11-25 09:33:18*
%MOMM*%
%LPD*%
G01*
G04 APERTURE LIST*
%ADD10C,0.100000*%
%ADD11C,0.150000*%
%ADD12C,0.120000*%
G04 APERTURE END LIST*
D10*
X105600000Y-98100000D02*
G75*
G02*
X105400000Y-98100000I-100000J0D01*
G01*
X105400000Y-98100000D02*
G75*
G02*
X105600000Y-98100000I100000J0D01*
G01*
D11*
X106854819Y-106090475D02*
X105854819Y-106090475D01*
X105854819Y-106090475D02*
X105854819Y-105852380D01*
X105854819Y-105852380D02*
X105902438Y-105709523D01*
X105902438Y-105709523D02*
X105997676Y-105614285D01*
X105997676Y-105614285D02*
X106092914Y-105566666D01*
X106092914Y-105566666D02*
X106283390Y-105519047D01*
X106283390Y-105519047D02*
X106426247Y-105519047D01*
X106426247Y-105519047D02*
X106616723Y-105566666D01*
X106616723Y-105566666D02*
X106711961Y-105614285D01*
X106711961Y-105614285D02*
X106807200Y-105709523D01*
X106807200Y-105709523D02*
X106854819Y-105852380D01*
X106854819Y-105852380D02*
X106854819Y-106090475D01*
X106854819Y-104566666D02*
X106854819Y-105138094D01*
X106854819Y-104852380D02*
X105854819Y-104852380D01*
X105854819Y-104852380D02*
X105997676Y-104947618D01*
X105997676Y-104947618D02*
X106092914Y-105042856D01*
X106092914Y-105042856D02*
X106140533Y-105138094D01*
X105854819Y-103947618D02*
X105854819Y-103852380D01*
X105854819Y-103852380D02*
X105902438Y-103757142D01*
X105902438Y-103757142D02*
X105950057Y-103709523D01*
X105950057Y-103709523D02*
X106045295Y-103661904D01*
X106045295Y-103661904D02*
X106235771Y-103614285D01*
X106235771Y-103614285D02*
X106473866Y-103614285D01*
X106473866Y-103614285D02*
X106664342Y-103661904D01*
X106664342Y-103661904D02*
X106759580Y-103709523D01*
X106759580Y-103709523D02*
X106807200Y-103757142D01*
X106807200Y-103757142D02*
X106854819Y-103852380D01*
X106854819Y-103852380D02*
X106854819Y-103947618D01*
X106854819Y-103947618D02*
X106807200Y-104042856D01*
X106807200Y-104042856D02*
X106759580Y-104090475D01*
X106759580Y-104090475D02*
X106664342Y-104138094D01*
X106664342Y-104138094D02*
X106473866Y-104185713D01*
X106473866Y-104185713D02*
X106235771Y-104185713D01*
X106235771Y-104185713D02*
X106045295Y-104138094D01*
X106045295Y-104138094D02*
X105950057Y-104090475D01*
X105950057Y-104090475D02*
X105902438Y-104042856D01*
X105902438Y-104042856D02*
X105854819Y-103947618D01*
X106854819Y-102661904D02*
X106854819Y-103233332D01*
X106854819Y-102947618D02*
X105854819Y-102947618D01*
X105854819Y-102947618D02*
X105997676Y-103042856D01*
X105997676Y-103042856D02*
X106092914Y-103138094D01*
X106092914Y-103138094D02*
X106140533Y-103233332D01*
X108359580Y-105519047D02*
X108407200Y-105566666D01*
X108407200Y-105566666D02*
X108454819Y-105709523D01*
X108454819Y-105709523D02*
X108454819Y-105804761D01*
X108454819Y-105804761D02*
X108407200Y-105947618D01*
X108407200Y-105947618D02*
X108311961Y-106042856D01*
X108311961Y-106042856D02*
X108216723Y-106090475D01*
X108216723Y-106090475D02*
X108026247Y-106138094D01*
X108026247Y-106138094D02*
X107883390Y-106138094D01*
X107883390Y-106138094D02*
X107692914Y-106090475D01*
X107692914Y-106090475D02*
X107597676Y-106042856D01*
X107597676Y-106042856D02*
X107502438Y-105947618D01*
X107502438Y-105947618D02*
X107454819Y-105804761D01*
X107454819Y-105804761D02*
X107454819Y-105709523D01*
X107454819Y-105709523D02*
X107502438Y-105566666D01*
X107502438Y-105566666D02*
X107550057Y-105519047D01*
X108454819Y-104566666D02*
X108454819Y-105138094D01*
X108454819Y-104852380D02*
X107454819Y-104852380D01*
X107454819Y-104852380D02*
X107597676Y-104947618D01*
X107597676Y-104947618D02*
X107692914Y-105042856D01*
X107692914Y-105042856D02*
X107740533Y-105138094D01*
X107454819Y-103947618D02*
X107454819Y-103852380D01*
X107454819Y-103852380D02*
X107502438Y-103757142D01*
X107502438Y-103757142D02*
X107550057Y-103709523D01*
X107550057Y-103709523D02*
X107645295Y-103661904D01*
X107645295Y-103661904D02*
X107835771Y-103614285D01*
X107835771Y-103614285D02*
X108073866Y-103614285D01*
X108073866Y-103614285D02*
X108264342Y-103661904D01*
X108264342Y-103661904D02*
X108359580Y-103709523D01*
X108359580Y-103709523D02*
X108407200Y-103757142D01*
X108407200Y-103757142D02*
X108454819Y-103852380D01*
X108454819Y-103852380D02*
X108454819Y-103947618D01*
X108454819Y-103947618D02*
X108407200Y-104042856D01*
X108407200Y-104042856D02*
X108359580Y-104090475D01*
X108359580Y-104090475D02*
X108264342Y-104138094D01*
X108264342Y-104138094D02*
X108073866Y-104185713D01*
X108073866Y-104185713D02*
X107835771Y-104185713D01*
X107835771Y-104185713D02*
X107645295Y-104138094D01*
X107645295Y-104138094D02*
X107550057Y-104090475D01*
X107550057Y-104090475D02*
X107502438Y-104042856D01*
X107502438Y-104042856D02*
X107454819Y-103947618D01*
X108454819Y-102661904D02*
X108454819Y-103233332D01*
X108454819Y-102947618D02*
X107454819Y-102947618D01*
X107454819Y-102947618D02*
X107597676Y-103042856D01*
X107597676Y-103042856D02*
X107692914Y-103138094D01*
X107692914Y-103138094D02*
X107740533Y-103233332D01*
X108354819Y-112619047D02*
X107878628Y-112952380D01*
X108354819Y-113190475D02*
X107354819Y-113190475D01*
X107354819Y-113190475D02*
X107354819Y-112809523D01*
X107354819Y-112809523D02*
X107402438Y-112714285D01*
X107402438Y-112714285D02*
X107450057Y-112666666D01*
X107450057Y-112666666D02*
X107545295Y-112619047D01*
X107545295Y-112619047D02*
X107688152Y-112619047D01*
X107688152Y-112619047D02*
X107783390Y-112666666D01*
X107783390Y-112666666D02*
X107831009Y-112714285D01*
X107831009Y-112714285D02*
X107878628Y-112809523D01*
X107878628Y-112809523D02*
X107878628Y-113190475D01*
X108354819Y-111666666D02*
X108354819Y-112238094D01*
X108354819Y-111952380D02*
X107354819Y-111952380D01*
X107354819Y-111952380D02*
X107497676Y-112047618D01*
X107497676Y-112047618D02*
X107592914Y-112142856D01*
X107592914Y-112142856D02*
X107640533Y-112238094D01*
X107354819Y-111047618D02*
X107354819Y-110952380D01*
X107354819Y-110952380D02*
X107402438Y-110857142D01*
X107402438Y-110857142D02*
X107450057Y-110809523D01*
X107450057Y-110809523D02*
X107545295Y-110761904D01*
X107545295Y-110761904D02*
X107735771Y-110714285D01*
X107735771Y-110714285D02*
X107973866Y-110714285D01*
X107973866Y-110714285D02*
X108164342Y-110761904D01*
X108164342Y-110761904D02*
X108259580Y-110809523D01*
X108259580Y-110809523D02*
X108307200Y-110857142D01*
X108307200Y-110857142D02*
X108354819Y-110952380D01*
X108354819Y-110952380D02*
X108354819Y-111047618D01*
X108354819Y-111047618D02*
X108307200Y-111142856D01*
X108307200Y-111142856D02*
X108259580Y-111190475D01*
X108259580Y-111190475D02*
X108164342Y-111238094D01*
X108164342Y-111238094D02*
X107973866Y-111285713D01*
X107973866Y-111285713D02*
X107735771Y-111285713D01*
X107735771Y-111285713D02*
X107545295Y-111238094D01*
X107545295Y-111238094D02*
X107450057Y-111190475D01*
X107450057Y-111190475D02*
X107402438Y-111142856D01*
X107402438Y-111142856D02*
X107354819Y-111047618D01*
X108354819Y-109761904D02*
X108354819Y-110333332D01*
X108354819Y-110047618D02*
X107354819Y-110047618D01*
X107354819Y-110047618D02*
X107497676Y-110142856D01*
X107497676Y-110142856D02*
X107592914Y-110238094D01*
X107592914Y-110238094D02*
X107640533Y-110333332D01*
X103454819Y-111085714D02*
X104169104Y-111085714D01*
X104169104Y-111085714D02*
X104311961Y-111133333D01*
X104311961Y-111133333D02*
X104407200Y-111228571D01*
X104407200Y-111228571D02*
X104454819Y-111371428D01*
X104454819Y-111371428D02*
X104454819Y-111466666D01*
X104454819Y-110085714D02*
X104454819Y-110657142D01*
X104454819Y-110371428D02*
X103454819Y-110371428D01*
X103454819Y-110371428D02*
X103597676Y-110466666D01*
X103597676Y-110466666D02*
X103692914Y-110561904D01*
X103692914Y-110561904D02*
X103740533Y-110657142D01*
X103454819Y-109466666D02*
X103454819Y-109371428D01*
X103454819Y-109371428D02*
X103502438Y-109276190D01*
X103502438Y-109276190D02*
X103550057Y-109228571D01*
X103550057Y-109228571D02*
X103645295Y-109180952D01*
X103645295Y-109180952D02*
X103835771Y-109133333D01*
X103835771Y-109133333D02*
X104073866Y-109133333D01*
X104073866Y-109133333D02*
X104264342Y-109180952D01*
X104264342Y-109180952D02*
X104359580Y-109228571D01*
X104359580Y-109228571D02*
X104407200Y-109276190D01*
X104407200Y-109276190D02*
X104454819Y-109371428D01*
X104454819Y-109371428D02*
X104454819Y-109466666D01*
X104454819Y-109466666D02*
X104407200Y-109561904D01*
X104407200Y-109561904D02*
X104359580Y-109609523D01*
X104359580Y-109609523D02*
X104264342Y-109657142D01*
X104264342Y-109657142D02*
X104073866Y-109704761D01*
X104073866Y-109704761D02*
X103835771Y-109704761D01*
X103835771Y-109704761D02*
X103645295Y-109657142D01*
X103645295Y-109657142D02*
X103550057Y-109609523D01*
X103550057Y-109609523D02*
X103502438Y-109561904D01*
X103502438Y-109561904D02*
X103454819Y-109466666D01*
X103454819Y-108799999D02*
X103454819Y-108133333D01*
X103454819Y-108133333D02*
X104454819Y-108561904D01*
D12*
%TO.C,D101*%
X107135000Y-106340000D02*
X105665000Y-106340000D01*
X105665000Y-106340000D02*
X105665000Y-108800000D01*
X107135000Y-108800000D02*
X107135000Y-106340000D01*
%TO.C,C101*%
X108510000Y-108146267D02*
X108510000Y-107853733D01*
X107490000Y-108146267D02*
X107490000Y-107853733D01*
%TO.C,R101*%
X106922500Y-111854724D02*
X106922500Y-111345276D01*
X105877500Y-111854724D02*
X105877500Y-111345276D01*
%TO.C,J107*%
X103220000Y-106760000D02*
X103220000Y-108035000D01*
X103285000Y-108035000D02*
X103220000Y-108035000D01*
X103285000Y-108035000D02*
X103285000Y-111665000D01*
X96780000Y-108035000D02*
X96715000Y-108035000D01*
X96715000Y-108035000D02*
X96715000Y-111665000D01*
X103285000Y-111665000D02*
X103220000Y-111665000D01*
X96780000Y-111665000D02*
X96715000Y-111665000D01*
%TD*%
M02*
