%TF.GenerationSoftware,KiCad,Pcbnew,9.0.4-9.0.4-0~ubuntu25.04.1*%
%TF.CreationDate,2025-11-25T09:33:18+01:00*%
%TF.ProjectId,Inverter_Motor_Adapt,496e7665-7274-4657-925f-4d6f746f725f,rev?*%
%TF.SameCoordinates,Original*%
%TF.FileFunction,Copper,L2,Bot*%
%TF.FilePolarity,Positive*%
%FSLAX46Y46*%
G04 Gerber Fmt 4.6, Leading zero omitted, Abs format (unit mm)*
G04 Created by KiCad (PCBNEW 9.0.4-9.0.4-0~ubuntu25.04.1) date 2025-11-25 09:33:18*
%MOMM*%
%LPD*%
G01*
G04 APERTURE LIST*
%TA.AperFunction,ComponentPad*%
%ADD10R,1.600000X1.600000*%
%TD*%
%TA.AperFunction,ComponentPad*%
%ADD11C,1.600000*%
%TD*%
%TA.AperFunction,ViaPad*%
%ADD12C,0.600000*%
%TD*%
%TA.AperFunction,Conductor*%
%ADD13C,0.200000*%
%TD*%
G04 APERTURE END LIST*
D10*
%TO.P,J101,1,1*%
%TO.N,+5V*%
X105540000Y-100000000D03*
D11*
%TO.P,J101,2,2*%
%TO.N,GND*%
X102770000Y-100000000D03*
%TO.P,J101,3,3*%
%TO.N,unconnected-(J101-Pad3)*%
X100000000Y-100000000D03*
%TO.P,J101,4,4*%
%TO.N,/{slash}A*%
X97230000Y-100000000D03*
%TO.P,J101,5,5*%
%TO.N,/A*%
X94460000Y-100000000D03*
%TO.P,J101,6,6*%
%TO.N,/{slash}Z*%
X104155000Y-102840000D03*
%TO.P,J101,7,7*%
%TO.N,/Z*%
X101385000Y-102840000D03*
%TO.P,J101,8,8*%
%TO.N,/{slash}B*%
X98615000Y-102840000D03*
%TO.P,J101,9,9*%
%TO.N,/B*%
X95845000Y-102840000D03*
%TD*%
D12*
%TO.N,GND*%
X107300000Y-99000000D03*
X106300000Y-98200000D03*
X104800000Y-98200000D03*
X104000000Y-98800000D03*
X102700000Y-98300000D03*
X101400000Y-99000000D03*
X99900000Y-98300000D03*
X98600000Y-99100000D03*
X97200000Y-98300000D03*
X95800000Y-99000000D03*
X94500000Y-98200000D03*
X93000000Y-99000000D03*
X92900000Y-100800000D03*
X94200000Y-102900000D03*
X94600000Y-101700000D03*
X94900000Y-106200000D03*
X94900000Y-104200000D03*
X94900000Y-108400000D03*
X95600000Y-110400000D03*
X96000000Y-112200000D03*
X105700000Y-103400000D03*
X103900000Y-104500000D03*
X107200000Y-103400000D03*
X108400000Y-101500000D03*
X107200000Y-100300000D03*
X109600000Y-102700000D03*
X109700000Y-105400000D03*
X109300000Y-108800000D03*
X109000000Y-110100000D03*
X108000000Y-112400000D03*
X103700000Y-112700000D03*
X105100000Y-112700000D03*
X107200000Y-105300000D03*
X105800000Y-101700000D03*
X103900000Y-101200000D03*
X101400000Y-101000000D03*
X102700000Y-101800000D03*
X100300000Y-101600000D03*
X102600000Y-105800000D03*
X101300000Y-109800000D03*
X105000000Y-110600000D03*
X115500000Y-94600000D03*
X115500000Y-113300000D03*
X83600000Y-113300000D03*
X83500000Y-94700000D03*
X83000000Y-107750000D03*
X83000000Y-97250000D03*
X83000000Y-101750000D03*
X83000000Y-112250000D03*
X83000000Y-98750000D03*
X83000000Y-109250000D03*
X83000000Y-100250000D03*
X83000000Y-106250000D03*
X83000000Y-95750000D03*
X83000000Y-103250000D03*
X83000000Y-110750000D03*
X83000000Y-104750000D03*
X116000000Y-112250000D03*
X116000000Y-110750000D03*
X116000000Y-109250000D03*
X116000000Y-107750000D03*
X116000000Y-106250000D03*
X116000000Y-104750000D03*
X116000000Y-103250000D03*
X116000000Y-101750000D03*
X116000000Y-100250000D03*
X116000000Y-98750000D03*
X116000000Y-97250000D03*
X116000000Y-95750000D03*
X84500000Y-94000000D03*
X102500000Y-94000000D03*
X113000000Y-94000000D03*
X86000000Y-94000000D03*
X108500000Y-94000000D03*
X90500000Y-94000000D03*
X107000000Y-94000000D03*
X98000000Y-94000000D03*
X105500000Y-94000000D03*
X93500000Y-94000000D03*
X87500000Y-94000000D03*
X95000000Y-94000000D03*
X114500000Y-94000000D03*
X110000000Y-94000000D03*
X99500000Y-94000000D03*
X104000000Y-94000000D03*
X111500000Y-94000000D03*
X92000000Y-94000000D03*
X101000000Y-94000000D03*
X96500000Y-94000000D03*
X89000000Y-94000000D03*
X89000000Y-114000000D03*
X96500000Y-114000000D03*
X101000000Y-114000000D03*
X92000000Y-114000000D03*
X111500000Y-114000000D03*
X104000000Y-114000000D03*
X99500000Y-114000000D03*
X110000000Y-114000000D03*
X114500000Y-114000000D03*
X95000000Y-114000000D03*
X87500000Y-114000000D03*
X93500000Y-114000000D03*
X105500000Y-114000000D03*
X98000000Y-114000000D03*
X107000000Y-114000000D03*
X90500000Y-114000000D03*
X108500000Y-114000000D03*
X86000000Y-114000000D03*
X113000000Y-114000000D03*
X102500000Y-114000000D03*
X84500000Y-114000000D03*
%TO.N,/Z*%
X96600000Y-111000000D03*
%TO.N,/{slash}Z*%
X98130000Y-106000000D03*
%TD*%
D13*
%TO.N,/Z*%
X96600000Y-111000000D02*
X97400000Y-110200000D01*
X97400000Y-110200000D02*
X97400000Y-105880057D01*
X97400000Y-105880057D02*
X100440057Y-102840000D01*
X100440057Y-102840000D02*
X101385000Y-102840000D01*
%TO.N,/{slash}Z*%
X100995000Y-106000000D02*
X104155000Y-102840000D01*
X98130000Y-106000000D02*
X100995000Y-106000000D01*
%TD*%
%TA.AperFunction,Conductor*%
%TO.N,GND*%
G36*
X114003736Y-93500726D02*
G01*
X114293796Y-93518271D01*
X114308659Y-93520076D01*
X114590798Y-93571780D01*
X114605335Y-93575363D01*
X114879172Y-93660695D01*
X114893163Y-93666000D01*
X115154743Y-93783727D01*
X115167989Y-93790680D01*
X115413465Y-93939075D01*
X115425776Y-93947573D01*
X115651573Y-94124473D01*
X115662781Y-94134403D01*
X115865596Y-94337218D01*
X115875526Y-94348426D01*
X115995481Y-94501538D01*
X116052422Y-94574217D01*
X116060928Y-94586540D01*
X116209316Y-94832004D01*
X116216275Y-94845263D01*
X116333997Y-95106831D01*
X116339306Y-95120832D01*
X116424635Y-95394663D01*
X116428219Y-95409201D01*
X116479923Y-95691340D01*
X116481728Y-95706205D01*
X116499274Y-95996263D01*
X116499500Y-96003750D01*
X116499500Y-111996249D01*
X116499274Y-112003736D01*
X116481728Y-112293794D01*
X116479923Y-112308659D01*
X116428219Y-112590798D01*
X116424635Y-112605336D01*
X116339306Y-112879167D01*
X116333997Y-112893168D01*
X116216275Y-113154736D01*
X116209316Y-113167995D01*
X116060928Y-113413459D01*
X116052422Y-113425782D01*
X115875526Y-113651573D01*
X115865596Y-113662781D01*
X115662781Y-113865596D01*
X115651573Y-113875526D01*
X115425782Y-114052422D01*
X115413459Y-114060928D01*
X115167995Y-114209316D01*
X115154736Y-114216275D01*
X114893168Y-114333997D01*
X114879167Y-114339306D01*
X114605336Y-114424635D01*
X114590798Y-114428219D01*
X114308659Y-114479923D01*
X114293794Y-114481728D01*
X114003736Y-114499274D01*
X113996249Y-114499500D01*
X85003751Y-114499500D01*
X84996264Y-114499274D01*
X84706205Y-114481728D01*
X84691340Y-114479923D01*
X84409201Y-114428219D01*
X84394663Y-114424635D01*
X84120832Y-114339306D01*
X84106831Y-114333997D01*
X83845263Y-114216275D01*
X83832004Y-114209316D01*
X83586540Y-114060928D01*
X83574217Y-114052422D01*
X83348426Y-113875526D01*
X83337218Y-113865596D01*
X83134403Y-113662781D01*
X83124473Y-113651573D01*
X82947573Y-113425776D01*
X82939075Y-113413465D01*
X82790680Y-113167989D01*
X82783727Y-113154743D01*
X82666000Y-112893163D01*
X82660693Y-112879167D01*
X82575364Y-112605336D01*
X82571780Y-112590798D01*
X82520076Y-112308659D01*
X82518271Y-112293794D01*
X82500726Y-112003736D01*
X82500500Y-111996249D01*
X82500500Y-101298711D01*
X85649500Y-101298711D01*
X85649500Y-101541288D01*
X85681161Y-101781785D01*
X85743947Y-102016104D01*
X85802884Y-102158390D01*
X85836776Y-102240212D01*
X85958064Y-102450289D01*
X85958066Y-102450292D01*
X85958067Y-102450293D01*
X86105733Y-102642736D01*
X86105739Y-102642743D01*
X86277256Y-102814260D01*
X86277262Y-102814265D01*
X86469711Y-102961936D01*
X86679788Y-103083224D01*
X86903900Y-103176054D01*
X87138211Y-103238838D01*
X87318586Y-103262584D01*
X87378711Y-103270500D01*
X87378712Y-103270500D01*
X87621289Y-103270500D01*
X87669388Y-103264167D01*
X87861789Y-103238838D01*
X88096100Y-103176054D01*
X88320212Y-103083224D01*
X88530289Y-102961936D01*
X88722738Y-102814265D01*
X88799355Y-102737648D01*
X94544500Y-102737648D01*
X94544500Y-102942351D01*
X94576522Y-103144534D01*
X94639781Y-103339223D01*
X94732715Y-103521613D01*
X94853028Y-103687213D01*
X94997786Y-103831971D01*
X95152749Y-103944556D01*
X95163390Y-103952287D01*
X95279607Y-104011503D01*
X95345776Y-104045218D01*
X95345778Y-104045218D01*
X95345781Y-104045220D01*
X95450137Y-104079127D01*
X95540465Y-104108477D01*
X95641557Y-104124488D01*
X95742648Y-104140500D01*
X95742649Y-104140500D01*
X95947351Y-104140500D01*
X95947352Y-104140500D01*
X96149534Y-104108477D01*
X96344219Y-104045220D01*
X96526610Y-103952287D01*
X96619590Y-103884732D01*
X96692213Y-103831971D01*
X96692215Y-103831968D01*
X96692219Y-103831966D01*
X96836966Y-103687219D01*
X96836968Y-103687215D01*
X96836971Y-103687213D01*
X96889732Y-103614590D01*
X96957287Y-103521610D01*
X97050220Y-103339219D01*
X97112069Y-103148868D01*
X97151507Y-103091193D01*
X97215866Y-103063995D01*
X97284712Y-103075910D01*
X97336188Y-103123154D01*
X97347931Y-103148868D01*
X97409781Y-103339223D01*
X97502715Y-103521613D01*
X97623028Y-103687213D01*
X97767786Y-103831971D01*
X97922749Y-103944556D01*
X97933390Y-103952287D01*
X98115781Y-104045220D01*
X98126986Y-104048860D01*
X98184660Y-104088297D01*
X98211859Y-104152656D01*
X98199945Y-104221502D01*
X98176348Y-104254472D01*
X97031286Y-105399535D01*
X96919481Y-105511339D01*
X96919475Y-105511347D01*
X96876762Y-105585330D01*
X96876762Y-105585331D01*
X96840423Y-105648272D01*
X96799499Y-105801000D01*
X96799499Y-105801002D01*
X96799499Y-105969103D01*
X96799500Y-105969116D01*
X96799500Y-109899903D01*
X96779815Y-109966942D01*
X96763181Y-109987584D01*
X96585339Y-110165425D01*
X96524016Y-110198910D01*
X96521850Y-110199361D01*
X96366508Y-110230261D01*
X96366498Y-110230264D01*
X96220827Y-110290602D01*
X96220814Y-110290609D01*
X96089711Y-110378210D01*
X96089707Y-110378213D01*
X95978213Y-110489707D01*
X95978210Y-110489711D01*
X95890609Y-110620814D01*
X95890602Y-110620827D01*
X95830264Y-110766498D01*
X95830261Y-110766510D01*
X95799500Y-110921153D01*
X95799500Y-111078846D01*
X95830261Y-111233489D01*
X95830264Y-111233501D01*
X95890602Y-111379172D01*
X95890609Y-111379185D01*
X95978210Y-111510288D01*
X95978213Y-111510292D01*
X96089707Y-111621786D01*
X96089711Y-111621789D01*
X96220814Y-111709390D01*
X96220827Y-111709397D01*
X96366498Y-111769735D01*
X96366503Y-111769737D01*
X96521153Y-111800499D01*
X96521156Y-111800500D01*
X96521158Y-111800500D01*
X96678844Y-111800500D01*
X96678845Y-111800499D01*
X96833497Y-111769737D01*
X96979179Y-111709394D01*
X97110289Y-111621789D01*
X97221789Y-111510289D01*
X97309394Y-111379179D01*
X97369737Y-111233497D01*
X97389113Y-111136085D01*
X97400638Y-111078150D01*
X97433023Y-111016239D01*
X97434523Y-111014711D01*
X97768713Y-110680521D01*
X97768716Y-110680520D01*
X97880520Y-110568716D01*
X97930639Y-110481904D01*
X97959577Y-110431785D01*
X98000501Y-110279057D01*
X98000501Y-110120943D01*
X98000501Y-110113348D01*
X98000500Y-110113330D01*
X98000500Y-106924500D01*
X98020185Y-106857461D01*
X98072989Y-106811706D01*
X98124500Y-106800500D01*
X98208844Y-106800500D01*
X98208845Y-106800499D01*
X98363497Y-106769737D01*
X98509179Y-106709394D01*
X98509185Y-106709390D01*
X98640875Y-106621398D01*
X98707553Y-106600520D01*
X98709766Y-106600500D01*
X100908331Y-106600500D01*
X100908347Y-106600501D01*
X100915943Y-106600501D01*
X101074054Y-106600501D01*
X101074057Y-106600501D01*
X101226785Y-106559577D01*
X101276904Y-106530639D01*
X101363716Y-106480520D01*
X101475520Y-106368716D01*
X101475520Y-106368714D01*
X101485728Y-106358507D01*
X101485730Y-106358504D01*
X103710158Y-104134075D01*
X103771479Y-104100592D01*
X103836151Y-104103825D01*
X103850466Y-104108477D01*
X104052648Y-104140500D01*
X104052649Y-104140500D01*
X104257351Y-104140500D01*
X104257352Y-104140500D01*
X104459534Y-104108477D01*
X104654219Y-104045220D01*
X104836610Y-103952287D01*
X104929590Y-103884732D01*
X105002213Y-103831971D01*
X105002215Y-103831968D01*
X105002219Y-103831966D01*
X105146966Y-103687219D01*
X105146968Y-103687215D01*
X105146971Y-103687213D01*
X105199732Y-103614590D01*
X105267287Y-103521610D01*
X105360220Y-103339219D01*
X105423477Y-103144534D01*
X105455500Y-102942352D01*
X105455500Y-102737648D01*
X105440468Y-102642743D01*
X105423477Y-102535465D01*
X105379900Y-102401349D01*
X105360220Y-102340781D01*
X105360218Y-102340778D01*
X105360218Y-102340776D01*
X105326503Y-102274607D01*
X105267287Y-102158390D01*
X105259556Y-102147749D01*
X105146971Y-101992786D01*
X105002213Y-101848028D01*
X104836613Y-101727715D01*
X104836612Y-101727714D01*
X104836610Y-101727713D01*
X104779653Y-101698691D01*
X104654223Y-101634781D01*
X104459534Y-101571522D01*
X104284995Y-101543878D01*
X104257352Y-101539500D01*
X104052648Y-101539500D01*
X104028329Y-101543351D01*
X103850465Y-101571522D01*
X103655776Y-101634781D01*
X103473386Y-101727715D01*
X103307786Y-101848028D01*
X103163028Y-101992786D01*
X103042715Y-102158386D01*
X102949781Y-102340776D01*
X102887931Y-102531131D01*
X102848493Y-102588806D01*
X102784134Y-102616004D01*
X102715288Y-102604089D01*
X102663812Y-102556845D01*
X102652069Y-102531131D01*
X102609900Y-102401349D01*
X102590220Y-102340781D01*
X102590218Y-102340778D01*
X102590218Y-102340776D01*
X102556503Y-102274607D01*
X102497287Y-102158390D01*
X102489556Y-102147749D01*
X102376971Y-101992786D01*
X102232213Y-101848028D01*
X102066613Y-101727715D01*
X102066612Y-101727714D01*
X102066610Y-101727713D01*
X102009653Y-101698691D01*
X101884223Y-101634781D01*
X101689534Y-101571522D01*
X101514995Y-101543878D01*
X101487352Y-101539500D01*
X101282648Y-101539500D01*
X101258329Y-101543351D01*
X101080465Y-101571522D01*
X100885776Y-101634781D01*
X100703386Y-101727715D01*
X100537786Y-101848028D01*
X100393028Y-101992786D01*
X100272714Y-102158386D01*
X100228149Y-102245848D01*
X100215710Y-102259018D01*
X100207412Y-102275116D01*
X100180557Y-102296237D01*
X100180174Y-102296643D01*
X100179670Y-102296935D01*
X100158157Y-102309357D01*
X100158152Y-102309360D01*
X100114746Y-102334420D01*
X100071342Y-102359479D01*
X100071339Y-102359481D01*
X100029471Y-102401349D01*
X99968148Y-102434833D01*
X99898456Y-102429848D01*
X99842523Y-102387976D01*
X99823860Y-102351985D01*
X99820220Y-102340781D01*
X99727287Y-102158390D01*
X99719556Y-102147749D01*
X99606971Y-101992786D01*
X99462213Y-101848028D01*
X99296613Y-101727715D01*
X99296612Y-101727714D01*
X99296610Y-101727713D01*
X99239653Y-101698691D01*
X99114223Y-101634781D01*
X98919534Y-101571522D01*
X98744995Y-101543878D01*
X98717352Y-101539500D01*
X98512648Y-101539500D01*
X98488329Y-101543351D01*
X98310465Y-101571522D01*
X98115776Y-101634781D01*
X97933386Y-101727715D01*
X97767786Y-101848028D01*
X97623028Y-101992786D01*
X97502715Y-102158386D01*
X97409781Y-102340776D01*
X97347931Y-102531131D01*
X97308493Y-102588806D01*
X97244134Y-102616004D01*
X97175288Y-102604089D01*
X97123812Y-102556845D01*
X97112069Y-102531131D01*
X97069900Y-102401349D01*
X97050220Y-102340781D01*
X97050218Y-102340778D01*
X97050218Y-102340776D01*
X97016503Y-102274607D01*
X96957287Y-102158390D01*
X96949556Y-102147749D01*
X96836971Y-101992786D01*
X96692213Y-101848028D01*
X96526613Y-101727715D01*
X96526612Y-101727714D01*
X96526610Y-101727713D01*
X96469653Y-101698691D01*
X96344223Y-101634781D01*
X96149534Y-101571522D01*
X95974995Y-101543878D01*
X95947352Y-101539500D01*
X95742648Y-101539500D01*
X95718329Y-101543351D01*
X95540465Y-101571522D01*
X95345776Y-101634781D01*
X95163386Y-101727715D01*
X94997786Y-101848028D01*
X94853028Y-101992786D01*
X94732715Y-102158386D01*
X94639781Y-102340776D01*
X94576522Y-102535465D01*
X94544500Y-102737648D01*
X88799355Y-102737648D01*
X88891909Y-102645095D01*
X88894260Y-102642743D01*
X88894265Y-102642738D01*
X89041936Y-102450289D01*
X89163224Y-102240212D01*
X89256054Y-102016100D01*
X89318838Y-101781789D01*
X89350500Y-101541288D01*
X89350500Y-101298712D01*
X89346455Y-101267990D01*
X89338191Y-101205218D01*
X89318838Y-101058211D01*
X89256054Y-100823900D01*
X89163224Y-100599788D01*
X89041936Y-100389711D01*
X88894265Y-100197262D01*
X88894260Y-100197256D01*
X88722743Y-100025739D01*
X88722736Y-100025733D01*
X88677669Y-99991152D01*
X88555812Y-99897648D01*
X93159500Y-99897648D01*
X93159500Y-100102351D01*
X93191522Y-100304534D01*
X93254781Y-100499223D01*
X93318691Y-100624653D01*
X93347585Y-100681359D01*
X93347715Y-100681613D01*
X93468028Y-100847213D01*
X93612786Y-100991971D01*
X93703964Y-101058214D01*
X93778390Y-101112287D01*
X93867212Y-101157544D01*
X93960776Y-101205218D01*
X93960778Y-101205218D01*
X93960781Y-101205220D01*
X94065137Y-101239127D01*
X94155465Y-101268477D01*
X94256557Y-101284488D01*
X94357648Y-101300500D01*
X94357649Y-101300500D01*
X94562351Y-101300500D01*
X94562352Y-101300500D01*
X94764534Y-101268477D01*
X94959219Y-101205220D01*
X95141610Y-101112287D01*
X95237901Y-101042328D01*
X95307213Y-100991971D01*
X95307215Y-100991968D01*
X95307219Y-100991966D01*
X95451966Y-100847219D01*
X95451968Y-100847215D01*
X95451971Y-100847213D01*
X95504732Y-100774590D01*
X95572287Y-100681610D01*
X95665220Y-100499219D01*
X95727069Y-100308868D01*
X95766507Y-100251193D01*
X95830866Y-100223995D01*
X95899712Y-100235910D01*
X95951188Y-100283154D01*
X95962931Y-100308868D01*
X96024781Y-100499223D01*
X96088691Y-100624653D01*
X96117585Y-100681359D01*
X96117715Y-100681613D01*
X96238028Y-100847213D01*
X96382786Y-100991971D01*
X96473964Y-101058214D01*
X96548390Y-101112287D01*
X96637212Y-101157544D01*
X96730776Y-101205218D01*
X96730778Y-101205218D01*
X96730781Y-101205220D01*
X96835137Y-101239127D01*
X96925465Y-101268477D01*
X97026557Y-101284488D01*
X97127648Y-101300500D01*
X97127649Y-101300500D01*
X97332351Y-101300500D01*
X97332352Y-101300500D01*
X97534534Y-101268477D01*
X97729219Y-101205220D01*
X97911610Y-101112287D01*
X98007901Y-101042328D01*
X98077213Y-100991971D01*
X98077215Y-100991968D01*
X98077219Y-100991966D01*
X98221966Y-100847219D01*
X98221968Y-100847215D01*
X98221971Y-100847213D01*
X98274732Y-100774590D01*
X98342287Y-100681610D01*
X98435220Y-100499219D01*
X98497069Y-100308868D01*
X98536507Y-100251193D01*
X98600866Y-100223995D01*
X98669712Y-100235910D01*
X98721188Y-100283154D01*
X98732931Y-100308868D01*
X98794781Y-100499223D01*
X98858691Y-100624653D01*
X98887585Y-100681359D01*
X98887715Y-100681613D01*
X99008028Y-100847213D01*
X99152786Y-100991971D01*
X99243964Y-101058214D01*
X99318390Y-101112287D01*
X99407212Y-101157544D01*
X99500776Y-101205218D01*
X99500778Y-101205218D01*
X99500781Y-101205220D01*
X99605137Y-101239127D01*
X99695465Y-101268477D01*
X99796557Y-101284488D01*
X99897648Y-101300500D01*
X99897649Y-101300500D01*
X100102351Y-101300500D01*
X100102352Y-101300500D01*
X100304534Y-101268477D01*
X100499219Y-101205220D01*
X100681610Y-101112287D01*
X100777901Y-101042328D01*
X100847213Y-100991971D01*
X100847215Y-100991968D01*
X100847219Y-100991966D01*
X100991966Y-100847219D01*
X100991968Y-100847215D01*
X100991971Y-100847213D01*
X101044732Y-100774590D01*
X101112287Y-100681610D01*
X101205220Y-100499219D01*
X101267331Y-100308060D01*
X101306769Y-100250385D01*
X101371127Y-100223187D01*
X101439974Y-100235102D01*
X101491449Y-100282346D01*
X101503193Y-100308060D01*
X101565244Y-100499031D01*
X101658141Y-100681350D01*
X101658147Y-100681359D01*
X101690523Y-100725921D01*
X101690524Y-100725922D01*
X102287037Y-100129409D01*
X102304075Y-100192993D01*
X102369901Y-100307007D01*
X102462993Y-100400099D01*
X102577007Y-100465925D01*
X102640590Y-100482962D01*
X102044076Y-101079474D01*
X102088650Y-101111859D01*
X102270968Y-101204755D01*
X102465582Y-101267990D01*
X102667683Y-101300000D01*
X102872317Y-101300000D01*
X103074417Y-101267990D01*
X103269031Y-101204755D01*
X103451349Y-101111859D01*
X103495921Y-101079474D01*
X102899409Y-100482962D01*
X102962993Y-100465925D01*
X103077007Y-100400099D01*
X103170099Y-100307007D01*
X103235925Y-100192993D01*
X103252962Y-100129410D01*
X103849474Y-100725922D01*
X103849474Y-100725921D01*
X103881859Y-100681349D01*
X103974755Y-100499029D01*
X103997569Y-100428817D01*
X104037006Y-100371142D01*
X104101365Y-100343943D01*
X104170211Y-100355857D01*
X104221687Y-100403101D01*
X104239500Y-100467135D01*
X104239500Y-100847869D01*
X104239501Y-100847876D01*
X104245908Y-100907483D01*
X104296202Y-101042328D01*
X104296206Y-101042335D01*
X104382452Y-101157544D01*
X104382455Y-101157547D01*
X104497664Y-101243793D01*
X104497671Y-101243797D01*
X104632517Y-101294091D01*
X104632516Y-101294091D01*
X104639444Y-101294835D01*
X104692127Y-101300500D01*
X106387872Y-101300499D01*
X106404505Y-101298711D01*
X110649500Y-101298711D01*
X110649500Y-101541288D01*
X110681161Y-101781785D01*
X110743947Y-102016104D01*
X110802884Y-102158390D01*
X110836776Y-102240212D01*
X110958064Y-102450289D01*
X110958066Y-102450292D01*
X110958067Y-102450293D01*
X111105733Y-102642736D01*
X111105739Y-102642743D01*
X111277256Y-102814260D01*
X111277262Y-102814265D01*
X111469711Y-102961936D01*
X111679788Y-103083224D01*
X111903900Y-103176054D01*
X112138211Y-103238838D01*
X112318586Y-103262584D01*
X112378711Y-103270500D01*
X112378712Y-103270500D01*
X112621289Y-103270500D01*
X112669388Y-103264167D01*
X112861789Y-103238838D01*
X113096100Y-103176054D01*
X113320212Y-103083224D01*
X113530289Y-102961936D01*
X113722738Y-102814265D01*
X113894265Y-102642738D01*
X114041936Y-102450289D01*
X114163224Y-102240212D01*
X114256054Y-102016100D01*
X114318838Y-101781789D01*
X114350500Y-101541288D01*
X114350500Y-101298712D01*
X114346455Y-101267990D01*
X114338191Y-101205218D01*
X114318838Y-101058211D01*
X114256054Y-100823900D01*
X114163224Y-100599788D01*
X114041936Y-100389711D01*
X113894265Y-100197262D01*
X113894260Y-100197256D01*
X113722743Y-100025739D01*
X113722736Y-100025733D01*
X113530293Y-99878067D01*
X113530292Y-99878066D01*
X113530289Y-99878064D01*
X113334278Y-99764897D01*
X113320214Y-99756777D01*
X113320205Y-99756773D01*
X113096104Y-99663947D01*
X112861785Y-99601161D01*
X112621289Y-99569500D01*
X112621288Y-99569500D01*
X112378712Y-99569500D01*
X112378711Y-99569500D01*
X112138214Y-99601161D01*
X111903895Y-99663947D01*
X111679794Y-99756773D01*
X111679785Y-99756777D01*
X111469706Y-99878067D01*
X111277263Y-100025733D01*
X111277256Y-100025739D01*
X111105739Y-100197256D01*
X111105733Y-100197263D01*
X110958067Y-100389706D01*
X110958064Y-100389710D01*
X110958064Y-100389711D01*
X110950333Y-100403101D01*
X110836777Y-100599785D01*
X110836773Y-100599794D01*
X110743947Y-100823895D01*
X110681161Y-101058214D01*
X110649500Y-101298711D01*
X106404505Y-101298711D01*
X106447483Y-101294091D01*
X106582331Y-101243796D01*
X106697546Y-101157546D01*
X106783796Y-101042331D01*
X106834091Y-100907483D01*
X106840500Y-100847873D01*
X106840499Y-99152128D01*
X106834091Y-99092517D01*
X106783796Y-98957669D01*
X106783795Y-98957668D01*
X106783793Y-98957664D01*
X106697547Y-98842455D01*
X106697544Y-98842452D01*
X106582335Y-98756206D01*
X106582328Y-98756202D01*
X106447482Y-98705908D01*
X106447483Y-98705908D01*
X106387883Y-98699501D01*
X106387881Y-98699500D01*
X106387873Y-98699500D01*
X106387864Y-98699500D01*
X104692129Y-98699500D01*
X104692123Y-98699501D01*
X104632516Y-98705908D01*
X104497671Y-98756202D01*
X104497664Y-98756206D01*
X104382455Y-98842452D01*
X104382452Y-98842455D01*
X104296206Y-98957664D01*
X104296202Y-98957671D01*
X104245908Y-99092517D01*
X104239501Y-99152116D01*
X104239501Y-99152123D01*
X104239500Y-99152135D01*
X104239500Y-99532863D01*
X104219815Y-99599902D01*
X104167011Y-99645657D01*
X104097853Y-99655601D01*
X104034297Y-99626576D01*
X103997569Y-99571182D01*
X103974754Y-99500968D01*
X103881859Y-99318650D01*
X103849474Y-99274077D01*
X103849474Y-99274076D01*
X103252962Y-99870589D01*
X103235925Y-99807007D01*
X103170099Y-99692993D01*
X103077007Y-99599901D01*
X102962993Y-99534075D01*
X102899408Y-99517037D01*
X103495922Y-98920524D01*
X103495921Y-98920523D01*
X103451359Y-98888147D01*
X103451350Y-98888141D01*
X103269031Y-98795244D01*
X103074417Y-98732009D01*
X102872317Y-98700000D01*
X102667683Y-98700000D01*
X102465582Y-98732009D01*
X102270968Y-98795244D01*
X102088644Y-98888143D01*
X102044077Y-98920523D01*
X102044077Y-98920524D01*
X102640591Y-99517037D01*
X102577007Y-99534075D01*
X102462993Y-99599901D01*
X102369901Y-99692993D01*
X102304075Y-99807007D01*
X102287037Y-99870590D01*
X101690524Y-99274077D01*
X101690523Y-99274077D01*
X101658143Y-99318644D01*
X101565244Y-99500968D01*
X101503193Y-99691939D01*
X101463755Y-99749614D01*
X101399396Y-99776812D01*
X101330550Y-99764897D01*
X101279074Y-99717652D01*
X101267331Y-99691938D01*
X101246093Y-99626576D01*
X101205220Y-99500781D01*
X101112287Y-99318390D01*
X101080092Y-99274077D01*
X100991971Y-99152786D01*
X100847213Y-99008028D01*
X100681613Y-98887715D01*
X100681612Y-98887714D01*
X100681610Y-98887713D01*
X100624653Y-98858691D01*
X100499223Y-98794781D01*
X100304534Y-98731522D01*
X100129995Y-98703878D01*
X100102352Y-98699500D01*
X99897648Y-98699500D01*
X99873329Y-98703351D01*
X99695465Y-98731522D01*
X99500776Y-98794781D01*
X99318386Y-98887715D01*
X99152786Y-99008028D01*
X99008028Y-99152786D01*
X98887715Y-99318386D01*
X98794781Y-99500776D01*
X98732931Y-99691131D01*
X98693493Y-99748806D01*
X98629134Y-99776004D01*
X98560288Y-99764089D01*
X98508812Y-99716845D01*
X98497069Y-99691131D01*
X98445644Y-99532863D01*
X98435220Y-99500781D01*
X98435218Y-99500778D01*
X98435218Y-99500776D01*
X98342419Y-99318650D01*
X98342287Y-99318390D01*
X98310092Y-99274077D01*
X98221971Y-99152786D01*
X98077213Y-99008028D01*
X97911613Y-98887715D01*
X97911612Y-98887714D01*
X97911610Y-98887713D01*
X97854653Y-98858691D01*
X97729223Y-98794781D01*
X97534534Y-98731522D01*
X97359995Y-98703878D01*
X97332352Y-98699500D01*
X97127648Y-98699500D01*
X97103329Y-98703351D01*
X96925465Y-98731522D01*
X96730776Y-98794781D01*
X96548386Y-98887715D01*
X96382786Y-99008028D01*
X96238028Y-99152786D01*
X96117715Y-99318386D01*
X96024781Y-99500776D01*
X95962931Y-99691131D01*
X95923493Y-99748806D01*
X95859134Y-99776004D01*
X95790288Y-99764089D01*
X95738812Y-99716845D01*
X95727069Y-99691131D01*
X95675644Y-99532863D01*
X95665220Y-99500781D01*
X95665218Y-99500778D01*
X95665218Y-99500776D01*
X95572419Y-99318650D01*
X95572287Y-99318390D01*
X95540092Y-99274077D01*
X95451971Y-99152786D01*
X95307213Y-99008028D01*
X95141613Y-98887715D01*
X95141612Y-98887714D01*
X95141610Y-98887713D01*
X95084653Y-98858691D01*
X94959223Y-98794781D01*
X94764534Y-98731522D01*
X94589995Y-98703878D01*
X94562352Y-98699500D01*
X94357648Y-98699500D01*
X94333329Y-98703351D01*
X94155465Y-98731522D01*
X93960776Y-98794781D01*
X93778386Y-98887715D01*
X93612786Y-99008028D01*
X93468028Y-99152786D01*
X93347715Y-99318386D01*
X93254781Y-99500776D01*
X93191522Y-99695465D01*
X93159500Y-99897648D01*
X88555812Y-99897648D01*
X88530293Y-99878067D01*
X88530292Y-99878066D01*
X88530289Y-99878064D01*
X88334278Y-99764897D01*
X88320214Y-99756777D01*
X88320205Y-99756773D01*
X88096104Y-99663947D01*
X87861785Y-99601161D01*
X87621289Y-99569500D01*
X87621288Y-99569500D01*
X87378712Y-99569500D01*
X87378711Y-99569500D01*
X87138214Y-99601161D01*
X86903895Y-99663947D01*
X86679794Y-99756773D01*
X86679785Y-99756777D01*
X86469706Y-99878067D01*
X86277263Y-100025733D01*
X86277256Y-100025739D01*
X86105739Y-100197256D01*
X86105733Y-100197263D01*
X85958067Y-100389706D01*
X85958064Y-100389710D01*
X85958064Y-100389711D01*
X85950333Y-100403101D01*
X85836777Y-100599785D01*
X85836773Y-100599794D01*
X85743947Y-100823895D01*
X85681161Y-101058214D01*
X85649500Y-101298711D01*
X82500500Y-101298711D01*
X82500500Y-96003750D01*
X82500726Y-95996263D01*
X82518271Y-95706205D01*
X82520076Y-95691340D01*
X82571780Y-95409201D01*
X82575364Y-95394663D01*
X82652096Y-95148422D01*
X82660696Y-95120822D01*
X82665998Y-95106841D01*
X82783731Y-94845249D01*
X82790676Y-94832016D01*
X82939080Y-94586526D01*
X82947567Y-94574230D01*
X83124480Y-94348417D01*
X83134395Y-94337226D01*
X83337226Y-94134395D01*
X83348417Y-94124480D01*
X83574230Y-93947567D01*
X83586526Y-93939080D01*
X83832016Y-93790676D01*
X83845249Y-93783731D01*
X84106841Y-93665998D01*
X84120822Y-93660696D01*
X84394668Y-93575362D01*
X84409197Y-93571780D01*
X84691344Y-93520075D01*
X84706201Y-93518271D01*
X84996264Y-93500726D01*
X85003751Y-93500500D01*
X85065892Y-93500500D01*
X113934108Y-93500500D01*
X113996249Y-93500500D01*
X114003736Y-93500726D01*
G37*
%TD.AperFunction*%
%TD*%
M02*
