%TF.GenerationSoftware,KiCad,Pcbnew,9.0.4-9.0.4-0~ubuntu25.04.1*%
%TF.CreationDate,2025-11-25T09:33:18+01:00*%
%TF.ProjectId,Inverter_Motor_Adapt,496e7665-7274-4657-925f-4d6f746f725f,rev?*%
%TF.SameCoordinates,Original*%
%TF.FileFunction,Copper,L1,Top*%
%TF.FilePolarity,Positive*%
%FSLAX46Y46*%
G04 Gerber Fmt 4.6, Leading zero omitted, Abs format (unit mm)*
G04 Created by KiCad (PCBNEW 9.0.4-9.0.4-0~ubuntu25.04.1) date 2025-11-25 09:33:18*
%MOMM*%
%LPD*%
G01*
G04 APERTURE LIST*
G04 Aperture macros list*
%AMRoundRect*
0 Rectangle with rounded corners*
0 $1 Rounding radius*
0 $2 $3 $4 $5 $6 $7 $8 $9 X,Y pos of 4 corners*
0 Add a 4 corners polygon primitive as box body*
4,1,4,$2,$3,$4,$5,$6,$7,$8,$9,$2,$3,0*
0 Add four circle primitives for the rounded corners*
1,1,$1+$1,$2,$3*
1,1,$1+$1,$4,$5*
1,1,$1+$1,$6,$7*
1,1,$1+$1,$8,$9*
0 Add four rect primitives between the rounded corners*
20,1,$1+$1,$2,$3,$4,$5,0*
20,1,$1+$1,$4,$5,$6,$7,0*
20,1,$1+$1,$6,$7,$8,$9,0*
20,1,$1+$1,$8,$9,$2,$3,0*%
G04 Aperture macros list end*
%TA.AperFunction,SMDPad,CuDef*%
%ADD10RoundRect,0.237500X-0.237500X0.287500X-0.237500X-0.287500X0.237500X-0.287500X0.237500X0.287500X0*%
%TD*%
%TA.AperFunction,SMDPad,CuDef*%
%ADD11RoundRect,0.237500X0.237500X-0.300000X0.237500X0.300000X-0.237500X0.300000X-0.237500X-0.300000X0*%
%TD*%
%TA.AperFunction,SMDPad,CuDef*%
%ADD12RoundRect,0.237500X0.237500X-0.250000X0.237500X0.250000X-0.237500X0.250000X-0.237500X-0.250000X0*%
%TD*%
%TA.AperFunction,ComponentPad*%
%ADD13R,1.600000X1.600000*%
%TD*%
%TA.AperFunction,ComponentPad*%
%ADD14C,1.600000*%
%TD*%
%TA.AperFunction,SMDPad,CuDef*%
%ADD15R,0.740000X2.400000*%
%TD*%
%TA.AperFunction,ViaPad*%
%ADD16C,0.600000*%
%TD*%
%TA.AperFunction,Conductor*%
%ADD17C,0.200000*%
%TD*%
G04 APERTURE END LIST*
D10*
%TO.P,D101,1,K*%
%TO.N,GND*%
X106400000Y-107125000D03*
%TO.P,D101,2,A*%
%TO.N,Net-(D101-A)*%
X106400000Y-108875000D03*
%TD*%
D11*
%TO.P,C101,2*%
%TO.N,GND*%
X108000000Y-107137500D03*
%TO.P,C101,1*%
%TO.N,+5V*%
X108000000Y-108862500D03*
%TD*%
D12*
%TO.P,R101,2*%
%TO.N,Net-(D101-A)*%
X106400000Y-110687500D03*
%TO.P,R101,1*%
%TO.N,+5V*%
X106400000Y-112512500D03*
%TD*%
D13*
%TO.P,J101,1,1*%
%TO.N,+5V*%
X105540000Y-100000000D03*
D14*
%TO.P,J101,2,2*%
%TO.N,GND*%
X102770000Y-100000000D03*
%TO.P,J101,3,3*%
%TO.N,unconnected-(J101-Pad3)*%
X100000000Y-100000000D03*
%TO.P,J101,4,4*%
%TO.N,/{slash}A*%
X97230000Y-100000000D03*
%TO.P,J101,5,5*%
%TO.N,/A*%
X94460000Y-100000000D03*
%TO.P,J101,6,6*%
%TO.N,/{slash}Z*%
X104155000Y-102840000D03*
%TO.P,J101,7,7*%
%TO.N,/Z*%
X101385000Y-102840000D03*
%TO.P,J101,8,8*%
%TO.N,/{slash}B*%
X98615000Y-102840000D03*
%TO.P,J101,9,9*%
%TO.N,/B*%
X95845000Y-102840000D03*
%TD*%
D15*
%TO.P,J107,1,Pin_1*%
%TO.N,unconnected-(J107-Pin_1-Pad1)*%
X102540000Y-107900000D03*
%TO.P,J107,2,Pin_2*%
%TO.N,+5V*%
X102540000Y-111800000D03*
%TO.P,J107,3,Pin_3*%
%TO.N,GND*%
X101270000Y-107900000D03*
%TO.P,J107,4,Pin_4*%
%TO.N,unconnected-(J107-Pin_4-Pad4)*%
X101270000Y-111800000D03*
%TO.P,J107,5,Pin_5*%
%TO.N,/{slash}A*%
X100000000Y-107900000D03*
%TO.P,J107,6,Pin_6*%
%TO.N,/A*%
X100000000Y-111800000D03*
%TO.P,J107,7,Pin_7*%
%TO.N,/{slash}B*%
X98730000Y-107900000D03*
%TO.P,J107,8,Pin_8*%
%TO.N,/B*%
X98730000Y-111800000D03*
%TO.P,J107,9,Pin_9*%
%TO.N,/{slash}Z*%
X97460000Y-107900000D03*
%TO.P,J107,10,Pin_10*%
%TO.N,/Z*%
X97460000Y-111800000D03*
%TD*%
D16*
%TO.N,GND*%
X107300000Y-99000000D03*
X106300000Y-98200000D03*
X104800000Y-98200000D03*
X104000000Y-98800000D03*
X102700000Y-98300000D03*
X101400000Y-99000000D03*
X99900000Y-98300000D03*
X98600000Y-99100000D03*
X97200000Y-98300000D03*
X95800000Y-99000000D03*
X94500000Y-98200000D03*
X93000000Y-99000000D03*
X92900000Y-100800000D03*
X94200000Y-102900000D03*
X94600000Y-101700000D03*
X94900000Y-106200000D03*
X94900000Y-104200000D03*
X94900000Y-108400000D03*
X95600000Y-110400000D03*
X96000000Y-112200000D03*
X105700000Y-103400000D03*
X103900000Y-104500000D03*
X107200000Y-103400000D03*
X108400000Y-101500000D03*
X107200000Y-100300000D03*
X109600000Y-102700000D03*
X109700000Y-105400000D03*
X109300000Y-108800000D03*
X109000000Y-110100000D03*
X108000000Y-112400000D03*
X103700000Y-112700000D03*
X105100000Y-112700000D03*
X107200000Y-105300000D03*
X105800000Y-101700000D03*
X103900000Y-101200000D03*
X101400000Y-101000000D03*
X102700000Y-101800000D03*
X100300000Y-101600000D03*
X102600000Y-105800000D03*
X101300000Y-109800000D03*
X105000000Y-110600000D03*
X115500000Y-94600000D03*
X115500000Y-113300000D03*
X83600000Y-113300000D03*
X83500000Y-94700000D03*
X83000000Y-107750000D03*
X83000000Y-97250000D03*
X83000000Y-101750000D03*
X83000000Y-112250000D03*
X83000000Y-98750000D03*
X83000000Y-109250000D03*
X83000000Y-100250000D03*
X83000000Y-106250000D03*
X83000000Y-95750000D03*
X83000000Y-103250000D03*
X83000000Y-110750000D03*
X83000000Y-104750000D03*
X116000000Y-112250000D03*
X116000000Y-110750000D03*
X116000000Y-109250000D03*
X116000000Y-107750000D03*
X116000000Y-106250000D03*
X116000000Y-104750000D03*
X116000000Y-103250000D03*
X116000000Y-101750000D03*
X116000000Y-100250000D03*
X116000000Y-98750000D03*
X116000000Y-97250000D03*
X116000000Y-95750000D03*
X84500000Y-94000000D03*
X102500000Y-94000000D03*
X113000000Y-94000000D03*
X86000000Y-94000000D03*
X108500000Y-94000000D03*
X90500000Y-94000000D03*
X107000000Y-94000000D03*
X98000000Y-94000000D03*
X105500000Y-94000000D03*
X93500000Y-94000000D03*
X87500000Y-94000000D03*
X95000000Y-94000000D03*
X114500000Y-94000000D03*
X110000000Y-94000000D03*
X99500000Y-94000000D03*
X104000000Y-94000000D03*
X111500000Y-94000000D03*
X92000000Y-94000000D03*
X101000000Y-94000000D03*
X96500000Y-94000000D03*
X89000000Y-94000000D03*
X89000000Y-114000000D03*
X96500000Y-114000000D03*
X101000000Y-114000000D03*
X92000000Y-114000000D03*
X111500000Y-114000000D03*
X104000000Y-114000000D03*
X99500000Y-114000000D03*
X110000000Y-114000000D03*
X114500000Y-114000000D03*
X95000000Y-114000000D03*
X87500000Y-114000000D03*
X93500000Y-114000000D03*
X105500000Y-114000000D03*
X98000000Y-114000000D03*
X107000000Y-114000000D03*
X90500000Y-114000000D03*
X108500000Y-114000000D03*
X86000000Y-114000000D03*
X113000000Y-114000000D03*
X102500000Y-114000000D03*
X84500000Y-114000000D03*
%TO.N,/Z*%
X96600000Y-111000000D03*
%TO.N,/{slash}Z*%
X98130000Y-106000000D03*
%TD*%
D17*
%TO.N,/{slash}A*%
X100000000Y-107900000D02*
X100000000Y-102300000D01*
X97700000Y-100000000D02*
X97230000Y-100000000D01*
X100000000Y-102300000D02*
X97700000Y-100000000D01*
%TO.N,/A*%
X100000000Y-111800000D02*
X100000000Y-110500000D01*
X100000000Y-110500000D02*
X99100000Y-109600000D01*
X99100000Y-109600000D02*
X96988000Y-109600000D01*
X96988000Y-109600000D02*
X96400000Y-109012000D01*
X96400000Y-109012000D02*
X96400000Y-104300000D01*
X96400000Y-104300000D02*
X97200000Y-103500000D01*
X97200000Y-103500000D02*
X97200000Y-102200000D01*
X95000000Y-100000000D02*
X94460000Y-100000000D01*
X97200000Y-102200000D02*
X95000000Y-100000000D01*
%TO.N,/B*%
X98730000Y-111800000D02*
X98730000Y-110331000D01*
X98730000Y-110331000D02*
X98399000Y-110000000D01*
X98399000Y-110000000D02*
X96500000Y-110000000D01*
X96500000Y-110000000D02*
X95845000Y-109345000D01*
X95845000Y-109345000D02*
X95845000Y-102840000D01*
%TO.N,+5V*%
X102540000Y-111800000D02*
X105687500Y-111800000D01*
X105687500Y-111800000D02*
X106400000Y-112512500D01*
%TO.N,/Z*%
X96600000Y-111000000D02*
X96660000Y-111000000D01*
X96660000Y-111000000D02*
X97460000Y-111800000D01*
%TO.N,+5V*%
X108000000Y-108862500D02*
X108776000Y-108086500D01*
X108776000Y-108086500D02*
X108776000Y-103236000D01*
X108776000Y-103236000D02*
X105540000Y-100000000D01*
X106400000Y-112512500D02*
X108000000Y-110912500D01*
X108000000Y-110912500D02*
X108000000Y-108862500D01*
%TO.N,/{slash}Z*%
X98130000Y-106000000D02*
X98100000Y-106000000D01*
X98100000Y-106000000D02*
X97460000Y-106640000D01*
X97460000Y-106640000D02*
X97460000Y-107900000D01*
%TO.N,Net-(D101-A)*%
X106400000Y-110687500D02*
X106400000Y-108875000D01*
%TO.N,/{slash}B*%
X98730000Y-107900000D02*
X98730000Y-102955000D01*
X98730000Y-102955000D02*
X98615000Y-102840000D01*
%TD*%
%TA.AperFunction,Conductor*%
%TO.N,GND*%
G36*
X102304075Y-100192993D02*
G01*
X102369901Y-100307007D01*
X102462993Y-100400099D01*
X102577007Y-100465925D01*
X102640590Y-100482962D01*
X102044076Y-101079474D01*
X102088650Y-101111859D01*
X102270968Y-101204755D01*
X102465582Y-101267990D01*
X102667683Y-101300000D01*
X102872317Y-101300000D01*
X103074417Y-101267990D01*
X103269031Y-101204755D01*
X103451349Y-101111859D01*
X103495921Y-101079474D01*
X102899409Y-100482962D01*
X102962993Y-100465925D01*
X103077007Y-100400099D01*
X103170099Y-100307007D01*
X103235925Y-100192993D01*
X103252962Y-100129410D01*
X103849474Y-100725922D01*
X103849474Y-100725921D01*
X103881859Y-100681349D01*
X103974755Y-100499029D01*
X103997569Y-100428817D01*
X104037006Y-100371142D01*
X104101365Y-100343943D01*
X104170211Y-100355857D01*
X104221687Y-100403101D01*
X104239500Y-100467135D01*
X104239500Y-100847869D01*
X104239501Y-100847876D01*
X104245908Y-100907483D01*
X104296202Y-101042328D01*
X104296206Y-101042335D01*
X104382452Y-101157544D01*
X104382455Y-101157547D01*
X104497664Y-101243793D01*
X104497671Y-101243797D01*
X104632517Y-101294091D01*
X104632516Y-101294091D01*
X104639444Y-101294835D01*
X104692127Y-101300500D01*
X105939902Y-101300499D01*
X106006941Y-101320184D01*
X106027583Y-101336818D01*
X108139181Y-103448416D01*
X108172666Y-103509739D01*
X108175500Y-103536097D01*
X108175500Y-107013500D01*
X108155815Y-107080539D01*
X108103011Y-107126294D01*
X108051500Y-107137500D01*
X108000000Y-107137500D01*
X108000000Y-107263500D01*
X107980315Y-107330539D01*
X107927511Y-107376294D01*
X107876000Y-107387500D01*
X106958862Y-107387500D01*
X106916292Y-107375000D01*
X105425001Y-107375000D01*
X105425001Y-107461654D01*
X105435319Y-107562652D01*
X105489546Y-107726300D01*
X105489551Y-107726311D01*
X105580052Y-107873034D01*
X105580055Y-107873038D01*
X105618982Y-107911965D01*
X105652467Y-107973288D01*
X105647483Y-108042980D01*
X105618983Y-108087326D01*
X105579661Y-108126648D01*
X105489093Y-108273481D01*
X105489092Y-108273484D01*
X105434826Y-108437247D01*
X105434826Y-108437248D01*
X105434825Y-108437248D01*
X105424500Y-108538315D01*
X105424500Y-109211669D01*
X105424501Y-109211687D01*
X105434825Y-109312752D01*
X105471109Y-109422249D01*
X105489092Y-109476516D01*
X105565760Y-109600815D01*
X105579661Y-109623351D01*
X105668629Y-109712319D01*
X105702114Y-109773642D01*
X105697130Y-109843334D01*
X105668629Y-109887681D01*
X105579661Y-109976648D01*
X105489093Y-110123481D01*
X105489091Y-110123486D01*
X105478249Y-110156206D01*
X105434826Y-110287247D01*
X105434826Y-110287248D01*
X105434825Y-110287248D01*
X105424500Y-110388315D01*
X105424500Y-110986669D01*
X105424501Y-110986687D01*
X105432287Y-111062899D01*
X105419517Y-111131592D01*
X105371636Y-111182476D01*
X105308929Y-111199500D01*
X103534499Y-111199500D01*
X103467460Y-111179815D01*
X103421705Y-111127011D01*
X103410499Y-111075500D01*
X103410499Y-110552129D01*
X103410498Y-110552123D01*
X103404091Y-110492516D01*
X103353797Y-110357671D01*
X103353793Y-110357664D01*
X103267547Y-110242455D01*
X103267544Y-110242452D01*
X103152335Y-110156206D01*
X103152328Y-110156202D01*
X103017482Y-110105908D01*
X103017483Y-110105908D01*
X102957883Y-110099501D01*
X102957881Y-110099500D01*
X102957873Y-110099500D01*
X102957864Y-110099500D01*
X102122129Y-110099500D01*
X102122123Y-110099501D01*
X102062516Y-110105908D01*
X101948333Y-110148496D01*
X101878641Y-110153480D01*
X101861667Y-110148496D01*
X101747482Y-110105908D01*
X101747483Y-110105908D01*
X101687883Y-110099501D01*
X101687881Y-110099500D01*
X101687873Y-110099500D01*
X101687864Y-110099500D01*
X100852129Y-110099500D01*
X100852123Y-110099501D01*
X100792515Y-110105909D01*
X100678331Y-110148496D01*
X100652120Y-110150370D01*
X100626457Y-110156019D01*
X100613205Y-110153153D01*
X100608639Y-110153480D01*
X100591952Y-110148602D01*
X100591546Y-110148452D01*
X100477483Y-110105909D01*
X100476268Y-110105778D01*
X100467969Y-110102706D01*
X100448120Y-110087924D01*
X100423334Y-110074098D01*
X100364397Y-110015160D01*
X100364374Y-110015139D01*
X100161415Y-109812180D01*
X100127930Y-109750857D01*
X100132914Y-109681165D01*
X100174786Y-109625232D01*
X100240250Y-109600815D01*
X100249096Y-109600499D01*
X100417871Y-109600499D01*
X100417872Y-109600499D01*
X100477483Y-109594091D01*
X100592383Y-109551235D01*
X100662073Y-109546252D01*
X100679049Y-109551236D01*
X100792623Y-109593597D01*
X100792627Y-109593598D01*
X100852155Y-109599999D01*
X100852172Y-109600000D01*
X101020000Y-109600000D01*
X101020000Y-106200000D01*
X101520000Y-106200000D01*
X101520000Y-109600000D01*
X101687828Y-109600000D01*
X101687844Y-109599999D01*
X101747372Y-109593598D01*
X101747376Y-109593597D01*
X101860951Y-109551236D01*
X101930643Y-109546252D01*
X101947608Y-109551232D01*
X102062517Y-109594091D01*
X102122127Y-109600500D01*
X102957872Y-109600499D01*
X103017483Y-109594091D01*
X103152331Y-109543796D01*
X103267546Y-109457546D01*
X103353796Y-109342331D01*
X103404091Y-109207483D01*
X103410500Y-109147873D01*
X103410499Y-106788345D01*
X105425000Y-106788345D01*
X105425000Y-106875000D01*
X106150000Y-106875000D01*
X106650000Y-106875000D01*
X107441138Y-106875000D01*
X107483708Y-106887500D01*
X107750000Y-106887500D01*
X107750000Y-106100000D01*
X107713361Y-106100000D01*
X107713343Y-106100001D01*
X107612347Y-106110319D01*
X107448699Y-106164546D01*
X107448688Y-106164551D01*
X107301965Y-106255052D01*
X107301961Y-106255055D01*
X107287681Y-106269336D01*
X107226358Y-106302821D01*
X107156666Y-106297837D01*
X107112319Y-106269336D01*
X107098038Y-106255055D01*
X107098034Y-106255052D01*
X106951311Y-106164551D01*
X106951300Y-106164546D01*
X106787652Y-106110319D01*
X106686654Y-106100000D01*
X106650000Y-106100000D01*
X106650000Y-106875000D01*
X106150000Y-106875000D01*
X106150000Y-106100000D01*
X106113361Y-106100000D01*
X106113343Y-106100001D01*
X106012347Y-106110319D01*
X105848699Y-106164546D01*
X105848688Y-106164551D01*
X105701965Y-106255052D01*
X105701961Y-106255055D01*
X105580055Y-106376961D01*
X105580052Y-106376965D01*
X105489551Y-106523688D01*
X105489546Y-106523699D01*
X105435319Y-106687347D01*
X105425000Y-106788345D01*
X103410499Y-106788345D01*
X103410499Y-106652128D01*
X103404091Y-106592517D01*
X103378419Y-106523688D01*
X103353797Y-106457671D01*
X103353793Y-106457664D01*
X103267547Y-106342455D01*
X103267544Y-106342452D01*
X103152335Y-106256206D01*
X103152328Y-106256202D01*
X103017482Y-106205908D01*
X103017483Y-106205908D01*
X102957883Y-106199501D01*
X102957881Y-106199500D01*
X102957873Y-106199500D01*
X102957864Y-106199500D01*
X102122129Y-106199500D01*
X102122123Y-106199501D01*
X102062516Y-106205908D01*
X101947618Y-106248763D01*
X101877926Y-106253747D01*
X101860952Y-106248763D01*
X101747379Y-106206403D01*
X101747372Y-106206401D01*
X101687844Y-106200000D01*
X101520000Y-106200000D01*
X101020000Y-106200000D01*
X100852155Y-106200000D01*
X100792627Y-106206401D01*
X100792617Y-106206403D01*
X100767832Y-106215648D01*
X100698141Y-106220632D01*
X100636818Y-106187146D01*
X100603334Y-106125823D01*
X100600500Y-106099466D01*
X100600500Y-104102211D01*
X100620185Y-104035172D01*
X100672989Y-103989417D01*
X100742147Y-103979473D01*
X100780793Y-103991726D01*
X100784499Y-103993614D01*
X100885774Y-104045217D01*
X100885777Y-104045217D01*
X100885781Y-104045220D01*
X101020245Y-104088910D01*
X101080465Y-104108477D01*
X101181557Y-104124488D01*
X101282648Y-104140500D01*
X101282649Y-104140500D01*
X101487351Y-104140500D01*
X101487352Y-104140500D01*
X101689534Y-104108477D01*
X101884219Y-104045220D01*
X102066610Y-103952287D01*
X102181637Y-103868716D01*
X102232213Y-103831971D01*
X102232215Y-103831968D01*
X102232219Y-103831966D01*
X102376966Y-103687219D01*
X102376968Y-103687215D01*
X102376971Y-103687213D01*
X102429732Y-103614590D01*
X102497287Y-103521610D01*
X102590220Y-103339219D01*
X102643236Y-103176052D01*
X102652069Y-103148868D01*
X102691507Y-103091193D01*
X102755866Y-103063995D01*
X102824712Y-103075910D01*
X102876188Y-103123154D01*
X102887931Y-103148868D01*
X102949781Y-103339223D01*
X103005419Y-103448416D01*
X103036664Y-103509739D01*
X103042715Y-103521613D01*
X103163028Y-103687213D01*
X103307786Y-103831971D01*
X103439499Y-103927664D01*
X103473390Y-103952287D01*
X103554499Y-103993614D01*
X103655776Y-104045218D01*
X103655778Y-104045218D01*
X103655781Y-104045220D01*
X103718769Y-104065686D01*
X103850465Y-104108477D01*
X103951557Y-104124488D01*
X104052648Y-104140500D01*
X104052649Y-104140500D01*
X104257351Y-104140500D01*
X104257352Y-104140500D01*
X104459534Y-104108477D01*
X104654219Y-104045220D01*
X104836610Y-103952287D01*
X104951637Y-103868716D01*
X105002213Y-103831971D01*
X105002215Y-103831968D01*
X105002219Y-103831966D01*
X105146966Y-103687219D01*
X105146968Y-103687215D01*
X105146971Y-103687213D01*
X105199732Y-103614590D01*
X105267287Y-103521610D01*
X105360220Y-103339219D01*
X105423477Y-103144534D01*
X105455500Y-102942352D01*
X105455500Y-102737648D01*
X105440468Y-102642743D01*
X105423477Y-102535465D01*
X105360218Y-102340776D01*
X105308974Y-102240205D01*
X105267287Y-102158390D01*
X105259556Y-102147749D01*
X105146971Y-101992786D01*
X105002213Y-101848028D01*
X104836613Y-101727715D01*
X104836612Y-101727714D01*
X104836610Y-101727713D01*
X104779653Y-101698691D01*
X104654223Y-101634781D01*
X104459534Y-101571522D01*
X104284995Y-101543878D01*
X104257352Y-101539500D01*
X104052648Y-101539500D01*
X104028329Y-101543351D01*
X103850465Y-101571522D01*
X103655776Y-101634781D01*
X103473386Y-101727715D01*
X103307786Y-101848028D01*
X103163028Y-101992786D01*
X103042715Y-102158386D01*
X102949781Y-102340776D01*
X102887931Y-102531131D01*
X102848493Y-102588806D01*
X102784134Y-102616004D01*
X102715288Y-102604089D01*
X102663812Y-102556845D01*
X102652069Y-102531131D01*
X102590218Y-102340776D01*
X102538974Y-102240205D01*
X102497287Y-102158390D01*
X102489556Y-102147749D01*
X102376971Y-101992786D01*
X102232213Y-101848028D01*
X102066613Y-101727715D01*
X102066612Y-101727714D01*
X102066610Y-101727713D01*
X102009653Y-101698691D01*
X101884223Y-101634781D01*
X101689534Y-101571522D01*
X101514995Y-101543878D01*
X101487352Y-101539500D01*
X101282648Y-101539500D01*
X101258329Y-101543351D01*
X101080465Y-101571522D01*
X100885776Y-101634781D01*
X100703390Y-101727712D01*
X100542077Y-101844912D01*
X100509972Y-101856366D01*
X100478045Y-101868277D01*
X100477140Y-101868080D01*
X100476270Y-101868391D01*
X100443098Y-101860677D01*
X100409771Y-101853429D01*
X100408797Y-101852700D01*
X100408216Y-101852565D01*
X100381516Y-101832279D01*
X100364379Y-101815144D01*
X100056358Y-101507123D01*
X100022873Y-101445800D01*
X100027857Y-101376108D01*
X100069729Y-101320175D01*
X100124638Y-101296970D01*
X100304534Y-101268477D01*
X100499219Y-101205220D01*
X100681610Y-101112287D01*
X100777901Y-101042328D01*
X100847213Y-100991971D01*
X100847215Y-100991968D01*
X100847219Y-100991966D01*
X100991966Y-100847219D01*
X100991968Y-100847215D01*
X100991971Y-100847213D01*
X101044732Y-100774590D01*
X101112287Y-100681610D01*
X101205220Y-100499219D01*
X101267331Y-100308060D01*
X101306769Y-100250385D01*
X101371127Y-100223187D01*
X101439974Y-100235102D01*
X101491449Y-100282346D01*
X101503193Y-100308060D01*
X101565244Y-100499031D01*
X101658141Y-100681350D01*
X101658147Y-100681359D01*
X101690523Y-100725921D01*
X101690524Y-100725922D01*
X102287037Y-100129409D01*
X102304075Y-100192993D01*
G37*
%TD.AperFunction*%
%TA.AperFunction,Conductor*%
G36*
X114003736Y-93500726D02*
G01*
X114293796Y-93518271D01*
X114308659Y-93520076D01*
X114590798Y-93571780D01*
X114605335Y-93575363D01*
X114879172Y-93660695D01*
X114893163Y-93666000D01*
X115154743Y-93783727D01*
X115167989Y-93790680D01*
X115413465Y-93939075D01*
X115425776Y-93947573D01*
X115651573Y-94124473D01*
X115662781Y-94134403D01*
X115865596Y-94337218D01*
X115875526Y-94348426D01*
X115995481Y-94501538D01*
X116052422Y-94574217D01*
X116060928Y-94586540D01*
X116209316Y-94832004D01*
X116216275Y-94845263D01*
X116333997Y-95106831D01*
X116339306Y-95120832D01*
X116424635Y-95394663D01*
X116428219Y-95409201D01*
X116479923Y-95691340D01*
X116481728Y-95706205D01*
X116499274Y-95996263D01*
X116499500Y-96003750D01*
X116499500Y-111996249D01*
X116499274Y-112003736D01*
X116481728Y-112293794D01*
X116479923Y-112308659D01*
X116428219Y-112590798D01*
X116424635Y-112605336D01*
X116339306Y-112879167D01*
X116333997Y-112893168D01*
X116216275Y-113154736D01*
X116209316Y-113167995D01*
X116060928Y-113413459D01*
X116052422Y-113425782D01*
X115875526Y-113651573D01*
X115865596Y-113662781D01*
X115662781Y-113865596D01*
X115651573Y-113875526D01*
X115425782Y-114052422D01*
X115413459Y-114060928D01*
X115167995Y-114209316D01*
X115154736Y-114216275D01*
X114893168Y-114333997D01*
X114879167Y-114339306D01*
X114605336Y-114424635D01*
X114590798Y-114428219D01*
X114308659Y-114479923D01*
X114293794Y-114481728D01*
X114003736Y-114499274D01*
X113996249Y-114499500D01*
X85003751Y-114499500D01*
X84996264Y-114499274D01*
X84706205Y-114481728D01*
X84691340Y-114479923D01*
X84409201Y-114428219D01*
X84394663Y-114424635D01*
X84120832Y-114339306D01*
X84106831Y-114333997D01*
X83845263Y-114216275D01*
X83832004Y-114209316D01*
X83586540Y-114060928D01*
X83574217Y-114052422D01*
X83348426Y-113875526D01*
X83337218Y-113865596D01*
X83134403Y-113662781D01*
X83124473Y-113651573D01*
X83006114Y-113500499D01*
X82947573Y-113425776D01*
X82939075Y-113413465D01*
X82790680Y-113167989D01*
X82783727Y-113154743D01*
X82666000Y-112893163D01*
X82660693Y-112879167D01*
X82639665Y-112811687D01*
X82575363Y-112605335D01*
X82571780Y-112590798D01*
X82520076Y-112308659D01*
X82518271Y-112293794D01*
X82500726Y-112003736D01*
X82500500Y-111996249D01*
X82500500Y-101298711D01*
X85649500Y-101298711D01*
X85649500Y-101541288D01*
X85674042Y-101727712D01*
X85681162Y-101781789D01*
X85693252Y-101826908D01*
X85743947Y-102016104D01*
X85802884Y-102158390D01*
X85836776Y-102240212D01*
X85958064Y-102450289D01*
X85958066Y-102450292D01*
X85958067Y-102450293D01*
X86105733Y-102642736D01*
X86105739Y-102642743D01*
X86277256Y-102814260D01*
X86277262Y-102814265D01*
X86469711Y-102961936D01*
X86679788Y-103083224D01*
X86903900Y-103176054D01*
X87138211Y-103238838D01*
X87318586Y-103262584D01*
X87378711Y-103270500D01*
X87378712Y-103270500D01*
X87621289Y-103270500D01*
X87669388Y-103264167D01*
X87861789Y-103238838D01*
X88096100Y-103176054D01*
X88320212Y-103083224D01*
X88530289Y-102961936D01*
X88722738Y-102814265D01*
X88894265Y-102642738D01*
X89041936Y-102450289D01*
X89163224Y-102240212D01*
X89256054Y-102016100D01*
X89318838Y-101781789D01*
X89350500Y-101541288D01*
X89350500Y-101298712D01*
X89346455Y-101267990D01*
X89338191Y-101205217D01*
X89318838Y-101058211D01*
X89256054Y-100823900D01*
X89163224Y-100599788D01*
X89041936Y-100389711D01*
X88894265Y-100197262D01*
X88894260Y-100197256D01*
X88722743Y-100025739D01*
X88722736Y-100025733D01*
X88677669Y-99991152D01*
X88555812Y-99897648D01*
X93159500Y-99897648D01*
X93159500Y-100102351D01*
X93191522Y-100304534D01*
X93254781Y-100499223D01*
X93318691Y-100624653D01*
X93347585Y-100681359D01*
X93347715Y-100681613D01*
X93468028Y-100847213D01*
X93612786Y-100991971D01*
X93733226Y-101079474D01*
X93778390Y-101112287D01*
X93894607Y-101171503D01*
X93960776Y-101205218D01*
X93960778Y-101205218D01*
X93960781Y-101205220D01*
X94065137Y-101239127D01*
X94155465Y-101268477D01*
X94256557Y-101284488D01*
X94357648Y-101300500D01*
X94357649Y-101300500D01*
X94562351Y-101300500D01*
X94562352Y-101300500D01*
X94764534Y-101268477D01*
X94959219Y-101205220D01*
X95141610Y-101112287D01*
X95141613Y-101112284D01*
X95141787Y-101112196D01*
X95210457Y-101099299D01*
X95275197Y-101125575D01*
X95285764Y-101134999D01*
X95534616Y-101383851D01*
X95568101Y-101445174D01*
X95563117Y-101514866D01*
X95521245Y-101570799D01*
X95485254Y-101589462D01*
X95432421Y-101606629D01*
X95345778Y-101634781D01*
X95163386Y-101727715D01*
X94997786Y-101848028D01*
X94853028Y-101992786D01*
X94732715Y-102158386D01*
X94639781Y-102340776D01*
X94576522Y-102535465D01*
X94544500Y-102737648D01*
X94544500Y-102942351D01*
X94576522Y-103144534D01*
X94639781Y-103339223D01*
X94695419Y-103448416D01*
X94726664Y-103509739D01*
X94732715Y-103521613D01*
X94853028Y-103687213D01*
X94853034Y-103687219D01*
X94997781Y-103831966D01*
X95163390Y-103952287D01*
X95176793Y-103959116D01*
X95227589Y-104007088D01*
X95244500Y-104069601D01*
X95244500Y-109258330D01*
X95244499Y-109258348D01*
X95244499Y-109424054D01*
X95244498Y-109424054D01*
X95244499Y-109424057D01*
X95285423Y-109576785D01*
X95299115Y-109600500D01*
X95364477Y-109713712D01*
X95364481Y-109713717D01*
X95483349Y-109832585D01*
X95483355Y-109832590D01*
X95971882Y-110321117D01*
X96005367Y-110382440D01*
X96000383Y-110452132D01*
X95980064Y-110487451D01*
X95978214Y-110489704D01*
X95890609Y-110620814D01*
X95890602Y-110620827D01*
X95830264Y-110766498D01*
X95830261Y-110766510D01*
X95799500Y-110921153D01*
X95799500Y-111078846D01*
X95830261Y-111233489D01*
X95830264Y-111233501D01*
X95890602Y-111379172D01*
X95890609Y-111379185D01*
X95978210Y-111510288D01*
X95978213Y-111510292D01*
X96089707Y-111621786D01*
X96089711Y-111621789D01*
X96220814Y-111709390D01*
X96220827Y-111709397D01*
X96366498Y-111769735D01*
X96366503Y-111769737D01*
X96484049Y-111793118D01*
X96489692Y-111794241D01*
X96551603Y-111826626D01*
X96586177Y-111887341D01*
X96589501Y-111915858D01*
X96589501Y-113047876D01*
X96595908Y-113107483D01*
X96646202Y-113242328D01*
X96646206Y-113242335D01*
X96732452Y-113357544D01*
X96732455Y-113357547D01*
X96847664Y-113443793D01*
X96847671Y-113443797D01*
X96982517Y-113494091D01*
X96982516Y-113494091D01*
X96989444Y-113494835D01*
X97042127Y-113500500D01*
X97877872Y-113500499D01*
X97937483Y-113494091D01*
X98051667Y-113451502D01*
X98121358Y-113446519D01*
X98138333Y-113451503D01*
X98252517Y-113494091D01*
X98252516Y-113494091D01*
X98259444Y-113494835D01*
X98312127Y-113500500D01*
X99147872Y-113500499D01*
X99207483Y-113494091D01*
X99321667Y-113451502D01*
X99391358Y-113446519D01*
X99408333Y-113451503D01*
X99522517Y-113494091D01*
X99522516Y-113494091D01*
X99529444Y-113494835D01*
X99582127Y-113500500D01*
X100417872Y-113500499D01*
X100477483Y-113494091D01*
X100591667Y-113451502D01*
X100661358Y-113446519D01*
X100678333Y-113451503D01*
X100792517Y-113494091D01*
X100792516Y-113494091D01*
X100799444Y-113494835D01*
X100852127Y-113500500D01*
X101687872Y-113500499D01*
X101747483Y-113494091D01*
X101861667Y-113451502D01*
X101931358Y-113446519D01*
X101948333Y-113451503D01*
X102062517Y-113494091D01*
X102062516Y-113494091D01*
X102069444Y-113494835D01*
X102122127Y-113500500D01*
X102957872Y-113500499D01*
X103017483Y-113494091D01*
X103152331Y-113443796D01*
X103267546Y-113357546D01*
X103353796Y-113242331D01*
X103404091Y-113107483D01*
X103410500Y-113047873D01*
X103410500Y-112524500D01*
X103430185Y-112457461D01*
X103482989Y-112411706D01*
X103534500Y-112400500D01*
X105300500Y-112400500D01*
X105367539Y-112420185D01*
X105413294Y-112472989D01*
X105424500Y-112524500D01*
X105424500Y-112811668D01*
X105424501Y-112811687D01*
X105434825Y-112912752D01*
X105471109Y-113022249D01*
X105489092Y-113076516D01*
X105579660Y-113223350D01*
X105701650Y-113345340D01*
X105848484Y-113435908D01*
X106012247Y-113490174D01*
X106113323Y-113500500D01*
X106686676Y-113500499D01*
X106686684Y-113500498D01*
X106686687Y-113500498D01*
X106749407Y-113494091D01*
X106787753Y-113490174D01*
X106951516Y-113435908D01*
X107098350Y-113345340D01*
X107220340Y-113223350D01*
X107310908Y-113076516D01*
X107365174Y-112912753D01*
X107375500Y-112811677D01*
X107375499Y-112437596D01*
X107395183Y-112370558D01*
X107411813Y-112349921D01*
X108480520Y-111281216D01*
X108559577Y-111144284D01*
X108600501Y-110991557D01*
X108600501Y-110833442D01*
X108600501Y-110825847D01*
X108600500Y-110825829D01*
X108600500Y-109874900D01*
X108620185Y-109807861D01*
X108659401Y-109769363D01*
X108698350Y-109745340D01*
X108820340Y-109623350D01*
X108910908Y-109476516D01*
X108965174Y-109312753D01*
X108975500Y-109211677D01*
X108975499Y-108787597D01*
X108995183Y-108720559D01*
X109011818Y-108699917D01*
X109256520Y-108455216D01*
X109335577Y-108318284D01*
X109376501Y-108165557D01*
X109376501Y-108007442D01*
X109376501Y-107999847D01*
X109376500Y-107999829D01*
X109376500Y-103156945D01*
X109376500Y-103156943D01*
X109335577Y-103004216D01*
X109335577Y-103004215D01*
X109297660Y-102938541D01*
X109256520Y-102867284D01*
X109144716Y-102755480D01*
X109144715Y-102755479D01*
X109140385Y-102751149D01*
X109140374Y-102751139D01*
X107687946Y-101298711D01*
X110649500Y-101298711D01*
X110649500Y-101541288D01*
X110674042Y-101727712D01*
X110681162Y-101781789D01*
X110693252Y-101826908D01*
X110743947Y-102016104D01*
X110802884Y-102158390D01*
X110836776Y-102240212D01*
X110958064Y-102450289D01*
X110958066Y-102450292D01*
X110958067Y-102450293D01*
X111105733Y-102642736D01*
X111105739Y-102642743D01*
X111277256Y-102814260D01*
X111277262Y-102814265D01*
X111469711Y-102961936D01*
X111679788Y-103083224D01*
X111903900Y-103176054D01*
X112138211Y-103238838D01*
X112318586Y-103262584D01*
X112378711Y-103270500D01*
X112378712Y-103270500D01*
X112621289Y-103270500D01*
X112669388Y-103264167D01*
X112861789Y-103238838D01*
X113096100Y-103176054D01*
X113320212Y-103083224D01*
X113530289Y-102961936D01*
X113722738Y-102814265D01*
X113894265Y-102642738D01*
X114041936Y-102450289D01*
X114163224Y-102240212D01*
X114256054Y-102016100D01*
X114318838Y-101781789D01*
X114350500Y-101541288D01*
X114350500Y-101298712D01*
X114346455Y-101267990D01*
X114338191Y-101205217D01*
X114318838Y-101058211D01*
X114256054Y-100823900D01*
X114163224Y-100599788D01*
X114041936Y-100389711D01*
X113894265Y-100197262D01*
X113894260Y-100197256D01*
X113722743Y-100025739D01*
X113722736Y-100025733D01*
X113530293Y-99878067D01*
X113530292Y-99878066D01*
X113530289Y-99878064D01*
X113334278Y-99764897D01*
X113320214Y-99756777D01*
X113320205Y-99756773D01*
X113096104Y-99663947D01*
X112861785Y-99601161D01*
X112621289Y-99569500D01*
X112621288Y-99569500D01*
X112378712Y-99569500D01*
X112378711Y-99569500D01*
X112138214Y-99601161D01*
X111903895Y-99663947D01*
X111679794Y-99756773D01*
X111679785Y-99756777D01*
X111469706Y-99878067D01*
X111277263Y-100025733D01*
X111277256Y-100025739D01*
X111105739Y-100197256D01*
X111105733Y-100197263D01*
X110958067Y-100389706D01*
X110958064Y-100389710D01*
X110958064Y-100389711D01*
X110950333Y-100403101D01*
X110836777Y-100599785D01*
X110836773Y-100599794D01*
X110743947Y-100823895D01*
X110681161Y-101058214D01*
X110649500Y-101298711D01*
X107687946Y-101298711D01*
X106876818Y-100487583D01*
X106843333Y-100426260D01*
X106840499Y-100399902D01*
X106840499Y-99152129D01*
X106840498Y-99152123D01*
X106840497Y-99152116D01*
X106834091Y-99092517D01*
X106783796Y-98957669D01*
X106783795Y-98957668D01*
X106783793Y-98957664D01*
X106697547Y-98842455D01*
X106697544Y-98842452D01*
X106582335Y-98756206D01*
X106582328Y-98756202D01*
X106447482Y-98705908D01*
X106447483Y-98705908D01*
X106387883Y-98699501D01*
X106387881Y-98699500D01*
X106387873Y-98699500D01*
X106387864Y-98699500D01*
X104692129Y-98699500D01*
X104692123Y-98699501D01*
X104632516Y-98705908D01*
X104497671Y-98756202D01*
X104497664Y-98756206D01*
X104382455Y-98842452D01*
X104382452Y-98842455D01*
X104296206Y-98957664D01*
X104296202Y-98957671D01*
X104245908Y-99092517D01*
X104239501Y-99152116D01*
X104239501Y-99152123D01*
X104239500Y-99152135D01*
X104239500Y-99532863D01*
X104219815Y-99599902D01*
X104167011Y-99645657D01*
X104097853Y-99655601D01*
X104034297Y-99626576D01*
X103997569Y-99571182D01*
X103974754Y-99500968D01*
X103881859Y-99318650D01*
X103849474Y-99274077D01*
X103849474Y-99274076D01*
X103252962Y-99870589D01*
X103235925Y-99807007D01*
X103170099Y-99692993D01*
X103077007Y-99599901D01*
X102962993Y-99534075D01*
X102899408Y-99517037D01*
X103495922Y-98920524D01*
X103495921Y-98920523D01*
X103451359Y-98888147D01*
X103451350Y-98888141D01*
X103269031Y-98795244D01*
X103074417Y-98732009D01*
X102872317Y-98700000D01*
X102667683Y-98700000D01*
X102465582Y-98732009D01*
X102270968Y-98795244D01*
X102088644Y-98888143D01*
X102044077Y-98920523D01*
X102044077Y-98920524D01*
X102640591Y-99517037D01*
X102577007Y-99534075D01*
X102462993Y-99599901D01*
X102369901Y-99692993D01*
X102304075Y-99807007D01*
X102287037Y-99870590D01*
X101690524Y-99274077D01*
X101690523Y-99274077D01*
X101658143Y-99318644D01*
X101565244Y-99500968D01*
X101503193Y-99691939D01*
X101463755Y-99749614D01*
X101399396Y-99776812D01*
X101330550Y-99764897D01*
X101279074Y-99717652D01*
X101267331Y-99691938D01*
X101246093Y-99626576D01*
X101205220Y-99500781D01*
X101112287Y-99318390D01*
X101080092Y-99274077D01*
X100991971Y-99152786D01*
X100847213Y-99008028D01*
X100681613Y-98887715D01*
X100681612Y-98887714D01*
X100681610Y-98887713D01*
X100624653Y-98858691D01*
X100499223Y-98794781D01*
X100304534Y-98731522D01*
X100129995Y-98703878D01*
X100102352Y-98699500D01*
X99897648Y-98699500D01*
X99873329Y-98703351D01*
X99695465Y-98731522D01*
X99500776Y-98794781D01*
X99318386Y-98887715D01*
X99152786Y-99008028D01*
X99008028Y-99152786D01*
X98887715Y-99318386D01*
X98794781Y-99500776D01*
X98732931Y-99691131D01*
X98693493Y-99748806D01*
X98629134Y-99776004D01*
X98560288Y-99764089D01*
X98508812Y-99716845D01*
X98497069Y-99691131D01*
X98445644Y-99532863D01*
X98435220Y-99500781D01*
X98435218Y-99500778D01*
X98435218Y-99500776D01*
X98342419Y-99318650D01*
X98342287Y-99318390D01*
X98310092Y-99274077D01*
X98221971Y-99152786D01*
X98077213Y-99008028D01*
X97911613Y-98887715D01*
X97911612Y-98887714D01*
X97911610Y-98887713D01*
X97854653Y-98858691D01*
X97729223Y-98794781D01*
X97534534Y-98731522D01*
X97359995Y-98703878D01*
X97332352Y-98699500D01*
X97127648Y-98699500D01*
X97103329Y-98703351D01*
X96925465Y-98731522D01*
X96730776Y-98794781D01*
X96548386Y-98887715D01*
X96382786Y-99008028D01*
X96238028Y-99152786D01*
X96117715Y-99318386D01*
X96024781Y-99500776D01*
X95962931Y-99691131D01*
X95923493Y-99748806D01*
X95859134Y-99776004D01*
X95790288Y-99764089D01*
X95738812Y-99716845D01*
X95727069Y-99691131D01*
X95675644Y-99532863D01*
X95665220Y-99500781D01*
X95665218Y-99500778D01*
X95665218Y-99500776D01*
X95572419Y-99318650D01*
X95572287Y-99318390D01*
X95540092Y-99274077D01*
X95451971Y-99152786D01*
X95307213Y-99008028D01*
X95141613Y-98887715D01*
X95141612Y-98887714D01*
X95141610Y-98887713D01*
X95084653Y-98858691D01*
X94959223Y-98794781D01*
X94764534Y-98731522D01*
X94589995Y-98703878D01*
X94562352Y-98699500D01*
X94357648Y-98699500D01*
X94333329Y-98703351D01*
X94155465Y-98731522D01*
X93960776Y-98794781D01*
X93778386Y-98887715D01*
X93612786Y-99008028D01*
X93468028Y-99152786D01*
X93347715Y-99318386D01*
X93254781Y-99500776D01*
X93191522Y-99695465D01*
X93159500Y-99897648D01*
X88555812Y-99897648D01*
X88530293Y-99878067D01*
X88530292Y-99878066D01*
X88530289Y-99878064D01*
X88334278Y-99764897D01*
X88320214Y-99756777D01*
X88320205Y-99756773D01*
X88096104Y-99663947D01*
X87861785Y-99601161D01*
X87621289Y-99569500D01*
X87621288Y-99569500D01*
X87378712Y-99569500D01*
X87378711Y-99569500D01*
X87138214Y-99601161D01*
X86903895Y-99663947D01*
X86679794Y-99756773D01*
X86679785Y-99756777D01*
X86469706Y-99878067D01*
X86277263Y-100025733D01*
X86277256Y-100025739D01*
X86105739Y-100197256D01*
X86105733Y-100197263D01*
X85958067Y-100389706D01*
X85958064Y-100389710D01*
X85958064Y-100389711D01*
X85950333Y-100403101D01*
X85836777Y-100599785D01*
X85836773Y-100599794D01*
X85743947Y-100823895D01*
X85681161Y-101058214D01*
X85649500Y-101298711D01*
X82500500Y-101298711D01*
X82500500Y-96003750D01*
X82500726Y-95996263D01*
X82518271Y-95706205D01*
X82520076Y-95691340D01*
X82571780Y-95409201D01*
X82575364Y-95394663D01*
X82652096Y-95148422D01*
X82660696Y-95120822D01*
X82665998Y-95106841D01*
X82783731Y-94845249D01*
X82790676Y-94832016D01*
X82939080Y-94586526D01*
X82947567Y-94574230D01*
X83124480Y-94348417D01*
X83134395Y-94337226D01*
X83337226Y-94134395D01*
X83348417Y-94124480D01*
X83574230Y-93947567D01*
X83586526Y-93939080D01*
X83832016Y-93790676D01*
X83845249Y-93783731D01*
X84106841Y-93665998D01*
X84120822Y-93660696D01*
X84394668Y-93575362D01*
X84409197Y-93571780D01*
X84691344Y-93520075D01*
X84706201Y-93518271D01*
X84996264Y-93500726D01*
X85003751Y-93500500D01*
X85065892Y-93500500D01*
X113934108Y-93500500D01*
X113996249Y-93500500D01*
X114003736Y-93500726D01*
G37*
%TD.AperFunction*%
%TD*%
M02*
