%TF.GenerationSoftware,KiCad,Pcbnew,9.0.2-9.0.2-0~ubuntu22.04.1*%
%TF.CreationDate,2025-07-01T08:49:19+02:00*%
%TF.ProjectId,Inverter_MIC4605_SQJQ910EL,496e7665-7274-4657-925f-4d4943343630,rev?*%
%TF.SameCoordinates,Original*%
%TF.FileFunction,Soldermask,Bot*%
%TF.FilePolarity,Negative*%
%FSLAX46Y46*%
G04 Gerber Fmt 4.6, Leading zero omitted, Abs format (unit mm)*
G04 Created by KiCad (PCBNEW 9.0.2-9.0.2-0~ubuntu22.04.1) date 2025-07-01 08:49:19*
%MOMM*%
%LPD*%
G01*
G04 APERTURE LIST*
G04 Aperture macros list*
%AMRoundRect*
0 Rectangle with rounded corners*
0 $1 Rounding radius*
0 $2 $3 $4 $5 $6 $7 $8 $9 X,Y pos of 4 corners*
0 Add a 4 corners polygon primitive as box body*
4,1,4,$2,$3,$4,$5,$6,$7,$8,$9,$2,$3,0*
0 Add four circle primitives for the rounded corners*
1,1,$1+$1,$2,$3*
1,1,$1+$1,$4,$5*
1,1,$1+$1,$6,$7*
1,1,$1+$1,$8,$9*
0 Add four rect primitives between the rounded corners*
20,1,$1+$1,$2,$3,$4,$5,0*
20,1,$1+$1,$4,$5,$6,$7,0*
20,1,$1+$1,$6,$7,$8,$9,0*
20,1,$1+$1,$8,$9,$2,$3,0*%
%AMFreePoly0*
4,1,23,0.550000,-0.750000,0.000000,-0.750000,0.000000,-0.745722,-0.065263,-0.745722,-0.191342,-0.711940,-0.304381,-0.646677,-0.396677,-0.554381,-0.461940,-0.441342,-0.495722,-0.315263,-0.495722,-0.250000,-0.500000,-0.250000,-0.500000,0.250000,-0.495722,0.250000,-0.495722,0.315263,-0.461940,0.441342,-0.396677,0.554381,-0.304381,0.646677,-0.191342,0.711940,-0.065263,0.745722,0.000000,0.745722,
0.000000,0.750000,0.550000,0.750000,0.550000,-0.750000,0.550000,-0.750000,$1*%
%AMFreePoly1*
4,1,23,0.000000,0.745722,0.065263,0.745722,0.191342,0.711940,0.304381,0.646677,0.396677,0.554381,0.461940,0.441342,0.495722,0.315263,0.495722,0.250000,0.500000,0.250000,0.500000,-0.250000,0.495722,-0.250000,0.495722,-0.315263,0.461940,-0.441342,0.396677,-0.554381,0.304381,-0.646677,0.191342,-0.711940,0.065263,-0.745722,0.000000,-0.745722,0.000000,-0.750000,-0.550000,-0.750000,
-0.550000,0.750000,0.000000,0.750000,0.000000,0.745722,0.000000,0.745722,$1*%
G04 Aperture macros list end*
%ADD10RoundRect,0.760000X1.140000X1.140000X-1.140000X1.140000X-1.140000X-1.140000X1.140000X-1.140000X0*%
%ADD11C,3.800000*%
%ADD12C,0.800000*%
%ADD13C,6.400000*%
%ADD14RoundRect,0.760000X-1.140000X-1.140000X1.140000X-1.140000X1.140000X1.140000X-1.140000X1.140000X0*%
%ADD15RoundRect,0.250000X-0.625000X0.350000X-0.625000X-0.350000X0.625000X-0.350000X0.625000X0.350000X0*%
%ADD16O,1.750000X1.200000*%
%ADD17C,2.200000*%
%ADD18C,0.650000*%
%ADD19O,1.000000X2.100000*%
%ADD20O,1.000000X1.600000*%
%ADD21C,2.400000*%
%ADD22R,1.700000X1.700000*%
%ADD23C,1.700000*%
%ADD24C,1.500000*%
%ADD25RoundRect,0.150000X0.150000X-0.825000X0.150000X0.825000X-0.150000X0.825000X-0.150000X-0.825000X0*%
%ADD26RoundRect,0.250000X0.650000X2.450000X-0.650000X2.450000X-0.650000X-2.450000X0.650000X-2.450000X0*%
%ADD27RoundRect,0.225000X0.225000X0.250000X-0.225000X0.250000X-0.225000X-0.250000X0.225000X-0.250000X0*%
%ADD28RoundRect,0.225000X-0.225000X-0.250000X0.225000X-0.250000X0.225000X0.250000X-0.225000X0.250000X0*%
%ADD29RoundRect,0.087500X-0.537500X-0.087500X0.537500X-0.087500X0.537500X0.087500X-0.537500X0.087500X0*%
%ADD30RoundRect,0.250000X-0.325000X-1.100000X0.325000X-1.100000X0.325000X1.100000X-0.325000X1.100000X0*%
%ADD31FreePoly0,180.000000*%
%ADD32R,1.000000X1.500000*%
%ADD33FreePoly1,180.000000*%
%ADD34RoundRect,0.250000X2.450000X-0.650000X2.450000X0.650000X-2.450000X0.650000X-2.450000X-0.650000X0*%
G04 APERTURE END LIST*
%TO.C,JP101*%
G36*
X63450000Y-71407500D02*
G01*
X61950000Y-71407500D01*
X61950000Y-72907500D01*
X63450000Y-72907500D01*
X63450000Y-71407500D01*
G37*
%TD*%
D10*
%TO.C,J101*%
X88700000Y-54000000D03*
D11*
X83700000Y-54000000D03*
%TD*%
D12*
%TO.C,H105*%
X93600000Y-54000000D03*
X94302944Y-52302944D03*
X94302944Y-55697056D03*
X96000000Y-51600000D03*
D13*
X96000000Y-54000000D03*
D12*
X96000000Y-56400000D03*
X97697056Y-52302944D03*
X97697056Y-55697056D03*
X98400000Y-54000000D03*
%TD*%
D14*
%TO.C,J102*%
X72400000Y-54000000D03*
D11*
X77400000Y-54000000D03*
%TD*%
D12*
%TO.C,H101*%
X46600000Y-54000000D03*
X47302944Y-52302944D03*
X47302944Y-55697056D03*
X49000000Y-51600000D03*
D13*
X49000000Y-54000000D03*
D12*
X49000000Y-56400000D03*
X50697056Y-52302944D03*
X50697056Y-55697056D03*
X51400000Y-54000000D03*
%TD*%
%TO.C,H102*%
X93600000Y-106000000D03*
X94302944Y-104302944D03*
X94302944Y-107697056D03*
X96000000Y-103600000D03*
D13*
X96000000Y-106000000D03*
D12*
X96000000Y-108400000D03*
X97697056Y-104302944D03*
X97697056Y-107697056D03*
X98400000Y-106000000D03*
%TD*%
D15*
%TO.C,J108*%
X48300000Y-84600000D03*
D16*
X48300000Y-86600000D03*
X48300000Y-88600000D03*
X48300000Y-90600000D03*
%TD*%
D17*
%TO.C,TP105*%
X75500000Y-72000000D03*
%TD*%
%TO.C,TP107*%
X75700000Y-84900000D03*
%TD*%
%TO.C,TP104*%
X75500000Y-75400000D03*
%TD*%
%TO.C,TP109*%
X75700000Y-97800000D03*
%TD*%
D18*
%TO.C,J106*%
X57190000Y-103500000D03*
X62970000Y-103500000D03*
D19*
X55760000Y-102970000D03*
D20*
X55760000Y-107150000D03*
D19*
X64400000Y-102970000D03*
D20*
X64400000Y-107150000D03*
%TD*%
D21*
%TO.C,J105*%
X95400000Y-74920000D03*
X95400000Y-80000000D03*
X95400000Y-85080000D03*
%TD*%
D17*
%TO.C,TP106*%
X75700000Y-88300000D03*
%TD*%
%TO.C,TP108*%
X75700000Y-101200000D03*
%TD*%
D12*
%TO.C,H106*%
X46600000Y-106000000D03*
X47302944Y-104302944D03*
X47302944Y-107697056D03*
X49000000Y-103600000D03*
D13*
X49000000Y-106000000D03*
D12*
X49000000Y-108400000D03*
X50697056Y-104302944D03*
X50697056Y-107697056D03*
X51400000Y-106000000D03*
%TD*%
D22*
%TO.C,J109*%
X67900000Y-108000000D03*
D23*
X67900000Y-105460000D03*
X70440000Y-108000000D03*
X70440000Y-105460000D03*
X72980000Y-108000000D03*
X72980000Y-105460000D03*
X75520000Y-108000000D03*
X75520000Y-105460000D03*
X78060000Y-108000000D03*
X78060000Y-105460000D03*
X80600000Y-108000000D03*
X80600000Y-105460000D03*
X83140000Y-108000000D03*
X83140000Y-105460000D03*
X85680000Y-108000000D03*
X85680000Y-105460000D03*
X88220000Y-108000000D03*
X88220000Y-105460000D03*
X90760000Y-108000000D03*
X90760000Y-105460000D03*
%TD*%
D24*
%TO.C,U601*%
X74540000Y-63650000D03*
X72000000Y-63650000D03*
X69460000Y-63650000D03*
%TD*%
D25*
%TO.C,U203*%
X83205000Y-68775000D03*
X81935000Y-68775000D03*
X80665000Y-68775000D03*
X79395000Y-68775000D03*
X79395000Y-63825000D03*
X80665000Y-63825000D03*
X81935000Y-63825000D03*
X83205000Y-63825000D03*
%TD*%
D26*
%TO.C,C602*%
X77050000Y-67500000D03*
X71950000Y-67500000D03*
%TD*%
D27*
%TO.C,C202*%
X81475000Y-70800000D03*
X79925000Y-70800000D03*
%TD*%
D28*
%TO.C,C201*%
X83225000Y-70800000D03*
X84775000Y-70800000D03*
%TD*%
D29*
%TO.C,U202*%
X79900000Y-62050000D03*
X79900000Y-61550000D03*
X79900000Y-61050000D03*
X79900000Y-60550000D03*
X82700000Y-60550000D03*
X82700000Y-61050000D03*
X82700000Y-61550000D03*
X82700000Y-62050000D03*
%TD*%
D27*
%TO.C,C302*%
X81475000Y-85800000D03*
X79925000Y-85800000D03*
%TD*%
D30*
%TO.C,C603*%
X66925000Y-57800000D03*
X69875000Y-57800000D03*
%TD*%
D28*
%TO.C,C301*%
X83125000Y-85800000D03*
X84675000Y-85800000D03*
%TD*%
D29*
%TO.C,U302*%
X79900000Y-77050000D03*
X79900000Y-76550000D03*
X79900000Y-76050000D03*
X79900000Y-75550000D03*
X82700000Y-75550000D03*
X82700000Y-76050000D03*
X82700000Y-76550000D03*
X82700000Y-77050000D03*
%TD*%
D31*
%TO.C,JP101*%
X64000000Y-72157500D03*
D32*
X62700000Y-72157500D03*
D33*
X61400000Y-72157500D03*
%TD*%
D25*
%TO.C,U303*%
X83205000Y-83775000D03*
X81935000Y-83775000D03*
X80665000Y-83775000D03*
X79395000Y-83775000D03*
X79395000Y-78825000D03*
X80665000Y-78825000D03*
X81935000Y-78825000D03*
X83205000Y-78825000D03*
%TD*%
D26*
%TO.C,C601*%
X77050000Y-59800000D03*
X71950000Y-59800000D03*
%TD*%
D28*
%TO.C,C401*%
X83225000Y-100800000D03*
X84775000Y-100800000D03*
%TD*%
D30*
%TO.C,C604*%
X66925000Y-61100000D03*
X69875000Y-61100000D03*
%TD*%
%TO.C,C502*%
X66525000Y-68200000D03*
X69475000Y-68200000D03*
%TD*%
D25*
%TO.C,U403*%
X83205000Y-98775000D03*
X81935000Y-98775000D03*
X80665000Y-98775000D03*
X79395000Y-98775000D03*
X79395000Y-93825000D03*
X80665000Y-93825000D03*
X81935000Y-93825000D03*
X83205000Y-93825000D03*
%TD*%
D34*
%TO.C,C303*%
X87000000Y-83850000D03*
X87000000Y-78750000D03*
%TD*%
%TO.C,C203*%
X87000000Y-68850000D03*
X87000000Y-63750000D03*
%TD*%
%TO.C,C403*%
X87000000Y-98850000D03*
X87000000Y-93750000D03*
%TD*%
D29*
%TO.C,U402*%
X79900000Y-92050000D03*
X79900000Y-91550000D03*
X79900000Y-91050000D03*
X79900000Y-90550000D03*
X82700000Y-90550000D03*
X82700000Y-91050000D03*
X82700000Y-91550000D03*
X82700000Y-92050000D03*
%TD*%
D27*
%TO.C,C402*%
X81475000Y-100800000D03*
X79925000Y-100800000D03*
%TD*%
M02*
