%TF.GenerationSoftware,KiCad,Pcbnew,9.0.2-9.0.2-0~ubuntu22.04.1*%
%TF.CreationDate,2025-07-01T08:49:19+02:00*%
%TF.ProjectId,Inverter_MIC4605_SQJQ910EL,496e7665-7274-4657-925f-4d4943343630,rev?*%
%TF.SameCoordinates,Original*%
%TF.FileFunction,Copper,L2,Inr*%
%TF.FilePolarity,Positive*%
%FSLAX46Y46*%
G04 Gerber Fmt 4.6, Leading zero omitted, Abs format (unit mm)*
G04 Created by KiCad (PCBNEW 9.0.2-9.0.2-0~ubuntu22.04.1) date 2025-07-01 08:49:19*
%MOMM*%
%LPD*%
G01*
G04 APERTURE LIST*
G04 Aperture macros list*
%AMRoundRect*
0 Rectangle with rounded corners*
0 $1 Rounding radius*
0 $2 $3 $4 $5 $6 $7 $8 $9 X,Y pos of 4 corners*
0 Add a 4 corners polygon primitive as box body*
4,1,4,$2,$3,$4,$5,$6,$7,$8,$9,$2,$3,0*
0 Add four circle primitives for the rounded corners*
1,1,$1+$1,$2,$3*
1,1,$1+$1,$4,$5*
1,1,$1+$1,$6,$7*
1,1,$1+$1,$8,$9*
0 Add four rect primitives between the rounded corners*
20,1,$1+$1,$2,$3,$4,$5,0*
20,1,$1+$1,$4,$5,$6,$7,0*
20,1,$1+$1,$6,$7,$8,$9,0*
20,1,$1+$1,$8,$9,$2,$3,0*%
G04 Aperture macros list end*
%TA.AperFunction,ComponentPad*%
%ADD10RoundRect,0.760000X1.140000X1.140000X-1.140000X1.140000X-1.140000X-1.140000X1.140000X-1.140000X0*%
%TD*%
%TA.AperFunction,ComponentPad*%
%ADD11C,3.800000*%
%TD*%
%TA.AperFunction,ComponentPad*%
%ADD12C,0.800000*%
%TD*%
%TA.AperFunction,ComponentPad*%
%ADD13C,6.400000*%
%TD*%
%TA.AperFunction,ComponentPad*%
%ADD14RoundRect,0.760000X-1.140000X-1.140000X1.140000X-1.140000X1.140000X1.140000X-1.140000X1.140000X0*%
%TD*%
%TA.AperFunction,ComponentPad*%
%ADD15RoundRect,0.250000X-0.625000X0.350000X-0.625000X-0.350000X0.625000X-0.350000X0.625000X0.350000X0*%
%TD*%
%TA.AperFunction,ComponentPad*%
%ADD16O,1.750000X1.200000*%
%TD*%
%TA.AperFunction,ComponentPad*%
%ADD17C,2.200000*%
%TD*%
%TA.AperFunction,HeatsinkPad*%
%ADD18O,1.000000X2.100000*%
%TD*%
%TA.AperFunction,HeatsinkPad*%
%ADD19O,1.000000X1.600000*%
%TD*%
%TA.AperFunction,ComponentPad*%
%ADD20C,2.400000*%
%TD*%
%TA.AperFunction,ComponentPad*%
%ADD21R,1.700000X1.700000*%
%TD*%
%TA.AperFunction,ComponentPad*%
%ADD22C,1.700000*%
%TD*%
%TA.AperFunction,ComponentPad*%
%ADD23C,1.500000*%
%TD*%
%TA.AperFunction,ViaPad*%
%ADD24C,0.600000*%
%TD*%
G04 APERTURE END LIST*
D10*
%TO.N,GND*%
%TO.C,J101*%
X88700000Y-54000000D03*
D11*
%TO.N,VCC*%
X83700000Y-54000000D03*
%TD*%
D12*
%TO.N,GND*%
%TO.C,H105*%
X93600000Y-54000000D03*
X94302944Y-52302944D03*
X94302944Y-55697056D03*
X96000000Y-51600000D03*
D13*
X96000000Y-54000000D03*
D12*
X96000000Y-56400000D03*
X97697056Y-52302944D03*
X97697056Y-55697056D03*
X98400000Y-54000000D03*
%TD*%
D14*
%TO.N,GND*%
%TO.C,J102*%
X72400000Y-54000000D03*
D11*
%TO.N,VCC*%
X77400000Y-54000000D03*
%TD*%
D12*
%TO.N,GND*%
%TO.C,H101*%
X46600000Y-54000000D03*
X47302944Y-52302944D03*
X47302944Y-55697056D03*
X49000000Y-51600000D03*
D13*
X49000000Y-54000000D03*
D12*
X49000000Y-56400000D03*
X50697056Y-52302944D03*
X50697056Y-55697056D03*
X51400000Y-54000000D03*
%TD*%
%TO.N,GND*%
%TO.C,H102*%
X93600000Y-106000000D03*
X94302944Y-104302944D03*
X94302944Y-107697056D03*
X96000000Y-103600000D03*
D13*
X96000000Y-106000000D03*
D12*
X96000000Y-108400000D03*
X97697056Y-104302944D03*
X97697056Y-107697056D03*
X98400000Y-106000000D03*
%TD*%
D15*
%TO.N,GND*%
%TO.C,J108*%
X48300000Y-84600000D03*
D16*
%TO.N,/EXT_RX*%
X48300000Y-86600000D03*
%TO.N,/EXT_TX*%
X48300000Y-88600000D03*
%TO.N,/5V_UART*%
X48300000Y-90600000D03*
%TD*%
D17*
%TO.N,/U_I_Sense*%
%TO.C,TP105*%
X75500000Y-72000000D03*
%TD*%
%TO.N,/V_I_Sense*%
%TO.C,TP107*%
X75700000Y-84900000D03*
%TD*%
%TO.N,/U_V_Sense*%
%TO.C,TP104*%
X75500000Y-75400000D03*
%TD*%
%TO.N,/W_I_Sense*%
%TO.C,TP109*%
X75700000Y-97800000D03*
%TD*%
D18*
%TO.N,GND*%
%TO.C,J106*%
X55760000Y-102970000D03*
D19*
X55760000Y-107150000D03*
D18*
X64400000Y-102970000D03*
D19*
X64400000Y-107150000D03*
%TD*%
D20*
%TO.N,/U_OUT*%
%TO.C,J105*%
X95400000Y-74920000D03*
%TO.N,/V_OUT*%
X95400000Y-80000000D03*
%TO.N,/W_OUT*%
X95400000Y-85080000D03*
%TD*%
D17*
%TO.N,/V_V_Sense*%
%TO.C,TP106*%
X75700000Y-88300000D03*
%TD*%
%TO.N,/W_V_Sense*%
%TO.C,TP108*%
X75700000Y-101200000D03*
%TD*%
D12*
%TO.N,GND*%
%TO.C,H106*%
X46600000Y-106000000D03*
X47302944Y-104302944D03*
X47302944Y-107697056D03*
X49000000Y-103600000D03*
D13*
X49000000Y-106000000D03*
D12*
X49000000Y-108400000D03*
X50697056Y-104302944D03*
X50697056Y-107697056D03*
X51400000Y-106000000D03*
%TD*%
D21*
%TO.N,GND*%
%TO.C,J109*%
X67900000Y-108000000D03*
D22*
X67900000Y-105460000D03*
X70440000Y-108000000D03*
%TO.N,/PWM_U_H*%
X70440000Y-105460000D03*
%TO.N,GND*%
X72980000Y-108000000D03*
%TO.N,/PWM_U_L*%
X72980000Y-105460000D03*
%TO.N,GND*%
X75520000Y-108000000D03*
%TO.N,/PWM_V_H*%
X75520000Y-105460000D03*
%TO.N,GND*%
X78060000Y-108000000D03*
%TO.N,/PWM_V_L*%
X78060000Y-105460000D03*
%TO.N,GND*%
X80600000Y-108000000D03*
%TO.N,/PWM_W_H*%
X80600000Y-105460000D03*
%TO.N,GND*%
X83140000Y-108000000D03*
%TO.N,/PWM_W_L*%
X83140000Y-105460000D03*
%TO.N,GND*%
X85680000Y-108000000D03*
%TO.N,/OUT_A*%
X85680000Y-105460000D03*
%TO.N,GND*%
X88220000Y-108000000D03*
%TO.N,/OUT_B*%
X88220000Y-105460000D03*
%TO.N,GND*%
X90760000Y-108000000D03*
X90760000Y-105460000D03*
%TD*%
D23*
%TO.N,VCC*%
%TO.C,U601*%
X74540000Y-63650000D03*
%TO.N,GND*%
X72000000Y-63650000D03*
%TO.N,+12V*%
X69460000Y-63650000D03*
%TD*%
D24*
%TO.N,GND*%
X71950000Y-60600000D03*
X71950000Y-68300000D03*
X52960000Y-86000000D03*
X84600000Y-58800000D03*
X62600000Y-78800000D03*
X85400000Y-93200000D03*
X71950000Y-61400000D03*
X83600000Y-58200000D03*
X61380000Y-55040000D03*
X85150000Y-101950000D03*
X58980000Y-93970000D03*
X69875000Y-57800000D03*
X51380000Y-94600000D03*
X63800000Y-77600000D03*
X86200000Y-90500000D03*
X86650000Y-60950000D03*
X49600000Y-64960000D03*
X71950000Y-58200000D03*
X77500000Y-94698888D03*
X86200000Y-60500000D03*
X49590000Y-80960000D03*
X84692734Y-93176042D03*
X88700000Y-102300000D03*
X47000000Y-64950000D03*
X67400000Y-77600000D03*
X65000000Y-82400000D03*
X84600000Y-88800000D03*
X71950000Y-69100000D03*
X67600000Y-70300000D03*
X63330000Y-101030000D03*
X81700000Y-72000000D03*
X85195002Y-63750000D03*
X53100000Y-54590000D03*
X51900000Y-58600000D03*
X63800000Y-78800000D03*
X62600000Y-82400000D03*
X84005000Y-63500000D03*
X66200000Y-82400000D03*
X60537438Y-98627856D03*
X51000000Y-65800000D03*
X63800000Y-82400000D03*
X78870655Y-92458874D03*
X66200000Y-81200000D03*
X77300000Y-79500000D03*
X86650000Y-75950000D03*
X60700000Y-75650000D03*
X65000000Y-78800000D03*
X60800000Y-71000000D03*
X88600000Y-87200000D03*
X85195002Y-78750000D03*
X83300000Y-65665000D03*
X69800000Y-73300000D03*
X71950000Y-59800000D03*
X66200000Y-77600000D03*
X84692734Y-78176042D03*
X77300000Y-81300000D03*
X69300000Y-96000000D03*
X78000000Y-64100000D03*
X71950000Y-59000000D03*
X74200000Y-82600000D03*
X85400000Y-63200000D03*
X85200000Y-72000000D03*
X62270000Y-98720000D03*
X86650000Y-90950000D03*
X67700000Y-72900000D03*
X60090000Y-55020000D03*
X84745002Y-94200000D03*
X83300000Y-95665000D03*
X65000000Y-80000000D03*
X47000000Y-72950000D03*
X63800000Y-81200000D03*
X53675000Y-75625000D03*
X83600000Y-73200000D03*
X49600000Y-72960000D03*
X65000000Y-77600000D03*
X86200000Y-75500000D03*
X79600000Y-59400000D03*
X47000000Y-80950000D03*
X71950000Y-67500000D03*
X63800000Y-80000000D03*
X66200000Y-78800000D03*
X69060000Y-54490000D03*
X83319265Y-80629265D03*
X85400000Y-78200000D03*
X71950000Y-65900000D03*
X62600000Y-77600000D03*
X81826143Y-101764113D03*
X71400000Y-85600000D03*
X84692734Y-63176042D03*
X56200000Y-101600000D03*
X57560000Y-55030000D03*
X67400000Y-80000000D03*
X54100000Y-66000000D03*
X65000000Y-81200000D03*
X77700000Y-86300000D03*
X71950000Y-66700000D03*
X69875000Y-61100000D03*
X66200000Y-80000000D03*
X62600000Y-80000000D03*
X47360000Y-94600000D03*
X59500000Y-70700000D03*
X68872149Y-87788247D03*
X73400000Y-94400000D03*
X56600000Y-85500000D03*
X84745002Y-79200000D03*
X67400000Y-82400000D03*
X69475000Y-68200000D03*
X57870000Y-98720000D03*
X45950000Y-97530000D03*
X67400000Y-78800000D03*
X67400000Y-81200000D03*
X85195002Y-93750000D03*
X84600000Y-73800000D03*
X62050000Y-52000000D03*
X51900000Y-62200000D03*
X83550400Y-88244584D03*
X78300000Y-83500000D03*
X88800000Y-72500000D03*
X81400000Y-87900000D03*
X67700000Y-85200000D03*
X79400000Y-89300000D03*
X71700000Y-87900000D03*
X84745002Y-64200000D03*
X77100000Y-91900000D03*
X62600000Y-81200000D03*
X79500000Y-72000000D03*
%TO.N,VCC*%
X89280000Y-67415000D03*
X87800000Y-98850000D03*
X77050000Y-58200000D03*
X87680000Y-97415000D03*
X87800000Y-68850000D03*
X77050000Y-59000000D03*
X86200000Y-98850000D03*
X86880000Y-82415000D03*
X87680000Y-82415000D03*
X88600000Y-98850000D03*
X85400000Y-98850000D03*
X88480000Y-67415000D03*
X87000000Y-83850000D03*
X85400000Y-68850000D03*
X89280000Y-82415000D03*
X85400000Y-83850000D03*
X87000000Y-68850000D03*
X86080000Y-97415000D03*
X55400000Y-56400000D03*
X88480000Y-82415000D03*
X77050000Y-66700000D03*
X87000000Y-98850000D03*
X88480000Y-97415000D03*
X88600000Y-68850000D03*
X86200000Y-83850000D03*
X77050000Y-67500000D03*
X89280000Y-97415000D03*
X86880000Y-67415000D03*
X88600000Y-83850000D03*
X86880000Y-97415000D03*
X77050000Y-65900000D03*
X86200000Y-68850000D03*
X77050000Y-60600000D03*
X77050000Y-68300000D03*
X87680000Y-67415000D03*
X86080000Y-67415000D03*
X77050000Y-59800000D03*
X87800000Y-83850000D03*
X86080000Y-82415000D03*
X77050000Y-61400000D03*
X77050000Y-69100000D03*
%TO.N,+3.3V*%
X85725000Y-70400000D03*
X55900000Y-72600000D03*
X79000000Y-90100000D03*
X55900000Y-69800000D03*
X84609070Y-62350000D03*
X85771371Y-85400000D03*
X84700000Y-92200000D03*
X85800000Y-100400000D03*
X78900000Y-75100000D03*
X84727701Y-77350000D03*
X79468480Y-60189117D03*
%TO.N,/5V_BUCK*%
X51800000Y-75300000D03*
X59500000Y-64000000D03*
%TO.N,+5V*%
X59400000Y-73900000D03*
X52700000Y-66400000D03*
%TO.N,/NRST*%
X57500000Y-62100000D03*
%TO.N,+12V*%
X66925000Y-61100000D03*
X64700000Y-69300000D03*
X64600000Y-68700000D03*
X66300000Y-59400000D03*
X82550836Y-71569978D03*
X67500000Y-59400000D03*
X55200000Y-61000000D03*
X66925000Y-57800000D03*
X82500000Y-86600000D03*
X66525000Y-68200000D03*
X82590000Y-101496805D03*
%TO.N,/V_I_Sense*%
X78125174Y-75581530D03*
%TO.N,/MIC4605_SQJQ910EL_U/BM*%
X83200000Y-66935000D03*
%TO.N,/PWM_U_H*%
X70675735Y-75575735D03*
X80378025Y-66046925D03*
%TO.N,/PWM_U_L*%
X70030000Y-76200000D03*
X79800000Y-66600000D03*
X78851000Y-61650000D03*
%TO.N,/PWM_V_H*%
X73300000Y-80228613D03*
X80324265Y-81262500D03*
%TO.N,/PWM_V_L*%
X78700000Y-76800000D03*
X72801000Y-80853912D03*
X79143009Y-80960274D03*
%TO.N,/PWM_W_H*%
X80234104Y-96185574D03*
X71500000Y-93900000D03*
%TO.N,/PWM_W_L*%
X78500000Y-91650000D03*
X71525735Y-94774265D03*
X79031565Y-95898888D03*
%TO.N,/SWO*%
X61132729Y-62150000D03*
%TO.N,Net-(JP101-C)*%
X63700000Y-74100000D03*
%TO.N,/MIC4605_SQJQ910EL_V/BM*%
X83200000Y-81935000D03*
%TO.N,/MIC4605_SQJQ910EL_W/BM*%
X83200000Y-96935000D03*
%TO.N,/PWM_EN*%
X65400000Y-94800000D03*
X82345598Y-58602445D03*
X82345598Y-73602444D03*
X82345598Y-88602444D03*
%TO.N,/MIC4605_SQJQ910EL_U/CMD_H*%
X81115533Y-66356894D03*
%TO.N,/MIC4605_SQJQ910EL_U/CMD_L*%
X81900000Y-66200000D03*
X81900000Y-66200000D03*
%TO.N,/MIC4605_SQJQ910EL_V/CMD_H*%
X81130778Y-81419778D03*
%TO.N,/MIC4605_SQJQ910EL_V/CMD_L*%
X81900000Y-81200000D03*
X81900000Y-81200000D03*
%TO.N,/MIC4605_SQJQ910EL_W/CMD_H*%
X81015542Y-96356913D03*
%TO.N,/MIC4605_SQJQ910EL_W/CMD_L*%
X81800003Y-96200000D03*
%TD*%
%TA.AperFunction,Conductor*%
%TO.N,GND*%
G36*
X96003032Y-50500648D02*
G01*
X96336929Y-50517052D01*
X96349037Y-50518245D01*
X96452146Y-50533539D01*
X96676699Y-50566849D01*
X96688617Y-50569219D01*
X97009951Y-50649709D01*
X97021588Y-50653240D01*
X97092806Y-50678722D01*
X97333467Y-50764832D01*
X97344688Y-50769479D01*
X97644163Y-50911120D01*
X97654871Y-50916844D01*
X97938988Y-51087137D01*
X97949106Y-51093897D01*
X98215170Y-51291224D01*
X98224576Y-51298944D01*
X98470013Y-51521395D01*
X98478604Y-51529986D01*
X98541608Y-51599500D01*
X98701055Y-51775423D01*
X98708775Y-51784829D01*
X98906102Y-52050893D01*
X98912862Y-52061011D01*
X99068381Y-52320480D01*
X99083148Y-52345116D01*
X99088883Y-52355844D01*
X99210070Y-52612073D01*
X99230514Y-52655297D01*
X99235170Y-52666540D01*
X99346759Y-52978411D01*
X99350292Y-52990055D01*
X99430777Y-53311369D01*
X99433151Y-53323305D01*
X99481754Y-53650962D01*
X99482947Y-53663071D01*
X99499351Y-53996966D01*
X99499500Y-54003051D01*
X99499500Y-105996948D01*
X99499351Y-106003033D01*
X99482947Y-106336928D01*
X99481754Y-106349037D01*
X99433151Y-106676694D01*
X99430777Y-106688630D01*
X99350292Y-107009944D01*
X99346759Y-107021588D01*
X99235170Y-107333459D01*
X99230514Y-107344702D01*
X99088885Y-107644151D01*
X99083148Y-107654883D01*
X98912862Y-107938988D01*
X98906102Y-107949106D01*
X98708775Y-108215170D01*
X98701055Y-108224576D01*
X98478611Y-108470006D01*
X98470006Y-108478611D01*
X98224576Y-108701055D01*
X98215170Y-108708775D01*
X97949106Y-108906102D01*
X97938988Y-108912862D01*
X97654883Y-109083148D01*
X97644151Y-109088885D01*
X97344702Y-109230514D01*
X97333459Y-109235170D01*
X97021588Y-109346759D01*
X97009944Y-109350292D01*
X96688630Y-109430777D01*
X96676694Y-109433151D01*
X96349037Y-109481754D01*
X96336928Y-109482947D01*
X96021989Y-109498419D01*
X96003031Y-109499351D01*
X95996949Y-109499500D01*
X49003051Y-109499500D01*
X48996968Y-109499351D01*
X48976900Y-109498365D01*
X48663071Y-109482947D01*
X48650962Y-109481754D01*
X48323305Y-109433151D01*
X48311369Y-109430777D01*
X47990055Y-109350292D01*
X47978411Y-109346759D01*
X47666540Y-109235170D01*
X47655301Y-109230515D01*
X47355844Y-109088883D01*
X47345121Y-109083150D01*
X47061011Y-108912862D01*
X47050893Y-108906102D01*
X46784829Y-108708775D01*
X46775423Y-108701055D01*
X46736475Y-108665755D01*
X46529986Y-108478604D01*
X46521395Y-108470013D01*
X46298944Y-108224576D01*
X46291224Y-108215170D01*
X46093897Y-107949106D01*
X46087137Y-107938988D01*
X45916844Y-107654871D01*
X45911120Y-107644163D01*
X45769479Y-107344688D01*
X45764829Y-107333459D01*
X45653240Y-107021588D01*
X45649707Y-107009944D01*
X45640958Y-106975015D01*
X45569219Y-106688617D01*
X45566848Y-106676694D01*
X45542195Y-106510499D01*
X45518245Y-106349037D01*
X45517052Y-106336927D01*
X45500649Y-106003032D01*
X45500500Y-105996948D01*
X45500500Y-105356530D01*
X69389500Y-105356530D01*
X69389500Y-105563469D01*
X69429868Y-105766412D01*
X69429870Y-105766420D01*
X69509059Y-105957598D01*
X69566541Y-106043626D01*
X69624024Y-106129657D01*
X69770342Y-106275975D01*
X69770345Y-106275977D01*
X69942402Y-106390941D01*
X70133580Y-106470130D01*
X70336530Y-106510499D01*
X70336534Y-106510500D01*
X70336535Y-106510500D01*
X70543466Y-106510500D01*
X70543467Y-106510499D01*
X70746420Y-106470130D01*
X70937598Y-106390941D01*
X71109655Y-106275977D01*
X71255977Y-106129655D01*
X71370941Y-105957598D01*
X71450130Y-105766420D01*
X71490500Y-105563465D01*
X71490500Y-105356535D01*
X71490499Y-105356530D01*
X71929500Y-105356530D01*
X71929500Y-105563469D01*
X71969868Y-105766412D01*
X71969870Y-105766420D01*
X72049059Y-105957598D01*
X72106541Y-106043626D01*
X72164024Y-106129657D01*
X72310342Y-106275975D01*
X72310345Y-106275977D01*
X72482402Y-106390941D01*
X72673580Y-106470130D01*
X72876530Y-106510499D01*
X72876534Y-106510500D01*
X72876535Y-106510500D01*
X73083466Y-106510500D01*
X73083467Y-106510499D01*
X73286420Y-106470130D01*
X73477598Y-106390941D01*
X73649655Y-106275977D01*
X73795977Y-106129655D01*
X73910941Y-105957598D01*
X73990130Y-105766420D01*
X74030500Y-105563465D01*
X74030500Y-105356535D01*
X74030499Y-105356530D01*
X74469500Y-105356530D01*
X74469500Y-105563469D01*
X74509868Y-105766412D01*
X74509870Y-105766420D01*
X74589059Y-105957598D01*
X74646541Y-106043626D01*
X74704024Y-106129657D01*
X74850342Y-106275975D01*
X74850345Y-106275977D01*
X75022402Y-106390941D01*
X75213580Y-106470130D01*
X75416530Y-106510499D01*
X75416534Y-106510500D01*
X75416535Y-106510500D01*
X75623466Y-106510500D01*
X75623467Y-106510499D01*
X75826420Y-106470130D01*
X76017598Y-106390941D01*
X76189655Y-106275977D01*
X76335977Y-106129655D01*
X76450941Y-105957598D01*
X76530130Y-105766420D01*
X76570500Y-105563465D01*
X76570500Y-105356535D01*
X76570499Y-105356530D01*
X77009500Y-105356530D01*
X77009500Y-105563469D01*
X77049868Y-105766412D01*
X77049870Y-105766420D01*
X77129059Y-105957598D01*
X77186541Y-106043626D01*
X77244024Y-106129657D01*
X77390342Y-106275975D01*
X77390345Y-106275977D01*
X77562402Y-106390941D01*
X77753580Y-106470130D01*
X77956530Y-106510499D01*
X77956534Y-106510500D01*
X77956535Y-106510500D01*
X78163466Y-106510500D01*
X78163467Y-106510499D01*
X78366420Y-106470130D01*
X78557598Y-106390941D01*
X78729655Y-106275977D01*
X78875977Y-106129655D01*
X78990941Y-105957598D01*
X79070130Y-105766420D01*
X79110500Y-105563465D01*
X79110500Y-105356535D01*
X79110499Y-105356530D01*
X79549500Y-105356530D01*
X79549500Y-105563469D01*
X79589868Y-105766412D01*
X79589870Y-105766420D01*
X79669059Y-105957598D01*
X79726541Y-106043626D01*
X79784024Y-106129657D01*
X79930342Y-106275975D01*
X79930345Y-106275977D01*
X80102402Y-106390941D01*
X80293580Y-106470130D01*
X80496530Y-106510499D01*
X80496534Y-106510500D01*
X80496535Y-106510500D01*
X80703466Y-106510500D01*
X80703467Y-106510499D01*
X80906420Y-106470130D01*
X81097598Y-106390941D01*
X81269655Y-106275977D01*
X81415977Y-106129655D01*
X81530941Y-105957598D01*
X81610130Y-105766420D01*
X81650500Y-105563465D01*
X81650500Y-105356535D01*
X81650499Y-105356530D01*
X82089500Y-105356530D01*
X82089500Y-105563469D01*
X82129868Y-105766412D01*
X82129870Y-105766420D01*
X82209059Y-105957598D01*
X82266541Y-106043626D01*
X82324024Y-106129657D01*
X82470342Y-106275975D01*
X82470345Y-106275977D01*
X82642402Y-106390941D01*
X82833580Y-106470130D01*
X83036530Y-106510499D01*
X83036534Y-106510500D01*
X83036535Y-106510500D01*
X83243466Y-106510500D01*
X83243467Y-106510499D01*
X83446420Y-106470130D01*
X83637598Y-106390941D01*
X83809655Y-106275977D01*
X83955977Y-106129655D01*
X84070941Y-105957598D01*
X84150130Y-105766420D01*
X84190500Y-105563465D01*
X84190500Y-105356535D01*
X84190499Y-105356530D01*
X84629500Y-105356530D01*
X84629500Y-105563469D01*
X84669868Y-105766412D01*
X84669870Y-105766420D01*
X84749059Y-105957598D01*
X84806541Y-106043626D01*
X84864024Y-106129657D01*
X85010342Y-106275975D01*
X85010345Y-106275977D01*
X85182402Y-106390941D01*
X85373580Y-106470130D01*
X85576530Y-106510499D01*
X85576534Y-106510500D01*
X85576535Y-106510500D01*
X85783466Y-106510500D01*
X85783467Y-106510499D01*
X85986420Y-106470130D01*
X86177598Y-106390941D01*
X86349655Y-106275977D01*
X86495977Y-106129655D01*
X86610941Y-105957598D01*
X86690130Y-105766420D01*
X86730500Y-105563465D01*
X86730500Y-105356535D01*
X86730499Y-105356530D01*
X87169500Y-105356530D01*
X87169500Y-105563469D01*
X87209868Y-105766412D01*
X87209870Y-105766420D01*
X87289059Y-105957598D01*
X87346541Y-106043626D01*
X87404024Y-106129657D01*
X87550342Y-106275975D01*
X87550345Y-106275977D01*
X87722402Y-106390941D01*
X87913580Y-106470130D01*
X88116530Y-106510499D01*
X88116534Y-106510500D01*
X88116535Y-106510500D01*
X88323466Y-106510500D01*
X88323467Y-106510499D01*
X88526420Y-106470130D01*
X88717598Y-106390941D01*
X88889655Y-106275977D01*
X89035977Y-106129655D01*
X89150941Y-105957598D01*
X89230130Y-105766420D01*
X89270500Y-105563465D01*
X89270500Y-105356535D01*
X89230130Y-105153580D01*
X89150941Y-104962402D01*
X89035977Y-104790345D01*
X89035975Y-104790342D01*
X88889657Y-104644024D01*
X88803626Y-104586541D01*
X88717598Y-104529059D01*
X88526420Y-104449870D01*
X88526412Y-104449868D01*
X88323469Y-104409500D01*
X88323465Y-104409500D01*
X88116535Y-104409500D01*
X88116530Y-104409500D01*
X87913587Y-104449868D01*
X87913579Y-104449870D01*
X87722403Y-104529058D01*
X87550342Y-104644024D01*
X87404024Y-104790342D01*
X87289058Y-104962403D01*
X87209870Y-105153579D01*
X87209868Y-105153587D01*
X87169500Y-105356530D01*
X86730499Y-105356530D01*
X86690130Y-105153580D01*
X86610941Y-104962402D01*
X86495977Y-104790345D01*
X86495975Y-104790342D01*
X86349657Y-104644024D01*
X86263626Y-104586541D01*
X86177598Y-104529059D01*
X85986420Y-104449870D01*
X85986412Y-104449868D01*
X85783469Y-104409500D01*
X85783465Y-104409500D01*
X85576535Y-104409500D01*
X85576530Y-104409500D01*
X85373587Y-104449868D01*
X85373579Y-104449870D01*
X85182403Y-104529058D01*
X85010342Y-104644024D01*
X84864024Y-104790342D01*
X84749058Y-104962403D01*
X84669870Y-105153579D01*
X84669868Y-105153587D01*
X84629500Y-105356530D01*
X84190499Y-105356530D01*
X84150130Y-105153580D01*
X84070941Y-104962402D01*
X83955977Y-104790345D01*
X83955975Y-104790342D01*
X83809657Y-104644024D01*
X83723626Y-104586541D01*
X83637598Y-104529059D01*
X83446420Y-104449870D01*
X83446412Y-104449868D01*
X83243469Y-104409500D01*
X83243465Y-104409500D01*
X83036535Y-104409500D01*
X83036530Y-104409500D01*
X82833587Y-104449868D01*
X82833579Y-104449870D01*
X82642403Y-104529058D01*
X82470342Y-104644024D01*
X82324024Y-104790342D01*
X82209058Y-104962403D01*
X82129870Y-105153579D01*
X82129868Y-105153587D01*
X82089500Y-105356530D01*
X81650499Y-105356530D01*
X81610130Y-105153580D01*
X81530941Y-104962402D01*
X81415977Y-104790345D01*
X81415975Y-104790342D01*
X81269657Y-104644024D01*
X81183626Y-104586541D01*
X81097598Y-104529059D01*
X80906420Y-104449870D01*
X80906412Y-104449868D01*
X80703469Y-104409500D01*
X80703465Y-104409500D01*
X80496535Y-104409500D01*
X80496530Y-104409500D01*
X80293587Y-104449868D01*
X80293579Y-104449870D01*
X80102403Y-104529058D01*
X79930342Y-104644024D01*
X79784024Y-104790342D01*
X79669058Y-104962403D01*
X79589870Y-105153579D01*
X79589868Y-105153587D01*
X79549500Y-105356530D01*
X79110499Y-105356530D01*
X79070130Y-105153580D01*
X78990941Y-104962402D01*
X78875977Y-104790345D01*
X78875975Y-104790342D01*
X78729657Y-104644024D01*
X78643626Y-104586541D01*
X78557598Y-104529059D01*
X78366420Y-104449870D01*
X78366412Y-104449868D01*
X78163469Y-104409500D01*
X78163465Y-104409500D01*
X77956535Y-104409500D01*
X77956530Y-104409500D01*
X77753587Y-104449868D01*
X77753579Y-104449870D01*
X77562403Y-104529058D01*
X77390342Y-104644024D01*
X77244024Y-104790342D01*
X77129058Y-104962403D01*
X77049870Y-105153579D01*
X77049868Y-105153587D01*
X77009500Y-105356530D01*
X76570499Y-105356530D01*
X76530130Y-105153580D01*
X76450941Y-104962402D01*
X76335977Y-104790345D01*
X76335975Y-104790342D01*
X76189657Y-104644024D01*
X76103626Y-104586541D01*
X76017598Y-104529059D01*
X75826420Y-104449870D01*
X75826412Y-104449868D01*
X75623469Y-104409500D01*
X75623465Y-104409500D01*
X75416535Y-104409500D01*
X75416530Y-104409500D01*
X75213587Y-104449868D01*
X75213579Y-104449870D01*
X75022403Y-104529058D01*
X74850342Y-104644024D01*
X74704024Y-104790342D01*
X74589058Y-104962403D01*
X74509870Y-105153579D01*
X74509868Y-105153587D01*
X74469500Y-105356530D01*
X74030499Y-105356530D01*
X73990130Y-105153580D01*
X73910941Y-104962402D01*
X73795977Y-104790345D01*
X73795975Y-104790342D01*
X73649657Y-104644024D01*
X73563626Y-104586541D01*
X73477598Y-104529059D01*
X73286420Y-104449870D01*
X73286412Y-104449868D01*
X73083469Y-104409500D01*
X73083465Y-104409500D01*
X72876535Y-104409500D01*
X72876530Y-104409500D01*
X72673587Y-104449868D01*
X72673579Y-104449870D01*
X72482403Y-104529058D01*
X72310342Y-104644024D01*
X72164024Y-104790342D01*
X72049058Y-104962403D01*
X71969870Y-105153579D01*
X71969868Y-105153587D01*
X71929500Y-105356530D01*
X71490499Y-105356530D01*
X71450130Y-105153580D01*
X71370941Y-104962402D01*
X71255977Y-104790345D01*
X71255975Y-104790342D01*
X71109657Y-104644024D01*
X71023626Y-104586541D01*
X70937598Y-104529059D01*
X70746420Y-104449870D01*
X70746412Y-104449868D01*
X70543469Y-104409500D01*
X70543465Y-104409500D01*
X70336535Y-104409500D01*
X70336530Y-104409500D01*
X70133587Y-104449868D01*
X70133579Y-104449870D01*
X69942403Y-104529058D01*
X69770342Y-104644024D01*
X69624024Y-104790342D01*
X69509058Y-104962403D01*
X69429870Y-105153579D01*
X69429868Y-105153587D01*
X69389500Y-105356530D01*
X45500500Y-105356530D01*
X45500500Y-103424234D01*
X56614500Y-103424234D01*
X56614500Y-103575765D01*
X56653719Y-103722136D01*
X56691602Y-103787750D01*
X56729485Y-103853365D01*
X56836635Y-103960515D01*
X56967865Y-104036281D01*
X57114234Y-104075500D01*
X57114236Y-104075500D01*
X57265764Y-104075500D01*
X57265766Y-104075500D01*
X57412135Y-104036281D01*
X57543365Y-103960515D01*
X57650515Y-103853365D01*
X57726281Y-103722135D01*
X57765500Y-103575766D01*
X57765500Y-103424234D01*
X62394500Y-103424234D01*
X62394500Y-103575765D01*
X62433719Y-103722136D01*
X62471602Y-103787750D01*
X62509485Y-103853365D01*
X62616635Y-103960515D01*
X62747865Y-104036281D01*
X62894234Y-104075500D01*
X62894236Y-104075500D01*
X63045764Y-104075500D01*
X63045766Y-104075500D01*
X63192135Y-104036281D01*
X63323365Y-103960515D01*
X63430515Y-103853365D01*
X63506281Y-103722135D01*
X63545500Y-103575766D01*
X63545500Y-103424234D01*
X63506281Y-103277865D01*
X63502436Y-103271206D01*
X63471995Y-103218480D01*
X63430515Y-103146635D01*
X63323365Y-103039485D01*
X63257750Y-103001602D01*
X63192136Y-102963719D01*
X63180727Y-102960662D01*
X63045766Y-102924500D01*
X62894234Y-102924500D01*
X62747863Y-102963719D01*
X62616635Y-103039485D01*
X62616632Y-103039487D01*
X62509487Y-103146632D01*
X62509485Y-103146635D01*
X62433719Y-103277863D01*
X62394500Y-103424234D01*
X57765500Y-103424234D01*
X57726281Y-103277865D01*
X57722436Y-103271206D01*
X57691995Y-103218480D01*
X57650515Y-103146635D01*
X57543365Y-103039485D01*
X57477750Y-103001602D01*
X57412136Y-102963719D01*
X57338950Y-102944109D01*
X57265766Y-102924500D01*
X57114234Y-102924500D01*
X56967863Y-102963719D01*
X56836635Y-103039485D01*
X56836632Y-103039487D01*
X56729487Y-103146632D01*
X56729485Y-103146635D01*
X56653719Y-103277863D01*
X56614500Y-103424234D01*
X45500500Y-103424234D01*
X45500500Y-102845273D01*
X73799500Y-102845273D01*
X73799500Y-102950727D01*
X73826793Y-103052587D01*
X73879520Y-103143913D01*
X73954087Y-103218480D01*
X74045413Y-103271207D01*
X74147273Y-103298500D01*
X74147275Y-103298500D01*
X74252725Y-103298500D01*
X74252727Y-103298500D01*
X74354587Y-103271207D01*
X74445913Y-103218480D01*
X74520480Y-103143913D01*
X74573207Y-103052587D01*
X74600500Y-102950727D01*
X74600500Y-102845273D01*
X74573207Y-102743413D01*
X74520480Y-102652087D01*
X74445913Y-102577520D01*
X74354587Y-102524793D01*
X74252727Y-102497500D01*
X74147273Y-102497500D01*
X74045413Y-102524793D01*
X74045410Y-102524794D01*
X73954085Y-102577521D01*
X73879521Y-102652085D01*
X73826794Y-102743410D01*
X73826793Y-102743413D01*
X73799500Y-102845273D01*
X45500500Y-102845273D01*
X45500500Y-102239458D01*
X69249013Y-102239458D01*
X69249013Y-102344912D01*
X69276306Y-102446772D01*
X69329033Y-102538098D01*
X69403600Y-102612665D01*
X69494926Y-102665392D01*
X69596786Y-102692685D01*
X69596788Y-102692685D01*
X69702238Y-102692685D01*
X69702240Y-102692685D01*
X69804100Y-102665392D01*
X69895426Y-102612665D01*
X69969993Y-102538098D01*
X70022720Y-102446772D01*
X70050013Y-102344912D01*
X70050013Y-102239458D01*
X70022720Y-102137598D01*
X69969993Y-102046272D01*
X69895426Y-101971705D01*
X69804100Y-101918978D01*
X69702240Y-101891685D01*
X69596786Y-101891685D01*
X69494926Y-101918978D01*
X69494923Y-101918979D01*
X69403598Y-101971706D01*
X69329034Y-102046270D01*
X69276307Y-102137595D01*
X69276306Y-102137598D01*
X69249013Y-102239458D01*
X45500500Y-102239458D01*
X45500500Y-101247273D01*
X48699500Y-101247273D01*
X48699500Y-101352727D01*
X48726793Y-101454587D01*
X48779520Y-101545913D01*
X48854087Y-101620480D01*
X48945413Y-101673207D01*
X49047273Y-101700500D01*
X49047275Y-101700500D01*
X49152725Y-101700500D01*
X49152727Y-101700500D01*
X49254587Y-101673207D01*
X49345913Y-101620480D01*
X49420480Y-101545913D01*
X49473207Y-101454587D01*
X49500500Y-101352727D01*
X49500500Y-101247273D01*
X49473207Y-101145413D01*
X49445630Y-101097648D01*
X74399500Y-101097648D01*
X74399500Y-101302352D01*
X74399701Y-101303619D01*
X74431522Y-101504534D01*
X74494781Y-101699223D01*
X74587715Y-101881613D01*
X74708028Y-102047213D01*
X74852786Y-102191971D01*
X75007749Y-102304556D01*
X75018390Y-102312287D01*
X75134607Y-102371503D01*
X75200776Y-102405218D01*
X75200778Y-102405218D01*
X75200781Y-102405220D01*
X75305137Y-102439127D01*
X75395465Y-102468477D01*
X75496557Y-102484488D01*
X75597648Y-102500500D01*
X75597649Y-102500500D01*
X75802351Y-102500500D01*
X75802352Y-102500500D01*
X76004534Y-102468477D01*
X76199219Y-102405220D01*
X76381610Y-102312287D01*
X76481851Y-102239458D01*
X76547213Y-102191971D01*
X76547215Y-102191968D01*
X76547219Y-102191966D01*
X76691966Y-102047219D01*
X76691968Y-102047215D01*
X76691971Y-102047213D01*
X76785137Y-101918979D01*
X76812287Y-101881610D01*
X76905220Y-101699219D01*
X76968477Y-101504534D01*
X76980138Y-101430913D01*
X82089500Y-101430913D01*
X82089500Y-101562696D01*
X82123608Y-101689992D01*
X82129675Y-101700500D01*
X82189500Y-101804119D01*
X82282686Y-101897305D01*
X82396814Y-101963197D01*
X82524108Y-101997305D01*
X82524110Y-101997305D01*
X82655890Y-101997305D01*
X82655892Y-101997305D01*
X82783186Y-101963197D01*
X82897314Y-101897305D01*
X82990500Y-101804119D01*
X83056392Y-101689991D01*
X83090500Y-101562697D01*
X83090500Y-101430913D01*
X83056392Y-101303619D01*
X83055660Y-101302352D01*
X83047563Y-101288326D01*
X82990500Y-101189491D01*
X82897314Y-101096305D01*
X82840250Y-101063359D01*
X82783187Y-101030413D01*
X82719539Y-101013359D01*
X82655892Y-100996305D01*
X82524108Y-100996305D01*
X82396812Y-101030413D01*
X82282686Y-101096305D01*
X82282683Y-101096307D01*
X82189502Y-101189488D01*
X82189500Y-101189491D01*
X82123608Y-101303617D01*
X82089500Y-101430913D01*
X76980138Y-101430913D01*
X77000500Y-101302352D01*
X77000500Y-101097648D01*
X76981790Y-100979520D01*
X76968477Y-100895465D01*
X76907343Y-100707316D01*
X76905220Y-100700781D01*
X76905218Y-100700778D01*
X76905218Y-100700776D01*
X76850398Y-100593187D01*
X76812287Y-100518390D01*
X76779459Y-100473206D01*
X76725449Y-100398866D01*
X76725448Y-100398865D01*
X76691969Y-100352784D01*
X76673293Y-100334108D01*
X85299500Y-100334108D01*
X85299500Y-100465892D01*
X85301460Y-100473206D01*
X85333608Y-100593187D01*
X85366554Y-100650250D01*
X85399500Y-100707314D01*
X85492686Y-100800500D01*
X85606814Y-100866392D01*
X85734108Y-100900500D01*
X85734110Y-100900500D01*
X85865890Y-100900500D01*
X85865892Y-100900500D01*
X85993186Y-100866392D01*
X86107314Y-100800500D01*
X86200500Y-100707314D01*
X86266392Y-100593186D01*
X86300500Y-100465892D01*
X86300500Y-100334108D01*
X86266392Y-100206814D01*
X86200500Y-100092686D01*
X86107314Y-99999500D01*
X86013628Y-99945410D01*
X85993187Y-99933608D01*
X85929539Y-99916554D01*
X85865892Y-99899500D01*
X85734108Y-99899500D01*
X85606812Y-99933608D01*
X85492686Y-99999500D01*
X85492683Y-99999502D01*
X85399502Y-100092683D01*
X85399500Y-100092686D01*
X85333608Y-100206812D01*
X85320807Y-100254587D01*
X85299500Y-100334108D01*
X76673293Y-100334108D01*
X76547213Y-100208028D01*
X76381613Y-100087715D01*
X76381612Y-100087714D01*
X76381610Y-100087713D01*
X76302246Y-100047275D01*
X76199223Y-99994781D01*
X76004534Y-99931522D01*
X75829995Y-99903878D01*
X75802352Y-99899500D01*
X75597648Y-99899500D01*
X75573329Y-99903351D01*
X75395465Y-99931522D01*
X75200776Y-99994781D01*
X75018386Y-100087715D01*
X74852786Y-100208028D01*
X74708028Y-100352786D01*
X74587715Y-100518386D01*
X74494781Y-100700776D01*
X74431522Y-100895465D01*
X74410149Y-101030413D01*
X74399500Y-101097648D01*
X49445630Y-101097648D01*
X49420480Y-101054087D01*
X49345913Y-100979520D01*
X49254587Y-100926793D01*
X49152727Y-100899500D01*
X49047273Y-100899500D01*
X48945413Y-100926793D01*
X48945410Y-100926794D01*
X48854085Y-100979521D01*
X48779521Y-101054085D01*
X48726794Y-101145410D01*
X48726793Y-101145413D01*
X48699500Y-101247273D01*
X45500500Y-101247273D01*
X45500500Y-100551783D01*
X56678880Y-100551783D01*
X56678880Y-100657237D01*
X56706173Y-100759097D01*
X56758900Y-100850423D01*
X56833467Y-100924990D01*
X56924793Y-100977717D01*
X57026653Y-101005010D01*
X57026655Y-101005010D01*
X57132105Y-101005010D01*
X57132107Y-101005010D01*
X57233967Y-100977717D01*
X57325293Y-100924990D01*
X57399860Y-100850423D01*
X57452587Y-100759097D01*
X57479880Y-100657237D01*
X57479880Y-100551783D01*
X57452587Y-100449923D01*
X57399860Y-100358597D01*
X57325293Y-100284030D01*
X57233967Y-100231303D01*
X57132107Y-100204010D01*
X57026653Y-100204010D01*
X56924793Y-100231303D01*
X56924790Y-100231304D01*
X56833465Y-100284031D01*
X56758901Y-100358595D01*
X56706174Y-100449920D01*
X56706173Y-100449923D01*
X56678880Y-100551783D01*
X45500500Y-100551783D01*
X45500500Y-100047273D01*
X48699500Y-100047273D01*
X48699500Y-100152727D01*
X48726793Y-100254587D01*
X48779520Y-100345913D01*
X48854087Y-100420480D01*
X48945413Y-100473207D01*
X49047273Y-100500500D01*
X49047275Y-100500500D01*
X49152725Y-100500500D01*
X49152727Y-100500500D01*
X49254587Y-100473207D01*
X49345913Y-100420480D01*
X49420480Y-100345913D01*
X49473207Y-100254587D01*
X49500500Y-100152727D01*
X49500500Y-100047273D01*
X49473207Y-99945413D01*
X49420480Y-99854087D01*
X49345913Y-99779520D01*
X49254587Y-99726793D01*
X49152727Y-99699500D01*
X49047273Y-99699500D01*
X48945413Y-99726793D01*
X48945410Y-99726794D01*
X48854085Y-99779521D01*
X48779521Y-99854085D01*
X48726794Y-99945410D01*
X48726793Y-99945413D01*
X48699500Y-100047273D01*
X45500500Y-100047273D01*
X45500500Y-98747273D01*
X48699500Y-98747273D01*
X48699500Y-98852727D01*
X48726793Y-98954587D01*
X48779520Y-99045913D01*
X48854087Y-99120480D01*
X48945413Y-99173207D01*
X49047273Y-99200500D01*
X49047275Y-99200500D01*
X49152725Y-99200500D01*
X49152727Y-99200500D01*
X49254587Y-99173207D01*
X49345913Y-99120480D01*
X49420480Y-99045913D01*
X49473207Y-98954587D01*
X49500500Y-98852727D01*
X49500500Y-98850632D01*
X59377157Y-98850632D01*
X59377157Y-98956086D01*
X59404450Y-99057946D01*
X59457177Y-99149272D01*
X59531744Y-99223839D01*
X59623070Y-99276566D01*
X59724930Y-99303859D01*
X59724932Y-99303859D01*
X59830382Y-99303859D01*
X59830384Y-99303859D01*
X59932244Y-99276566D01*
X60023570Y-99223839D01*
X60098137Y-99149272D01*
X60150864Y-99057946D01*
X60178157Y-98956086D01*
X60178157Y-98850632D01*
X60177257Y-98847273D01*
X68851013Y-98847273D01*
X68851013Y-98952727D01*
X68878306Y-99054587D01*
X68931033Y-99145913D01*
X69005600Y-99220480D01*
X69096926Y-99273207D01*
X69198786Y-99300500D01*
X69198788Y-99300500D01*
X69304238Y-99300500D01*
X69304240Y-99300500D01*
X69406100Y-99273207D01*
X69497426Y-99220480D01*
X69571993Y-99145913D01*
X69624720Y-99054587D01*
X69652013Y-98952727D01*
X69652013Y-98847273D01*
X69624720Y-98745413D01*
X69571993Y-98654087D01*
X69497426Y-98579520D01*
X69406100Y-98526793D01*
X69304240Y-98499500D01*
X69198786Y-98499500D01*
X69096926Y-98526793D01*
X69096923Y-98526794D01*
X69005598Y-98579521D01*
X68931034Y-98654085D01*
X68878307Y-98745410D01*
X68878306Y-98745413D01*
X68851013Y-98847273D01*
X60177257Y-98847273D01*
X60150864Y-98748772D01*
X60098137Y-98657446D01*
X60023570Y-98582879D01*
X59932244Y-98530152D01*
X59830384Y-98502859D01*
X59724930Y-98502859D01*
X59623070Y-98530152D01*
X59623067Y-98530153D01*
X59531742Y-98582880D01*
X59457178Y-98657444D01*
X59404451Y-98748769D01*
X59404450Y-98748772D01*
X59377157Y-98850632D01*
X49500500Y-98850632D01*
X49500500Y-98747273D01*
X49473207Y-98645413D01*
X49420480Y-98554087D01*
X49345913Y-98479520D01*
X49254587Y-98426793D01*
X49152727Y-98399500D01*
X49047273Y-98399500D01*
X48945413Y-98426793D01*
X48945410Y-98426794D01*
X48854085Y-98479521D01*
X48779521Y-98554085D01*
X48726794Y-98645410D01*
X48726793Y-98645413D01*
X48699500Y-98747273D01*
X45500500Y-98747273D01*
X45500500Y-97697648D01*
X74399500Y-97697648D01*
X74399500Y-97902352D01*
X74403878Y-97929995D01*
X74431522Y-98104534D01*
X74494781Y-98299223D01*
X74520399Y-98349500D01*
X74586648Y-98479520D01*
X74587715Y-98481613D01*
X74708028Y-98647213D01*
X74852786Y-98791971D01*
X75007749Y-98904556D01*
X75018390Y-98912287D01*
X75134607Y-98971503D01*
X75200776Y-99005218D01*
X75200778Y-99005218D01*
X75200781Y-99005220D01*
X75305137Y-99039127D01*
X75395465Y-99068477D01*
X75496557Y-99084488D01*
X75597648Y-99100500D01*
X75597649Y-99100500D01*
X75802351Y-99100500D01*
X75802352Y-99100500D01*
X76004534Y-99068477D01*
X76199219Y-99005220D01*
X76381610Y-98912287D01*
X76474590Y-98844732D01*
X76547213Y-98791971D01*
X76547215Y-98791968D01*
X76547219Y-98791966D01*
X76555077Y-98784108D01*
X84899500Y-98784108D01*
X84899500Y-98915891D01*
X84933608Y-99043187D01*
X84966554Y-99100250D01*
X84999500Y-99157314D01*
X85092686Y-99250500D01*
X85206814Y-99316392D01*
X85334108Y-99350500D01*
X85334110Y-99350500D01*
X85465890Y-99350500D01*
X85465892Y-99350500D01*
X85593186Y-99316392D01*
X85707314Y-99250500D01*
X85712319Y-99245495D01*
X85773642Y-99212010D01*
X85843334Y-99216994D01*
X85887681Y-99245495D01*
X85892686Y-99250500D01*
X86006814Y-99316392D01*
X86134108Y-99350500D01*
X86134110Y-99350500D01*
X86265890Y-99350500D01*
X86265892Y-99350500D01*
X86393186Y-99316392D01*
X86507314Y-99250500D01*
X86512319Y-99245495D01*
X86573642Y-99212010D01*
X86643334Y-99216994D01*
X86687681Y-99245495D01*
X86692686Y-99250500D01*
X86806814Y-99316392D01*
X86934108Y-99350500D01*
X86934110Y-99350500D01*
X87065890Y-99350500D01*
X87065892Y-99350500D01*
X87193186Y-99316392D01*
X87307314Y-99250500D01*
X87312319Y-99245495D01*
X87373642Y-99212010D01*
X87443334Y-99216994D01*
X87487681Y-99245495D01*
X87492686Y-99250500D01*
X87606814Y-99316392D01*
X87734108Y-99350500D01*
X87734110Y-99350500D01*
X87865890Y-99350500D01*
X87865892Y-99350500D01*
X87993186Y-99316392D01*
X88107314Y-99250500D01*
X88112319Y-99245495D01*
X88173642Y-99212010D01*
X88243334Y-99216994D01*
X88287681Y-99245495D01*
X88292686Y-99250500D01*
X88406814Y-99316392D01*
X88534108Y-99350500D01*
X88534110Y-99350500D01*
X88665890Y-99350500D01*
X88665892Y-99350500D01*
X88793186Y-99316392D01*
X88907314Y-99250500D01*
X89000500Y-99157314D01*
X89066392Y-99043186D01*
X89100500Y-98915892D01*
X89100500Y-98784108D01*
X89066392Y-98656814D01*
X89064816Y-98654085D01*
X89057563Y-98641521D01*
X89000500Y-98542686D01*
X88907314Y-98449500D01*
X88820712Y-98399500D01*
X88793187Y-98383608D01*
X88729539Y-98366554D01*
X88665892Y-98349500D01*
X88534108Y-98349500D01*
X88406812Y-98383608D01*
X88292686Y-98449500D01*
X88292683Y-98449502D01*
X88287681Y-98454505D01*
X88226358Y-98487990D01*
X88156666Y-98483006D01*
X88112319Y-98454505D01*
X88107316Y-98449502D01*
X88107314Y-98449500D01*
X88020712Y-98399500D01*
X87993187Y-98383608D01*
X87929539Y-98366554D01*
X87865892Y-98349500D01*
X87734108Y-98349500D01*
X87606812Y-98383608D01*
X87492686Y-98449500D01*
X87492683Y-98449502D01*
X87487681Y-98454505D01*
X87426358Y-98487990D01*
X87356666Y-98483006D01*
X87312319Y-98454505D01*
X87307316Y-98449502D01*
X87307314Y-98449500D01*
X87220712Y-98399500D01*
X87193187Y-98383608D01*
X87129539Y-98366554D01*
X87065892Y-98349500D01*
X86934108Y-98349500D01*
X86806812Y-98383608D01*
X86692686Y-98449500D01*
X86692683Y-98449502D01*
X86687681Y-98454505D01*
X86626358Y-98487990D01*
X86556666Y-98483006D01*
X86512319Y-98454505D01*
X86507316Y-98449502D01*
X86507314Y-98449500D01*
X86420712Y-98399500D01*
X86393187Y-98383608D01*
X86329539Y-98366554D01*
X86265892Y-98349500D01*
X86134108Y-98349500D01*
X86006812Y-98383608D01*
X85892686Y-98449500D01*
X85892683Y-98449502D01*
X85887681Y-98454505D01*
X85826358Y-98487990D01*
X85756666Y-98483006D01*
X85712319Y-98454505D01*
X85707316Y-98449502D01*
X85707314Y-98449500D01*
X85620712Y-98399500D01*
X85593187Y-98383608D01*
X85529539Y-98366554D01*
X85465892Y-98349500D01*
X85334108Y-98349500D01*
X85206812Y-98383608D01*
X85092686Y-98449500D01*
X85092683Y-98449502D01*
X84999502Y-98542683D01*
X84999500Y-98542686D01*
X84933608Y-98656812D01*
X84899500Y-98784108D01*
X76555077Y-98784108D01*
X76691966Y-98647219D01*
X76691968Y-98647215D01*
X76691971Y-98647213D01*
X76768276Y-98542186D01*
X76812287Y-98481610D01*
X76905220Y-98299219D01*
X76968477Y-98104534D01*
X77000500Y-97902352D01*
X77000500Y-97697648D01*
X76968477Y-97495466D01*
X76963741Y-97480891D01*
X76939127Y-97405137D01*
X76905220Y-97300781D01*
X76905218Y-97300778D01*
X76905218Y-97300776D01*
X76864983Y-97221812D01*
X76812287Y-97118390D01*
X76764772Y-97052990D01*
X76691971Y-96952786D01*
X76608293Y-96869108D01*
X82699500Y-96869108D01*
X82699500Y-97000892D01*
X82716554Y-97064539D01*
X82733608Y-97128187D01*
X82766554Y-97185250D01*
X82799500Y-97242314D01*
X82892686Y-97335500D01*
X83006814Y-97401392D01*
X83134108Y-97435500D01*
X83134110Y-97435500D01*
X83265890Y-97435500D01*
X83265892Y-97435500D01*
X83393186Y-97401392D01*
X83483744Y-97349108D01*
X85579500Y-97349108D01*
X85579500Y-97480891D01*
X85613608Y-97608187D01*
X85646554Y-97665250D01*
X85679500Y-97722314D01*
X85772686Y-97815500D01*
X85886814Y-97881392D01*
X86014108Y-97915500D01*
X86014110Y-97915500D01*
X86145890Y-97915500D01*
X86145892Y-97915500D01*
X86273186Y-97881392D01*
X86387314Y-97815500D01*
X86392319Y-97810495D01*
X86453642Y-97777010D01*
X86523334Y-97781994D01*
X86567681Y-97810495D01*
X86572686Y-97815500D01*
X86686814Y-97881392D01*
X86814108Y-97915500D01*
X86814110Y-97915500D01*
X86945890Y-97915500D01*
X86945892Y-97915500D01*
X87073186Y-97881392D01*
X87187314Y-97815500D01*
X87192319Y-97810495D01*
X87253642Y-97777010D01*
X87323334Y-97781994D01*
X87367681Y-97810495D01*
X87372686Y-97815500D01*
X87486814Y-97881392D01*
X87614108Y-97915500D01*
X87614110Y-97915500D01*
X87745890Y-97915500D01*
X87745892Y-97915500D01*
X87873186Y-97881392D01*
X87987314Y-97815500D01*
X87992319Y-97810495D01*
X88053642Y-97777010D01*
X88123334Y-97781994D01*
X88167681Y-97810495D01*
X88172686Y-97815500D01*
X88286814Y-97881392D01*
X88414108Y-97915500D01*
X88414110Y-97915500D01*
X88545890Y-97915500D01*
X88545892Y-97915500D01*
X88673186Y-97881392D01*
X88787314Y-97815500D01*
X88792319Y-97810495D01*
X88853642Y-97777010D01*
X88923334Y-97781994D01*
X88967681Y-97810495D01*
X88972686Y-97815500D01*
X89086814Y-97881392D01*
X89214108Y-97915500D01*
X89214110Y-97915500D01*
X89345890Y-97915500D01*
X89345892Y-97915500D01*
X89473186Y-97881392D01*
X89587314Y-97815500D01*
X89680500Y-97722314D01*
X89746392Y-97608186D01*
X89780500Y-97480892D01*
X89780500Y-97349108D01*
X89746392Y-97221814D01*
X89680500Y-97107686D01*
X89587314Y-97014500D01*
X89530250Y-96981554D01*
X89473187Y-96948608D01*
X89409539Y-96931554D01*
X89345892Y-96914500D01*
X89214108Y-96914500D01*
X89086812Y-96948608D01*
X88972686Y-97014500D01*
X88972683Y-97014502D01*
X88967681Y-97019505D01*
X88906358Y-97052990D01*
X88836666Y-97048006D01*
X88792319Y-97019505D01*
X88787316Y-97014502D01*
X88787314Y-97014500D01*
X88730250Y-96981554D01*
X88673187Y-96948608D01*
X88609539Y-96931554D01*
X88545892Y-96914500D01*
X88414108Y-96914500D01*
X88286812Y-96948608D01*
X88172686Y-97014500D01*
X88172683Y-97014502D01*
X88167681Y-97019505D01*
X88106358Y-97052990D01*
X88036666Y-97048006D01*
X87992319Y-97019505D01*
X87987316Y-97014502D01*
X87987314Y-97014500D01*
X87930250Y-96981554D01*
X87873187Y-96948608D01*
X87809539Y-96931554D01*
X87745892Y-96914500D01*
X87614108Y-96914500D01*
X87486812Y-96948608D01*
X87372686Y-97014500D01*
X87372683Y-97014502D01*
X87367681Y-97019505D01*
X87306358Y-97052990D01*
X87236666Y-97048006D01*
X87192319Y-97019505D01*
X87187316Y-97014502D01*
X87187314Y-97014500D01*
X87130250Y-96981554D01*
X87073187Y-96948608D01*
X87009539Y-96931554D01*
X86945892Y-96914500D01*
X86814108Y-96914500D01*
X86686812Y-96948608D01*
X86572686Y-97014500D01*
X86572683Y-97014502D01*
X86567681Y-97019505D01*
X86506358Y-97052990D01*
X86436666Y-97048006D01*
X86392319Y-97019505D01*
X86387316Y-97014502D01*
X86387314Y-97014500D01*
X86330250Y-96981554D01*
X86273187Y-96948608D01*
X86209539Y-96931554D01*
X86145892Y-96914500D01*
X86014108Y-96914500D01*
X85886812Y-96948608D01*
X85772686Y-97014500D01*
X85772683Y-97014502D01*
X85679502Y-97107683D01*
X85679500Y-97107686D01*
X85613608Y-97221812D01*
X85579500Y-97349108D01*
X83483744Y-97349108D01*
X83507314Y-97335500D01*
X83600500Y-97242314D01*
X83666392Y-97128186D01*
X83700500Y-97000892D01*
X83700500Y-96869108D01*
X83666392Y-96741814D01*
X83600500Y-96627686D01*
X83507314Y-96534500D01*
X83435240Y-96492888D01*
X83393187Y-96468608D01*
X83329539Y-96451554D01*
X83265892Y-96434500D01*
X83134108Y-96434500D01*
X83006812Y-96468608D01*
X82892686Y-96534500D01*
X82892683Y-96534502D01*
X82799502Y-96627683D01*
X82799500Y-96627686D01*
X82733608Y-96741812D01*
X82711773Y-96823303D01*
X82699500Y-96869108D01*
X76608293Y-96869108D01*
X76547213Y-96808028D01*
X76381613Y-96687715D01*
X76381612Y-96687714D01*
X76381610Y-96687713D01*
X76299577Y-96645915D01*
X76199223Y-96594781D01*
X76004534Y-96531522D01*
X75829995Y-96503878D01*
X75802352Y-96499500D01*
X75597648Y-96499500D01*
X75573329Y-96503351D01*
X75395465Y-96531522D01*
X75200776Y-96594781D01*
X75018386Y-96687715D01*
X74852786Y-96808028D01*
X74708028Y-96952786D01*
X74587715Y-97118386D01*
X74494781Y-97300776D01*
X74431522Y-97495465D01*
X74413669Y-97608187D01*
X74399500Y-97697648D01*
X45500500Y-97697648D01*
X45500500Y-96207273D01*
X49399500Y-96207273D01*
X49399500Y-96312727D01*
X49426793Y-96414587D01*
X49479520Y-96505913D01*
X49554087Y-96580480D01*
X49645413Y-96633207D01*
X49747273Y-96660500D01*
X49747275Y-96660500D01*
X49852725Y-96660500D01*
X49852727Y-96660500D01*
X49954587Y-96633207D01*
X50045913Y-96580480D01*
X50120480Y-96505913D01*
X50173207Y-96414587D01*
X50200500Y-96312727D01*
X50200500Y-96207273D01*
X50173207Y-96105413D01*
X50120480Y-96014087D01*
X50045913Y-95939520D01*
X49961044Y-95890521D01*
X49954589Y-95886794D01*
X49954588Y-95886793D01*
X49954587Y-95886793D01*
X49852727Y-95859500D01*
X49747273Y-95859500D01*
X49645413Y-95886793D01*
X49645410Y-95886794D01*
X49554085Y-95939521D01*
X49479521Y-96014085D01*
X49426794Y-96105410D01*
X49426793Y-96105413D01*
X49399500Y-96207273D01*
X45500500Y-96207273D01*
X45500500Y-95125773D01*
X54509500Y-95125773D01*
X54509500Y-95231227D01*
X54536793Y-95333087D01*
X54589520Y-95424413D01*
X54664087Y-95498980D01*
X54702425Y-95521114D01*
X54750639Y-95571680D01*
X54763861Y-95640288D01*
X54737893Y-95705152D01*
X54702426Y-95735884D01*
X54664087Y-95758020D01*
X54664084Y-95758022D01*
X54589521Y-95832585D01*
X54536794Y-95923910D01*
X54536793Y-95923913D01*
X54509500Y-96025773D01*
X54509500Y-96131227D01*
X54529877Y-96207273D01*
X54536793Y-96233086D01*
X54536794Y-96233089D01*
X54547404Y-96251466D01*
X54589520Y-96324413D01*
X54664087Y-96398980D01*
X54755413Y-96451707D01*
X54857273Y-96479000D01*
X54857275Y-96479000D01*
X54962725Y-96479000D01*
X54962727Y-96479000D01*
X55064587Y-96451707D01*
X55155913Y-96398980D01*
X55230480Y-96324413D01*
X55252614Y-96286074D01*
X55303179Y-96237861D01*
X55371786Y-96224637D01*
X55436651Y-96250605D01*
X55467384Y-96286073D01*
X55489520Y-96324413D01*
X55564087Y-96398980D01*
X55655413Y-96451707D01*
X55757273Y-96479000D01*
X55757275Y-96479000D01*
X55862725Y-96479000D01*
X55862727Y-96479000D01*
X55964587Y-96451707D01*
X56055913Y-96398980D01*
X56130480Y-96324413D01*
X56152614Y-96286074D01*
X56203179Y-96237861D01*
X56271786Y-96224637D01*
X56336651Y-96250605D01*
X56367384Y-96286073D01*
X56389520Y-96324413D01*
X56464087Y-96398980D01*
X56555413Y-96451707D01*
X56657273Y-96479000D01*
X56657275Y-96479000D01*
X56762725Y-96479000D01*
X56762727Y-96479000D01*
X56864587Y-96451707D01*
X56950537Y-96402084D01*
X59254500Y-96402084D01*
X59254500Y-96507538D01*
X59277877Y-96594781D01*
X59281793Y-96609397D01*
X59281794Y-96609400D01*
X59294909Y-96632116D01*
X59334520Y-96700724D01*
X59409087Y-96775291D01*
X59500413Y-96828018D01*
X59602273Y-96855311D01*
X59602275Y-96855311D01*
X59707725Y-96855311D01*
X59707727Y-96855311D01*
X59809587Y-96828018D01*
X59900913Y-96775291D01*
X59975480Y-96700724D01*
X59975482Y-96700719D01*
X59980426Y-96694278D01*
X59982729Y-96696045D01*
X60023163Y-96657481D01*
X60091768Y-96644248D01*
X60156637Y-96670206D01*
X60178325Y-96695235D01*
X60179574Y-96694278D01*
X60184519Y-96700723D01*
X60184520Y-96700724D01*
X60259087Y-96775291D01*
X60350413Y-96828018D01*
X60452273Y-96855311D01*
X60452275Y-96855311D01*
X60557725Y-96855311D01*
X60557727Y-96855311D01*
X60659587Y-96828018D01*
X60750913Y-96775291D01*
X60825480Y-96700724D01*
X60878207Y-96609398D01*
X60905500Y-96507538D01*
X60905500Y-96402084D01*
X60878207Y-96300224D01*
X60825480Y-96208898D01*
X60750913Y-96134331D01*
X60659587Y-96081604D01*
X60557727Y-96054311D01*
X60452273Y-96054311D01*
X60350413Y-96081604D01*
X60350410Y-96081605D01*
X60259085Y-96134332D01*
X60184519Y-96208898D01*
X60179574Y-96215344D01*
X60177273Y-96213578D01*
X60136814Y-96252152D01*
X60068206Y-96265371D01*
X60003343Y-96239399D01*
X59981670Y-96214388D01*
X59980426Y-96215344D01*
X59975480Y-96208898D01*
X59900914Y-96134332D01*
X59900913Y-96134331D01*
X59809587Y-96081604D01*
X59707727Y-96054311D01*
X59602273Y-96054311D01*
X59500413Y-96081604D01*
X59500410Y-96081605D01*
X59409085Y-96134332D01*
X59334521Y-96208896D01*
X59281794Y-96300221D01*
X59281793Y-96300224D01*
X59254500Y-96402084D01*
X56950537Y-96402084D01*
X56955913Y-96398980D01*
X57030480Y-96324413D01*
X57083207Y-96233087D01*
X57110500Y-96131227D01*
X57110500Y-96025773D01*
X57083207Y-95923913D01*
X57030716Y-95832996D01*
X78531065Y-95832996D01*
X78531065Y-95964780D01*
X78542327Y-96006812D01*
X78565173Y-96092075D01*
X78589570Y-96134331D01*
X78631065Y-96206202D01*
X78724251Y-96299388D01*
X78838379Y-96365280D01*
X78965673Y-96399388D01*
X78965675Y-96399388D01*
X79097455Y-96399388D01*
X79097457Y-96399388D01*
X79224751Y-96365280D01*
X79338879Y-96299388D01*
X79432065Y-96206202D01*
X79482017Y-96119682D01*
X79733604Y-96119682D01*
X79733604Y-96251466D01*
X79742878Y-96286076D01*
X79767712Y-96378761D01*
X79781178Y-96402084D01*
X79833604Y-96492888D01*
X79926790Y-96586074D01*
X80040918Y-96651966D01*
X80168212Y-96686074D01*
X80168214Y-96686074D01*
X80299994Y-96686074D01*
X80299996Y-96686074D01*
X80427290Y-96651966D01*
X80456704Y-96634983D01*
X80524603Y-96618510D01*
X80590630Y-96641361D01*
X80608841Y-96658933D01*
X80609295Y-96658480D01*
X80615042Y-96664227D01*
X80708228Y-96757413D01*
X80795896Y-96808028D01*
X80822352Y-96823303D01*
X80822356Y-96823305D01*
X80949650Y-96857413D01*
X80949652Y-96857413D01*
X81081432Y-96857413D01*
X81081434Y-96857413D01*
X81208728Y-96823305D01*
X81322856Y-96757413D01*
X81416042Y-96664227D01*
X81416110Y-96664108D01*
X81418471Y-96661814D01*
X81448597Y-96645915D01*
X81478539Y-96629566D01*
X81479454Y-96629631D01*
X81480264Y-96629204D01*
X81514202Y-96632116D01*
X81548231Y-96634550D01*
X81549494Y-96635145D01*
X81549878Y-96635178D01*
X81550371Y-96635558D01*
X81566896Y-96643343D01*
X81606817Y-96666392D01*
X81734111Y-96700500D01*
X81734113Y-96700500D01*
X81865893Y-96700500D01*
X81865895Y-96700500D01*
X81993189Y-96666392D01*
X82107317Y-96600500D01*
X82200503Y-96507314D01*
X82266395Y-96393186D01*
X82300503Y-96265892D01*
X82300503Y-96134108D01*
X82266395Y-96006814D01*
X82200503Y-95892686D01*
X82107317Y-95799500D01*
X82035475Y-95758022D01*
X81993190Y-95733608D01*
X81889041Y-95705702D01*
X81865895Y-95699500D01*
X81734111Y-95699500D01*
X81606815Y-95733608D01*
X81492689Y-95799500D01*
X81398327Y-95893862D01*
X81337003Y-95927346D01*
X81267312Y-95922362D01*
X81248646Y-95913567D01*
X81208731Y-95890522D01*
X81208728Y-95890521D01*
X81081434Y-95856413D01*
X80949650Y-95856413D01*
X80822356Y-95890521D01*
X80822355Y-95890521D01*
X80822353Y-95890522D01*
X80822350Y-95890523D01*
X80792938Y-95907504D01*
X80725038Y-95923975D01*
X80659011Y-95901122D01*
X80640804Y-95883553D01*
X80640351Y-95884007D01*
X80541420Y-95785076D01*
X80541418Y-95785074D01*
X80452277Y-95733608D01*
X80427291Y-95719182D01*
X80353835Y-95699500D01*
X80299996Y-95685074D01*
X80168212Y-95685074D01*
X80040916Y-95719182D01*
X79926790Y-95785074D01*
X79926787Y-95785076D01*
X79833606Y-95878257D01*
X79833604Y-95878260D01*
X79773013Y-95983205D01*
X79773012Y-95983207D01*
X79767712Y-95992388D01*
X79733604Y-96119682D01*
X79482017Y-96119682D01*
X79497957Y-96092074D01*
X79532065Y-95964780D01*
X79532065Y-95832996D01*
X79497957Y-95705702D01*
X79497639Y-95705152D01*
X79460190Y-95640288D01*
X79432065Y-95591574D01*
X79338879Y-95498388D01*
X79281815Y-95465442D01*
X79224752Y-95432496D01*
X79161104Y-95415442D01*
X79097457Y-95398388D01*
X78965673Y-95398388D01*
X78838377Y-95432496D01*
X78724251Y-95498388D01*
X78724248Y-95498390D01*
X78631067Y-95591571D01*
X78631065Y-95591574D01*
X78565173Y-95705700D01*
X78531175Y-95832584D01*
X78531065Y-95832996D01*
X57030716Y-95832996D01*
X57030480Y-95832587D01*
X56955913Y-95758020D01*
X56917574Y-95735885D01*
X56869361Y-95685321D01*
X56856137Y-95616714D01*
X56882105Y-95551849D01*
X56917573Y-95521115D01*
X56955913Y-95498980D01*
X57030480Y-95424413D01*
X57083207Y-95333087D01*
X57110500Y-95231227D01*
X57110500Y-95125773D01*
X57083207Y-95023913D01*
X57030480Y-94932587D01*
X56955913Y-94858020D01*
X56864587Y-94805293D01*
X56762727Y-94778000D01*
X56657273Y-94778000D01*
X56555413Y-94805293D01*
X56555410Y-94805294D01*
X56464085Y-94858021D01*
X56389522Y-94932584D01*
X56389520Y-94932586D01*
X56389520Y-94932587D01*
X56367385Y-94970925D01*
X56316820Y-95019139D01*
X56248212Y-95032361D01*
X56183348Y-95006393D01*
X56152615Y-94970926D01*
X56130480Y-94932587D01*
X56055913Y-94858020D01*
X55964587Y-94805293D01*
X55862727Y-94778000D01*
X55757273Y-94778000D01*
X55655413Y-94805293D01*
X55655410Y-94805294D01*
X55564085Y-94858021D01*
X55489522Y-94932584D01*
X55489520Y-94932586D01*
X55489520Y-94932587D01*
X55467385Y-94970925D01*
X55416820Y-95019139D01*
X55348212Y-95032361D01*
X55283348Y-95006393D01*
X55252615Y-94970926D01*
X55230480Y-94932587D01*
X55155913Y-94858020D01*
X55064587Y-94805293D01*
X54962727Y-94778000D01*
X54857273Y-94778000D01*
X54755413Y-94805293D01*
X54755410Y-94805294D01*
X54664085Y-94858021D01*
X54589521Y-94932585D01*
X54536794Y-95023910D01*
X54536793Y-95023913D01*
X54509500Y-95125773D01*
X45500500Y-95125773D01*
X45500500Y-94547273D01*
X48959500Y-94547273D01*
X48959500Y-94652727D01*
X48986793Y-94754587D01*
X49039520Y-94845913D01*
X49114087Y-94920480D01*
X49205413Y-94973207D01*
X49307273Y-95000500D01*
X49307275Y-95000500D01*
X49412724Y-95000500D01*
X49412727Y-95000500D01*
X49514587Y-94973207D01*
X49605913Y-94920480D01*
X49680480Y-94845913D01*
X49733207Y-94754587D01*
X49738694Y-94734108D01*
X64899500Y-94734108D01*
X64899500Y-94865891D01*
X64933608Y-94993187D01*
X64951348Y-95023913D01*
X64999500Y-95107314D01*
X65092686Y-95200500D01*
X65206814Y-95266392D01*
X65334108Y-95300500D01*
X65334110Y-95300500D01*
X65465890Y-95300500D01*
X65465892Y-95300500D01*
X65593186Y-95266392D01*
X65707314Y-95200500D01*
X65800500Y-95107314D01*
X65866392Y-94993186D01*
X65900500Y-94865892D01*
X65900500Y-94734108D01*
X65866392Y-94606814D01*
X65800500Y-94492686D01*
X65707314Y-94399500D01*
X65622657Y-94350623D01*
X65593187Y-94333608D01*
X65529539Y-94316554D01*
X65465892Y-94299500D01*
X65334108Y-94299500D01*
X65206812Y-94333608D01*
X65092686Y-94399500D01*
X65092683Y-94399502D01*
X64999502Y-94492683D01*
X64999500Y-94492686D01*
X64933608Y-94606812D01*
X64899500Y-94734108D01*
X49738694Y-94734108D01*
X49760500Y-94652727D01*
X49760500Y-94547273D01*
X49733207Y-94445413D01*
X49680480Y-94354087D01*
X49605913Y-94279520D01*
X49514587Y-94226793D01*
X49412727Y-94199500D01*
X49307273Y-94199500D01*
X49205413Y-94226793D01*
X49205410Y-94226794D01*
X49114085Y-94279521D01*
X49039521Y-94354085D01*
X48986794Y-94445410D01*
X48986793Y-94445413D01*
X48959500Y-94547273D01*
X45500500Y-94547273D01*
X45500500Y-93547273D01*
X69339500Y-93547273D01*
X69339500Y-93652727D01*
X69366793Y-93754587D01*
X69419520Y-93845913D01*
X69494087Y-93920480D01*
X69585413Y-93973207D01*
X69687273Y-94000500D01*
X69687275Y-94000500D01*
X69792725Y-94000500D01*
X69792727Y-94000500D01*
X69894587Y-93973207D01*
X69985913Y-93920480D01*
X70060480Y-93845913D01*
X70067296Y-93834108D01*
X70999500Y-93834108D01*
X70999500Y-93965892D01*
X71001460Y-93973206D01*
X71033608Y-94093187D01*
X71066554Y-94150250D01*
X71099500Y-94207314D01*
X71099502Y-94207316D01*
X71154504Y-94262318D01*
X71187989Y-94323641D01*
X71183005Y-94393333D01*
X71154507Y-94437678D01*
X71125235Y-94466951D01*
X71059343Y-94581077D01*
X71040145Y-94652726D01*
X71025235Y-94708373D01*
X71025235Y-94840157D01*
X71030022Y-94858021D01*
X71059343Y-94967452D01*
X71076905Y-94997870D01*
X71125235Y-95081579D01*
X71218421Y-95174765D01*
X71332549Y-95240657D01*
X71459843Y-95274765D01*
X71459845Y-95274765D01*
X71591625Y-95274765D01*
X71591627Y-95274765D01*
X71718921Y-95240657D01*
X71833049Y-95174765D01*
X71926235Y-95081579D01*
X71992127Y-94967451D01*
X72026235Y-94840157D01*
X72026235Y-94708373D01*
X71992127Y-94581079D01*
X71926235Y-94466951D01*
X71871230Y-94411946D01*
X71837745Y-94350623D01*
X71842729Y-94280931D01*
X71871230Y-94236584D01*
X71881021Y-94226793D01*
X71900500Y-94207314D01*
X71966392Y-94093186D01*
X72000500Y-93965892D01*
X72000500Y-93834108D01*
X71966392Y-93706814D01*
X71900500Y-93592686D01*
X71807314Y-93499500D01*
X71713628Y-93445410D01*
X71693187Y-93433608D01*
X71629539Y-93416554D01*
X71565892Y-93399500D01*
X71434108Y-93399500D01*
X71306812Y-93433608D01*
X71192686Y-93499500D01*
X71192683Y-93499502D01*
X71099502Y-93592683D01*
X71099500Y-93592686D01*
X71033608Y-93706812D01*
X71018290Y-93763981D01*
X70999500Y-93834108D01*
X70067296Y-93834108D01*
X70113207Y-93754587D01*
X70140500Y-93652727D01*
X70140500Y-93547273D01*
X70113207Y-93445413D01*
X70060480Y-93354087D01*
X69985913Y-93279520D01*
X69894587Y-93226793D01*
X69792727Y-93199500D01*
X69687273Y-93199500D01*
X69585413Y-93226793D01*
X69585410Y-93226794D01*
X69494085Y-93279521D01*
X69419521Y-93354085D01*
X69366794Y-93445410D01*
X69366793Y-93445413D01*
X69339500Y-93547273D01*
X45500500Y-93547273D01*
X45500500Y-90521153D01*
X47224500Y-90521153D01*
X47224500Y-90678846D01*
X47255261Y-90833489D01*
X47255264Y-90833501D01*
X47315602Y-90979172D01*
X47315609Y-90979185D01*
X47403210Y-91110288D01*
X47403213Y-91110292D01*
X47514707Y-91221786D01*
X47514711Y-91221789D01*
X47645814Y-91309390D01*
X47645827Y-91309397D01*
X47791498Y-91369735D01*
X47791503Y-91369737D01*
X47946153Y-91400499D01*
X47946156Y-91400500D01*
X47946158Y-91400500D01*
X48653844Y-91400500D01*
X48653845Y-91400499D01*
X48808497Y-91369737D01*
X48862730Y-91347273D01*
X52199500Y-91347273D01*
X52199500Y-91452727D01*
X52226793Y-91554587D01*
X52279520Y-91645913D01*
X52354087Y-91720480D01*
X52445413Y-91773207D01*
X52547273Y-91800500D01*
X52547275Y-91800500D01*
X52652725Y-91800500D01*
X52652727Y-91800500D01*
X52754587Y-91773207D01*
X52845913Y-91720480D01*
X52920480Y-91645913D01*
X52973207Y-91554587D01*
X53000500Y-91452727D01*
X53000500Y-91347273D01*
X54799500Y-91347273D01*
X54799500Y-91452727D01*
X54826793Y-91554587D01*
X54879520Y-91645913D01*
X54954087Y-91720480D01*
X55045413Y-91773207D01*
X55147273Y-91800500D01*
X55147275Y-91800500D01*
X55252725Y-91800500D01*
X55252727Y-91800500D01*
X55354587Y-91773207D01*
X55445913Y-91720480D01*
X55520480Y-91645913D01*
X55573207Y-91554587D01*
X55600500Y-91452727D01*
X55600500Y-91347273D01*
X57299500Y-91347273D01*
X57299500Y-91452727D01*
X57326793Y-91554587D01*
X57379520Y-91645913D01*
X57454087Y-91720480D01*
X57545413Y-91773207D01*
X57647273Y-91800500D01*
X57647275Y-91800500D01*
X57752725Y-91800500D01*
X57752727Y-91800500D01*
X57854587Y-91773207D01*
X57945913Y-91720480D01*
X58020480Y-91645913D01*
X58056163Y-91584108D01*
X77999500Y-91584108D01*
X77999500Y-91715892D01*
X78004247Y-91733608D01*
X78033608Y-91843187D01*
X78062185Y-91892683D01*
X78099500Y-91957314D01*
X78192686Y-92050500D01*
X78306814Y-92116392D01*
X78434108Y-92150500D01*
X78434110Y-92150500D01*
X78565890Y-92150500D01*
X78565892Y-92150500D01*
X78627068Y-92134108D01*
X84199500Y-92134108D01*
X84199500Y-92265891D01*
X84233608Y-92393187D01*
X84266554Y-92450250D01*
X84299500Y-92507314D01*
X84392686Y-92600500D01*
X84506814Y-92666392D01*
X84634108Y-92700500D01*
X84634110Y-92700500D01*
X84765890Y-92700500D01*
X84765892Y-92700500D01*
X84893186Y-92666392D01*
X85007314Y-92600500D01*
X85100500Y-92507314D01*
X85166392Y-92393186D01*
X85200500Y-92265892D01*
X85200500Y-92134108D01*
X85166392Y-92006814D01*
X85100500Y-91892686D01*
X85007314Y-91799500D01*
X84950250Y-91766554D01*
X84893187Y-91733608D01*
X84827061Y-91715890D01*
X84765892Y-91699500D01*
X84634108Y-91699500D01*
X84506812Y-91733608D01*
X84392686Y-91799500D01*
X84392683Y-91799502D01*
X84299502Y-91892683D01*
X84299500Y-91892686D01*
X84233608Y-92006812D01*
X84199500Y-92134108D01*
X78627068Y-92134108D01*
X78693186Y-92116392D01*
X78807314Y-92050500D01*
X78900500Y-91957314D01*
X78966392Y-91843186D01*
X79000500Y-91715892D01*
X79000500Y-91584108D01*
X78966392Y-91456814D01*
X78900500Y-91342686D01*
X78807314Y-91249500D01*
X78750250Y-91216554D01*
X78693187Y-91183608D01*
X78629539Y-91166554D01*
X78565892Y-91149500D01*
X78434108Y-91149500D01*
X78306812Y-91183608D01*
X78192686Y-91249500D01*
X78192683Y-91249502D01*
X78099502Y-91342683D01*
X78099500Y-91342686D01*
X78033608Y-91456812D01*
X77999500Y-91584108D01*
X58056163Y-91584108D01*
X58073207Y-91554587D01*
X58100500Y-91452727D01*
X58100500Y-91347273D01*
X58073207Y-91245413D01*
X58020480Y-91154087D01*
X57945913Y-91079520D01*
X57890059Y-91047273D01*
X69599500Y-91047273D01*
X69599500Y-91152727D01*
X69626793Y-91254587D01*
X69679520Y-91345913D01*
X69754087Y-91420480D01*
X69845413Y-91473207D01*
X69947273Y-91500500D01*
X69947275Y-91500500D01*
X70052725Y-91500500D01*
X70052727Y-91500500D01*
X70154587Y-91473207D01*
X70245913Y-91420480D01*
X70320480Y-91345913D01*
X70373207Y-91254587D01*
X70400500Y-91152727D01*
X70400500Y-91047273D01*
X70373207Y-90945413D01*
X70320480Y-90854087D01*
X70245913Y-90779520D01*
X70154587Y-90726793D01*
X70052727Y-90699500D01*
X69947273Y-90699500D01*
X69845413Y-90726793D01*
X69845410Y-90726794D01*
X69754085Y-90779521D01*
X69679521Y-90854085D01*
X69626794Y-90945410D01*
X69626793Y-90945413D01*
X69599500Y-91047273D01*
X57890059Y-91047273D01*
X57854587Y-91026793D01*
X57752727Y-90999500D01*
X57647273Y-90999500D01*
X57545413Y-91026793D01*
X57545410Y-91026794D01*
X57454085Y-91079521D01*
X57379521Y-91154085D01*
X57326794Y-91245410D01*
X57326793Y-91245413D01*
X57299500Y-91347273D01*
X55600500Y-91347273D01*
X55573207Y-91245413D01*
X55520480Y-91154087D01*
X55445913Y-91079520D01*
X55354587Y-91026793D01*
X55252727Y-90999500D01*
X55147273Y-90999500D01*
X55045413Y-91026793D01*
X55045410Y-91026794D01*
X54954085Y-91079521D01*
X54879521Y-91154085D01*
X54826794Y-91245410D01*
X54826793Y-91245413D01*
X54799500Y-91347273D01*
X53000500Y-91347273D01*
X52973207Y-91245413D01*
X52920480Y-91154087D01*
X52845913Y-91079520D01*
X52754587Y-91026793D01*
X52652727Y-90999500D01*
X52547273Y-90999500D01*
X52445413Y-91026793D01*
X52445410Y-91026794D01*
X52354085Y-91079521D01*
X52279521Y-91154085D01*
X52226794Y-91245410D01*
X52226793Y-91245413D01*
X52199500Y-91347273D01*
X48862730Y-91347273D01*
X48954179Y-91309394D01*
X49085289Y-91221789D01*
X49196789Y-91110289D01*
X49284394Y-90979179D01*
X49344737Y-90833497D01*
X49375500Y-90678842D01*
X49375500Y-90521158D01*
X49375500Y-90521155D01*
X49375499Y-90521153D01*
X49352855Y-90407314D01*
X49344737Y-90366503D01*
X49314369Y-90293187D01*
X49284397Y-90220827D01*
X49284390Y-90220814D01*
X49200238Y-90094872D01*
X49200237Y-90094871D01*
X49196791Y-90089713D01*
X49196786Y-90089707D01*
X49141187Y-90034108D01*
X78499500Y-90034108D01*
X78499500Y-90165891D01*
X78533608Y-90293187D01*
X78566554Y-90350250D01*
X78599500Y-90407314D01*
X78692686Y-90500500D01*
X78806814Y-90566392D01*
X78934108Y-90600500D01*
X78934110Y-90600500D01*
X79065890Y-90600500D01*
X79065892Y-90600500D01*
X79193186Y-90566392D01*
X79307314Y-90500500D01*
X79400500Y-90407314D01*
X79466392Y-90293186D01*
X79500500Y-90165892D01*
X79500500Y-90034108D01*
X79466392Y-89906814D01*
X79400500Y-89792686D01*
X79307314Y-89699500D01*
X79250250Y-89666554D01*
X79193187Y-89633608D01*
X79129539Y-89616554D01*
X79065892Y-89599500D01*
X78934108Y-89599500D01*
X78806812Y-89633608D01*
X78692686Y-89699500D01*
X78692683Y-89699502D01*
X78599502Y-89792683D01*
X78599500Y-89792686D01*
X78533608Y-89906812D01*
X78499500Y-90034108D01*
X49141187Y-90034108D01*
X49085292Y-89978213D01*
X49085288Y-89978210D01*
X48954185Y-89890609D01*
X48954172Y-89890602D01*
X48808501Y-89830264D01*
X48808489Y-89830261D01*
X48653845Y-89799500D01*
X48653842Y-89799500D01*
X47946158Y-89799500D01*
X47946155Y-89799500D01*
X47791510Y-89830261D01*
X47791498Y-89830264D01*
X47645827Y-89890602D01*
X47645814Y-89890609D01*
X47514711Y-89978210D01*
X47514707Y-89978213D01*
X47403213Y-90089707D01*
X47403210Y-90089711D01*
X47315609Y-90220814D01*
X47315602Y-90220827D01*
X47255264Y-90366498D01*
X47255261Y-90366510D01*
X47224500Y-90521153D01*
X45500500Y-90521153D01*
X45500500Y-88521153D01*
X47224500Y-88521153D01*
X47224500Y-88678846D01*
X47255261Y-88833489D01*
X47255264Y-88833501D01*
X47315602Y-88979172D01*
X47315609Y-88979185D01*
X47403210Y-89110288D01*
X47403213Y-89110292D01*
X47514707Y-89221786D01*
X47514711Y-89221789D01*
X47645814Y-89309390D01*
X47645827Y-89309397D01*
X47791498Y-89369735D01*
X47791503Y-89369737D01*
X47946153Y-89400499D01*
X47946156Y-89400500D01*
X47946158Y-89400500D01*
X48653844Y-89400500D01*
X48653845Y-89400499D01*
X48808497Y-89369737D01*
X48954179Y-89309394D01*
X49085289Y-89221789D01*
X49196789Y-89110289D01*
X49284394Y-88979179D01*
X49344737Y-88833497D01*
X49375500Y-88678842D01*
X49375500Y-88521158D01*
X49375500Y-88521155D01*
X49375499Y-88521153D01*
X49373087Y-88509027D01*
X49344737Y-88366503D01*
X49315174Y-88295130D01*
X49292433Y-88240228D01*
X49284397Y-88220826D01*
X49284390Y-88220814D01*
X49268911Y-88197648D01*
X74399500Y-88197648D01*
X74399500Y-88402351D01*
X74431522Y-88604534D01*
X74494781Y-88799223D01*
X74558691Y-88924653D01*
X74586477Y-88979185D01*
X74587715Y-88981613D01*
X74708028Y-89147213D01*
X74852786Y-89291971D01*
X75002165Y-89400499D01*
X75018390Y-89412287D01*
X75134607Y-89471503D01*
X75200776Y-89505218D01*
X75200778Y-89505218D01*
X75200781Y-89505220D01*
X75305137Y-89539127D01*
X75395465Y-89568477D01*
X75496557Y-89584488D01*
X75597648Y-89600500D01*
X75597649Y-89600500D01*
X75802351Y-89600500D01*
X75802352Y-89600500D01*
X76004534Y-89568477D01*
X76199219Y-89505220D01*
X76381610Y-89412287D01*
X76474590Y-89344732D01*
X76547213Y-89291971D01*
X76547215Y-89291968D01*
X76547219Y-89291966D01*
X76691966Y-89147219D01*
X76691968Y-89147215D01*
X76691971Y-89147213D01*
X76748915Y-89068835D01*
X76812287Y-88981610D01*
X76905220Y-88799219D01*
X76968477Y-88604534D01*
X76979244Y-88536552D01*
X81845098Y-88536552D01*
X81845098Y-88668335D01*
X81879206Y-88795631D01*
X81901071Y-88833501D01*
X81945098Y-88909758D01*
X82038284Y-89002944D01*
X82152412Y-89068836D01*
X82279706Y-89102944D01*
X82279708Y-89102944D01*
X82411488Y-89102944D01*
X82411490Y-89102944D01*
X82538784Y-89068836D01*
X82652912Y-89002944D01*
X82746098Y-88909758D01*
X82811990Y-88795630D01*
X82846098Y-88668336D01*
X82846098Y-88536552D01*
X82811990Y-88409258D01*
X82746098Y-88295130D01*
X82652912Y-88201944D01*
X82595848Y-88168998D01*
X82538785Y-88136052D01*
X82475137Y-88118998D01*
X82411490Y-88101944D01*
X82279706Y-88101944D01*
X82152410Y-88136052D01*
X82038284Y-88201944D01*
X82038281Y-88201946D01*
X81945100Y-88295127D01*
X81945098Y-88295130D01*
X81879206Y-88409256D01*
X81845098Y-88536552D01*
X76979244Y-88536552D01*
X77000500Y-88402352D01*
X77000500Y-88197648D01*
X76968477Y-87995466D01*
X76905220Y-87800781D01*
X76905218Y-87800778D01*
X76905218Y-87800776D01*
X76871503Y-87734607D01*
X76812287Y-87618390D01*
X76804556Y-87607749D01*
X76691971Y-87452786D01*
X76547213Y-87308028D01*
X76381613Y-87187715D01*
X76381612Y-87187714D01*
X76381610Y-87187713D01*
X76324653Y-87158691D01*
X76199223Y-87094781D01*
X76004534Y-87031522D01*
X75829995Y-87003878D01*
X75802352Y-86999500D01*
X75597648Y-86999500D01*
X75573329Y-87003351D01*
X75395465Y-87031522D01*
X75200776Y-87094781D01*
X75018386Y-87187715D01*
X74852786Y-87308028D01*
X74708028Y-87452786D01*
X74587715Y-87618386D01*
X74494781Y-87800776D01*
X74431522Y-87995465D01*
X74399500Y-88197648D01*
X49268911Y-88197648D01*
X49196789Y-88089711D01*
X49196786Y-88089707D01*
X49085292Y-87978213D01*
X49085288Y-87978210D01*
X48954185Y-87890609D01*
X48954172Y-87890602D01*
X48808501Y-87830264D01*
X48808489Y-87830261D01*
X48653845Y-87799500D01*
X48653842Y-87799500D01*
X47946158Y-87799500D01*
X47946155Y-87799500D01*
X47791510Y-87830261D01*
X47791498Y-87830264D01*
X47645827Y-87890602D01*
X47645814Y-87890609D01*
X47514711Y-87978210D01*
X47514707Y-87978213D01*
X47403213Y-88089707D01*
X47403210Y-88089711D01*
X47315609Y-88220814D01*
X47315602Y-88220827D01*
X47255264Y-88366498D01*
X47255261Y-88366510D01*
X47224500Y-88521153D01*
X45500500Y-88521153D01*
X45500500Y-86521153D01*
X47224500Y-86521153D01*
X47224500Y-86678846D01*
X47255261Y-86833489D01*
X47255264Y-86833501D01*
X47315602Y-86979172D01*
X47315609Y-86979185D01*
X47403210Y-87110288D01*
X47403213Y-87110292D01*
X47514707Y-87221786D01*
X47514711Y-87221789D01*
X47645814Y-87309390D01*
X47645827Y-87309397D01*
X47791498Y-87369735D01*
X47791503Y-87369737D01*
X47946153Y-87400499D01*
X47946156Y-87400500D01*
X47946158Y-87400500D01*
X48653844Y-87400500D01*
X48653845Y-87400499D01*
X48808497Y-87369737D01*
X48954179Y-87309394D01*
X49085289Y-87221789D01*
X49196789Y-87110289D01*
X49284394Y-86979179D01*
X49344737Y-86833497D01*
X49375500Y-86678842D01*
X49375500Y-86521158D01*
X49375500Y-86521155D01*
X49375499Y-86521153D01*
X49360803Y-86447273D01*
X53499500Y-86447273D01*
X53499500Y-86552727D01*
X53526793Y-86654587D01*
X53579520Y-86745913D01*
X53654087Y-86820480D01*
X53745413Y-86873207D01*
X53847273Y-86900500D01*
X53847275Y-86900500D01*
X53952725Y-86900500D01*
X53952727Y-86900500D01*
X54054587Y-86873207D01*
X54145913Y-86820480D01*
X54220480Y-86745913D01*
X54273207Y-86654587D01*
X54300500Y-86552727D01*
X54300500Y-86447273D01*
X54273207Y-86345413D01*
X54220480Y-86254087D01*
X54213666Y-86247273D01*
X56799500Y-86247273D01*
X56799500Y-86352727D01*
X56826793Y-86454587D01*
X56879520Y-86545913D01*
X56954087Y-86620480D01*
X57045413Y-86673207D01*
X57147273Y-86700500D01*
X57147275Y-86700500D01*
X57252725Y-86700500D01*
X57252727Y-86700500D01*
X57354587Y-86673207D01*
X57445913Y-86620480D01*
X57520480Y-86545913D01*
X57527296Y-86534108D01*
X81999500Y-86534108D01*
X81999500Y-86665892D01*
X82002971Y-86678846D01*
X82033608Y-86793187D01*
X82056884Y-86833501D01*
X82099500Y-86907314D01*
X82192686Y-87000500D01*
X82306814Y-87066392D01*
X82434108Y-87100500D01*
X82434110Y-87100500D01*
X82565890Y-87100500D01*
X82565892Y-87100500D01*
X82693186Y-87066392D01*
X82807314Y-87000500D01*
X82900500Y-86907314D01*
X82966392Y-86793186D01*
X83000500Y-86665892D01*
X83000500Y-86534108D01*
X82966392Y-86406814D01*
X82900500Y-86292686D01*
X82807314Y-86199500D01*
X82750250Y-86166554D01*
X82693187Y-86133608D01*
X82629539Y-86116554D01*
X82565892Y-86099500D01*
X82434108Y-86099500D01*
X82306812Y-86133608D01*
X82192686Y-86199500D01*
X82192683Y-86199502D01*
X82099502Y-86292683D01*
X82099500Y-86292686D01*
X82033608Y-86406812D01*
X82015605Y-86474001D01*
X81999500Y-86534108D01*
X57527296Y-86534108D01*
X57573207Y-86454587D01*
X57579640Y-86430575D01*
X57616002Y-86370919D01*
X57678848Y-86340388D01*
X57748224Y-86348681D01*
X57787095Y-86374990D01*
X57806086Y-86393981D01*
X57897412Y-86446708D01*
X57999272Y-86474001D01*
X57999274Y-86474001D01*
X58104724Y-86474001D01*
X58104726Y-86474001D01*
X58206586Y-86446708D01*
X58297912Y-86393981D01*
X58372479Y-86319414D01*
X58425206Y-86228088D01*
X58452499Y-86126228D01*
X58452499Y-86020774D01*
X58425206Y-85918914D01*
X58372479Y-85827588D01*
X58297912Y-85753021D01*
X58224333Y-85710540D01*
X58206588Y-85700295D01*
X58206587Y-85700294D01*
X58206586Y-85700294D01*
X58104726Y-85673001D01*
X57999272Y-85673001D01*
X57897412Y-85700294D01*
X57897409Y-85700295D01*
X57806084Y-85753022D01*
X57731520Y-85827586D01*
X57678793Y-85918911D01*
X57678790Y-85918918D01*
X57672358Y-85942924D01*
X57635993Y-86002584D01*
X57573145Y-86033112D01*
X57503770Y-86024817D01*
X57464903Y-85998510D01*
X57445914Y-85979521D01*
X57445913Y-85979520D01*
X57354587Y-85926793D01*
X57252727Y-85899500D01*
X57147273Y-85899500D01*
X57045413Y-85926793D01*
X57045410Y-85926794D01*
X56954085Y-85979521D01*
X56879521Y-86054085D01*
X56826794Y-86145410D01*
X56826793Y-86145413D01*
X56799500Y-86247273D01*
X54213666Y-86247273D01*
X54145913Y-86179520D01*
X54054587Y-86126793D01*
X53952727Y-86099500D01*
X53847273Y-86099500D01*
X53745413Y-86126793D01*
X53745410Y-86126794D01*
X53654085Y-86179521D01*
X53579521Y-86254085D01*
X53526794Y-86345410D01*
X53526793Y-86345413D01*
X53499500Y-86447273D01*
X49360803Y-86447273D01*
X49344737Y-86366503D01*
X49339031Y-86352727D01*
X49284397Y-86220827D01*
X49284390Y-86220814D01*
X49196789Y-86089711D01*
X49196786Y-86089707D01*
X49085292Y-85978213D01*
X49085288Y-85978210D01*
X49024022Y-85937273D01*
X50429500Y-85937273D01*
X50429500Y-86042727D01*
X50456793Y-86144587D01*
X50509520Y-86235913D01*
X50584087Y-86310480D01*
X50675413Y-86363207D01*
X50777273Y-86390500D01*
X50777275Y-86390500D01*
X50882725Y-86390500D01*
X50882727Y-86390500D01*
X50984587Y-86363207D01*
X51075913Y-86310480D01*
X51150480Y-86235913D01*
X51203207Y-86144587D01*
X51230500Y-86042727D01*
X51230500Y-85937273D01*
X51203207Y-85835413D01*
X51150480Y-85744087D01*
X51075913Y-85669520D01*
X50984587Y-85616793D01*
X50882727Y-85589500D01*
X50777273Y-85589500D01*
X50675413Y-85616793D01*
X50675410Y-85616794D01*
X50584085Y-85669521D01*
X50509521Y-85744085D01*
X50456794Y-85835410D01*
X50456793Y-85835413D01*
X50429500Y-85937273D01*
X49024022Y-85937273D01*
X48954185Y-85890609D01*
X48954172Y-85890602D01*
X48808501Y-85830264D01*
X48808489Y-85830261D01*
X48653845Y-85799500D01*
X48653842Y-85799500D01*
X47946158Y-85799500D01*
X47946155Y-85799500D01*
X47791510Y-85830261D01*
X47791498Y-85830264D01*
X47645827Y-85890602D01*
X47645814Y-85890609D01*
X47514711Y-85978210D01*
X47514707Y-85978213D01*
X47403213Y-86089707D01*
X47403210Y-86089711D01*
X47315609Y-86220814D01*
X47315602Y-86220827D01*
X47255264Y-86366498D01*
X47255261Y-86366510D01*
X47224500Y-86521153D01*
X45500500Y-86521153D01*
X45500500Y-85347273D01*
X54599500Y-85347273D01*
X54599500Y-85452727D01*
X54626793Y-85554587D01*
X54679520Y-85645913D01*
X54754087Y-85720480D01*
X54845413Y-85773207D01*
X54947273Y-85800500D01*
X54947275Y-85800500D01*
X55052725Y-85800500D01*
X55052727Y-85800500D01*
X55154587Y-85773207D01*
X55245913Y-85720480D01*
X55320480Y-85645913D01*
X55373207Y-85554587D01*
X55400500Y-85452727D01*
X55400500Y-85347273D01*
X55373207Y-85245413D01*
X55320480Y-85154087D01*
X55245913Y-85079520D01*
X55158157Y-85028854D01*
X55154589Y-85026794D01*
X55154588Y-85026793D01*
X55154587Y-85026793D01*
X55052727Y-84999500D01*
X54947273Y-84999500D01*
X54845413Y-85026793D01*
X54845410Y-85026794D01*
X54754085Y-85079521D01*
X54679521Y-85154085D01*
X54626794Y-85245410D01*
X54626793Y-85245413D01*
X54599500Y-85347273D01*
X45500500Y-85347273D01*
X45500500Y-84567273D01*
X66069500Y-84567273D01*
X66069500Y-84672727D01*
X66096793Y-84774587D01*
X66149520Y-84865913D01*
X66224087Y-84940480D01*
X66315413Y-84993207D01*
X66417273Y-85020500D01*
X66417275Y-85020500D01*
X66522725Y-85020500D01*
X66522727Y-85020500D01*
X66624587Y-84993207D01*
X66715913Y-84940480D01*
X66790480Y-84865913D01*
X66843207Y-84774587D01*
X66870500Y-84672727D01*
X66870500Y-84567273D01*
X66843207Y-84465413D01*
X66790480Y-84374087D01*
X66715913Y-84299520D01*
X66624587Y-84246793D01*
X66522727Y-84219500D01*
X66417273Y-84219500D01*
X66315413Y-84246793D01*
X66315410Y-84246794D01*
X66224085Y-84299521D01*
X66149521Y-84374085D01*
X66096794Y-84465410D01*
X66096793Y-84465413D01*
X66069500Y-84567273D01*
X45500500Y-84567273D01*
X45500500Y-83316699D01*
X68656801Y-83316699D01*
X68656801Y-83422153D01*
X68684094Y-83524013D01*
X68736821Y-83615339D01*
X68811388Y-83689906D01*
X68902714Y-83742633D01*
X68902720Y-83742634D01*
X68907004Y-83744409D01*
X68961410Y-83788247D01*
X68983479Y-83854540D01*
X68966946Y-83920972D01*
X68936305Y-83974044D01*
X68936305Y-83974045D01*
X68909012Y-84075905D01*
X68909012Y-84181359D01*
X68936305Y-84283219D01*
X68989032Y-84374545D01*
X69063599Y-84449112D01*
X69154925Y-84501839D01*
X69256785Y-84529132D01*
X69256787Y-84529132D01*
X69347766Y-84529132D01*
X69414805Y-84548817D01*
X69460560Y-84601621D01*
X69470504Y-84670779D01*
X69455153Y-84715130D01*
X69453254Y-84718419D01*
X69452527Y-84719679D01*
X69431636Y-84797648D01*
X69425235Y-84821538D01*
X69425235Y-84926992D01*
X69452528Y-85028852D01*
X69505255Y-85120178D01*
X69579822Y-85194745D01*
X69671148Y-85247472D01*
X69671149Y-85247472D01*
X69672879Y-85248471D01*
X69721095Y-85299038D01*
X69734318Y-85367645D01*
X69718266Y-85417858D01*
X69668979Y-85503225D01*
X69668978Y-85503228D01*
X69641685Y-85605088D01*
X69641685Y-85710542D01*
X69668978Y-85812402D01*
X69721705Y-85903728D01*
X69796272Y-85978295D01*
X69887598Y-86031022D01*
X69989458Y-86058315D01*
X69989460Y-86058315D01*
X70094910Y-86058315D01*
X70094912Y-86058315D01*
X70196772Y-86031022D01*
X70288098Y-85978295D01*
X70362665Y-85903728D01*
X70415392Y-85812402D01*
X70442685Y-85710542D01*
X70442685Y-85605088D01*
X70415392Y-85503228D01*
X70362665Y-85411902D01*
X70288098Y-85337335D01*
X70196772Y-85284608D01*
X70195040Y-85283608D01*
X70188791Y-85277054D01*
X70180385Y-85273689D01*
X70165059Y-85252165D01*
X70146824Y-85233041D01*
X70145110Y-85224148D01*
X70139859Y-85216774D01*
X70138602Y-85190379D01*
X70135113Y-85172273D01*
X72276915Y-85172273D01*
X72276915Y-85277726D01*
X72304208Y-85379586D01*
X72304209Y-85379589D01*
X72315545Y-85399223D01*
X72356935Y-85470913D01*
X72431502Y-85545480D01*
X72522828Y-85598207D01*
X72624688Y-85625500D01*
X72624690Y-85625500D01*
X72730140Y-85625500D01*
X72730142Y-85625500D01*
X72832002Y-85598207D01*
X72923328Y-85545480D01*
X72997895Y-85470913D01*
X73050622Y-85379587D01*
X73077915Y-85277727D01*
X73077915Y-85172273D01*
X73050622Y-85070413D01*
X72997895Y-84979087D01*
X72923328Y-84904520D01*
X72914633Y-84899500D01*
X72832004Y-84851794D01*
X72832003Y-84851793D01*
X72832002Y-84851793D01*
X72730142Y-84824500D01*
X72624688Y-84824500D01*
X72522828Y-84851793D01*
X72522825Y-84851794D01*
X72431500Y-84904521D01*
X72356936Y-84979085D01*
X72304209Y-85070410D01*
X72304208Y-85070413D01*
X72276915Y-85172273D01*
X70135113Y-85172273D01*
X70133602Y-85164434D01*
X70136878Y-85154183D01*
X70136536Y-85146983D01*
X70149652Y-85114223D01*
X70198942Y-85028852D01*
X70226235Y-84926992D01*
X70226235Y-84821538D01*
X70219834Y-84797648D01*
X74399500Y-84797648D01*
X74399500Y-85002351D01*
X74431522Y-85204534D01*
X74494781Y-85399223D01*
X74587715Y-85581613D01*
X74708028Y-85747213D01*
X74852786Y-85891971D01*
X74973291Y-85979521D01*
X75018390Y-86012287D01*
X75108723Y-86058314D01*
X75200776Y-86105218D01*
X75200778Y-86105218D01*
X75200781Y-86105220D01*
X75265431Y-86126226D01*
X75395465Y-86168477D01*
X75465194Y-86179521D01*
X75597648Y-86200500D01*
X75597649Y-86200500D01*
X75802351Y-86200500D01*
X75802352Y-86200500D01*
X76004534Y-86168477D01*
X76199219Y-86105220D01*
X76381610Y-86012287D01*
X76499282Y-85926794D01*
X76547213Y-85891971D01*
X76547215Y-85891968D01*
X76547219Y-85891966D01*
X76691966Y-85747219D01*
X76691968Y-85747215D01*
X76691971Y-85747213D01*
X76765568Y-85645914D01*
X76812287Y-85581610D01*
X76905220Y-85399219D01*
X76926376Y-85334108D01*
X85270871Y-85334108D01*
X85270871Y-85465892D01*
X85272217Y-85470914D01*
X85304979Y-85593187D01*
X85335421Y-85645913D01*
X85370871Y-85707314D01*
X85464057Y-85800500D01*
X85578185Y-85866392D01*
X85705479Y-85900500D01*
X85705481Y-85900500D01*
X85837261Y-85900500D01*
X85837263Y-85900500D01*
X85964557Y-85866392D01*
X86078685Y-85800500D01*
X86171871Y-85707314D01*
X86237763Y-85593186D01*
X86271871Y-85465892D01*
X86271871Y-85334108D01*
X86237763Y-85206814D01*
X86171871Y-85092686D01*
X86078685Y-84999500D01*
X86027205Y-84969778D01*
X93999500Y-84969778D01*
X93999500Y-85190222D01*
X94014291Y-85283608D01*
X94033985Y-85407952D01*
X94102103Y-85617603D01*
X94102104Y-85617606D01*
X94154521Y-85720478D01*
X94201359Y-85812401D01*
X94202187Y-85814025D01*
X94331752Y-85992358D01*
X94331756Y-85992363D01*
X94487636Y-86148243D01*
X94487641Y-86148247D01*
X94608306Y-86235914D01*
X94665978Y-86277815D01*
X94747620Y-86319414D01*
X94862393Y-86377895D01*
X94862396Y-86377896D01*
X94911896Y-86393979D01*
X95072049Y-86446015D01*
X95289778Y-86480500D01*
X95289779Y-86480500D01*
X95510221Y-86480500D01*
X95510222Y-86480500D01*
X95727951Y-86446015D01*
X95937606Y-86377895D01*
X96134022Y-86277815D01*
X96312365Y-86148242D01*
X96468242Y-85992365D01*
X96597815Y-85814022D01*
X96697895Y-85617606D01*
X96766015Y-85407951D01*
X96800500Y-85190222D01*
X96800500Y-84969778D01*
X96766015Y-84752049D01*
X96705979Y-84567273D01*
X96697896Y-84542396D01*
X96697895Y-84542393D01*
X96650364Y-84449110D01*
X96597815Y-84345978D01*
X96564062Y-84299521D01*
X96468247Y-84167641D01*
X96468243Y-84167636D01*
X96312363Y-84011756D01*
X96312358Y-84011752D01*
X96134025Y-83882187D01*
X96134024Y-83882186D01*
X96134022Y-83882185D01*
X96062835Y-83845913D01*
X95937606Y-83782104D01*
X95937603Y-83782103D01*
X95727952Y-83713985D01*
X95606696Y-83694780D01*
X95510222Y-83679500D01*
X95289778Y-83679500D01*
X95231079Y-83688797D01*
X95072047Y-83713985D01*
X94862396Y-83782103D01*
X94862393Y-83782104D01*
X94665974Y-83882187D01*
X94487641Y-84011752D01*
X94487636Y-84011756D01*
X94331756Y-84167636D01*
X94331752Y-84167641D01*
X94202187Y-84345974D01*
X94102104Y-84542393D01*
X94102103Y-84542396D01*
X94033985Y-84752047D01*
X94022510Y-84824500D01*
X93999500Y-84969778D01*
X86027205Y-84969778D01*
X85976460Y-84940480D01*
X85964558Y-84933608D01*
X85900910Y-84916554D01*
X85837263Y-84899500D01*
X85705479Y-84899500D01*
X85578183Y-84933608D01*
X85464057Y-84999500D01*
X85464054Y-84999502D01*
X85370873Y-85092683D01*
X85370871Y-85092686D01*
X85304979Y-85206812D01*
X85285978Y-85277726D01*
X85270871Y-85334108D01*
X76926376Y-85334108D01*
X76968477Y-85204534D01*
X77000500Y-85002352D01*
X77000500Y-84797648D01*
X76973686Y-84628352D01*
X76968477Y-84595465D01*
X76922538Y-84454080D01*
X76905220Y-84400781D01*
X76905218Y-84400778D01*
X76905218Y-84400776D01*
X76870234Y-84332118D01*
X76812287Y-84218390D01*
X76775416Y-84167641D01*
X76691971Y-84052786D01*
X76547215Y-83908030D01*
X76503541Y-83876300D01*
X76503540Y-83876299D01*
X76381613Y-83787715D01*
X76381612Y-83787714D01*
X76381610Y-83787713D01*
X76374535Y-83784108D01*
X84899500Y-83784108D01*
X84899500Y-83915892D01*
X84900861Y-83920972D01*
X84933608Y-84043187D01*
X84966554Y-84100250D01*
X84999500Y-84157314D01*
X85092686Y-84250500D01*
X85206814Y-84316392D01*
X85334108Y-84350500D01*
X85334110Y-84350500D01*
X85465890Y-84350500D01*
X85465892Y-84350500D01*
X85593186Y-84316392D01*
X85707314Y-84250500D01*
X85712319Y-84245495D01*
X85773642Y-84212010D01*
X85843334Y-84216994D01*
X85887681Y-84245495D01*
X85892686Y-84250500D01*
X86006814Y-84316392D01*
X86134108Y-84350500D01*
X86134110Y-84350500D01*
X86265890Y-84350500D01*
X86265892Y-84350500D01*
X86393186Y-84316392D01*
X86507314Y-84250500D01*
X86512319Y-84245495D01*
X86573642Y-84212010D01*
X86643334Y-84216994D01*
X86687681Y-84245495D01*
X86692686Y-84250500D01*
X86806814Y-84316392D01*
X86934108Y-84350500D01*
X86934110Y-84350500D01*
X87065890Y-84350500D01*
X87065892Y-84350500D01*
X87193186Y-84316392D01*
X87307314Y-84250500D01*
X87312319Y-84245495D01*
X87373642Y-84212010D01*
X87443334Y-84216994D01*
X87487681Y-84245495D01*
X87492686Y-84250500D01*
X87606814Y-84316392D01*
X87734108Y-84350500D01*
X87734110Y-84350500D01*
X87865890Y-84350500D01*
X87865892Y-84350500D01*
X87993186Y-84316392D01*
X88107314Y-84250500D01*
X88112319Y-84245495D01*
X88173642Y-84212010D01*
X88243334Y-84216994D01*
X88287681Y-84245495D01*
X88292686Y-84250500D01*
X88406814Y-84316392D01*
X88534108Y-84350500D01*
X88534110Y-84350500D01*
X88665890Y-84350500D01*
X88665892Y-84350500D01*
X88793186Y-84316392D01*
X88907314Y-84250500D01*
X89000500Y-84157314D01*
X89066392Y-84043186D01*
X89100500Y-83915892D01*
X89100500Y-83784108D01*
X89066392Y-83656814D01*
X89000500Y-83542686D01*
X88907314Y-83449500D01*
X88850250Y-83416554D01*
X88793187Y-83383608D01*
X88729539Y-83366554D01*
X88665892Y-83349500D01*
X88534108Y-83349500D01*
X88406812Y-83383608D01*
X88292686Y-83449500D01*
X88292683Y-83449502D01*
X88287681Y-83454505D01*
X88226358Y-83487990D01*
X88156666Y-83483006D01*
X88112319Y-83454505D01*
X88107316Y-83449502D01*
X88107314Y-83449500D01*
X88050250Y-83416554D01*
X87993187Y-83383608D01*
X87929539Y-83366554D01*
X87865892Y-83349500D01*
X87734108Y-83349500D01*
X87606812Y-83383608D01*
X87492686Y-83449500D01*
X87492683Y-83449502D01*
X87487681Y-83454505D01*
X87426358Y-83487990D01*
X87356666Y-83483006D01*
X87312319Y-83454505D01*
X87307316Y-83449502D01*
X87307314Y-83449500D01*
X87250250Y-83416554D01*
X87193187Y-83383608D01*
X87129539Y-83366554D01*
X87065892Y-83349500D01*
X86934108Y-83349500D01*
X86806812Y-83383608D01*
X86692686Y-83449500D01*
X86692683Y-83449502D01*
X86687681Y-83454505D01*
X86626358Y-83487990D01*
X86556666Y-83483006D01*
X86512319Y-83454505D01*
X86507316Y-83449502D01*
X86507314Y-83449500D01*
X86450250Y-83416554D01*
X86393187Y-83383608D01*
X86329539Y-83366554D01*
X86265892Y-83349500D01*
X86134108Y-83349500D01*
X86006812Y-83383608D01*
X85892686Y-83449500D01*
X85892683Y-83449502D01*
X85887681Y-83454505D01*
X85826358Y-83487990D01*
X85756666Y-83483006D01*
X85712319Y-83454505D01*
X85707316Y-83449502D01*
X85707314Y-83449500D01*
X85650250Y-83416554D01*
X85593187Y-83383608D01*
X85529539Y-83366554D01*
X85465892Y-83349500D01*
X85334108Y-83349500D01*
X85206812Y-83383608D01*
X85092686Y-83449500D01*
X85092683Y-83449502D01*
X84999502Y-83542683D01*
X84999500Y-83542686D01*
X84933608Y-83656812D01*
X84907185Y-83755426D01*
X84899500Y-83784108D01*
X76374535Y-83784108D01*
X76314750Y-83753646D01*
X76199223Y-83694781D01*
X76004534Y-83631522D01*
X75829995Y-83603878D01*
X75802352Y-83599500D01*
X75597648Y-83599500D01*
X75573329Y-83603351D01*
X75395465Y-83631522D01*
X75200776Y-83694781D01*
X75018386Y-83787715D01*
X74852786Y-83908028D01*
X74708028Y-84052786D01*
X74587715Y-84218386D01*
X74494781Y-84400776D01*
X74431522Y-84595465D01*
X74399500Y-84797648D01*
X70219834Y-84797648D01*
X70198942Y-84719678D01*
X70146215Y-84628352D01*
X70071648Y-84553785D01*
X69981673Y-84501838D01*
X69980324Y-84501059D01*
X69980323Y-84501058D01*
X69980322Y-84501058D01*
X69878462Y-84473765D01*
X69787481Y-84473765D01*
X69720442Y-84454080D01*
X69674687Y-84401276D01*
X69664743Y-84332118D01*
X69680093Y-84287766D01*
X69682719Y-84283219D01*
X69710012Y-84181359D01*
X69710012Y-84075905D01*
X69682719Y-83974045D01*
X69629992Y-83882719D01*
X69555425Y-83808152D01*
X69464099Y-83755425D01*
X69464097Y-83755424D01*
X69459803Y-83753646D01*
X69450262Y-83745958D01*
X69438566Y-83742321D01*
X69423569Y-83724448D01*
X69405399Y-83709806D01*
X69401529Y-83698180D01*
X69393656Y-83688797D01*
X69390702Y-83665653D01*
X69383333Y-83643512D01*
X69386145Y-83629937D01*
X69384812Y-83619490D01*
X69393211Y-83595831D01*
X69395292Y-83585787D01*
X69397401Y-83581354D01*
X69417078Y-83547273D01*
X72400500Y-83547273D01*
X72400500Y-83652727D01*
X72427793Y-83754587D01*
X72480520Y-83845913D01*
X72555087Y-83920480D01*
X72646413Y-83973207D01*
X72748273Y-84000500D01*
X72748275Y-84000500D01*
X72853725Y-84000500D01*
X72853727Y-84000500D01*
X72955587Y-83973207D01*
X73046913Y-83920480D01*
X73121480Y-83845913D01*
X73174207Y-83754587D01*
X73201500Y-83652727D01*
X73201500Y-83547273D01*
X73174207Y-83445413D01*
X73121480Y-83354087D01*
X73046913Y-83279520D01*
X72955587Y-83226793D01*
X72853727Y-83199500D01*
X72748273Y-83199500D01*
X72646413Y-83226793D01*
X72646410Y-83226794D01*
X72555085Y-83279521D01*
X72480521Y-83354085D01*
X72427794Y-83445410D01*
X72427793Y-83445413D01*
X72400500Y-83547273D01*
X69417078Y-83547273D01*
X69430508Y-83524013D01*
X69457801Y-83422153D01*
X69457801Y-83316699D01*
X69430508Y-83214839D01*
X69377781Y-83123513D01*
X69303214Y-83048946D01*
X69211888Y-82996219D01*
X69110028Y-82968926D01*
X69004574Y-82968926D01*
X68902714Y-82996219D01*
X68902711Y-82996220D01*
X68811386Y-83048947D01*
X68736822Y-83123511D01*
X68684095Y-83214836D01*
X68684094Y-83214839D01*
X68656801Y-83316699D01*
X45500500Y-83316699D01*
X45500500Y-82247273D01*
X59659857Y-82247273D01*
X59659857Y-82352727D01*
X59687150Y-82454587D01*
X59739877Y-82545913D01*
X59814444Y-82620480D01*
X59905770Y-82673207D01*
X60007630Y-82700500D01*
X60007632Y-82700500D01*
X60113082Y-82700500D01*
X60113084Y-82700500D01*
X60214944Y-82673207D01*
X60306270Y-82620480D01*
X60380837Y-82545913D01*
X60433564Y-82454587D01*
X60460857Y-82352727D01*
X60460857Y-82247273D01*
X60433564Y-82145413D01*
X60392420Y-82074150D01*
X60375948Y-82006252D01*
X60398800Y-81940225D01*
X60453721Y-81897035D01*
X60523275Y-81890393D01*
X60531876Y-81892371D01*
X60607630Y-81912669D01*
X60607633Y-81912669D01*
X60713082Y-81912669D01*
X60713084Y-81912669D01*
X60814944Y-81885376D01*
X60906270Y-81832649D01*
X60980837Y-81758082D01*
X61018225Y-81693324D01*
X69969079Y-81693324D01*
X69969079Y-81798778D01*
X69994159Y-81892377D01*
X69996372Y-81900637D01*
X69996373Y-81900640D01*
X70003318Y-81912669D01*
X70049099Y-81991964D01*
X70123666Y-82066531D01*
X70214992Y-82119258D01*
X70316852Y-82146551D01*
X70316854Y-82146551D01*
X70422304Y-82146551D01*
X70422306Y-82146551D01*
X70524166Y-82119258D01*
X70615492Y-82066531D01*
X70690059Y-81991964D01*
X70742786Y-81900638D01*
X70770079Y-81798778D01*
X70770079Y-81693324D01*
X70742786Y-81591464D01*
X70690059Y-81500138D01*
X70615492Y-81425571D01*
X70524793Y-81373206D01*
X70524168Y-81372845D01*
X70524167Y-81372844D01*
X70524166Y-81372844D01*
X70422306Y-81345551D01*
X70316852Y-81345551D01*
X70214992Y-81372844D01*
X70214989Y-81372845D01*
X70123664Y-81425572D01*
X70049100Y-81500136D01*
X69996373Y-81591461D01*
X69996372Y-81591464D01*
X69969079Y-81693324D01*
X61018225Y-81693324D01*
X61033564Y-81666756D01*
X61036425Y-81656078D01*
X61037223Y-81653102D01*
X61050269Y-81604411D01*
X61060857Y-81564896D01*
X61060857Y-81459442D01*
X61033564Y-81357582D01*
X60980837Y-81266256D01*
X60906270Y-81191689D01*
X60829689Y-81147475D01*
X60814946Y-81138963D01*
X60814945Y-81138962D01*
X60814944Y-81138962D01*
X60713084Y-81111669D01*
X60607630Y-81111669D01*
X60505770Y-81138962D01*
X60505767Y-81138963D01*
X60414442Y-81191690D01*
X60339878Y-81266254D01*
X60287151Y-81357579D01*
X60287150Y-81357582D01*
X60259857Y-81459442D01*
X60259857Y-81564896D01*
X60287150Y-81666756D01*
X60323022Y-81728889D01*
X60328292Y-81738016D01*
X60344765Y-81805916D01*
X60321912Y-81871943D01*
X60266991Y-81915134D01*
X60197438Y-81921775D01*
X60188812Y-81919791D01*
X60181213Y-81917755D01*
X60113084Y-81899500D01*
X60007630Y-81899500D01*
X59905770Y-81926793D01*
X59905767Y-81926794D01*
X59814442Y-81979521D01*
X59739878Y-82054085D01*
X59687151Y-82145410D01*
X59687150Y-82145413D01*
X59659857Y-82247273D01*
X45500500Y-82247273D01*
X45500500Y-80047273D01*
X50919500Y-80047273D01*
X50919500Y-80152727D01*
X50946793Y-80254587D01*
X50999520Y-80345913D01*
X51074087Y-80420480D01*
X51112425Y-80442614D01*
X51160639Y-80493180D01*
X51173861Y-80561788D01*
X51147893Y-80626652D01*
X51112426Y-80657384D01*
X51074087Y-80679520D01*
X51074084Y-80679522D01*
X50999521Y-80754085D01*
X50946794Y-80845410D01*
X50946793Y-80845413D01*
X50919500Y-80947273D01*
X50919500Y-81052727D01*
X50946793Y-81154587D01*
X50999520Y-81245913D01*
X51074087Y-81320480D01*
X51165413Y-81373207D01*
X51267273Y-81400500D01*
X51267275Y-81400500D01*
X51372725Y-81400500D01*
X51372727Y-81400500D01*
X51474587Y-81373207D01*
X51565913Y-81320480D01*
X51640480Y-81245913D01*
X51662614Y-81207574D01*
X51713179Y-81159361D01*
X51781786Y-81146137D01*
X51846651Y-81172105D01*
X51877384Y-81207573D01*
X51899520Y-81245913D01*
X51974087Y-81320480D01*
X52065413Y-81373207D01*
X52167273Y-81400500D01*
X52167275Y-81400500D01*
X52272725Y-81400500D01*
X52272727Y-81400500D01*
X52374587Y-81373207D01*
X52465913Y-81320480D01*
X52540480Y-81245913D01*
X52562614Y-81207574D01*
X52613179Y-81159361D01*
X52681786Y-81146137D01*
X52746651Y-81172105D01*
X52777384Y-81207573D01*
X52799520Y-81245913D01*
X52874087Y-81320480D01*
X52965413Y-81373207D01*
X53067273Y-81400500D01*
X53067275Y-81400500D01*
X53172725Y-81400500D01*
X53172727Y-81400500D01*
X53274587Y-81373207D01*
X53365913Y-81320480D01*
X53440480Y-81245913D01*
X53493207Y-81154587D01*
X53520500Y-81052727D01*
X53520500Y-81024643D01*
X57373600Y-81024643D01*
X57373600Y-81130097D01*
X57400893Y-81231957D01*
X57453620Y-81323283D01*
X57528187Y-81397850D01*
X57619513Y-81450577D01*
X57721373Y-81477870D01*
X57721375Y-81477870D01*
X57826825Y-81477870D01*
X57826827Y-81477870D01*
X57928687Y-81450577D01*
X58020013Y-81397850D01*
X58094580Y-81323283D01*
X58147307Y-81231957D01*
X58174600Y-81130097D01*
X58174600Y-81024643D01*
X58147307Y-80922783D01*
X58094580Y-80831457D01*
X58051143Y-80788020D01*
X72300500Y-80788020D01*
X72300500Y-80919804D01*
X72310041Y-80955412D01*
X72334608Y-81047099D01*
X72346816Y-81068243D01*
X72400500Y-81161226D01*
X72493686Y-81254412D01*
X72607814Y-81320304D01*
X72735108Y-81354412D01*
X72735110Y-81354412D01*
X72866890Y-81354412D01*
X72866892Y-81354412D01*
X72994186Y-81320304D01*
X73108314Y-81254412D01*
X73201500Y-81161226D01*
X73267392Y-81047098D01*
X73301500Y-80919804D01*
X73301500Y-80894382D01*
X78642509Y-80894382D01*
X78642509Y-81026166D01*
X78654070Y-81069314D01*
X78676617Y-81153461D01*
X78702224Y-81197812D01*
X78742509Y-81267588D01*
X78835695Y-81360774D01*
X78949823Y-81426666D01*
X79077117Y-81460774D01*
X79077119Y-81460774D01*
X79208899Y-81460774D01*
X79208901Y-81460774D01*
X79336195Y-81426666D01*
X79450323Y-81360774D01*
X79543509Y-81267588D01*
X79592378Y-81182945D01*
X79642945Y-81134729D01*
X79711552Y-81121507D01*
X79776417Y-81147475D01*
X79816945Y-81204389D01*
X79823765Y-81244945D01*
X79823765Y-81328392D01*
X79835773Y-81373206D01*
X79857873Y-81455687D01*
X79887682Y-81507316D01*
X79923765Y-81569814D01*
X80016951Y-81663000D01*
X80115786Y-81720063D01*
X80131075Y-81728890D01*
X80131079Y-81728892D01*
X80258373Y-81763000D01*
X80258375Y-81763000D01*
X80390155Y-81763000D01*
X80390157Y-81763000D01*
X80517451Y-81728892D01*
X80571718Y-81697561D01*
X80639618Y-81681087D01*
X80705645Y-81703939D01*
X80724116Y-81721759D01*
X80724531Y-81721345D01*
X80730278Y-81727092D01*
X80823464Y-81820278D01*
X80937592Y-81886170D01*
X81064886Y-81920278D01*
X81064888Y-81920278D01*
X81196668Y-81920278D01*
X81196670Y-81920278D01*
X81323964Y-81886170D01*
X81353516Y-81869108D01*
X82699500Y-81869108D01*
X82699500Y-82000892D01*
X82713753Y-82054085D01*
X82733608Y-82128187D01*
X82743552Y-82145410D01*
X82799500Y-82242314D01*
X82892686Y-82335500D01*
X83006814Y-82401392D01*
X83134108Y-82435500D01*
X83134110Y-82435500D01*
X83265890Y-82435500D01*
X83265892Y-82435500D01*
X83393186Y-82401392D01*
X83483744Y-82349108D01*
X85579500Y-82349108D01*
X85579500Y-82480891D01*
X85613608Y-82608187D01*
X85620706Y-82620480D01*
X85679500Y-82722314D01*
X85772686Y-82815500D01*
X85886814Y-82881392D01*
X86014108Y-82915500D01*
X86014110Y-82915500D01*
X86145890Y-82915500D01*
X86145892Y-82915500D01*
X86273186Y-82881392D01*
X86387314Y-82815500D01*
X86392319Y-82810495D01*
X86453642Y-82777010D01*
X86523334Y-82781994D01*
X86567681Y-82810495D01*
X86572686Y-82815500D01*
X86686814Y-82881392D01*
X86814108Y-82915500D01*
X86814110Y-82915500D01*
X86945890Y-82915500D01*
X86945892Y-82915500D01*
X87073186Y-82881392D01*
X87187314Y-82815500D01*
X87192319Y-82810495D01*
X87253642Y-82777010D01*
X87323334Y-82781994D01*
X87367681Y-82810495D01*
X87372686Y-82815500D01*
X87486814Y-82881392D01*
X87614108Y-82915500D01*
X87614110Y-82915500D01*
X87745890Y-82915500D01*
X87745892Y-82915500D01*
X87873186Y-82881392D01*
X87987314Y-82815500D01*
X87992319Y-82810495D01*
X88053642Y-82777010D01*
X88123334Y-82781994D01*
X88167681Y-82810495D01*
X88172686Y-82815500D01*
X88286814Y-82881392D01*
X88414108Y-82915500D01*
X88414110Y-82915500D01*
X88545890Y-82915500D01*
X88545892Y-82915500D01*
X88673186Y-82881392D01*
X88787314Y-82815500D01*
X88792319Y-82810495D01*
X88853642Y-82777010D01*
X88923334Y-82781994D01*
X88967681Y-82810495D01*
X88972686Y-82815500D01*
X89086814Y-82881392D01*
X89214108Y-82915500D01*
X89214110Y-82915500D01*
X89345890Y-82915500D01*
X89345892Y-82915500D01*
X89473186Y-82881392D01*
X89587314Y-82815500D01*
X89680500Y-82722314D01*
X89746392Y-82608186D01*
X89780500Y-82480892D01*
X89780500Y-82349108D01*
X89746392Y-82221814D01*
X89680500Y-82107686D01*
X89587314Y-82014500D01*
X89526727Y-81979520D01*
X89473187Y-81948608D01*
X89391774Y-81926794D01*
X89345892Y-81914500D01*
X89214108Y-81914500D01*
X89086812Y-81948608D01*
X88972686Y-82014500D01*
X88972683Y-82014502D01*
X88967681Y-82019505D01*
X88906358Y-82052990D01*
X88836666Y-82048006D01*
X88792319Y-82019505D01*
X88787316Y-82014502D01*
X88787314Y-82014500D01*
X88726727Y-81979520D01*
X88673187Y-81948608D01*
X88591774Y-81926794D01*
X88545892Y-81914500D01*
X88414108Y-81914500D01*
X88286812Y-81948608D01*
X88172686Y-82014500D01*
X88172683Y-82014502D01*
X88167681Y-82019505D01*
X88106358Y-82052990D01*
X88036666Y-82048006D01*
X87992319Y-82019505D01*
X87987316Y-82014502D01*
X87987314Y-82014500D01*
X87926727Y-81979520D01*
X87873187Y-81948608D01*
X87791774Y-81926794D01*
X87745892Y-81914500D01*
X87614108Y-81914500D01*
X87486812Y-81948608D01*
X87372686Y-82014500D01*
X87372683Y-82014502D01*
X87367681Y-82019505D01*
X87306358Y-82052990D01*
X87236666Y-82048006D01*
X87192319Y-82019505D01*
X87187316Y-82014502D01*
X87187314Y-82014500D01*
X87126727Y-81979520D01*
X87073187Y-81948608D01*
X86991774Y-81926794D01*
X86945892Y-81914500D01*
X86814108Y-81914500D01*
X86686812Y-81948608D01*
X86572686Y-82014500D01*
X86572683Y-82014502D01*
X86567681Y-82019505D01*
X86506358Y-82052990D01*
X86436666Y-82048006D01*
X86392319Y-82019505D01*
X86387316Y-82014502D01*
X86387314Y-82014500D01*
X86326727Y-81979520D01*
X86273187Y-81948608D01*
X86191774Y-81926794D01*
X86145892Y-81914500D01*
X86014108Y-81914500D01*
X85886812Y-81948608D01*
X85772686Y-82014500D01*
X85772683Y-82014502D01*
X85679502Y-82107683D01*
X85679500Y-82107686D01*
X85613608Y-82221812D01*
X85579500Y-82349108D01*
X83483744Y-82349108D01*
X83507314Y-82335500D01*
X83600500Y-82242314D01*
X83666392Y-82128186D01*
X83700500Y-82000892D01*
X83700500Y-81869108D01*
X83666392Y-81741814D01*
X83600500Y-81627686D01*
X83507314Y-81534500D01*
X83447794Y-81500136D01*
X83393187Y-81468608D01*
X83325885Y-81450575D01*
X83265892Y-81434500D01*
X83134108Y-81434500D01*
X83006812Y-81468608D01*
X82892686Y-81534500D01*
X82892683Y-81534502D01*
X82799502Y-81627683D01*
X82799500Y-81627686D01*
X82733608Y-81741812D01*
X82709269Y-81832649D01*
X82699500Y-81869108D01*
X81353516Y-81869108D01*
X81438092Y-81820278D01*
X81531278Y-81727092D01*
X81545269Y-81702858D01*
X81552866Y-81694036D01*
X81572812Y-81681128D01*
X81590009Y-81664731D01*
X81601608Y-81662495D01*
X81611525Y-81656078D01*
X81635284Y-81656003D01*
X81658616Y-81651506D01*
X81672323Y-81655887D01*
X81681395Y-81655859D01*
X81690583Y-81661723D01*
X81698850Y-81664366D01*
X81699300Y-81663280D01*
X81706809Y-81666389D01*
X81706814Y-81666392D01*
X81834108Y-81700500D01*
X81834110Y-81700500D01*
X81965890Y-81700500D01*
X81965892Y-81700500D01*
X82093186Y-81666392D01*
X82207314Y-81600500D01*
X82300500Y-81507314D01*
X82366392Y-81393186D01*
X82400500Y-81265892D01*
X82400500Y-81134108D01*
X82366392Y-81006814D01*
X82300500Y-80892686D01*
X82207314Y-80799500D01*
X82142362Y-80762000D01*
X82093187Y-80733608D01*
X81983298Y-80704164D01*
X81965892Y-80699500D01*
X81834108Y-80699500D01*
X81706812Y-80733608D01*
X81592686Y-80799500D01*
X81592683Y-80799502D01*
X81499502Y-80892683D01*
X81499495Y-80892692D01*
X81491330Y-80906835D01*
X81440762Y-80955049D01*
X81372154Y-80968270D01*
X81331927Y-80955412D01*
X81331478Y-80956498D01*
X81323966Y-80953387D01*
X81323965Y-80953386D01*
X81323964Y-80953386D01*
X81196670Y-80919278D01*
X81064886Y-80919278D01*
X80937592Y-80953386D01*
X80937591Y-80953386D01*
X80937589Y-80953387D01*
X80937586Y-80953388D01*
X80883320Y-80984718D01*
X80815420Y-81001189D01*
X80749393Y-80978336D01*
X80730927Y-80960517D01*
X80730512Y-80960933D01*
X80631581Y-80862002D01*
X80631579Y-80862000D01*
X80523330Y-80799502D01*
X80517452Y-80796108D01*
X80453804Y-80779054D01*
X80390157Y-80762000D01*
X80258373Y-80762000D01*
X80131077Y-80796108D01*
X80016951Y-80862000D01*
X80016948Y-80862002D01*
X79923767Y-80955183D01*
X79923765Y-80955186D01*
X79874896Y-81039829D01*
X79824328Y-81088044D01*
X79755721Y-81101266D01*
X79690857Y-81075298D01*
X79650329Y-81018384D01*
X79643509Y-80977828D01*
X79643509Y-80894384D01*
X79643509Y-80894382D01*
X79609401Y-80767088D01*
X79606463Y-80762000D01*
X79583219Y-80721740D01*
X79543509Y-80652960D01*
X79450323Y-80559774D01*
X79347658Y-80500500D01*
X79336196Y-80493882D01*
X79259034Y-80473207D01*
X79208901Y-80459774D01*
X79077117Y-80459774D01*
X78949821Y-80493882D01*
X78835695Y-80559774D01*
X78835692Y-80559776D01*
X78742511Y-80652957D01*
X78742509Y-80652960D01*
X78676617Y-80767086D01*
X78656573Y-80841893D01*
X78642509Y-80894382D01*
X73301500Y-80894382D01*
X73301500Y-80841515D01*
X73321185Y-80774476D01*
X73373989Y-80728721D01*
X73393402Y-80721741D01*
X73493186Y-80695005D01*
X73607314Y-80629113D01*
X73700500Y-80535927D01*
X73766392Y-80421799D01*
X73800500Y-80294505D01*
X73800500Y-80162721D01*
X73766392Y-80035427D01*
X73700500Y-79921299D01*
X73668979Y-79889778D01*
X93999500Y-79889778D01*
X93999500Y-80110221D01*
X94033985Y-80327952D01*
X94102103Y-80537603D01*
X94102104Y-80537606D01*
X94160880Y-80652957D01*
X94201974Y-80733608D01*
X94202187Y-80734025D01*
X94331752Y-80912358D01*
X94331756Y-80912363D01*
X94487636Y-81068243D01*
X94487641Y-81068247D01*
X94606478Y-81154586D01*
X94665978Y-81197815D01*
X94758475Y-81244945D01*
X94862393Y-81297895D01*
X94862396Y-81297896D01*
X94967221Y-81331955D01*
X95072049Y-81366015D01*
X95289778Y-81400500D01*
X95289779Y-81400500D01*
X95510221Y-81400500D01*
X95510222Y-81400500D01*
X95727951Y-81366015D01*
X95937606Y-81297895D01*
X96134022Y-81197815D01*
X96312365Y-81068242D01*
X96468242Y-80912365D01*
X96597815Y-80734022D01*
X96697895Y-80537606D01*
X96766015Y-80327951D01*
X96800500Y-80110222D01*
X96800500Y-79889778D01*
X96766015Y-79672049D01*
X96731955Y-79567221D01*
X96697896Y-79462396D01*
X96697895Y-79462393D01*
X96628143Y-79325500D01*
X96597815Y-79265978D01*
X96556191Y-79208687D01*
X96468247Y-79087641D01*
X96468243Y-79087636D01*
X96312363Y-78931756D01*
X96312358Y-78931752D01*
X96134025Y-78802187D01*
X96134024Y-78802186D01*
X96134022Y-78802185D01*
X96071096Y-78770122D01*
X95937606Y-78702104D01*
X95937603Y-78702103D01*
X95727952Y-78633985D01*
X95619086Y-78616742D01*
X95510222Y-78599500D01*
X95289778Y-78599500D01*
X95223755Y-78609957D01*
X95072047Y-78633985D01*
X94862396Y-78702103D01*
X94862393Y-78702104D01*
X94665974Y-78802187D01*
X94487641Y-78931752D01*
X94487636Y-78931756D01*
X94331756Y-79087636D01*
X94331752Y-79087641D01*
X94202187Y-79265974D01*
X94102104Y-79462393D01*
X94102103Y-79462396D01*
X94033985Y-79672047D01*
X93999500Y-79889778D01*
X73668979Y-79889778D01*
X73607314Y-79828113D01*
X73529521Y-79783199D01*
X73493187Y-79762221D01*
X73429539Y-79745167D01*
X73365892Y-79728113D01*
X73234108Y-79728113D01*
X73106812Y-79762221D01*
X72992686Y-79828113D01*
X72992683Y-79828115D01*
X72899502Y-79921296D01*
X72899500Y-79921299D01*
X72833608Y-80035425D01*
X72799500Y-80162721D01*
X72799500Y-80241009D01*
X72779815Y-80308048D01*
X72727011Y-80353803D01*
X72707594Y-80360784D01*
X72669719Y-80370932D01*
X72607814Y-80387520D01*
X72607812Y-80387520D01*
X72607812Y-80387521D01*
X72493686Y-80453412D01*
X72493683Y-80453414D01*
X72400502Y-80546595D01*
X72400500Y-80546598D01*
X72334608Y-80660724D01*
X72314968Y-80734025D01*
X72300500Y-80788020D01*
X58051143Y-80788020D01*
X58020013Y-80756890D01*
X57928687Y-80704163D01*
X57826827Y-80676870D01*
X57721373Y-80676870D01*
X57619513Y-80704163D01*
X57619510Y-80704164D01*
X57528185Y-80756891D01*
X57453621Y-80831455D01*
X57400894Y-80922780D01*
X57400893Y-80922783D01*
X57373600Y-81024643D01*
X53520500Y-81024643D01*
X53520500Y-80947273D01*
X53493207Y-80845413D01*
X53440480Y-80754087D01*
X53365913Y-80679520D01*
X53327574Y-80657385D01*
X53279361Y-80606821D01*
X53266137Y-80538214D01*
X53292105Y-80473349D01*
X53327573Y-80442615D01*
X53365913Y-80420480D01*
X53440480Y-80345913D01*
X53493207Y-80254587D01*
X53520500Y-80152727D01*
X53520500Y-80047273D01*
X53493207Y-79945413D01*
X53440480Y-79854087D01*
X53365913Y-79779520D01*
X53299059Y-79740922D01*
X53274589Y-79726794D01*
X53274588Y-79726793D01*
X53274587Y-79726793D01*
X53172727Y-79699500D01*
X53067273Y-79699500D01*
X52965413Y-79726793D01*
X52965410Y-79726794D01*
X52874085Y-79779521D01*
X52799522Y-79854084D01*
X52799520Y-79854086D01*
X52799520Y-79854087D01*
X52777385Y-79892425D01*
X52726820Y-79940639D01*
X52658212Y-79953861D01*
X52593348Y-79927893D01*
X52562615Y-79892426D01*
X52540480Y-79854087D01*
X52465913Y-79779520D01*
X52399059Y-79740922D01*
X52374589Y-79726794D01*
X52374588Y-79726793D01*
X52374587Y-79726793D01*
X52272727Y-79699500D01*
X52167273Y-79699500D01*
X52065413Y-79726793D01*
X52065410Y-79726794D01*
X51974085Y-79779521D01*
X51899522Y-79854084D01*
X51899520Y-79854086D01*
X51899520Y-79854087D01*
X51877385Y-79892425D01*
X51826820Y-79940639D01*
X51758212Y-79953861D01*
X51693348Y-79927893D01*
X51662615Y-79892426D01*
X51640480Y-79854087D01*
X51565913Y-79779520D01*
X51499059Y-79740922D01*
X51474589Y-79726794D01*
X51474588Y-79726793D01*
X51474587Y-79726793D01*
X51372727Y-79699500D01*
X51267273Y-79699500D01*
X51165413Y-79726793D01*
X51165410Y-79726794D01*
X51074085Y-79779521D01*
X50999521Y-79854085D01*
X50946794Y-79945410D01*
X50946793Y-79945413D01*
X50919500Y-80047273D01*
X45500500Y-80047273D01*
X45500500Y-79001371D01*
X49899500Y-79001371D01*
X49899500Y-79106825D01*
X49926793Y-79208685D01*
X49979520Y-79300011D01*
X50054087Y-79374578D01*
X50145413Y-79427305D01*
X50247273Y-79454598D01*
X50247275Y-79454598D01*
X50352725Y-79454598D01*
X50352727Y-79454598D01*
X50454587Y-79427305D01*
X50545913Y-79374578D01*
X50620480Y-79300011D01*
X50673207Y-79208685D01*
X50700500Y-79106825D01*
X50700500Y-79001371D01*
X50673207Y-78899511D01*
X50620480Y-78808185D01*
X50545913Y-78733618D01*
X50454587Y-78680891D01*
X50352727Y-78653598D01*
X50247273Y-78653598D01*
X50145413Y-78680891D01*
X50145410Y-78680892D01*
X50054085Y-78733619D01*
X49979521Y-78808183D01*
X49926794Y-78899508D01*
X49926793Y-78899511D01*
X49899500Y-79001371D01*
X45500500Y-79001371D01*
X45500500Y-78000371D01*
X58708475Y-78000371D01*
X58708475Y-78105825D01*
X58735768Y-78207685D01*
X58788495Y-78299011D01*
X58863062Y-78373578D01*
X58954388Y-78426305D01*
X59056248Y-78453598D01*
X59056250Y-78453598D01*
X59161699Y-78453598D01*
X59161702Y-78453598D01*
X59227371Y-78436002D01*
X59297217Y-78437665D01*
X59355079Y-78476827D01*
X59382584Y-78541055D01*
X59370998Y-78609957D01*
X59366848Y-78617777D01*
X59321449Y-78696410D01*
X59321448Y-78696413D01*
X59294155Y-78798273D01*
X59294155Y-78903727D01*
X59313983Y-78977726D01*
X59320195Y-79000910D01*
X59318532Y-79070760D01*
X59279369Y-79128622D01*
X59232514Y-79152777D01*
X59207401Y-79159506D01*
X59148345Y-79175330D01*
X59148344Y-79175331D01*
X59057019Y-79228058D01*
X58982455Y-79302622D01*
X58929728Y-79393947D01*
X58929727Y-79393950D01*
X58902434Y-79495810D01*
X58902434Y-79601264D01*
X58929727Y-79703124D01*
X58982454Y-79794450D01*
X59057021Y-79869017D01*
X59148347Y-79921744D01*
X59250207Y-79949037D01*
X59250209Y-79949037D01*
X59355659Y-79949037D01*
X59355661Y-79949037D01*
X59457521Y-79921744D01*
X59548847Y-79869017D01*
X59623414Y-79794450D01*
X59676141Y-79703124D01*
X59703434Y-79601264D01*
X59703434Y-79575886D01*
X71796500Y-79575886D01*
X71796500Y-79681340D01*
X71823793Y-79783200D01*
X71876520Y-79874526D01*
X71951087Y-79949093D01*
X72042413Y-80001820D01*
X72144273Y-80029113D01*
X72144275Y-80029113D01*
X72249725Y-80029113D01*
X72249727Y-80029113D01*
X72351587Y-80001820D01*
X72442913Y-79949093D01*
X72517480Y-79874526D01*
X72570207Y-79783200D01*
X72597500Y-79681340D01*
X72597500Y-79575886D01*
X72570207Y-79474026D01*
X72517480Y-79382700D01*
X72442913Y-79308133D01*
X72376059Y-79269535D01*
X72351589Y-79255407D01*
X72351588Y-79255406D01*
X72351587Y-79255406D01*
X72249727Y-79228113D01*
X72144273Y-79228113D01*
X72042413Y-79255406D01*
X72042410Y-79255407D01*
X71951085Y-79308134D01*
X71876521Y-79382698D01*
X71823794Y-79474023D01*
X71823793Y-79474026D01*
X71796500Y-79575886D01*
X59703434Y-79575886D01*
X59703434Y-79495810D01*
X59676141Y-79393950D01*
X59675810Y-79393377D01*
X59674547Y-79384976D01*
X59678383Y-79357003D01*
X59679056Y-79328777D01*
X59683069Y-79322847D01*
X59684042Y-79315755D01*
X59702390Y-79294300D01*
X59718218Y-79270914D01*
X59725679Y-79267067D01*
X59729453Y-79262655D01*
X59740937Y-79259201D01*
X59765072Y-79246759D01*
X59849242Y-79224207D01*
X59940568Y-79171480D01*
X60015135Y-79096913D01*
X60067862Y-79005587D01*
X60095155Y-78903727D01*
X60095155Y-78798273D01*
X60067862Y-78696413D01*
X60015135Y-78605087D01*
X59940568Y-78530520D01*
X59849242Y-78477793D01*
X59747382Y-78450500D01*
X59641928Y-78450500D01*
X59641926Y-78450500D01*
X59576260Y-78468095D01*
X59562272Y-78467761D01*
X59549012Y-78472225D01*
X59528036Y-78466946D01*
X59506410Y-78466432D01*
X59494822Y-78458588D01*
X59481255Y-78455175D01*
X59466462Y-78439394D01*
X59448548Y-78427269D01*
X59443040Y-78414406D01*
X59433472Y-78404199D01*
X59429559Y-78382923D01*
X59421045Y-78363040D01*
X59423109Y-78347856D01*
X59420834Y-78335482D01*
X59427650Y-78314468D01*
X59429447Y-78301255D01*
X59432608Y-78293549D01*
X59482182Y-78207685D01*
X59509193Y-78106874D01*
X59512195Y-78099559D01*
X59529277Y-78078213D01*
X59543505Y-78054871D01*
X59550790Y-78051331D01*
X59555852Y-78045007D01*
X59581762Y-78036286D01*
X59606352Y-78024341D01*
X59615901Y-78024795D01*
X59622072Y-78022719D01*
X59633692Y-78025643D01*
X59659004Y-78026848D01*
X59747273Y-78050500D01*
X59747276Y-78050500D01*
X59852725Y-78050500D01*
X59852727Y-78050500D01*
X59954587Y-78023207D01*
X59956205Y-78022273D01*
X69149500Y-78022273D01*
X69149500Y-78127727D01*
X69176793Y-78229587D01*
X69218170Y-78301255D01*
X69229521Y-78320914D01*
X69304087Y-78395480D01*
X69310533Y-78400426D01*
X69308767Y-78402726D01*
X69347341Y-78443186D01*
X69360560Y-78511794D01*
X69334588Y-78576657D01*
X69309577Y-78598329D01*
X69310533Y-78599574D01*
X69304087Y-78604519D01*
X69229521Y-78679085D01*
X69176794Y-78770410D01*
X69176793Y-78770413D01*
X69149500Y-78872273D01*
X69149500Y-78977727D01*
X69155836Y-79001371D01*
X69176793Y-79079586D01*
X69176794Y-79079589D01*
X69181440Y-79087636D01*
X69229520Y-79170913D01*
X69304087Y-79245480D01*
X69395413Y-79298207D01*
X69497273Y-79325500D01*
X69497275Y-79325500D01*
X69602725Y-79325500D01*
X69602727Y-79325500D01*
X69704587Y-79298207D01*
X69795913Y-79245480D01*
X69870480Y-79170913D01*
X69923207Y-79079587D01*
X69950500Y-78977727D01*
X69950500Y-78872273D01*
X69923207Y-78770413D01*
X69870480Y-78679087D01*
X69795913Y-78604520D01*
X69795912Y-78604519D01*
X69789467Y-78599574D01*
X69791234Y-78597270D01*
X69752670Y-78556837D01*
X69739437Y-78488232D01*
X69765395Y-78423363D01*
X69790424Y-78401674D01*
X69789467Y-78400426D01*
X69795908Y-78395482D01*
X69795913Y-78395480D01*
X69870480Y-78320913D01*
X69923207Y-78229587D01*
X69950500Y-78127727D01*
X69950500Y-78022273D01*
X69923207Y-77920413D01*
X69870480Y-77829087D01*
X69795913Y-77754520D01*
X69706203Y-77702726D01*
X69704589Y-77701794D01*
X69704588Y-77701793D01*
X69704587Y-77701793D01*
X69602727Y-77674500D01*
X69497273Y-77674500D01*
X69395413Y-77701793D01*
X69395410Y-77701794D01*
X69304085Y-77754521D01*
X69229521Y-77829085D01*
X69176794Y-77920410D01*
X69176793Y-77920413D01*
X69149500Y-78022273D01*
X59956205Y-78022273D01*
X60045913Y-77970480D01*
X60120480Y-77895913D01*
X60173207Y-77804587D01*
X60200500Y-77702727D01*
X60200500Y-77597273D01*
X60173207Y-77495413D01*
X60120480Y-77404087D01*
X60045913Y-77329520D01*
X59979059Y-77290922D01*
X59954589Y-77276794D01*
X59954588Y-77276793D01*
X59954587Y-77276793D01*
X59852727Y-77249500D01*
X59747273Y-77249500D01*
X59645413Y-77276793D01*
X59645410Y-77276794D01*
X59554085Y-77329521D01*
X59479521Y-77404085D01*
X59426794Y-77495410D01*
X59426793Y-77495411D01*
X59401833Y-77588567D01*
X59365468Y-77648227D01*
X59302621Y-77678756D01*
X59249966Y-77676248D01*
X59161702Y-77652598D01*
X59056248Y-77652598D01*
X58954388Y-77679891D01*
X58954385Y-77679892D01*
X58863060Y-77732619D01*
X58788496Y-77807183D01*
X58735769Y-77898508D01*
X58735768Y-77898511D01*
X58708475Y-78000371D01*
X45500500Y-78000371D01*
X45500500Y-76624807D01*
X58172324Y-76624807D01*
X58172324Y-76730261D01*
X58199617Y-76832121D01*
X58252344Y-76923447D01*
X58326911Y-76998014D01*
X58418237Y-77050741D01*
X58520097Y-77078034D01*
X58520099Y-77078034D01*
X58625549Y-77078034D01*
X58625551Y-77078034D01*
X58727411Y-77050741D01*
X58818737Y-76998014D01*
X58893304Y-76923447D01*
X58946031Y-76832121D01*
X58972293Y-76734108D01*
X78199500Y-76734108D01*
X78199500Y-76865891D01*
X78233608Y-76993187D01*
X78236394Y-76998012D01*
X78299500Y-77107314D01*
X78392686Y-77200500D01*
X78506814Y-77266392D01*
X78634108Y-77300500D01*
X78634110Y-77300500D01*
X78765890Y-77300500D01*
X78765892Y-77300500D01*
X78827068Y-77284108D01*
X84227201Y-77284108D01*
X84227201Y-77415891D01*
X84261309Y-77543187D01*
X84287510Y-77588567D01*
X84327201Y-77657314D01*
X84420387Y-77750500D01*
X84534515Y-77816392D01*
X84661809Y-77850500D01*
X84661811Y-77850500D01*
X84793591Y-77850500D01*
X84793593Y-77850500D01*
X84920887Y-77816392D01*
X85035015Y-77750500D01*
X85128201Y-77657314D01*
X85194093Y-77543186D01*
X85228201Y-77415892D01*
X85228201Y-77284108D01*
X85194093Y-77156814D01*
X85128201Y-77042686D01*
X85035015Y-76949500D01*
X84977951Y-76916554D01*
X84920888Y-76883608D01*
X84854762Y-76865890D01*
X84793593Y-76849500D01*
X84661809Y-76849500D01*
X84534513Y-76883608D01*
X84420387Y-76949500D01*
X84420384Y-76949502D01*
X84327203Y-77042683D01*
X84327201Y-77042686D01*
X84261309Y-77156812D01*
X84227201Y-77284108D01*
X78827068Y-77284108D01*
X78893186Y-77266392D01*
X79007314Y-77200500D01*
X79100500Y-77107314D01*
X79166392Y-76993186D01*
X79200500Y-76865892D01*
X79200500Y-76734108D01*
X79166392Y-76606814D01*
X79100500Y-76492686D01*
X79007314Y-76399500D01*
X78950250Y-76366554D01*
X78893187Y-76333608D01*
X78829539Y-76316554D01*
X78765892Y-76299500D01*
X78634108Y-76299500D01*
X78506812Y-76333608D01*
X78392686Y-76399500D01*
X78392683Y-76399502D01*
X78299502Y-76492683D01*
X78299500Y-76492686D01*
X78233608Y-76606812D01*
X78199500Y-76734108D01*
X58972293Y-76734108D01*
X58973324Y-76730261D01*
X58973324Y-76624807D01*
X58946031Y-76522947D01*
X58893304Y-76431621D01*
X58818737Y-76357054D01*
X58727411Y-76304327D01*
X58625551Y-76277034D01*
X58520097Y-76277034D01*
X58418237Y-76304327D01*
X58418234Y-76304328D01*
X58326909Y-76357055D01*
X58252345Y-76431619D01*
X58199618Y-76522944D01*
X58199617Y-76522947D01*
X58172324Y-76624807D01*
X45500500Y-76624807D01*
X45500500Y-74967273D01*
X49199500Y-74967273D01*
X49199500Y-75072727D01*
X49226793Y-75174587D01*
X49279520Y-75265913D01*
X49354087Y-75340480D01*
X49445413Y-75393207D01*
X49547273Y-75420500D01*
X49547275Y-75420500D01*
X49652725Y-75420500D01*
X49652727Y-75420500D01*
X49754587Y-75393207D01*
X49845913Y-75340480D01*
X49920480Y-75265913D01*
X49938843Y-75234108D01*
X51299500Y-75234108D01*
X51299500Y-75365892D01*
X51314126Y-75420478D01*
X51333608Y-75493187D01*
X51348826Y-75519545D01*
X51399500Y-75607314D01*
X51492686Y-75700500D01*
X51606814Y-75766392D01*
X51734108Y-75800500D01*
X51734110Y-75800500D01*
X51865890Y-75800500D01*
X51865892Y-75800500D01*
X51942814Y-75779889D01*
X63849500Y-75779889D01*
X63849500Y-75885343D01*
X63876793Y-75987203D01*
X63929520Y-76078529D01*
X64004087Y-76153096D01*
X64095413Y-76205823D01*
X64197273Y-76233116D01*
X64197275Y-76233116D01*
X64302725Y-76233116D01*
X64302727Y-76233116D01*
X64404587Y-76205823D01*
X64495913Y-76153096D01*
X64570480Y-76078529D01*
X64623207Y-75987203D01*
X64650500Y-75885343D01*
X64650500Y-75779889D01*
X64623207Y-75678029D01*
X64623205Y-75678025D01*
X64620690Y-75671952D01*
X64613221Y-75602483D01*
X64644497Y-75540004D01*
X64704586Y-75504352D01*
X64735251Y-75500500D01*
X64752725Y-75500500D01*
X64752727Y-75500500D01*
X64854587Y-75473207D01*
X64945913Y-75420480D01*
X65020480Y-75345913D01*
X65073207Y-75254587D01*
X65100500Y-75152727D01*
X65100500Y-75047273D01*
X65073207Y-74945413D01*
X65021728Y-74856248D01*
X65852598Y-74856248D01*
X65852598Y-74961702D01*
X65879891Y-75063562D01*
X65932618Y-75154888D01*
X66007185Y-75229455D01*
X66098511Y-75282182D01*
X66200371Y-75309475D01*
X66200373Y-75309475D01*
X66305823Y-75309475D01*
X66305825Y-75309475D01*
X66407685Y-75282182D01*
X66499011Y-75229455D01*
X66573578Y-75154888D01*
X66597641Y-75113208D01*
X66648207Y-75064993D01*
X66716814Y-75051769D01*
X66781679Y-75077737D01*
X66792709Y-75087527D01*
X66794886Y-75089704D01*
X66886212Y-75142431D01*
X66988072Y-75169724D01*
X66988083Y-75169724D01*
X66995107Y-75170649D01*
X67059005Y-75198913D01*
X67097478Y-75257236D01*
X67098313Y-75327100D01*
X67086316Y-75355586D01*
X67078794Y-75368614D01*
X67078793Y-75368617D01*
X67051500Y-75470477D01*
X67051500Y-75575931D01*
X67077229Y-75671952D01*
X67078793Y-75677790D01*
X67078794Y-75677793D01*
X67082545Y-75684290D01*
X67131520Y-75769117D01*
X67206087Y-75843684D01*
X67297413Y-75896411D01*
X67399273Y-75923704D01*
X67399275Y-75923704D01*
X67504725Y-75923704D01*
X67504727Y-75923704D01*
X67606587Y-75896411D01*
X67697913Y-75843684D01*
X67772480Y-75769117D01*
X67825207Y-75677791D01*
X67852500Y-75575931D01*
X67852500Y-75470477D01*
X67825207Y-75368617D01*
X67825203Y-75368610D01*
X67824205Y-75366199D01*
X67823967Y-75363993D01*
X67823103Y-75360766D01*
X67823606Y-75360631D01*
X67816735Y-75296730D01*
X67848008Y-75234250D01*
X67906670Y-75198970D01*
X67994709Y-75175381D01*
X68086035Y-75122654D01*
X68153918Y-75054770D01*
X68215237Y-75021288D01*
X68284929Y-75026272D01*
X68328185Y-75058260D01*
X68330317Y-75056129D01*
X68336064Y-75061876D01*
X68410631Y-75136443D01*
X68501957Y-75189170D01*
X68603817Y-75216463D01*
X68603819Y-75216463D01*
X68709269Y-75216463D01*
X68709271Y-75216463D01*
X68811131Y-75189170D01*
X68843500Y-75170481D01*
X68911398Y-75154008D01*
X68977426Y-75176860D01*
X69020617Y-75231780D01*
X69029500Y-75277868D01*
X69029500Y-75322727D01*
X69056793Y-75424587D01*
X69109520Y-75515913D01*
X69184087Y-75590480D01*
X69275413Y-75643207D01*
X69377273Y-75670500D01*
X69377275Y-75670500D01*
X69482725Y-75670500D01*
X69482727Y-75670500D01*
X69539730Y-75655226D01*
X69609578Y-75656888D01*
X69667441Y-75696049D01*
X69694946Y-75760278D01*
X69683360Y-75829180D01*
X69659505Y-75862680D01*
X69629503Y-75892682D01*
X69629500Y-75892686D01*
X69563608Y-76006812D01*
X69543566Y-76081613D01*
X69529500Y-76134108D01*
X69529500Y-76265892D01*
X69534892Y-76286014D01*
X69563608Y-76393187D01*
X69596554Y-76450250D01*
X69629500Y-76507314D01*
X69722686Y-76600500D01*
X69836814Y-76666392D01*
X69964108Y-76700500D01*
X69964110Y-76700500D01*
X70095890Y-76700500D01*
X70095892Y-76700500D01*
X70223186Y-76666392D01*
X70337314Y-76600500D01*
X70430500Y-76507314D01*
X70496392Y-76393186D01*
X70530500Y-76265892D01*
X70530500Y-76200235D01*
X70550185Y-76133196D01*
X70602989Y-76087441D01*
X70654500Y-76076235D01*
X70741625Y-76076235D01*
X70741627Y-76076235D01*
X70868921Y-76042127D01*
X70983049Y-75976235D01*
X71076235Y-75883049D01*
X71142127Y-75768921D01*
X71176235Y-75641627D01*
X71176235Y-75509843D01*
X71142127Y-75382549D01*
X71142125Y-75382545D01*
X71126094Y-75354778D01*
X71126093Y-75354777D01*
X71117348Y-75339632D01*
X71093109Y-75297648D01*
X74199500Y-75297648D01*
X74199500Y-75502352D01*
X74200687Y-75509845D01*
X74231522Y-75704534D01*
X74294781Y-75899223D01*
X74340140Y-75988243D01*
X74386143Y-76078529D01*
X74387715Y-76081613D01*
X74508028Y-76247213D01*
X74652786Y-76391971D01*
X74791407Y-76492683D01*
X74818390Y-76512287D01*
X74934607Y-76571503D01*
X75000776Y-76605218D01*
X75000778Y-76605218D01*
X75000781Y-76605220D01*
X75061064Y-76624807D01*
X75195465Y-76668477D01*
X75296557Y-76684488D01*
X75397648Y-76700500D01*
X75397649Y-76700500D01*
X75602351Y-76700500D01*
X75602352Y-76700500D01*
X75804534Y-76668477D01*
X75999219Y-76605220D01*
X76181610Y-76512287D01*
X76336847Y-76399502D01*
X76347213Y-76391971D01*
X76347215Y-76391968D01*
X76347219Y-76391966D01*
X76491966Y-76247219D01*
X76491968Y-76247215D01*
X76491971Y-76247213D01*
X76574808Y-76133196D01*
X76612287Y-76081610D01*
X76705220Y-75899219D01*
X76768477Y-75704534D01*
X76798396Y-75515638D01*
X77624674Y-75515638D01*
X77624674Y-75647422D01*
X77638312Y-75698321D01*
X77658782Y-75774717D01*
X77673091Y-75799500D01*
X77724674Y-75888844D01*
X77817860Y-75982030D01*
X77931988Y-76047922D01*
X78059282Y-76082030D01*
X78059284Y-76082030D01*
X78191064Y-76082030D01*
X78191066Y-76082030D01*
X78318360Y-76047922D01*
X78432488Y-75982030D01*
X78525674Y-75888844D01*
X78591566Y-75774716D01*
X78619274Y-75671306D01*
X78655636Y-75611649D01*
X78718483Y-75581119D01*
X78771135Y-75583626D01*
X78834108Y-75600500D01*
X78834111Y-75600500D01*
X78965890Y-75600500D01*
X78965892Y-75600500D01*
X79093186Y-75566392D01*
X79207314Y-75500500D01*
X79300500Y-75407314D01*
X79366392Y-75293186D01*
X79400500Y-75165892D01*
X79400500Y-75034108D01*
X79366392Y-74906814D01*
X79362170Y-74899502D01*
X79343352Y-74866907D01*
X79343351Y-74866906D01*
X79342487Y-74865410D01*
X79310368Y-74809778D01*
X93999500Y-74809778D01*
X93999500Y-75030222D01*
X94012993Y-75115413D01*
X94033985Y-75247952D01*
X94102103Y-75457603D01*
X94102104Y-75457606D01*
X94142968Y-75537804D01*
X94198822Y-75647422D01*
X94202187Y-75654025D01*
X94331752Y-75832358D01*
X94331756Y-75832363D01*
X94487636Y-75988243D01*
X94487641Y-75988247D01*
X94643192Y-76101260D01*
X94665978Y-76117815D01*
X94794375Y-76183237D01*
X94862393Y-76217895D01*
X94862396Y-76217896D01*
X94909240Y-76233116D01*
X95072049Y-76286015D01*
X95289778Y-76320500D01*
X95289779Y-76320500D01*
X95510221Y-76320500D01*
X95510222Y-76320500D01*
X95727951Y-76286015D01*
X95937606Y-76217895D01*
X96134022Y-76117815D01*
X96312365Y-75988242D01*
X96468242Y-75832365D01*
X96597815Y-75654022D01*
X96697895Y-75457606D01*
X96766015Y-75247951D01*
X96800500Y-75030222D01*
X96800500Y-74809778D01*
X96766015Y-74592049D01*
X96722196Y-74457185D01*
X96697896Y-74382396D01*
X96697895Y-74382393D01*
X96608686Y-74207314D01*
X96597815Y-74185978D01*
X96537487Y-74102943D01*
X96468247Y-74007641D01*
X96468243Y-74007636D01*
X96312363Y-73851756D01*
X96312358Y-73851752D01*
X96134025Y-73722187D01*
X96134024Y-73722186D01*
X96134022Y-73722185D01*
X96071096Y-73690122D01*
X95937606Y-73622104D01*
X95937603Y-73622103D01*
X95727952Y-73553985D01*
X95617884Y-73536552D01*
X95510222Y-73519500D01*
X95289778Y-73519500D01*
X95217201Y-73530995D01*
X95072047Y-73553985D01*
X94862396Y-73622103D01*
X94862393Y-73622104D01*
X94665974Y-73722187D01*
X94487641Y-73851752D01*
X94487636Y-73851756D01*
X94331756Y-74007636D01*
X94331752Y-74007641D01*
X94202187Y-74185974D01*
X94102104Y-74382393D01*
X94102103Y-74382396D01*
X94033985Y-74592047D01*
X94006871Y-74763238D01*
X93999500Y-74809778D01*
X79310368Y-74809778D01*
X79300500Y-74792686D01*
X79207314Y-74699500D01*
X79144198Y-74663060D01*
X79093187Y-74633608D01*
X79029539Y-74616554D01*
X78965892Y-74599500D01*
X78834108Y-74599500D01*
X78706812Y-74633608D01*
X78592686Y-74699500D01*
X78592683Y-74699502D01*
X78499502Y-74792683D01*
X78499500Y-74792686D01*
X78433608Y-74906812D01*
X78405901Y-75010220D01*
X78369536Y-75069881D01*
X78306689Y-75100410D01*
X78254033Y-75097902D01*
X78191066Y-75081030D01*
X78059282Y-75081030D01*
X77931986Y-75115138D01*
X77817860Y-75181030D01*
X77817857Y-75181032D01*
X77724676Y-75274213D01*
X77724674Y-75274216D01*
X77658782Y-75388342D01*
X77636043Y-75473207D01*
X77624674Y-75515638D01*
X76798396Y-75515638D01*
X76800500Y-75502352D01*
X76800500Y-75297648D01*
X76784862Y-75198913D01*
X76768477Y-75095465D01*
X76726825Y-74967275D01*
X76705220Y-74900781D01*
X76705218Y-74900778D01*
X76705218Y-74900776D01*
X76668243Y-74828209D01*
X76612287Y-74718390D01*
X76573135Y-74664501D01*
X76491971Y-74552786D01*
X76347213Y-74408028D01*
X76181613Y-74287715D01*
X76181612Y-74287714D01*
X76181610Y-74287713D01*
X76124653Y-74258691D01*
X75999223Y-74194781D01*
X75804534Y-74131522D01*
X75624090Y-74102943D01*
X75602352Y-74099500D01*
X75397648Y-74099500D01*
X75375910Y-74102943D01*
X75195465Y-74131522D01*
X75000776Y-74194781D01*
X74818386Y-74287715D01*
X74652786Y-74408028D01*
X74508028Y-74552786D01*
X74387715Y-74718386D01*
X74294781Y-74900776D01*
X74231522Y-75095465D01*
X74204129Y-75268421D01*
X74199500Y-75297648D01*
X71093109Y-75297648D01*
X71076235Y-75268421D01*
X70983049Y-75175235D01*
X70925985Y-75142289D01*
X70868922Y-75109343D01*
X70805274Y-75092289D01*
X70741627Y-75075235D01*
X70609843Y-75075235D01*
X70482547Y-75109343D01*
X70368421Y-75175235D01*
X70368418Y-75175237D01*
X70275237Y-75268418D01*
X70275235Y-75268421D01*
X70209343Y-75382547D01*
X70175235Y-75509843D01*
X70175235Y-75575500D01*
X70175148Y-75575795D01*
X70175234Y-75576092D01*
X70165287Y-75609377D01*
X70155550Y-75642539D01*
X70155317Y-75642740D01*
X70155229Y-75643037D01*
X70128798Y-75665719D01*
X70102746Y-75688294D01*
X70102363Y-75688405D01*
X70102208Y-75688539D01*
X70101045Y-75688789D01*
X70068296Y-75698321D01*
X70059809Y-75699500D01*
X69964108Y-75699500D01*
X69861084Y-75727104D01*
X69853474Y-75728162D01*
X69826210Y-75724109D01*
X69798656Y-75723453D01*
X69792142Y-75719044D01*
X69784364Y-75717888D01*
X69763620Y-75699739D01*
X69740794Y-75684290D01*
X69737698Y-75677060D01*
X69731779Y-75671882D01*
X69724138Y-75645396D01*
X69713290Y-75620061D01*
X69714594Y-75612306D01*
X69712414Y-75604749D01*
X69720306Y-75578337D01*
X69724877Y-75551159D01*
X69730995Y-75542567D01*
X69732419Y-75537804D01*
X69737482Y-75533458D01*
X69748735Y-75517657D01*
X69750480Y-75515913D01*
X69803207Y-75424587D01*
X69830500Y-75322727D01*
X69830500Y-75217273D01*
X69803207Y-75115413D01*
X69750480Y-75024087D01*
X69675913Y-74949520D01*
X69601944Y-74906814D01*
X69584589Y-74896794D01*
X69584588Y-74896793D01*
X69584587Y-74896793D01*
X69482727Y-74869500D01*
X69377273Y-74869500D01*
X69275413Y-74896793D01*
X69275410Y-74896794D01*
X69243044Y-74915481D01*
X69175143Y-74931954D01*
X69109117Y-74909101D01*
X69065926Y-74854180D01*
X69057044Y-74808094D01*
X69057044Y-74763238D01*
X69057044Y-74763236D01*
X69029751Y-74661376D01*
X68977024Y-74570050D01*
X68902457Y-74495483D01*
X68811131Y-74442756D01*
X68709271Y-74415463D01*
X68603817Y-74415463D01*
X68501957Y-74442756D01*
X68501954Y-74442757D01*
X68410631Y-74495483D01*
X68342750Y-74563364D01*
X68281426Y-74596848D01*
X68211735Y-74591863D01*
X68168483Y-74559873D01*
X68166349Y-74562008D01*
X68086036Y-74481695D01*
X68086035Y-74481694D01*
X67994709Y-74428967D01*
X67892849Y-74401674D01*
X67787395Y-74401674D01*
X67685535Y-74428967D01*
X67685532Y-74428968D01*
X67594207Y-74481695D01*
X67544322Y-74531580D01*
X67482999Y-74565064D01*
X67413307Y-74560079D01*
X67368861Y-74527222D01*
X67367026Y-74529058D01*
X67286713Y-74448745D01*
X67286712Y-74448744D01*
X67216190Y-74408028D01*
X67195388Y-74396018D01*
X67195387Y-74396017D01*
X67195386Y-74396017D01*
X67093526Y-74368724D01*
X66988072Y-74368724D01*
X66886212Y-74396017D01*
X66886209Y-74396018D01*
X66794884Y-74448745D01*
X66720320Y-74523309D01*
X66696254Y-74564992D01*
X66645686Y-74613207D01*
X66577079Y-74626428D01*
X66512214Y-74600459D01*
X66501187Y-74590671D01*
X66499012Y-74588496D01*
X66499011Y-74588495D01*
X66407685Y-74535768D01*
X66305825Y-74508475D01*
X66200371Y-74508475D01*
X66098511Y-74535768D01*
X66098508Y-74535769D01*
X66007183Y-74588496D01*
X65932619Y-74663060D01*
X65879892Y-74754385D01*
X65879891Y-74754388D01*
X65852598Y-74856248D01*
X65021728Y-74856248D01*
X65020480Y-74854087D01*
X64945913Y-74779520D01*
X64854587Y-74726793D01*
X64752727Y-74699500D01*
X64647273Y-74699500D01*
X64545413Y-74726793D01*
X64545410Y-74726794D01*
X64454085Y-74779521D01*
X64379521Y-74854085D01*
X64326794Y-74945410D01*
X64326793Y-74945413D01*
X64299500Y-75047273D01*
X64299500Y-75152727D01*
X64320059Y-75229455D01*
X64326794Y-75254590D01*
X64329310Y-75260664D01*
X64336779Y-75330133D01*
X64305503Y-75392612D01*
X64245414Y-75428264D01*
X64214749Y-75432116D01*
X64197273Y-75432116D01*
X64095413Y-75459409D01*
X64095410Y-75459410D01*
X64004085Y-75512137D01*
X63929521Y-75586701D01*
X63876794Y-75678026D01*
X63876793Y-75678029D01*
X63849500Y-75779889D01*
X51942814Y-75779889D01*
X51993186Y-75766392D01*
X52107314Y-75700500D01*
X52200500Y-75607314D01*
X52266392Y-75493186D01*
X52300500Y-75365892D01*
X52300500Y-75234108D01*
X52266392Y-75106814D01*
X52200500Y-74992686D01*
X52107314Y-74899500D01*
X52032400Y-74856248D01*
X51993187Y-74833608D01*
X51904250Y-74809778D01*
X51865892Y-74799500D01*
X51734108Y-74799500D01*
X51606812Y-74833608D01*
X51492686Y-74899500D01*
X51492683Y-74899502D01*
X51399502Y-74992683D01*
X51399500Y-74992686D01*
X51333608Y-75106812D01*
X51311541Y-75189169D01*
X51299500Y-75234108D01*
X49938843Y-75234108D01*
X49973207Y-75174587D01*
X50000500Y-75072727D01*
X50000500Y-74967273D01*
X49973207Y-74865413D01*
X49920480Y-74774087D01*
X49845913Y-74699520D01*
X49779059Y-74660922D01*
X49754589Y-74646794D01*
X49754588Y-74646793D01*
X49754587Y-74646793D01*
X49652727Y-74619500D01*
X49547273Y-74619500D01*
X49445413Y-74646793D01*
X49445410Y-74646794D01*
X49354085Y-74699521D01*
X49279521Y-74774085D01*
X49226794Y-74865410D01*
X49226793Y-74865413D01*
X49199500Y-74967273D01*
X45500500Y-74967273D01*
X45500500Y-74457185D01*
X62399500Y-74457185D01*
X62399500Y-74562639D01*
X62426793Y-74664499D01*
X62479520Y-74755825D01*
X62554087Y-74830392D01*
X62645413Y-74883119D01*
X62747273Y-74910412D01*
X62747275Y-74910412D01*
X62852725Y-74910412D01*
X62852727Y-74910412D01*
X62954587Y-74883119D01*
X63045913Y-74830392D01*
X63120480Y-74755825D01*
X63173207Y-74664499D01*
X63199055Y-74568030D01*
X63235419Y-74508373D01*
X63298265Y-74477843D01*
X63367641Y-74486137D01*
X63385544Y-74496615D01*
X63385648Y-74496436D01*
X63392684Y-74500498D01*
X63392686Y-74500500D01*
X63432196Y-74523311D01*
X63500313Y-74562639D01*
X63506814Y-74566392D01*
X63634108Y-74600500D01*
X63634110Y-74600500D01*
X63765890Y-74600500D01*
X63765892Y-74600500D01*
X63893186Y-74566392D01*
X64007314Y-74500500D01*
X64100500Y-74407314D01*
X64166392Y-74293186D01*
X64200500Y-74165892D01*
X64200500Y-74034108D01*
X64166392Y-73906814D01*
X64100500Y-73792686D01*
X64007314Y-73699500D01*
X63953333Y-73668334D01*
X63897004Y-73635812D01*
X63897003Y-73635811D01*
X63897002Y-73635811D01*
X63893188Y-73633608D01*
X63808323Y-73610869D01*
X63765892Y-73599500D01*
X63634108Y-73599500D01*
X63506812Y-73633608D01*
X63392686Y-73699500D01*
X63392683Y-73699502D01*
X63299502Y-73792683D01*
X63299500Y-73792686D01*
X63233608Y-73906812D01*
X63199500Y-74034108D01*
X63199500Y-74063331D01*
X63179815Y-74130370D01*
X63127011Y-74176125D01*
X63057853Y-74186069D01*
X63013500Y-74170718D01*
X62954589Y-74136706D01*
X62954588Y-74136705D01*
X62954587Y-74136705D01*
X62852727Y-74109412D01*
X62747273Y-74109412D01*
X62645413Y-74136705D01*
X62645410Y-74136706D01*
X62554085Y-74189433D01*
X62479521Y-74263997D01*
X62426794Y-74355322D01*
X62426793Y-74355325D01*
X62399500Y-74457185D01*
X45500500Y-74457185D01*
X45500500Y-73834108D01*
X58899500Y-73834108D01*
X58899500Y-73965891D01*
X58933608Y-74093187D01*
X58942976Y-74109412D01*
X58999500Y-74207314D01*
X59092686Y-74300500D01*
X59191521Y-74357563D01*
X59206810Y-74366390D01*
X59206814Y-74366392D01*
X59334108Y-74400500D01*
X59334110Y-74400500D01*
X59465890Y-74400500D01*
X59465892Y-74400500D01*
X59593186Y-74366392D01*
X59707314Y-74300500D01*
X59800500Y-74207314D01*
X59866392Y-74093186D01*
X59900500Y-73965892D01*
X59900500Y-73834108D01*
X59866392Y-73706814D01*
X59800500Y-73592686D01*
X59744366Y-73536552D01*
X81845098Y-73536552D01*
X81845098Y-73668335D01*
X81879206Y-73795631D01*
X81901421Y-73834108D01*
X81945098Y-73909758D01*
X82038284Y-74002944D01*
X82152412Y-74068836D01*
X82279706Y-74102944D01*
X82279708Y-74102944D01*
X82411488Y-74102944D01*
X82411490Y-74102944D01*
X82538784Y-74068836D01*
X82652912Y-74002944D01*
X82746098Y-73909758D01*
X82811990Y-73795630D01*
X82846098Y-73668336D01*
X82846098Y-73536552D01*
X82811990Y-73409258D01*
X82746098Y-73295130D01*
X82652912Y-73201944D01*
X82595848Y-73168998D01*
X82538785Y-73136052D01*
X82450091Y-73112287D01*
X82411490Y-73101944D01*
X82279706Y-73101944D01*
X82152410Y-73136052D01*
X82038284Y-73201944D01*
X82038281Y-73201946D01*
X81945100Y-73295127D01*
X81945098Y-73295130D01*
X81879206Y-73409256D01*
X81845098Y-73536552D01*
X59744366Y-73536552D01*
X59707314Y-73499500D01*
X59650250Y-73466554D01*
X59593187Y-73433608D01*
X59529539Y-73416554D01*
X59465892Y-73399500D01*
X59334108Y-73399500D01*
X59206812Y-73433608D01*
X59092686Y-73499500D01*
X59092683Y-73499502D01*
X58999502Y-73592683D01*
X58999500Y-73592686D01*
X58933608Y-73706812D01*
X58899500Y-73834108D01*
X45500500Y-73834108D01*
X45500500Y-72534108D01*
X55399500Y-72534108D01*
X55399500Y-72665892D01*
X55416554Y-72729539D01*
X55433608Y-72793187D01*
X55464801Y-72847213D01*
X55499500Y-72907314D01*
X55592686Y-73000500D01*
X55706814Y-73066392D01*
X55834108Y-73100500D01*
X55834110Y-73100500D01*
X55965890Y-73100500D01*
X55965892Y-73100500D01*
X56093186Y-73066392D01*
X56207314Y-73000500D01*
X56300500Y-72907314D01*
X56366392Y-72793186D01*
X56400500Y-72665892D01*
X56400500Y-72534108D01*
X56366392Y-72406814D01*
X56300500Y-72292686D01*
X56207314Y-72199500D01*
X56150250Y-72166554D01*
X56093187Y-72133608D01*
X56029539Y-72116554D01*
X55965892Y-72099500D01*
X55834108Y-72099500D01*
X55706812Y-72133608D01*
X55592686Y-72199500D01*
X55592683Y-72199502D01*
X55499502Y-72292683D01*
X55499500Y-72292686D01*
X55433608Y-72406812D01*
X55408848Y-72499219D01*
X55399500Y-72534108D01*
X45500500Y-72534108D01*
X45500500Y-71897648D01*
X74199500Y-71897648D01*
X74199500Y-72102351D01*
X74231522Y-72304534D01*
X74294781Y-72499223D01*
X74358691Y-72624653D01*
X74379704Y-72665892D01*
X74387715Y-72681613D01*
X74508028Y-72847213D01*
X74652786Y-72991971D01*
X74755220Y-73066392D01*
X74818390Y-73112287D01*
X74934607Y-73171503D01*
X75000776Y-73205218D01*
X75000778Y-73205218D01*
X75000781Y-73205220D01*
X75105137Y-73239127D01*
X75195465Y-73268477D01*
X75296557Y-73284488D01*
X75397648Y-73300500D01*
X75397649Y-73300500D01*
X75602351Y-73300500D01*
X75602352Y-73300500D01*
X75804534Y-73268477D01*
X75999219Y-73205220D01*
X76181610Y-73112287D01*
X76274590Y-73044732D01*
X76347213Y-72991971D01*
X76347215Y-72991968D01*
X76347219Y-72991966D01*
X76491966Y-72847219D01*
X76491968Y-72847215D01*
X76491971Y-72847213D01*
X76544732Y-72774590D01*
X76612287Y-72681610D01*
X76705220Y-72499219D01*
X76768477Y-72304534D01*
X76800500Y-72102352D01*
X76800500Y-71897648D01*
X76779200Y-71763165D01*
X76768477Y-71695465D01*
X76749112Y-71635868D01*
X76706294Y-71504086D01*
X82050336Y-71504086D01*
X82050336Y-71635869D01*
X82084444Y-71763165D01*
X82117390Y-71820228D01*
X82150336Y-71877292D01*
X82243522Y-71970478D01*
X82357650Y-72036370D01*
X82484944Y-72070478D01*
X82484946Y-72070478D01*
X82616726Y-72070478D01*
X82616728Y-72070478D01*
X82744022Y-72036370D01*
X82858150Y-71970478D01*
X82951336Y-71877292D01*
X83017228Y-71763164D01*
X83051336Y-71635870D01*
X83051336Y-71504086D01*
X83017228Y-71376792D01*
X82951336Y-71262664D01*
X82858150Y-71169478D01*
X82801086Y-71136532D01*
X82744023Y-71103586D01*
X82680375Y-71086532D01*
X82616728Y-71069478D01*
X82484944Y-71069478D01*
X82357648Y-71103586D01*
X82243522Y-71169478D01*
X82243519Y-71169480D01*
X82150338Y-71262661D01*
X82150336Y-71262664D01*
X82084444Y-71376790D01*
X82050336Y-71504086D01*
X76706294Y-71504086D01*
X76705220Y-71500781D01*
X76612287Y-71318390D01*
X76559630Y-71245913D01*
X76491971Y-71152786D01*
X76347213Y-71008028D01*
X76181613Y-70887715D01*
X76181612Y-70887714D01*
X76181610Y-70887713D01*
X76098586Y-70845410D01*
X75999223Y-70794781D01*
X75804534Y-70731522D01*
X75629995Y-70703878D01*
X75602352Y-70699500D01*
X75397648Y-70699500D01*
X75373329Y-70703351D01*
X75195465Y-70731522D01*
X75000776Y-70794781D01*
X74818386Y-70887715D01*
X74652786Y-71008028D01*
X74508028Y-71152786D01*
X74387715Y-71318386D01*
X74294781Y-71500776D01*
X74231522Y-71695465D01*
X74199500Y-71897648D01*
X45500500Y-71897648D01*
X45500500Y-70947273D01*
X47999500Y-70947273D01*
X47999500Y-71052727D01*
X48026793Y-71154587D01*
X48079520Y-71245913D01*
X48154087Y-71320480D01*
X48245413Y-71373207D01*
X48347273Y-71400500D01*
X48347275Y-71400500D01*
X48452725Y-71400500D01*
X48452727Y-71400500D01*
X48554587Y-71373207D01*
X48645913Y-71320480D01*
X48720480Y-71245913D01*
X48773207Y-71154587D01*
X48800500Y-71052727D01*
X48800500Y-70947273D01*
X48773207Y-70845413D01*
X48720480Y-70754087D01*
X48645913Y-70679520D01*
X48554587Y-70626793D01*
X48452727Y-70599500D01*
X48347273Y-70599500D01*
X48245413Y-70626793D01*
X48245410Y-70626794D01*
X48154085Y-70679521D01*
X48079521Y-70754085D01*
X48026794Y-70845410D01*
X48026793Y-70845413D01*
X47999500Y-70947273D01*
X45500500Y-70947273D01*
X45500500Y-70334108D01*
X85224500Y-70334108D01*
X85224500Y-70465891D01*
X85258608Y-70593187D01*
X85291554Y-70650250D01*
X85324500Y-70707314D01*
X85417686Y-70800500D01*
X85531814Y-70866392D01*
X85659108Y-70900500D01*
X85659110Y-70900500D01*
X85790890Y-70900500D01*
X85790892Y-70900500D01*
X85918186Y-70866392D01*
X86032314Y-70800500D01*
X86125500Y-70707314D01*
X86191392Y-70593186D01*
X86225500Y-70465892D01*
X86225500Y-70334108D01*
X86191392Y-70206814D01*
X86125500Y-70092686D01*
X86032314Y-69999500D01*
X85975250Y-69966554D01*
X85918187Y-69933608D01*
X85854539Y-69916554D01*
X85790892Y-69899500D01*
X85659108Y-69899500D01*
X85531812Y-69933608D01*
X85417686Y-69999500D01*
X85417683Y-69999502D01*
X85324502Y-70092683D01*
X85324500Y-70092686D01*
X85258608Y-70206812D01*
X85224500Y-70334108D01*
X45500500Y-70334108D01*
X45500500Y-69734108D01*
X55399500Y-69734108D01*
X55399500Y-69865891D01*
X55433608Y-69993187D01*
X55466554Y-70050250D01*
X55499500Y-70107314D01*
X55592686Y-70200500D01*
X55691521Y-70257563D01*
X55706810Y-70266390D01*
X55706814Y-70266392D01*
X55834108Y-70300500D01*
X55834110Y-70300500D01*
X55965890Y-70300500D01*
X55965892Y-70300500D01*
X56093186Y-70266392D01*
X56207314Y-70200500D01*
X56300500Y-70107314D01*
X56366392Y-69993186D01*
X56400500Y-69865892D01*
X56400500Y-69734108D01*
X56366392Y-69606814D01*
X56300500Y-69492686D01*
X56207314Y-69399500D01*
X56122442Y-69350499D01*
X56093187Y-69333608D01*
X56028931Y-69316391D01*
X55965892Y-69299500D01*
X55834108Y-69299500D01*
X55706812Y-69333608D01*
X55592686Y-69399500D01*
X55592683Y-69399502D01*
X55499502Y-69492683D01*
X55499500Y-69492686D01*
X55433608Y-69606812D01*
X55399500Y-69734108D01*
X45500500Y-69734108D01*
X45500500Y-68634108D01*
X64099500Y-68634108D01*
X64099500Y-68765892D01*
X64116554Y-68829539D01*
X64133608Y-68893187D01*
X64157543Y-68934642D01*
X64199500Y-69007314D01*
X64199503Y-69007317D01*
X64204447Y-69013760D01*
X64202578Y-69015193D01*
X64230289Y-69065941D01*
X64228898Y-69124392D01*
X64217778Y-69165892D01*
X64199500Y-69234108D01*
X64199500Y-69365892D01*
X64216554Y-69429539D01*
X64233608Y-69493187D01*
X64266554Y-69550250D01*
X64299500Y-69607314D01*
X64392686Y-69700500D01*
X64506814Y-69766392D01*
X64634108Y-69800500D01*
X64634110Y-69800500D01*
X64765890Y-69800500D01*
X64765892Y-69800500D01*
X64893186Y-69766392D01*
X65007314Y-69700500D01*
X65100500Y-69607314D01*
X65166392Y-69493186D01*
X65200500Y-69365892D01*
X65200500Y-69234108D01*
X65166392Y-69106814D01*
X65100500Y-68992686D01*
X65100495Y-68992681D01*
X65095553Y-68986240D01*
X65097420Y-68984806D01*
X65069710Y-68934058D01*
X65071100Y-68875612D01*
X65100500Y-68765892D01*
X65100500Y-68634108D01*
X65066392Y-68506814D01*
X65000500Y-68392686D01*
X64907314Y-68299500D01*
X64831228Y-68255572D01*
X64793188Y-68233609D01*
X64793187Y-68233608D01*
X64793186Y-68233608D01*
X64665892Y-68199500D01*
X64534108Y-68199500D01*
X64406812Y-68233608D01*
X64292686Y-68299500D01*
X64292683Y-68299502D01*
X64199502Y-68392683D01*
X64199500Y-68392686D01*
X64133608Y-68506812D01*
X64133473Y-68507316D01*
X64099500Y-68634108D01*
X45500500Y-68634108D01*
X45500500Y-68134108D01*
X66024500Y-68134108D01*
X66024500Y-68265891D01*
X66058608Y-68393187D01*
X66091121Y-68449500D01*
X66124500Y-68507314D01*
X66217686Y-68600500D01*
X66331814Y-68666392D01*
X66459108Y-68700500D01*
X66459110Y-68700500D01*
X66590890Y-68700500D01*
X66590892Y-68700500D01*
X66718186Y-68666392D01*
X66832314Y-68600500D01*
X66925500Y-68507314D01*
X66991392Y-68393186D01*
X67025500Y-68265892D01*
X67025500Y-68134108D01*
X66991392Y-68006814D01*
X66925500Y-67892686D01*
X66832314Y-67799500D01*
X66775250Y-67766554D01*
X66718187Y-67733608D01*
X66654539Y-67716554D01*
X66590892Y-67699500D01*
X66459108Y-67699500D01*
X66331812Y-67733608D01*
X66217686Y-67799500D01*
X66217683Y-67799502D01*
X66124502Y-67892683D01*
X66124500Y-67892686D01*
X66058608Y-68006812D01*
X66024500Y-68134108D01*
X45500500Y-68134108D01*
X45500500Y-66967273D01*
X49199500Y-66967273D01*
X49199500Y-67072727D01*
X49226793Y-67174587D01*
X49279520Y-67265913D01*
X49354087Y-67340480D01*
X49445413Y-67393207D01*
X49547273Y-67420500D01*
X49547275Y-67420500D01*
X49652725Y-67420500D01*
X49652727Y-67420500D01*
X49754587Y-67393207D01*
X49845913Y-67340480D01*
X49920480Y-67265913D01*
X49973207Y-67174587D01*
X49991609Y-67105908D01*
X61540865Y-67105908D01*
X61540865Y-67211362D01*
X61568158Y-67313222D01*
X61620885Y-67404548D01*
X61695452Y-67479115D01*
X61786778Y-67531842D01*
X61888638Y-67559135D01*
X61888640Y-67559135D01*
X61994090Y-67559135D01*
X61994092Y-67559135D01*
X62095952Y-67531842D01*
X62187278Y-67479115D01*
X62261845Y-67404548D01*
X62314572Y-67313222D01*
X62341865Y-67211362D01*
X62341865Y-67105908D01*
X62314572Y-67004048D01*
X62261845Y-66912722D01*
X62187278Y-66838155D01*
X62095952Y-66785428D01*
X61994092Y-66758135D01*
X61888638Y-66758135D01*
X61786778Y-66785428D01*
X61786775Y-66785429D01*
X61695450Y-66838156D01*
X61620886Y-66912720D01*
X61568159Y-67004045D01*
X61568158Y-67004048D01*
X61540865Y-67105908D01*
X49991609Y-67105908D01*
X50000500Y-67072727D01*
X50000500Y-66967273D01*
X49973207Y-66865413D01*
X49920480Y-66774087D01*
X49845913Y-66699520D01*
X49754587Y-66646793D01*
X49652727Y-66619500D01*
X49547273Y-66619500D01*
X49445413Y-66646793D01*
X49445410Y-66646794D01*
X49354085Y-66699521D01*
X49279521Y-66774085D01*
X49226794Y-66865410D01*
X49226793Y-66865413D01*
X49199500Y-66967273D01*
X45500500Y-66967273D01*
X45500500Y-66334108D01*
X52199500Y-66334108D01*
X52199500Y-66465892D01*
X52212207Y-66513317D01*
X52233608Y-66593187D01*
X52257484Y-66634541D01*
X52299500Y-66707314D01*
X52392686Y-66800500D01*
X52506814Y-66866392D01*
X52634108Y-66900500D01*
X52634110Y-66900500D01*
X52765890Y-66900500D01*
X52765892Y-66900500D01*
X52893186Y-66866392D01*
X53007314Y-66800500D01*
X53100500Y-66707314D01*
X53166392Y-66593186D01*
X53200500Y-66465892D01*
X53200500Y-66334108D01*
X53166392Y-66206814D01*
X53100500Y-66092686D01*
X53007314Y-65999500D01*
X52893186Y-65933608D01*
X52765892Y-65899500D01*
X52634108Y-65899500D01*
X52506812Y-65933608D01*
X52392686Y-65999500D01*
X52392683Y-65999502D01*
X52299502Y-66092683D01*
X52299500Y-66092686D01*
X52233608Y-66206812D01*
X52210600Y-66292683D01*
X52199500Y-66334108D01*
X45500500Y-66334108D01*
X45500500Y-65834108D01*
X76549500Y-65834108D01*
X76549500Y-65965891D01*
X76583608Y-66093187D01*
X76616554Y-66150250D01*
X76649500Y-66207314D01*
X76649502Y-66207316D01*
X76654505Y-66212319D01*
X76687990Y-66273642D01*
X76683006Y-66343334D01*
X76654505Y-66387681D01*
X76649502Y-66392683D01*
X76649500Y-66392686D01*
X76583608Y-66506812D01*
X76558506Y-66600497D01*
X76549500Y-66634108D01*
X76549500Y-66765892D01*
X76551696Y-66774087D01*
X76583608Y-66893187D01*
X76615606Y-66948608D01*
X76649500Y-67007314D01*
X76649502Y-67007316D01*
X76654505Y-67012319D01*
X76687990Y-67073642D01*
X76683006Y-67143334D01*
X76654505Y-67187681D01*
X76649502Y-67192683D01*
X76649500Y-67192686D01*
X76583608Y-67306812D01*
X76549500Y-67434108D01*
X76549500Y-67565891D01*
X76583608Y-67693187D01*
X76606946Y-67733608D01*
X76649500Y-67807314D01*
X76649502Y-67807316D01*
X76654505Y-67812319D01*
X76687990Y-67873642D01*
X76683006Y-67943334D01*
X76654505Y-67987681D01*
X76649502Y-67992683D01*
X76649500Y-67992686D01*
X76583608Y-68106812D01*
X76576294Y-68134110D01*
X76549500Y-68234108D01*
X76549500Y-68365892D01*
X76556813Y-68393186D01*
X76583608Y-68493187D01*
X76591766Y-68507316D01*
X76649500Y-68607314D01*
X76649502Y-68607316D01*
X76654505Y-68612319D01*
X76687990Y-68673642D01*
X76683006Y-68743334D01*
X76654505Y-68787681D01*
X76649502Y-68792683D01*
X76649500Y-68792686D01*
X76583608Y-68906812D01*
X76549500Y-69034108D01*
X76549500Y-69165891D01*
X76583608Y-69293187D01*
X76587253Y-69299500D01*
X76649500Y-69407314D01*
X76742686Y-69500500D01*
X76856814Y-69566392D01*
X76984108Y-69600500D01*
X76984110Y-69600500D01*
X77115890Y-69600500D01*
X77115892Y-69600500D01*
X77243186Y-69566392D01*
X77357314Y-69500500D01*
X77450500Y-69407314D01*
X77516392Y-69293186D01*
X77550500Y-69165892D01*
X77550500Y-69034108D01*
X77516392Y-68906814D01*
X77450500Y-68792686D01*
X77441922Y-68784108D01*
X84899500Y-68784108D01*
X84899500Y-68915891D01*
X84933608Y-69043187D01*
X84966554Y-69100250D01*
X84999500Y-69157314D01*
X85092686Y-69250500D01*
X85206814Y-69316392D01*
X85334108Y-69350500D01*
X85334110Y-69350500D01*
X85465890Y-69350500D01*
X85465892Y-69350500D01*
X85593186Y-69316392D01*
X85707314Y-69250500D01*
X85712319Y-69245495D01*
X85773642Y-69212010D01*
X85843334Y-69216994D01*
X85887681Y-69245495D01*
X85892686Y-69250500D01*
X86006814Y-69316392D01*
X86134108Y-69350500D01*
X86134110Y-69350500D01*
X86265890Y-69350500D01*
X86265892Y-69350500D01*
X86393186Y-69316392D01*
X86507314Y-69250500D01*
X86512319Y-69245495D01*
X86573642Y-69212010D01*
X86643334Y-69216994D01*
X86687681Y-69245495D01*
X86692686Y-69250500D01*
X86806814Y-69316392D01*
X86934108Y-69350500D01*
X86934110Y-69350500D01*
X87065890Y-69350500D01*
X87065892Y-69350500D01*
X87193186Y-69316392D01*
X87307314Y-69250500D01*
X87312319Y-69245495D01*
X87373642Y-69212010D01*
X87443334Y-69216994D01*
X87487681Y-69245495D01*
X87492686Y-69250500D01*
X87606814Y-69316392D01*
X87734108Y-69350500D01*
X87734110Y-69350500D01*
X87865890Y-69350500D01*
X87865892Y-69350500D01*
X87993186Y-69316392D01*
X88107314Y-69250500D01*
X88112319Y-69245495D01*
X88173642Y-69212010D01*
X88243334Y-69216994D01*
X88287681Y-69245495D01*
X88292686Y-69250500D01*
X88406814Y-69316392D01*
X88534108Y-69350500D01*
X88534110Y-69350500D01*
X88665890Y-69350500D01*
X88665892Y-69350500D01*
X88793186Y-69316392D01*
X88907314Y-69250500D01*
X89000500Y-69157314D01*
X89066392Y-69043186D01*
X89100500Y-68915892D01*
X89100500Y-68784108D01*
X89066392Y-68656814D01*
X89000500Y-68542686D01*
X88907314Y-68449500D01*
X88850250Y-68416554D01*
X88793187Y-68383608D01*
X88727061Y-68365890D01*
X88665892Y-68349500D01*
X88534108Y-68349500D01*
X88406812Y-68383608D01*
X88292686Y-68449500D01*
X88292683Y-68449502D01*
X88287681Y-68454505D01*
X88226358Y-68487990D01*
X88156666Y-68483006D01*
X88112319Y-68454505D01*
X88107316Y-68449502D01*
X88107314Y-68449500D01*
X88050250Y-68416554D01*
X87993187Y-68383608D01*
X87927061Y-68365890D01*
X87865892Y-68349500D01*
X87734108Y-68349500D01*
X87606812Y-68383608D01*
X87492686Y-68449500D01*
X87492683Y-68449502D01*
X87487681Y-68454505D01*
X87426358Y-68487990D01*
X87356666Y-68483006D01*
X87312319Y-68454505D01*
X87307316Y-68449502D01*
X87307314Y-68449500D01*
X87250250Y-68416554D01*
X87193187Y-68383608D01*
X87127061Y-68365890D01*
X87065892Y-68349500D01*
X86934108Y-68349500D01*
X86806812Y-68383608D01*
X86692686Y-68449500D01*
X86692683Y-68449502D01*
X86687681Y-68454505D01*
X86626358Y-68487990D01*
X86556666Y-68483006D01*
X86512319Y-68454505D01*
X86507316Y-68449502D01*
X86507314Y-68449500D01*
X86450250Y-68416554D01*
X86393187Y-68383608D01*
X86327061Y-68365890D01*
X86265892Y-68349500D01*
X86134108Y-68349500D01*
X86006812Y-68383608D01*
X85892686Y-68449500D01*
X85892683Y-68449502D01*
X85887681Y-68454505D01*
X85826358Y-68487990D01*
X85756666Y-68483006D01*
X85712319Y-68454505D01*
X85707316Y-68449502D01*
X85707314Y-68449500D01*
X85650250Y-68416554D01*
X85593187Y-68383608D01*
X85527061Y-68365890D01*
X85465892Y-68349500D01*
X85334108Y-68349500D01*
X85206812Y-68383608D01*
X85092686Y-68449500D01*
X85092683Y-68449502D01*
X84999502Y-68542683D01*
X84999500Y-68542686D01*
X84933608Y-68656812D01*
X84899500Y-68784108D01*
X77441922Y-68784108D01*
X77436894Y-68779080D01*
X77430132Y-68768978D01*
X77423160Y-68746778D01*
X77412010Y-68726358D01*
X77412888Y-68714070D01*
X77409198Y-68702318D01*
X77415334Y-68679875D01*
X77416994Y-68656666D01*
X77425149Y-68643975D01*
X77427625Y-68634923D01*
X77435551Y-68627790D01*
X77445495Y-68612319D01*
X77450500Y-68607314D01*
X77516392Y-68493186D01*
X77550500Y-68365892D01*
X77550500Y-68234108D01*
X77516392Y-68106814D01*
X77450500Y-67992686D01*
X77445495Y-67987681D01*
X77412010Y-67926358D01*
X77416994Y-67856666D01*
X77445495Y-67812319D01*
X77447319Y-67810495D01*
X77450500Y-67807314D01*
X77516392Y-67693186D01*
X77550500Y-67565892D01*
X77550500Y-67434108D01*
X77516392Y-67306814D01*
X77450500Y-67192686D01*
X77445495Y-67187681D01*
X77412010Y-67126358D01*
X77416994Y-67056666D01*
X77445495Y-67012319D01*
X77450500Y-67007314D01*
X77516392Y-66893186D01*
X77550500Y-66765892D01*
X77550500Y-66634108D01*
X77523705Y-66534108D01*
X79299500Y-66534108D01*
X79299500Y-66665892D01*
X79316554Y-66729539D01*
X79333608Y-66793187D01*
X79366554Y-66850250D01*
X79399500Y-66907314D01*
X79492686Y-67000500D01*
X79606814Y-67066392D01*
X79734108Y-67100500D01*
X79734110Y-67100500D01*
X79865890Y-67100500D01*
X79865892Y-67100500D01*
X79993186Y-67066392D01*
X80107314Y-67000500D01*
X80200500Y-66907314D01*
X80222558Y-66869108D01*
X82699500Y-66869108D01*
X82699500Y-67000892D01*
X82714444Y-67056666D01*
X82733608Y-67128187D01*
X82760397Y-67174586D01*
X82799500Y-67242314D01*
X82892686Y-67335500D01*
X83006814Y-67401392D01*
X83134108Y-67435500D01*
X83134110Y-67435500D01*
X83265890Y-67435500D01*
X83265892Y-67435500D01*
X83393186Y-67401392D01*
X83483744Y-67349108D01*
X85579500Y-67349108D01*
X85579500Y-67480891D01*
X85613608Y-67608187D01*
X85646554Y-67665250D01*
X85679500Y-67722314D01*
X85772686Y-67815500D01*
X85886814Y-67881392D01*
X86014108Y-67915500D01*
X86014110Y-67915500D01*
X86145890Y-67915500D01*
X86145892Y-67915500D01*
X86273186Y-67881392D01*
X86387314Y-67815500D01*
X86392319Y-67810495D01*
X86453642Y-67777010D01*
X86523334Y-67781994D01*
X86567681Y-67810495D01*
X86572686Y-67815500D01*
X86686814Y-67881392D01*
X86814108Y-67915500D01*
X86814110Y-67915500D01*
X86945890Y-67915500D01*
X86945892Y-67915500D01*
X87073186Y-67881392D01*
X87187314Y-67815500D01*
X87192319Y-67810495D01*
X87253642Y-67777010D01*
X87323334Y-67781994D01*
X87367681Y-67810495D01*
X87372686Y-67815500D01*
X87486814Y-67881392D01*
X87614108Y-67915500D01*
X87614110Y-67915500D01*
X87745890Y-67915500D01*
X87745892Y-67915500D01*
X87873186Y-67881392D01*
X87987314Y-67815500D01*
X87992319Y-67810495D01*
X88053642Y-67777010D01*
X88123334Y-67781994D01*
X88167681Y-67810495D01*
X88172686Y-67815500D01*
X88286814Y-67881392D01*
X88414108Y-67915500D01*
X88414110Y-67915500D01*
X88545890Y-67915500D01*
X88545892Y-67915500D01*
X88673186Y-67881392D01*
X88787314Y-67815500D01*
X88792319Y-67810495D01*
X88853642Y-67777010D01*
X88923334Y-67781994D01*
X88967681Y-67810495D01*
X88972686Y-67815500D01*
X89086814Y-67881392D01*
X89214108Y-67915500D01*
X89214110Y-67915500D01*
X89345890Y-67915500D01*
X89345892Y-67915500D01*
X89473186Y-67881392D01*
X89587314Y-67815500D01*
X89680500Y-67722314D01*
X89746392Y-67608186D01*
X89780500Y-67480892D01*
X89780500Y-67349108D01*
X89746392Y-67221814D01*
X89680500Y-67107686D01*
X89587314Y-67014500D01*
X89530250Y-66981554D01*
X89473187Y-66948608D01*
X89409539Y-66931554D01*
X89345892Y-66914500D01*
X89214108Y-66914500D01*
X89086812Y-66948608D01*
X88972686Y-67014500D01*
X88972683Y-67014502D01*
X88967681Y-67019505D01*
X88906358Y-67052990D01*
X88836666Y-67048006D01*
X88792319Y-67019505D01*
X88787316Y-67014502D01*
X88787314Y-67014500D01*
X88730250Y-66981554D01*
X88673187Y-66948608D01*
X88609539Y-66931554D01*
X88545892Y-66914500D01*
X88414108Y-66914500D01*
X88286812Y-66948608D01*
X88172686Y-67014500D01*
X88172683Y-67014502D01*
X88167681Y-67019505D01*
X88106358Y-67052990D01*
X88036666Y-67048006D01*
X87992319Y-67019505D01*
X87987316Y-67014502D01*
X87987314Y-67014500D01*
X87930250Y-66981554D01*
X87873187Y-66948608D01*
X87809539Y-66931554D01*
X87745892Y-66914500D01*
X87614108Y-66914500D01*
X87486812Y-66948608D01*
X87372686Y-67014500D01*
X87372683Y-67014502D01*
X87367681Y-67019505D01*
X87306358Y-67052990D01*
X87236666Y-67048006D01*
X87192319Y-67019505D01*
X87187316Y-67014502D01*
X87187314Y-67014500D01*
X87130250Y-66981554D01*
X87073187Y-66948608D01*
X87009539Y-66931554D01*
X86945892Y-66914500D01*
X86814108Y-66914500D01*
X86686812Y-66948608D01*
X86572686Y-67014500D01*
X86572683Y-67014502D01*
X86567681Y-67019505D01*
X86506358Y-67052990D01*
X86436666Y-67048006D01*
X86392319Y-67019505D01*
X86387316Y-67014502D01*
X86387314Y-67014500D01*
X86330250Y-66981554D01*
X86273187Y-66948608D01*
X86209539Y-66931554D01*
X86145892Y-66914500D01*
X86014108Y-66914500D01*
X85886812Y-66948608D01*
X85772686Y-67014500D01*
X85772683Y-67014502D01*
X85679502Y-67107683D01*
X85679500Y-67107686D01*
X85613608Y-67221812D01*
X85579500Y-67349108D01*
X83483744Y-67349108D01*
X83507314Y-67335500D01*
X83600500Y-67242314D01*
X83666392Y-67128186D01*
X83700500Y-67000892D01*
X83700500Y-66869108D01*
X83666392Y-66741814D01*
X83600500Y-66627686D01*
X83507314Y-66534500D01*
X83450250Y-66501554D01*
X83393187Y-66468608D01*
X83329539Y-66451554D01*
X83265892Y-66434500D01*
X83134108Y-66434500D01*
X83006812Y-66468608D01*
X82892686Y-66534500D01*
X82892683Y-66534502D01*
X82799502Y-66627683D01*
X82799500Y-66627686D01*
X82733608Y-66741812D01*
X82717883Y-66800500D01*
X82699500Y-66869108D01*
X80222558Y-66869108D01*
X80266392Y-66793186D01*
X80300500Y-66665892D01*
X80300500Y-66665883D01*
X80301561Y-66657832D01*
X80304382Y-66658203D01*
X80320185Y-66604386D01*
X80372989Y-66558631D01*
X80400470Y-66549776D01*
X80412372Y-66547425D01*
X80443917Y-66547425D01*
X80532418Y-66523711D01*
X80536475Y-66522910D01*
X80567308Y-66525710D01*
X80598261Y-66526447D01*
X80601800Y-66528842D01*
X80606058Y-66529229D01*
X80630486Y-66548257D01*
X80656124Y-66565609D01*
X80660083Y-66571311D01*
X80661179Y-66572165D01*
X80661694Y-66573631D01*
X80667892Y-66582558D01*
X80715033Y-66664208D01*
X80808219Y-66757394D01*
X80882879Y-66800499D01*
X80922343Y-66823284D01*
X80922347Y-66823286D01*
X81049641Y-66857394D01*
X81049643Y-66857394D01*
X81181423Y-66857394D01*
X81181425Y-66857394D01*
X81308719Y-66823286D01*
X81422847Y-66757394D01*
X81516033Y-66664208D01*
X81516100Y-66664091D01*
X81518458Y-66661800D01*
X81548584Y-66645903D01*
X81578520Y-66629557D01*
X81579437Y-66629622D01*
X81580252Y-66629193D01*
X81614228Y-66632110D01*
X81648212Y-66634541D01*
X81649478Y-66635137D01*
X81649866Y-66635171D01*
X81650363Y-66635554D01*
X81666879Y-66643336D01*
X81706810Y-66666390D01*
X81706811Y-66666390D01*
X81706814Y-66666392D01*
X81834108Y-66700500D01*
X81834110Y-66700500D01*
X81965890Y-66700500D01*
X81965892Y-66700500D01*
X82093186Y-66666392D01*
X82207314Y-66600500D01*
X82300500Y-66507314D01*
X82366392Y-66393186D01*
X82400500Y-66265892D01*
X82400500Y-66134108D01*
X82366392Y-66006814D01*
X82300500Y-65892686D01*
X82207314Y-65799500D01*
X82103589Y-65739614D01*
X82093187Y-65733608D01*
X81993188Y-65706814D01*
X81965892Y-65699500D01*
X81834108Y-65699500D01*
X81706812Y-65733608D01*
X81592686Y-65799500D01*
X81498334Y-65893852D01*
X81437010Y-65927336D01*
X81367319Y-65922352D01*
X81348654Y-65913557D01*
X81308726Y-65890504D01*
X81308721Y-65890503D01*
X81308720Y-65890502D01*
X81308719Y-65890502D01*
X81181425Y-65856394D01*
X81049641Y-65856394D01*
X81049639Y-65856394D01*
X80965144Y-65879034D01*
X80895294Y-65877371D01*
X80837432Y-65838208D01*
X80825665Y-65821259D01*
X80778527Y-65739614D01*
X80778522Y-65739608D01*
X80685341Y-65646427D01*
X80685339Y-65646425D01*
X80592261Y-65592686D01*
X80571212Y-65580533D01*
X80507564Y-65563479D01*
X80443917Y-65546425D01*
X80312133Y-65546425D01*
X80184837Y-65580533D01*
X80070711Y-65646425D01*
X80070708Y-65646427D01*
X79977527Y-65739608D01*
X79977525Y-65739611D01*
X79911633Y-65853737D01*
X79877525Y-65981033D01*
X79876464Y-65989093D01*
X79873642Y-65988721D01*
X79857840Y-66042539D01*
X79805036Y-66088294D01*
X79753525Y-66099500D01*
X79734108Y-66099500D01*
X79606812Y-66133608D01*
X79492686Y-66199500D01*
X79492683Y-66199502D01*
X79399502Y-66292683D01*
X79399500Y-66292686D01*
X79333608Y-66406812D01*
X79314192Y-66479277D01*
X79299500Y-66534108D01*
X77523705Y-66534108D01*
X77516392Y-66506814D01*
X77450500Y-66392686D01*
X77445495Y-66387681D01*
X77412010Y-66326358D01*
X77416994Y-66256666D01*
X77445495Y-66212319D01*
X77450500Y-66207314D01*
X77516392Y-66093186D01*
X77550500Y-65965892D01*
X77550500Y-65834108D01*
X77516392Y-65706814D01*
X77450500Y-65592686D01*
X77357314Y-65499500D01*
X77300250Y-65466554D01*
X77243187Y-65433608D01*
X77179539Y-65416554D01*
X77115892Y-65399500D01*
X76984108Y-65399500D01*
X76856812Y-65433608D01*
X76742686Y-65499500D01*
X76742683Y-65499502D01*
X76649502Y-65592683D01*
X76649500Y-65592686D01*
X76583608Y-65706812D01*
X76549500Y-65834108D01*
X45500500Y-65834108D01*
X45500500Y-63934108D01*
X58999500Y-63934108D01*
X58999500Y-64065891D01*
X59033608Y-64193187D01*
X59066554Y-64250250D01*
X59099500Y-64307314D01*
X59192686Y-64400500D01*
X59306814Y-64466392D01*
X59434108Y-64500500D01*
X59434110Y-64500500D01*
X59565890Y-64500500D01*
X59565892Y-64500500D01*
X59693186Y-64466392D01*
X59807314Y-64400500D01*
X59900500Y-64307314D01*
X59966392Y-64193186D01*
X60000500Y-64065892D01*
X60000500Y-63934108D01*
X59966392Y-63806814D01*
X59900500Y-63692686D01*
X59807314Y-63599500D01*
X59732635Y-63556384D01*
X59732626Y-63556379D01*
X68509500Y-63556379D01*
X68509500Y-63743620D01*
X68546025Y-63927243D01*
X68546027Y-63927251D01*
X68617676Y-64100228D01*
X68617681Y-64100237D01*
X68721697Y-64255907D01*
X68721700Y-64255911D01*
X68854088Y-64388299D01*
X68854092Y-64388302D01*
X69009762Y-64492318D01*
X69009768Y-64492321D01*
X69009769Y-64492322D01*
X69182749Y-64563973D01*
X69366379Y-64600499D01*
X69366383Y-64600500D01*
X69366384Y-64600500D01*
X69553617Y-64600500D01*
X69553618Y-64600499D01*
X69737251Y-64563973D01*
X69910231Y-64492322D01*
X70065908Y-64388302D01*
X70198302Y-64255908D01*
X70302322Y-64100231D01*
X70373973Y-63927251D01*
X70410500Y-63743616D01*
X70410500Y-63556384D01*
X70410499Y-63556379D01*
X73589500Y-63556379D01*
X73589500Y-63743620D01*
X73626025Y-63927243D01*
X73626027Y-63927251D01*
X73697676Y-64100228D01*
X73697681Y-64100237D01*
X73801697Y-64255907D01*
X73801700Y-64255911D01*
X73934088Y-64388299D01*
X73934092Y-64388302D01*
X74089762Y-64492318D01*
X74089768Y-64492321D01*
X74089769Y-64492322D01*
X74262749Y-64563973D01*
X74446379Y-64600499D01*
X74446383Y-64600500D01*
X74446384Y-64600500D01*
X74633617Y-64600500D01*
X74633618Y-64600499D01*
X74817251Y-64563973D01*
X74990231Y-64492322D01*
X75145908Y-64388302D01*
X75278302Y-64255908D01*
X75382322Y-64100231D01*
X75453973Y-63927251D01*
X75490500Y-63743616D01*
X75490500Y-63556384D01*
X75453973Y-63372749D01*
X75382322Y-63199769D01*
X75382321Y-63199768D01*
X75382318Y-63199762D01*
X75278302Y-63044092D01*
X75278299Y-63044088D01*
X75145911Y-62911700D01*
X75145907Y-62911697D01*
X74990237Y-62807681D01*
X74990228Y-62807676D01*
X74817251Y-62736027D01*
X74817243Y-62736025D01*
X74633620Y-62699500D01*
X74633616Y-62699500D01*
X74446384Y-62699500D01*
X74446379Y-62699500D01*
X74262756Y-62736025D01*
X74262748Y-62736027D01*
X74089771Y-62807676D01*
X74089762Y-62807681D01*
X73934092Y-62911697D01*
X73934088Y-62911700D01*
X73801700Y-63044088D01*
X73801697Y-63044092D01*
X73697681Y-63199762D01*
X73697676Y-63199771D01*
X73626027Y-63372748D01*
X73626025Y-63372756D01*
X73589500Y-63556379D01*
X70410499Y-63556379D01*
X70373973Y-63372749D01*
X70302322Y-63199769D01*
X70302321Y-63199768D01*
X70302318Y-63199762D01*
X70198302Y-63044092D01*
X70198299Y-63044088D01*
X70065911Y-62911700D01*
X70065907Y-62911697D01*
X69910237Y-62807681D01*
X69910228Y-62807676D01*
X69737251Y-62736027D01*
X69737243Y-62736025D01*
X69553620Y-62699500D01*
X69553616Y-62699500D01*
X69366384Y-62699500D01*
X69366379Y-62699500D01*
X69182756Y-62736025D01*
X69182748Y-62736027D01*
X69009771Y-62807676D01*
X69009762Y-62807681D01*
X68854092Y-62911697D01*
X68854088Y-62911700D01*
X68721700Y-63044088D01*
X68721697Y-63044092D01*
X68617681Y-63199762D01*
X68617676Y-63199771D01*
X68546027Y-63372748D01*
X68546025Y-63372756D01*
X68509500Y-63556379D01*
X59732626Y-63556379D01*
X59693187Y-63533608D01*
X59629539Y-63516554D01*
X59565892Y-63499500D01*
X59434108Y-63499500D01*
X59306812Y-63533608D01*
X59192686Y-63599500D01*
X59192683Y-63599502D01*
X59099502Y-63692683D01*
X59099500Y-63692686D01*
X59033608Y-63806812D01*
X58999500Y-63934108D01*
X45500500Y-63934108D01*
X45500500Y-62847273D01*
X48599500Y-62847273D01*
X48599500Y-62952727D01*
X48626793Y-63054587D01*
X48679520Y-63145913D01*
X48754087Y-63220480D01*
X48845413Y-63273207D01*
X48947273Y-63300500D01*
X48947275Y-63300500D01*
X49052725Y-63300500D01*
X49052727Y-63300500D01*
X49154587Y-63273207D01*
X49245913Y-63220480D01*
X49320480Y-63145913D01*
X49373207Y-63054587D01*
X49400500Y-62952727D01*
X49400500Y-62847273D01*
X49373207Y-62745413D01*
X49320480Y-62654087D01*
X49245913Y-62579520D01*
X49154587Y-62526793D01*
X49052727Y-62499500D01*
X48947273Y-62499500D01*
X48845413Y-62526793D01*
X48845410Y-62526794D01*
X48754085Y-62579521D01*
X48679521Y-62654085D01*
X48626794Y-62745410D01*
X48626793Y-62745413D01*
X48599500Y-62847273D01*
X45500500Y-62847273D01*
X45500500Y-62034108D01*
X56999500Y-62034108D01*
X56999500Y-62165891D01*
X57033608Y-62293187D01*
X57062476Y-62343186D01*
X57099500Y-62407314D01*
X57192686Y-62500500D01*
X57306814Y-62566392D01*
X57434108Y-62600500D01*
X57434110Y-62600500D01*
X57565890Y-62600500D01*
X57565892Y-62600500D01*
X57693186Y-62566392D01*
X57807314Y-62500500D01*
X57900500Y-62407314D01*
X57966392Y-62293186D01*
X58000500Y-62165892D01*
X58000500Y-62084108D01*
X60632229Y-62084108D01*
X60632229Y-62215892D01*
X60649283Y-62279539D01*
X60666337Y-62343187D01*
X60699283Y-62400250D01*
X60732229Y-62457314D01*
X60825415Y-62550500D01*
X60939543Y-62616392D01*
X61066837Y-62650500D01*
X61066839Y-62650500D01*
X61198619Y-62650500D01*
X61198621Y-62650500D01*
X61325915Y-62616392D01*
X61440043Y-62550500D01*
X61533229Y-62457314D01*
X61599121Y-62343186D01*
X61614951Y-62284108D01*
X84108570Y-62284108D01*
X84108570Y-62415892D01*
X84125624Y-62479539D01*
X84142678Y-62543187D01*
X84156075Y-62566391D01*
X84208570Y-62657314D01*
X84301756Y-62750500D01*
X84415884Y-62816392D01*
X84543178Y-62850500D01*
X84543180Y-62850500D01*
X84674960Y-62850500D01*
X84674962Y-62850500D01*
X84802256Y-62816392D01*
X84916384Y-62750500D01*
X85009570Y-62657314D01*
X85075462Y-62543186D01*
X85109570Y-62415892D01*
X85109570Y-62284108D01*
X85075462Y-62156814D01*
X85009570Y-62042686D01*
X84916384Y-61949500D01*
X84842450Y-61906814D01*
X84802257Y-61883608D01*
X84738001Y-61866391D01*
X84674962Y-61849500D01*
X84543178Y-61849500D01*
X84415882Y-61883608D01*
X84301756Y-61949500D01*
X84301753Y-61949502D01*
X84208572Y-62042683D01*
X84208570Y-62042686D01*
X84142678Y-62156812D01*
X84126848Y-62215892D01*
X84108570Y-62284108D01*
X61614951Y-62284108D01*
X61633229Y-62215892D01*
X61633229Y-62084108D01*
X61599121Y-61956814D01*
X61533229Y-61842686D01*
X61440043Y-61749500D01*
X61381829Y-61715890D01*
X61325916Y-61683608D01*
X61262268Y-61666554D01*
X61198621Y-61649500D01*
X61066837Y-61649500D01*
X60939541Y-61683608D01*
X60825415Y-61749500D01*
X60825412Y-61749502D01*
X60732231Y-61842683D01*
X60732229Y-61842686D01*
X60666337Y-61956812D01*
X60666202Y-61957316D01*
X60632229Y-62084108D01*
X58000500Y-62084108D01*
X58000500Y-62034108D01*
X57966392Y-61906814D01*
X57900500Y-61792686D01*
X57807314Y-61699500D01*
X57720712Y-61649500D01*
X57693187Y-61633608D01*
X57629539Y-61616554D01*
X57565892Y-61599500D01*
X57434108Y-61599500D01*
X57306812Y-61633608D01*
X57192686Y-61699500D01*
X57192683Y-61699502D01*
X57099502Y-61792683D01*
X57099500Y-61792686D01*
X57033608Y-61906812D01*
X56999500Y-62034108D01*
X45500500Y-62034108D01*
X45500500Y-60934108D01*
X54699500Y-60934108D01*
X54699500Y-61065892D01*
X54716554Y-61129539D01*
X54733608Y-61193187D01*
X54741475Y-61206812D01*
X54799500Y-61307314D01*
X54892686Y-61400500D01*
X54990221Y-61456812D01*
X55005944Y-61465890D01*
X55006814Y-61466392D01*
X55134108Y-61500500D01*
X55134110Y-61500500D01*
X55265890Y-61500500D01*
X55265892Y-61500500D01*
X55393186Y-61466392D01*
X55507314Y-61400500D01*
X55600500Y-61307314D01*
X55666392Y-61193186D01*
X55700500Y-61065892D01*
X55700500Y-61034108D01*
X66424500Y-61034108D01*
X66424500Y-61165891D01*
X66458608Y-61293187D01*
X66487185Y-61342683D01*
X66524500Y-61407314D01*
X66617686Y-61500500D01*
X66731814Y-61566392D01*
X66859108Y-61600500D01*
X66859110Y-61600500D01*
X66990890Y-61600500D01*
X66990892Y-61600500D01*
X67118186Y-61566392D01*
X67232314Y-61500500D01*
X67325500Y-61407314D01*
X67391392Y-61293186D01*
X67425500Y-61165892D01*
X67425500Y-61034108D01*
X67391392Y-60906814D01*
X67325500Y-60792686D01*
X67232314Y-60699500D01*
X67156118Y-60655508D01*
X67118187Y-60633608D01*
X67054539Y-60616554D01*
X66990892Y-60599500D01*
X66859108Y-60599500D01*
X66731812Y-60633608D01*
X66617686Y-60699500D01*
X66617683Y-60699502D01*
X66524502Y-60792683D01*
X66524500Y-60792686D01*
X66458608Y-60906812D01*
X66424500Y-61034108D01*
X55700500Y-61034108D01*
X55700500Y-60934108D01*
X55666392Y-60806814D01*
X55600500Y-60692686D01*
X55507314Y-60599500D01*
X55450250Y-60566554D01*
X55393187Y-60533608D01*
X55329539Y-60516554D01*
X55265892Y-60499500D01*
X55134108Y-60499500D01*
X55006812Y-60533608D01*
X54892686Y-60599500D01*
X54892683Y-60599502D01*
X54799502Y-60692683D01*
X54799500Y-60692686D01*
X54733608Y-60806812D01*
X54706814Y-60906812D01*
X54699500Y-60934108D01*
X45500500Y-60934108D01*
X45500500Y-58967273D01*
X49199500Y-58967273D01*
X49199500Y-59072727D01*
X49226793Y-59174587D01*
X49279520Y-59265913D01*
X49354087Y-59340480D01*
X49445413Y-59393207D01*
X49547273Y-59420500D01*
X49547275Y-59420500D01*
X49652725Y-59420500D01*
X49652727Y-59420500D01*
X49754587Y-59393207D01*
X49845913Y-59340480D01*
X49920480Y-59265913D01*
X49973207Y-59174587D01*
X49980526Y-59147273D01*
X57551131Y-59147273D01*
X57551131Y-59252727D01*
X57578424Y-59354587D01*
X57631151Y-59445913D01*
X57705718Y-59520480D01*
X57797044Y-59573207D01*
X57898904Y-59600500D01*
X57898906Y-59600500D01*
X58004356Y-59600500D01*
X58004358Y-59600500D01*
X58106218Y-59573207D01*
X58197544Y-59520480D01*
X58272111Y-59445913D01*
X58324838Y-59354587D01*
X58330325Y-59334108D01*
X65799500Y-59334108D01*
X65799500Y-59465892D01*
X65809750Y-59504147D01*
X65833608Y-59593187D01*
X65841475Y-59606812D01*
X65899500Y-59707314D01*
X65992686Y-59800500D01*
X66091521Y-59857563D01*
X66105944Y-59865890D01*
X66106814Y-59866392D01*
X66234108Y-59900500D01*
X66234110Y-59900500D01*
X66365890Y-59900500D01*
X66365892Y-59900500D01*
X66493186Y-59866392D01*
X66607314Y-59800500D01*
X66700500Y-59707314D01*
X66766392Y-59593186D01*
X66780225Y-59541556D01*
X66816590Y-59481897D01*
X66879436Y-59451368D01*
X66948812Y-59459662D01*
X67002690Y-59504147D01*
X67019773Y-59541555D01*
X67028254Y-59573205D01*
X67033608Y-59593187D01*
X67041475Y-59606812D01*
X67099500Y-59707314D01*
X67192686Y-59800500D01*
X67291521Y-59857563D01*
X67305944Y-59865890D01*
X67306814Y-59866392D01*
X67434108Y-59900500D01*
X67434110Y-59900500D01*
X67565890Y-59900500D01*
X67565892Y-59900500D01*
X67693186Y-59866392D01*
X67807314Y-59800500D01*
X67900500Y-59707314D01*
X67966392Y-59593186D01*
X68000500Y-59465892D01*
X68000500Y-59334108D01*
X67966392Y-59206814D01*
X67900500Y-59092686D01*
X67807314Y-58999500D01*
X67726301Y-58952727D01*
X67693187Y-58933608D01*
X67604179Y-58909759D01*
X67565892Y-58899500D01*
X67434108Y-58899500D01*
X67306812Y-58933608D01*
X67192686Y-58999500D01*
X67192683Y-58999502D01*
X67099502Y-59092683D01*
X67099500Y-59092686D01*
X67033608Y-59206812D01*
X67019775Y-59258441D01*
X66983410Y-59318102D01*
X66920563Y-59348631D01*
X66851188Y-59340336D01*
X66797310Y-59295851D01*
X66780225Y-59258441D01*
X66778694Y-59252726D01*
X66766392Y-59206814D01*
X66700500Y-59092686D01*
X66607314Y-58999500D01*
X66526301Y-58952727D01*
X66493187Y-58933608D01*
X66404179Y-58909759D01*
X66365892Y-58899500D01*
X66234108Y-58899500D01*
X66106812Y-58933608D01*
X65992686Y-58999500D01*
X65992683Y-58999502D01*
X65899502Y-59092683D01*
X65899500Y-59092686D01*
X65833608Y-59206812D01*
X65815818Y-59273206D01*
X65799500Y-59334108D01*
X58330325Y-59334108D01*
X58352131Y-59252727D01*
X58352131Y-59147273D01*
X58324838Y-59045413D01*
X58272111Y-58954087D01*
X58197544Y-58879520D01*
X58141690Y-58847273D01*
X60969500Y-58847273D01*
X60969500Y-58952727D01*
X60982956Y-59002944D01*
X60996793Y-59054586D01*
X60996794Y-59054589D01*
X61007266Y-59072727D01*
X61049520Y-59145913D01*
X61124087Y-59220480D01*
X61215413Y-59273207D01*
X61317273Y-59300500D01*
X61317275Y-59300500D01*
X61422725Y-59300500D01*
X61422727Y-59300500D01*
X61524587Y-59273207D01*
X61615913Y-59220480D01*
X61690480Y-59145913D01*
X61743207Y-59054587D01*
X61770500Y-58952727D01*
X61770500Y-58847273D01*
X62239500Y-58847273D01*
X62239500Y-58952727D01*
X62252956Y-59002944D01*
X62266793Y-59054586D01*
X62266794Y-59054589D01*
X62277266Y-59072727D01*
X62319520Y-59145913D01*
X62394087Y-59220480D01*
X62485413Y-59273207D01*
X62587273Y-59300500D01*
X62587275Y-59300500D01*
X62692725Y-59300500D01*
X62692727Y-59300500D01*
X62794587Y-59273207D01*
X62885913Y-59220480D01*
X62960480Y-59145913D01*
X63013207Y-59054587D01*
X63040500Y-58952727D01*
X63040500Y-58847273D01*
X63013207Y-58745413D01*
X62960480Y-58654087D01*
X62885913Y-58579520D01*
X62794587Y-58526793D01*
X62692727Y-58499500D01*
X62587273Y-58499500D01*
X62485413Y-58526793D01*
X62485410Y-58526794D01*
X62394085Y-58579521D01*
X62319521Y-58654085D01*
X62266794Y-58745410D01*
X62266793Y-58745413D01*
X62239500Y-58847273D01*
X61770500Y-58847273D01*
X61743207Y-58745413D01*
X61690480Y-58654087D01*
X61615913Y-58579520D01*
X61524587Y-58526793D01*
X61422727Y-58499500D01*
X61317273Y-58499500D01*
X61215413Y-58526793D01*
X61215410Y-58526794D01*
X61124085Y-58579521D01*
X61049521Y-58654085D01*
X60996794Y-58745410D01*
X60996793Y-58745413D01*
X60969500Y-58847273D01*
X58141690Y-58847273D01*
X58106218Y-58826793D01*
X58004358Y-58799500D01*
X57898904Y-58799500D01*
X57797044Y-58826793D01*
X57797041Y-58826794D01*
X57705716Y-58879521D01*
X57631152Y-58954085D01*
X57578425Y-59045410D01*
X57578424Y-59045413D01*
X57551131Y-59147273D01*
X49980526Y-59147273D01*
X50000500Y-59072727D01*
X50000500Y-58967273D01*
X49973207Y-58865413D01*
X49920480Y-58774087D01*
X49845913Y-58699520D01*
X49754587Y-58646793D01*
X49652727Y-58619500D01*
X49547273Y-58619500D01*
X49445413Y-58646793D01*
X49445410Y-58646794D01*
X49354085Y-58699521D01*
X49279521Y-58774085D01*
X49226794Y-58865410D01*
X49226793Y-58865413D01*
X49199500Y-58967273D01*
X45500500Y-58967273D01*
X45500500Y-58062413D01*
X55744582Y-58062413D01*
X55744582Y-58167867D01*
X55771875Y-58269727D01*
X55824602Y-58361053D01*
X55899169Y-58435620D01*
X55990495Y-58488347D01*
X56092355Y-58515640D01*
X56092357Y-58515640D01*
X56197807Y-58515640D01*
X56197809Y-58515640D01*
X56299669Y-58488347D01*
X56390995Y-58435620D01*
X56417818Y-58408796D01*
X56479137Y-58375313D01*
X56548829Y-58380297D01*
X56604763Y-58422167D01*
X56612876Y-58434466D01*
X56619996Y-58446798D01*
X56694563Y-58521365D01*
X56785889Y-58574092D01*
X56887749Y-58601385D01*
X56887751Y-58601385D01*
X56993201Y-58601385D01*
X56993203Y-58601385D01*
X57095063Y-58574092D01*
X57186389Y-58521365D01*
X57260956Y-58446798D01*
X57313683Y-58355472D01*
X57340976Y-58253612D01*
X57340976Y-58148158D01*
X57313683Y-58046298D01*
X57260956Y-57954972D01*
X57186389Y-57880405D01*
X57104917Y-57833367D01*
X57095067Y-57827680D01*
X57095065Y-57827679D01*
X57095063Y-57827678D01*
X56993203Y-57800385D01*
X56887749Y-57800385D01*
X56785889Y-57827678D01*
X56785886Y-57827679D01*
X56694563Y-57880405D01*
X56667740Y-57907228D01*
X56606416Y-57940712D01*
X56536725Y-57935726D01*
X56480792Y-57893854D01*
X56472681Y-57881558D01*
X56465562Y-57869227D01*
X56390995Y-57794660D01*
X56299669Y-57741933D01*
X56270465Y-57734108D01*
X66424500Y-57734108D01*
X66424500Y-57865892D01*
X66431992Y-57893854D01*
X66458608Y-57993187D01*
X66466475Y-58006812D01*
X66524500Y-58107314D01*
X66617686Y-58200500D01*
X66716521Y-58257563D01*
X66730944Y-58265890D01*
X66731814Y-58266392D01*
X66859108Y-58300500D01*
X66859110Y-58300500D01*
X66990890Y-58300500D01*
X66990892Y-58300500D01*
X67118186Y-58266392D01*
X67232314Y-58200500D01*
X67298706Y-58134108D01*
X76549500Y-58134108D01*
X76549500Y-58265892D01*
X76558773Y-58300499D01*
X76583608Y-58393187D01*
X76600340Y-58422167D01*
X76649500Y-58507314D01*
X76649502Y-58507316D01*
X76654505Y-58512319D01*
X76687990Y-58573642D01*
X76683006Y-58643334D01*
X76654505Y-58687681D01*
X76649502Y-58692683D01*
X76649500Y-58692686D01*
X76583608Y-58806812D01*
X76556024Y-58909759D01*
X76549500Y-58934108D01*
X76549500Y-59065892D01*
X76559428Y-59102944D01*
X76583608Y-59193187D01*
X76599366Y-59220480D01*
X76649500Y-59307314D01*
X76649502Y-59307316D01*
X76654505Y-59312319D01*
X76687990Y-59373642D01*
X76683006Y-59443334D01*
X76654505Y-59487681D01*
X76649502Y-59492683D01*
X76649500Y-59492686D01*
X76583608Y-59606812D01*
X76561689Y-59688617D01*
X76549500Y-59734108D01*
X76549500Y-59865892D01*
X76558773Y-59900499D01*
X76583608Y-59993187D01*
X76616352Y-60049900D01*
X76649500Y-60107314D01*
X76649502Y-60107316D01*
X76654505Y-60112319D01*
X76687990Y-60173642D01*
X76683006Y-60243334D01*
X76654505Y-60287681D01*
X76649502Y-60292683D01*
X76649500Y-60292686D01*
X76583608Y-60406812D01*
X76559596Y-60496430D01*
X76549500Y-60534108D01*
X76549500Y-60665892D01*
X76558505Y-60699500D01*
X76583608Y-60793187D01*
X76591475Y-60806812D01*
X76649500Y-60907314D01*
X76649502Y-60907316D01*
X76654505Y-60912319D01*
X76687990Y-60973642D01*
X76683006Y-61043334D01*
X76654505Y-61087681D01*
X76649502Y-61092683D01*
X76649500Y-61092686D01*
X76583608Y-61206812D01*
X76549500Y-61334108D01*
X76549500Y-61465891D01*
X76583608Y-61593187D01*
X76606946Y-61633608D01*
X76649500Y-61707314D01*
X76742686Y-61800500D01*
X76856814Y-61866392D01*
X76984108Y-61900500D01*
X76984110Y-61900500D01*
X77115890Y-61900500D01*
X77115892Y-61900500D01*
X77243186Y-61866392D01*
X77357314Y-61800500D01*
X77450500Y-61707314D01*
X77516392Y-61593186D01*
X77518824Y-61584108D01*
X78350500Y-61584108D01*
X78350500Y-61715891D01*
X78384608Y-61843187D01*
X78388253Y-61849500D01*
X78450500Y-61957314D01*
X78543686Y-62050500D01*
X78657814Y-62116392D01*
X78785108Y-62150500D01*
X78785110Y-62150500D01*
X78916890Y-62150500D01*
X78916892Y-62150500D01*
X79044186Y-62116392D01*
X79158314Y-62050500D01*
X79251500Y-61957314D01*
X79317392Y-61843186D01*
X79351500Y-61715892D01*
X79351500Y-61584108D01*
X79317392Y-61456814D01*
X79251500Y-61342686D01*
X79158314Y-61249500D01*
X79084380Y-61206814D01*
X79044187Y-61183608D01*
X78978061Y-61165890D01*
X78916892Y-61149500D01*
X78785108Y-61149500D01*
X78657812Y-61183608D01*
X78543686Y-61249500D01*
X78543683Y-61249502D01*
X78450502Y-61342683D01*
X78450500Y-61342686D01*
X78384608Y-61456812D01*
X78350500Y-61584108D01*
X77518824Y-61584108D01*
X77550500Y-61465892D01*
X77550500Y-61334108D01*
X77516392Y-61206814D01*
X77450500Y-61092686D01*
X77445495Y-61087681D01*
X77412010Y-61026358D01*
X77416994Y-60956666D01*
X77445495Y-60912319D01*
X77450500Y-60907314D01*
X77516392Y-60793186D01*
X77550500Y-60665892D01*
X77550500Y-60534108D01*
X77516392Y-60406814D01*
X77450500Y-60292686D01*
X77445495Y-60287681D01*
X77412010Y-60226358D01*
X77416994Y-60156666D01*
X77429672Y-60131715D01*
X77435272Y-60123225D01*
X78967980Y-60123225D01*
X78967980Y-60255009D01*
X78985034Y-60318656D01*
X79002088Y-60382304D01*
X79016238Y-60406812D01*
X79067980Y-60496431D01*
X79161166Y-60589617D01*
X79275294Y-60655509D01*
X79402588Y-60689617D01*
X79402590Y-60689617D01*
X79534370Y-60689617D01*
X79534372Y-60689617D01*
X79661666Y-60655509D01*
X79775794Y-60589617D01*
X79868980Y-60496431D01*
X79934872Y-60382303D01*
X79968980Y-60255009D01*
X79968980Y-60123225D01*
X79934872Y-59995931D01*
X79868980Y-59881803D01*
X79775794Y-59788617D01*
X79718730Y-59755671D01*
X79661667Y-59722725D01*
X79598019Y-59705671D01*
X79534372Y-59688617D01*
X79402588Y-59688617D01*
X79275292Y-59722725D01*
X79161166Y-59788617D01*
X79161163Y-59788619D01*
X79067982Y-59881800D01*
X79067980Y-59881803D01*
X79002088Y-59995929D01*
X78987627Y-60049900D01*
X78967980Y-60123225D01*
X77435272Y-60123225D01*
X77436599Y-60121214D01*
X77450500Y-60107314D01*
X77516392Y-59993186D01*
X77550500Y-59865892D01*
X77550500Y-59734108D01*
X77516392Y-59606814D01*
X77450500Y-59492686D01*
X77445495Y-59487681D01*
X77412010Y-59426358D01*
X77416994Y-59356666D01*
X77445495Y-59312319D01*
X77450500Y-59307314D01*
X77516392Y-59193186D01*
X77550500Y-59065892D01*
X77550500Y-58934108D01*
X77516392Y-58806814D01*
X77509935Y-58795631D01*
X77480940Y-58745410D01*
X77450500Y-58692686D01*
X77445495Y-58687681D01*
X77412010Y-58626358D01*
X77416994Y-58556666D01*
X77427348Y-58536553D01*
X81845098Y-58536553D01*
X81845098Y-58668337D01*
X81853454Y-58699521D01*
X81879206Y-58795632D01*
X81897197Y-58826793D01*
X81945098Y-58909759D01*
X82038284Y-59002945D01*
X82127734Y-59054589D01*
X82147307Y-59065890D01*
X82152412Y-59068837D01*
X82279706Y-59102945D01*
X82279708Y-59102945D01*
X82411488Y-59102945D01*
X82411490Y-59102945D01*
X82538784Y-59068837D01*
X82652912Y-59002945D01*
X82746098Y-58909759D01*
X82811990Y-58795631D01*
X82846098Y-58668337D01*
X82846098Y-58536553D01*
X82811990Y-58409259D01*
X82811724Y-58408799D01*
X82792391Y-58375313D01*
X82746098Y-58295131D01*
X82652912Y-58201945D01*
X82593886Y-58167866D01*
X82538785Y-58136053D01*
X82475137Y-58118999D01*
X82411490Y-58101945D01*
X82279706Y-58101945D01*
X82152410Y-58136053D01*
X82038284Y-58201945D01*
X82038281Y-58201947D01*
X81945100Y-58295128D01*
X81945098Y-58295131D01*
X81879206Y-58409257D01*
X81849168Y-58521363D01*
X81845098Y-58536553D01*
X77427348Y-58536553D01*
X77430402Y-58530620D01*
X77437066Y-58520747D01*
X77450500Y-58507314D01*
X77516392Y-58393186D01*
X77550500Y-58265892D01*
X77550500Y-58134108D01*
X77516392Y-58006814D01*
X77450500Y-57892686D01*
X77357314Y-57799500D01*
X77300250Y-57766554D01*
X77243187Y-57733608D01*
X77172396Y-57714640D01*
X77115892Y-57699500D01*
X76984108Y-57699500D01*
X76856812Y-57733608D01*
X76742686Y-57799500D01*
X76742683Y-57799502D01*
X76649502Y-57892683D01*
X76649500Y-57892686D01*
X76583608Y-58006812D01*
X76558118Y-58101945D01*
X76549500Y-58134108D01*
X67298706Y-58134108D01*
X67325500Y-58107314D01*
X67338023Y-58085622D01*
X67350520Y-58063980D01*
X67391390Y-57993189D01*
X67391392Y-57993186D01*
X67425500Y-57865892D01*
X67425500Y-57734108D01*
X67391392Y-57606814D01*
X67325500Y-57492686D01*
X67232314Y-57399500D01*
X67175250Y-57366554D01*
X67118187Y-57333608D01*
X67054539Y-57316554D01*
X66990892Y-57299500D01*
X66859108Y-57299500D01*
X66731812Y-57333608D01*
X66617686Y-57399500D01*
X66617683Y-57399502D01*
X66524502Y-57492683D01*
X66524500Y-57492686D01*
X66458608Y-57606812D01*
X66433773Y-57699500D01*
X66424500Y-57734108D01*
X56270465Y-57734108D01*
X56197809Y-57714640D01*
X56092355Y-57714640D01*
X55990495Y-57741933D01*
X55990492Y-57741934D01*
X55899167Y-57794661D01*
X55824603Y-57869225D01*
X55771876Y-57960550D01*
X55771875Y-57960553D01*
X55744582Y-58062413D01*
X45500500Y-58062413D01*
X45500500Y-56334108D01*
X54899500Y-56334108D01*
X54899500Y-56465891D01*
X54933608Y-56593187D01*
X54966554Y-56650250D01*
X54999500Y-56707314D01*
X55092686Y-56800500D01*
X55206814Y-56866392D01*
X55334108Y-56900500D01*
X55334110Y-56900500D01*
X55465890Y-56900500D01*
X55465892Y-56900500D01*
X55593186Y-56866392D01*
X55707314Y-56800500D01*
X55800500Y-56707314D01*
X55866392Y-56593186D01*
X55900500Y-56465892D01*
X55900500Y-56334108D01*
X55866392Y-56206814D01*
X55800500Y-56092686D01*
X55707314Y-55999500D01*
X55650250Y-55966554D01*
X55593187Y-55933608D01*
X55529539Y-55916554D01*
X55465892Y-55899500D01*
X55334108Y-55899500D01*
X55206812Y-55933608D01*
X55092686Y-55999500D01*
X55092683Y-55999502D01*
X54999502Y-56092683D01*
X54999500Y-56092686D01*
X54933608Y-56206812D01*
X54899500Y-56334108D01*
X45500500Y-56334108D01*
X45500500Y-55247273D01*
X54199500Y-55247273D01*
X54199500Y-55352727D01*
X54226793Y-55454587D01*
X54279520Y-55545913D01*
X54354087Y-55620480D01*
X54445413Y-55673207D01*
X54547273Y-55700500D01*
X54547275Y-55700500D01*
X54652725Y-55700500D01*
X54652727Y-55700500D01*
X54754587Y-55673207D01*
X54845913Y-55620480D01*
X54920480Y-55545913D01*
X54973207Y-55454587D01*
X55000500Y-55352727D01*
X55000500Y-55247273D01*
X54973207Y-55145413D01*
X54920480Y-55054087D01*
X54863666Y-54997273D01*
X62239500Y-54997273D01*
X62239500Y-55102727D01*
X62266793Y-55204587D01*
X62319520Y-55295913D01*
X62394087Y-55370480D01*
X62485413Y-55423207D01*
X62587273Y-55450500D01*
X62587275Y-55450500D01*
X62692725Y-55450500D01*
X62692727Y-55450500D01*
X62794587Y-55423207D01*
X62885913Y-55370480D01*
X62960480Y-55295913D01*
X63013207Y-55204587D01*
X63040500Y-55102727D01*
X63040500Y-54997273D01*
X63013207Y-54895413D01*
X62960480Y-54804087D01*
X62885913Y-54729520D01*
X62794587Y-54676793D01*
X62692727Y-54649500D01*
X62587273Y-54649500D01*
X62485413Y-54676793D01*
X62485410Y-54676794D01*
X62394085Y-54729521D01*
X62319521Y-54804085D01*
X62266794Y-54895410D01*
X62266793Y-54895413D01*
X62239500Y-54997273D01*
X54863666Y-54997273D01*
X54845913Y-54979520D01*
X54754587Y-54926793D01*
X54652727Y-54899500D01*
X54547273Y-54899500D01*
X54445413Y-54926793D01*
X54445410Y-54926794D01*
X54354085Y-54979521D01*
X54279521Y-55054085D01*
X54226794Y-55145410D01*
X54226793Y-55145413D01*
X54199500Y-55247273D01*
X45500500Y-55247273D01*
X45500500Y-54003051D01*
X45500649Y-53996966D01*
X45507263Y-53862332D01*
X75299500Y-53862332D01*
X75299500Y-54137667D01*
X75299501Y-54137684D01*
X75335438Y-54410655D01*
X75335439Y-54410660D01*
X75335440Y-54410666D01*
X75335441Y-54410668D01*
X75406704Y-54676630D01*
X75512075Y-54931017D01*
X75512080Y-54931028D01*
X75583127Y-55054083D01*
X75649751Y-55169479D01*
X75649753Y-55169482D01*
X75649754Y-55169483D01*
X75817370Y-55387926D01*
X75817376Y-55387933D01*
X76012066Y-55582623D01*
X76012072Y-55582628D01*
X76230521Y-55750249D01*
X76383778Y-55838732D01*
X76468971Y-55887919D01*
X76468976Y-55887921D01*
X76468979Y-55887923D01*
X76723368Y-55993295D01*
X76989334Y-56064560D01*
X77262326Y-56100500D01*
X77262333Y-56100500D01*
X77537667Y-56100500D01*
X77537674Y-56100500D01*
X77810666Y-56064560D01*
X78076632Y-55993295D01*
X78331021Y-55887923D01*
X78569479Y-55750249D01*
X78787928Y-55582628D01*
X78982628Y-55387928D01*
X79150249Y-55169479D01*
X79287923Y-54931021D01*
X79393295Y-54676632D01*
X79464560Y-54410666D01*
X79500500Y-54137674D01*
X79500500Y-53862332D01*
X81599500Y-53862332D01*
X81599500Y-54137667D01*
X81599501Y-54137684D01*
X81635438Y-54410655D01*
X81635439Y-54410660D01*
X81635440Y-54410666D01*
X81635441Y-54410668D01*
X81706704Y-54676630D01*
X81812075Y-54931017D01*
X81812080Y-54931028D01*
X81883127Y-55054083D01*
X81949751Y-55169479D01*
X81949753Y-55169482D01*
X81949754Y-55169483D01*
X82117370Y-55387926D01*
X82117376Y-55387933D01*
X82312066Y-55582623D01*
X82312072Y-55582628D01*
X82530521Y-55750249D01*
X82683778Y-55838732D01*
X82768971Y-55887919D01*
X82768976Y-55887921D01*
X82768979Y-55887923D01*
X83023368Y-55993295D01*
X83289334Y-56064560D01*
X83562326Y-56100500D01*
X83562333Y-56100500D01*
X83837667Y-56100500D01*
X83837674Y-56100500D01*
X84110666Y-56064560D01*
X84376632Y-55993295D01*
X84631021Y-55887923D01*
X84869479Y-55750249D01*
X85087928Y-55582628D01*
X85282628Y-55387928D01*
X85450249Y-55169479D01*
X85587923Y-54931021D01*
X85693295Y-54676632D01*
X85764560Y-54410666D01*
X85800500Y-54137674D01*
X85800500Y-53862326D01*
X85764560Y-53589334D01*
X85693295Y-53323368D01*
X85587923Y-53068979D01*
X85587921Y-53068976D01*
X85587919Y-53068971D01*
X85535633Y-52978411D01*
X85450249Y-52830521D01*
X85324423Y-52666540D01*
X85282629Y-52612073D01*
X85282623Y-52612066D01*
X85087933Y-52417376D01*
X85087926Y-52417370D01*
X84869483Y-52249754D01*
X84869482Y-52249753D01*
X84869479Y-52249751D01*
X84774407Y-52194861D01*
X84631028Y-52112080D01*
X84631017Y-52112075D01*
X84376630Y-52006704D01*
X84243649Y-51971072D01*
X84110666Y-51935440D01*
X84110660Y-51935439D01*
X84110655Y-51935438D01*
X83837684Y-51899501D01*
X83837679Y-51899500D01*
X83837674Y-51899500D01*
X83562326Y-51899500D01*
X83562320Y-51899500D01*
X83562315Y-51899501D01*
X83289344Y-51935438D01*
X83289337Y-51935439D01*
X83289334Y-51935440D01*
X83245165Y-51947275D01*
X83023369Y-52006704D01*
X82768982Y-52112075D01*
X82768971Y-52112080D01*
X82530516Y-52249754D01*
X82312073Y-52417370D01*
X82312066Y-52417376D01*
X82117376Y-52612066D01*
X82117370Y-52612073D01*
X81949754Y-52830516D01*
X81812080Y-53068971D01*
X81812075Y-53068982D01*
X81706704Y-53323369D01*
X81635441Y-53589331D01*
X81635438Y-53589344D01*
X81599501Y-53862315D01*
X81599500Y-53862332D01*
X79500500Y-53862332D01*
X79500500Y-53862326D01*
X79464560Y-53589334D01*
X79393295Y-53323368D01*
X79287923Y-53068979D01*
X79287921Y-53068976D01*
X79287919Y-53068971D01*
X79235633Y-52978411D01*
X79150249Y-52830521D01*
X79024423Y-52666540D01*
X78982629Y-52612073D01*
X78982623Y-52612066D01*
X78787933Y-52417376D01*
X78787926Y-52417370D01*
X78569483Y-52249754D01*
X78569482Y-52249753D01*
X78569479Y-52249751D01*
X78474407Y-52194861D01*
X78331028Y-52112080D01*
X78331017Y-52112075D01*
X78076630Y-52006704D01*
X77943649Y-51971072D01*
X77810666Y-51935440D01*
X77810660Y-51935439D01*
X77810655Y-51935438D01*
X77537684Y-51899501D01*
X77537679Y-51899500D01*
X77537674Y-51899500D01*
X77262326Y-51899500D01*
X77262320Y-51899500D01*
X77262315Y-51899501D01*
X76989344Y-51935438D01*
X76989337Y-51935439D01*
X76989334Y-51935440D01*
X76945165Y-51947275D01*
X76723369Y-52006704D01*
X76468982Y-52112075D01*
X76468971Y-52112080D01*
X76230516Y-52249754D01*
X76012073Y-52417370D01*
X76012066Y-52417376D01*
X75817376Y-52612066D01*
X75817370Y-52612073D01*
X75649754Y-52830516D01*
X75512080Y-53068971D01*
X75512075Y-53068982D01*
X75406704Y-53323369D01*
X75335441Y-53589331D01*
X75335438Y-53589344D01*
X75299501Y-53862315D01*
X75299500Y-53862332D01*
X45507263Y-53862332D01*
X45507762Y-53852182D01*
X45507762Y-53852181D01*
X45517052Y-53663072D01*
X45518245Y-53650962D01*
X45527387Y-53589331D01*
X45566849Y-53323296D01*
X45569218Y-53311385D01*
X45649710Y-52990043D01*
X45653240Y-52978411D01*
X45706158Y-52830516D01*
X45764835Y-52666525D01*
X45769476Y-52655318D01*
X45911124Y-52355828D01*
X45916840Y-52345136D01*
X46087145Y-52060998D01*
X46093888Y-52050905D01*
X46170747Y-51947273D01*
X59549500Y-51947273D01*
X59549500Y-52052727D01*
X59576793Y-52154587D01*
X59629520Y-52245913D01*
X59704087Y-52320480D01*
X59795413Y-52373207D01*
X59897273Y-52400500D01*
X59897275Y-52400500D01*
X60002725Y-52400500D01*
X60002727Y-52400500D01*
X60104587Y-52373207D01*
X60195913Y-52320480D01*
X60270480Y-52245913D01*
X60323207Y-52154587D01*
X60350500Y-52052727D01*
X60350500Y-51947273D01*
X60323207Y-51845413D01*
X60270480Y-51754087D01*
X60195913Y-51679520D01*
X60104587Y-51626793D01*
X60002727Y-51599500D01*
X59897273Y-51599500D01*
X59795413Y-51626793D01*
X59795410Y-51626794D01*
X59704085Y-51679521D01*
X59629521Y-51754085D01*
X59576794Y-51845410D01*
X59576793Y-51845413D01*
X59549500Y-51947273D01*
X46170747Y-51947273D01*
X46291232Y-51784818D01*
X46298935Y-51775433D01*
X46521405Y-51529975D01*
X46529975Y-51521405D01*
X46775433Y-51298935D01*
X46784818Y-51291232D01*
X47050905Y-51093888D01*
X47060998Y-51087145D01*
X47345136Y-50916840D01*
X47355828Y-50911124D01*
X47655318Y-50769476D01*
X47666525Y-50764835D01*
X47978412Y-50653239D01*
X47990043Y-50649710D01*
X48311385Y-50569218D01*
X48323296Y-50566849D01*
X48650962Y-50518244D01*
X48663068Y-50517052D01*
X48996967Y-50500648D01*
X49003051Y-50500500D01*
X49065892Y-50500500D01*
X95934108Y-50500500D01*
X95996949Y-50500500D01*
X96003032Y-50500648D01*
G37*
%TD.AperFunction*%
%TD*%
M02*
