%TF.GenerationSoftware,KiCad,Pcbnew,9.0.2-9.0.2-0~ubuntu22.04.1*%
%TF.CreationDate,2025-07-01T08:49:19+02:00*%
%TF.ProjectId,Inverter_MIC4605_SQJQ910EL,496e7665-7274-4657-925f-4d4943343630,rev?*%
%TF.SameCoordinates,Original*%
%TF.FileFunction,Legend,Bot*%
%TF.FilePolarity,Positive*%
%FSLAX46Y46*%
G04 Gerber Fmt 4.6, Leading zero omitted, Abs format (unit mm)*
G04 Created by KiCad (PCBNEW 9.0.2-9.0.2-0~ubuntu22.04.1) date 2025-07-01 08:49:19*
%MOMM*%
%LPD*%
G01*
G04 APERTURE LIST*
%ADD10C,0.300000*%
%ADD11C,0.150000*%
%ADD12C,0.120000*%
G04 APERTURE END LIST*
D10*
G36*
X49687354Y-72206872D02*
G01*
X49783621Y-72303139D01*
X49828328Y-72392552D01*
X49828328Y-72607447D01*
X49783621Y-72696859D01*
X49687354Y-72793126D01*
X49459863Y-72850000D01*
X48996792Y-72850000D01*
X48769301Y-72793126D01*
X48673035Y-72696860D01*
X48628328Y-72607446D01*
X48628328Y-72392553D01*
X48673035Y-72303139D01*
X48769302Y-72206872D01*
X48996792Y-72150000D01*
X49459864Y-72150000D01*
X49687354Y-72206872D01*
G37*
G36*
X46699126Y-71107447D02*
G01*
X46654419Y-71196860D01*
X46617414Y-71233865D01*
X46528002Y-71278571D01*
X46384536Y-71278571D01*
X46295123Y-71233865D01*
X46258119Y-71196861D01*
X46213412Y-71107446D01*
X46213412Y-70721428D01*
X46699126Y-70721428D01*
X46699126Y-71107447D01*
G37*
G36*
X49687354Y-67921157D02*
G01*
X49783621Y-68017424D01*
X49828328Y-68106837D01*
X49828328Y-68321732D01*
X49783621Y-68411144D01*
X49687354Y-68507411D01*
X49459863Y-68564285D01*
X48996792Y-68564285D01*
X48769301Y-68507411D01*
X48673035Y-68411145D01*
X48628328Y-68321731D01*
X48628328Y-68106838D01*
X48673035Y-68017424D01*
X48769302Y-67921157D01*
X48996792Y-67864285D01*
X49459864Y-67864285D01*
X49687354Y-67921157D01*
G37*
G36*
X52161532Y-66980419D02*
G01*
X52198537Y-67017424D01*
X52243244Y-67106837D01*
X52243244Y-67321732D01*
X52198538Y-67411144D01*
X52161534Y-67448149D01*
X52072120Y-67492857D01*
X51785797Y-67492857D01*
X51696383Y-67448149D01*
X51659379Y-67411146D01*
X51614673Y-67321733D01*
X51614673Y-67106837D01*
X51659378Y-67017425D01*
X51696383Y-66980420D01*
X51785797Y-66935714D01*
X52072120Y-66935714D01*
X52161532Y-66980419D01*
G37*
G36*
X46699126Y-67107447D02*
G01*
X46654419Y-67196860D01*
X46617414Y-67233865D01*
X46528002Y-67278571D01*
X46384536Y-67278571D01*
X46295123Y-67233865D01*
X46258119Y-67196861D01*
X46213412Y-67107446D01*
X46213412Y-66721428D01*
X46699126Y-66721428D01*
X46699126Y-67107447D01*
G37*
G36*
X52055173Y-65570097D02*
G01*
X52161533Y-65623278D01*
X52198537Y-65660282D01*
X52243244Y-65749695D01*
X52243244Y-65821733D01*
X52198537Y-65911146D01*
X52161532Y-65948151D01*
X52055175Y-66001329D01*
X51803351Y-66064286D01*
X51483137Y-66064286D01*
X51231313Y-66001329D01*
X51124955Y-65948151D01*
X51087951Y-65911147D01*
X51043244Y-65821732D01*
X51043244Y-65749696D01*
X51087951Y-65660281D01*
X51124955Y-65623277D01*
X51231314Y-65570098D01*
X51483137Y-65507143D01*
X51803352Y-65507143D01*
X52055173Y-65570097D01*
G37*
G36*
X49399757Y-65506172D02*
G01*
X48952668Y-65357143D01*
X49399757Y-65208113D01*
X49399757Y-65506172D01*
G37*
G36*
X49114042Y-64107447D02*
G01*
X49069335Y-64196860D01*
X49032330Y-64233865D01*
X48942918Y-64278571D01*
X48799452Y-64278571D01*
X48710039Y-64233865D01*
X48673035Y-64196861D01*
X48628328Y-64107446D01*
X48628328Y-63721428D01*
X49114042Y-63721428D01*
X49114042Y-64107447D01*
G37*
G36*
X52055173Y-62570097D02*
G01*
X52161533Y-62623278D01*
X52198537Y-62660282D01*
X52243244Y-62749695D01*
X52243244Y-62821733D01*
X52198537Y-62911146D01*
X52161532Y-62948151D01*
X52055175Y-63001329D01*
X51803351Y-63064286D01*
X51483137Y-63064286D01*
X51231313Y-63001329D01*
X51124955Y-62948151D01*
X51087951Y-62911147D01*
X51043244Y-62821732D01*
X51043244Y-62749696D01*
X51087951Y-62660281D01*
X51124955Y-62623277D01*
X51231314Y-62570098D01*
X51483137Y-62507143D01*
X51803352Y-62507143D01*
X52055173Y-62570097D01*
G37*
G36*
X49399757Y-62720458D02*
G01*
X48952668Y-62571429D01*
X49399757Y-62422399D01*
X49399757Y-62720458D01*
G37*
G36*
X49114042Y-61321733D02*
G01*
X49069335Y-61411146D01*
X49032330Y-61448151D01*
X48942918Y-61492857D01*
X48799452Y-61492857D01*
X48710039Y-61448151D01*
X48673035Y-61411147D01*
X48628328Y-61321732D01*
X48628328Y-60935714D01*
X49114042Y-60935714D01*
X49114042Y-61321733D01*
G37*
G36*
X53067054Y-74816667D02*
G01*
X45746745Y-74816667D01*
X45746745Y-73613593D01*
X48331210Y-73613593D01*
X48331210Y-73672121D01*
X48353608Y-73726193D01*
X48394992Y-73767577D01*
X48449064Y-73789975D01*
X48478328Y-73792857D01*
X49657204Y-73792857D01*
X49746617Y-73837564D01*
X49783621Y-73874568D01*
X49828328Y-73963981D01*
X49828328Y-74178876D01*
X49783621Y-74268289D01*
X49746616Y-74305294D01*
X49657204Y-74350000D01*
X48478328Y-74350000D01*
X48449064Y-74352882D01*
X48394992Y-74375280D01*
X48353608Y-74416664D01*
X48331210Y-74470736D01*
X48331210Y-74529264D01*
X48353608Y-74583336D01*
X48394992Y-74624720D01*
X48449064Y-74647118D01*
X48478328Y-74650000D01*
X49692614Y-74650000D01*
X49721878Y-74647118D01*
X49726856Y-74645055D01*
X49732232Y-74644674D01*
X49759696Y-74634164D01*
X49902553Y-74562736D01*
X49915146Y-74554808D01*
X49918806Y-74553293D01*
X49922925Y-74549911D01*
X49927439Y-74547071D01*
X49930035Y-74544077D01*
X49941537Y-74534638D01*
X50012966Y-74463209D01*
X50022407Y-74451704D01*
X50025399Y-74449110D01*
X50028237Y-74444600D01*
X50031621Y-74440478D01*
X50033137Y-74436816D01*
X50041064Y-74424225D01*
X50112492Y-74281367D01*
X50123002Y-74253904D01*
X50123383Y-74248528D01*
X50125446Y-74243550D01*
X50128328Y-74214286D01*
X50128328Y-73928572D01*
X50125446Y-73899308D01*
X50123383Y-73894329D01*
X50123002Y-73888954D01*
X50112492Y-73861491D01*
X50041064Y-73718633D01*
X50033137Y-73706041D01*
X50031621Y-73702380D01*
X50028237Y-73698257D01*
X50025399Y-73693748D01*
X50022407Y-73691153D01*
X50012966Y-73679649D01*
X49941537Y-73608220D01*
X49930035Y-73598780D01*
X49927439Y-73595787D01*
X49922925Y-73592946D01*
X49918806Y-73589565D01*
X49915146Y-73588049D01*
X49902553Y-73580122D01*
X49759696Y-73508693D01*
X49732233Y-73498184D01*
X49726858Y-73497802D01*
X49721878Y-73495739D01*
X49692614Y-73492857D01*
X48478328Y-73492857D01*
X48449064Y-73495739D01*
X48394992Y-73518137D01*
X48353608Y-73559521D01*
X48331210Y-73613593D01*
X45746745Y-73613593D01*
X45746745Y-72357143D01*
X48328328Y-72357143D01*
X48328328Y-72642857D01*
X48331210Y-72672121D01*
X48333273Y-72677101D01*
X48333655Y-72682476D01*
X48344164Y-72709939D01*
X48415593Y-72852796D01*
X48423520Y-72865389D01*
X48425036Y-72869049D01*
X48428417Y-72873168D01*
X48431258Y-72877682D01*
X48434251Y-72880278D01*
X48443691Y-72891780D01*
X48586548Y-73034637D01*
X48609278Y-73053292D01*
X48619581Y-73057559D01*
X48628542Y-73064199D01*
X48656233Y-73074092D01*
X48941947Y-73145521D01*
X48947019Y-73146271D01*
X48949064Y-73147118D01*
X48960083Y-73148203D01*
X48971036Y-73149823D01*
X48973224Y-73149497D01*
X48978328Y-73150000D01*
X49478328Y-73150000D01*
X49483431Y-73149497D01*
X49485619Y-73149823D01*
X49496570Y-73148203D01*
X49507592Y-73147118D01*
X49509636Y-73146271D01*
X49514709Y-73145521D01*
X49800422Y-73074092D01*
X49828113Y-73064199D01*
X49837073Y-73057559D01*
X49847377Y-73053292D01*
X49870108Y-73034637D01*
X50012966Y-72891780D01*
X50022409Y-72880273D01*
X50025399Y-72877681D01*
X50028235Y-72873175D01*
X50031621Y-72869050D01*
X50033138Y-72865386D01*
X50041064Y-72852796D01*
X50112492Y-72709938D01*
X50123002Y-72682475D01*
X50123383Y-72677099D01*
X50125446Y-72672121D01*
X50128328Y-72642857D01*
X50128328Y-72357143D01*
X50125446Y-72327879D01*
X50123383Y-72322900D01*
X50123002Y-72317525D01*
X50112492Y-72290062D01*
X50041064Y-72147204D01*
X50033137Y-72134612D01*
X50031621Y-72130951D01*
X50028237Y-72126828D01*
X50025399Y-72122319D01*
X50022407Y-72119724D01*
X50012966Y-72108220D01*
X49870108Y-71965362D01*
X49847377Y-71946707D01*
X49837073Y-71942439D01*
X49828113Y-71935800D01*
X49800422Y-71925907D01*
X49514708Y-71854479D01*
X49509636Y-71853729D01*
X49507592Y-71852882D01*
X49496569Y-71851796D01*
X49485619Y-71850177D01*
X49483431Y-71850502D01*
X49478328Y-71850000D01*
X48978328Y-71850000D01*
X48973224Y-71850502D01*
X48971037Y-71850177D01*
X48960086Y-71851796D01*
X48949064Y-71852882D01*
X48947019Y-71853729D01*
X48941948Y-71854479D01*
X48656234Y-71925907D01*
X48628543Y-71935800D01*
X48619583Y-71942438D01*
X48609278Y-71946707D01*
X48586548Y-71965362D01*
X48443691Y-72108220D01*
X48434251Y-72119721D01*
X48431258Y-72122318D01*
X48428417Y-72126831D01*
X48425036Y-72130951D01*
X48423520Y-72134610D01*
X48415593Y-72147204D01*
X48344164Y-72290061D01*
X48333655Y-72317524D01*
X48333273Y-72322898D01*
X48331210Y-72327879D01*
X48328328Y-72357143D01*
X45746745Y-72357143D01*
X45746745Y-70571428D01*
X45913412Y-70571428D01*
X45913412Y-71142857D01*
X45916294Y-71172121D01*
X45918357Y-71177101D01*
X45918739Y-71182476D01*
X45929248Y-71209939D01*
X46000677Y-71352796D01*
X46008605Y-71365391D01*
X46010120Y-71369048D01*
X46013499Y-71373165D01*
X46016342Y-71377682D01*
X46019336Y-71380279D01*
X46028774Y-71391779D01*
X46100202Y-71463208D01*
X46111707Y-71472650D01*
X46114302Y-71475642D01*
X46118812Y-71478481D01*
X46122933Y-71481863D01*
X46126592Y-71483378D01*
X46139187Y-71491307D01*
X46282045Y-71562735D01*
X46309508Y-71573245D01*
X46314883Y-71573626D01*
X46319862Y-71575689D01*
X46349126Y-71578571D01*
X46563412Y-71578571D01*
X46592676Y-71575689D01*
X46597654Y-71573626D01*
X46603030Y-71573245D01*
X46630494Y-71562735D01*
X46773351Y-71491307D01*
X46785944Y-71483379D01*
X46789604Y-71481864D01*
X46793723Y-71478482D01*
X46798237Y-71475642D01*
X46800833Y-71472648D01*
X46812335Y-71463209D01*
X46883764Y-71391780D01*
X46893205Y-71380275D01*
X46896197Y-71377681D01*
X46899035Y-71373171D01*
X46902419Y-71369049D01*
X46903935Y-71365387D01*
X46911862Y-71352796D01*
X46983290Y-71209938D01*
X46984604Y-71206503D01*
X47477393Y-71551456D01*
X47503019Y-71565877D01*
X47560161Y-71578536D01*
X47617797Y-71568365D01*
X47667154Y-71536912D01*
X47700718Y-71488964D01*
X47713377Y-71431822D01*
X47703206Y-71374186D01*
X47671753Y-71324829D01*
X47649431Y-71305686D01*
X46999126Y-70850472D01*
X46999126Y-70827878D01*
X48331210Y-70827878D01*
X48331210Y-70886406D01*
X48353608Y-70940478D01*
X48394992Y-70981862D01*
X48449064Y-71004260D01*
X48478328Y-71007142D01*
X49828328Y-71007142D01*
X49828328Y-71571428D01*
X49831210Y-71600692D01*
X49853608Y-71654764D01*
X49894992Y-71696148D01*
X49949064Y-71718546D01*
X50007592Y-71718546D01*
X50061664Y-71696148D01*
X50103048Y-71654764D01*
X50125446Y-71600692D01*
X50128328Y-71571428D01*
X50128328Y-71285713D01*
X50743244Y-71285713D01*
X50743244Y-71999999D01*
X50746126Y-72029263D01*
X50768524Y-72083335D01*
X50809908Y-72124719D01*
X50863980Y-72147117D01*
X50922508Y-72147117D01*
X50976580Y-72124719D01*
X51017964Y-72083335D01*
X51040362Y-72029263D01*
X51043244Y-71999999D01*
X51043244Y-71421461D01*
X51319653Y-71393820D01*
X51319617Y-71394328D01*
X51317555Y-71399307D01*
X51314673Y-71428571D01*
X51314673Y-71785713D01*
X51317555Y-71814977D01*
X51319617Y-71819955D01*
X51319999Y-71825331D01*
X51330509Y-71852794D01*
X51401937Y-71995653D01*
X51409865Y-72008247D01*
X51411381Y-72011907D01*
X51414762Y-72016027D01*
X51417602Y-72020538D01*
X51420593Y-72023132D01*
X51430036Y-72034638D01*
X51501465Y-72106066D01*
X51512965Y-72115504D01*
X51515562Y-72118498D01*
X51520074Y-72121338D01*
X51524195Y-72124720D01*
X51527854Y-72126235D01*
X51540448Y-72134163D01*
X51683304Y-72205592D01*
X51710768Y-72216101D01*
X51716142Y-72216482D01*
X51721123Y-72218546D01*
X51750387Y-72221428D01*
X52107530Y-72221428D01*
X52136794Y-72218546D01*
X52141774Y-72216482D01*
X52147149Y-72216101D01*
X52174612Y-72205592D01*
X52317469Y-72134163D01*
X52330064Y-72126234D01*
X52333721Y-72124720D01*
X52337838Y-72121340D01*
X52342355Y-72118498D01*
X52344952Y-72115503D01*
X52356452Y-72106066D01*
X52427881Y-72034638D01*
X52437320Y-72023135D01*
X52440316Y-72020538D01*
X52443157Y-72016023D01*
X52446536Y-72011907D01*
X52448051Y-72008248D01*
X52455980Y-71995652D01*
X52527409Y-71852794D01*
X52537918Y-71825331D01*
X52538299Y-71819955D01*
X52540362Y-71814977D01*
X52543244Y-71785713D01*
X52543244Y-71428571D01*
X52540362Y-71399307D01*
X52538299Y-71394328D01*
X52537918Y-71388953D01*
X52527409Y-71361490D01*
X52455980Y-71218632D01*
X52448051Y-71206035D01*
X52446536Y-71202377D01*
X52443157Y-71198260D01*
X52440316Y-71193746D01*
X52437320Y-71191148D01*
X52427881Y-71179646D01*
X52356452Y-71108218D01*
X52333721Y-71089564D01*
X52279649Y-71067167D01*
X52221123Y-71067167D01*
X52167051Y-71089565D01*
X52125666Y-71130951D01*
X52103269Y-71185023D01*
X52103269Y-71243549D01*
X52125667Y-71297621D01*
X52144322Y-71320352D01*
X52198538Y-71374568D01*
X52243244Y-71463980D01*
X52243244Y-71750303D01*
X52198538Y-71839715D01*
X52161534Y-71876720D01*
X52072120Y-71921428D01*
X51785797Y-71921428D01*
X51696383Y-71876720D01*
X51659379Y-71839717D01*
X51614673Y-71750304D01*
X51614673Y-71463980D01*
X51659379Y-71374566D01*
X51713595Y-71320352D01*
X51732250Y-71297621D01*
X51735140Y-71290642D01*
X51739923Y-71284797D01*
X51746256Y-71263805D01*
X51754647Y-71243549D01*
X51754647Y-71235996D01*
X51756829Y-71228765D01*
X51754647Y-71206948D01*
X51754648Y-71185023D01*
X51751757Y-71178044D01*
X51751006Y-71170528D01*
X51740641Y-71151208D01*
X51732251Y-71130951D01*
X51726908Y-71125608D01*
X51723338Y-71118953D01*
X51706372Y-71105072D01*
X51690866Y-71089565D01*
X51683886Y-71086674D01*
X51678042Y-71081892D01*
X51657047Y-71075557D01*
X51636794Y-71067168D01*
X51629244Y-71067167D01*
X51622010Y-71064985D01*
X51592604Y-71065029D01*
X50878319Y-71136457D01*
X50867654Y-71138595D01*
X50863980Y-71138595D01*
X50860534Y-71140022D01*
X50849487Y-71142237D01*
X50830165Y-71152601D01*
X50809908Y-71160993D01*
X50804567Y-71166333D01*
X50797912Y-71169904D01*
X50784029Y-71186871D01*
X50768524Y-71202377D01*
X50765632Y-71209356D01*
X50760851Y-71215201D01*
X50754517Y-71236189D01*
X50746126Y-71256449D01*
X50745021Y-71267660D01*
X50743944Y-71271233D01*
X50744309Y-71274890D01*
X50743244Y-71285713D01*
X50128328Y-71285713D01*
X50128328Y-70857142D01*
X50125446Y-70827878D01*
X50103048Y-70773806D01*
X50061664Y-70732422D01*
X50007592Y-70710024D01*
X49978328Y-70707142D01*
X48478328Y-70707142D01*
X48449064Y-70710024D01*
X48394992Y-70732422D01*
X48353608Y-70773806D01*
X48331210Y-70827878D01*
X46999126Y-70827878D01*
X46999126Y-70721428D01*
X47563412Y-70721428D01*
X47592676Y-70718546D01*
X47646748Y-70696148D01*
X47688132Y-70654764D01*
X47710530Y-70600692D01*
X47710530Y-70542164D01*
X47688132Y-70488092D01*
X47646748Y-70446708D01*
X47592676Y-70424310D01*
X47563412Y-70421428D01*
X46063412Y-70421428D01*
X46034148Y-70424310D01*
X45980076Y-70446708D01*
X45938692Y-70488092D01*
X45916294Y-70542164D01*
X45913412Y-70571428D01*
X45746745Y-70571428D01*
X45746745Y-69214285D01*
X45913412Y-69214285D01*
X45913412Y-69928571D01*
X45916294Y-69957835D01*
X45938692Y-70011907D01*
X45980076Y-70053291D01*
X46034148Y-70075689D01*
X46092676Y-70075689D01*
X46146748Y-70053291D01*
X46188132Y-70011907D01*
X46210530Y-69957835D01*
X46213412Y-69928571D01*
X46213412Y-69364285D01*
X46627698Y-69364285D01*
X46627698Y-69714285D01*
X46630580Y-69743549D01*
X46652978Y-69797621D01*
X46694362Y-69839005D01*
X46748434Y-69861403D01*
X46806962Y-69861403D01*
X46861034Y-69839005D01*
X46902418Y-69797621D01*
X46924816Y-69743549D01*
X46927698Y-69714285D01*
X46927698Y-69364285D01*
X47413412Y-69364285D01*
X47413412Y-69928571D01*
X47416294Y-69957835D01*
X47438692Y-70011907D01*
X47480076Y-70053291D01*
X47534148Y-70075689D01*
X47592676Y-70075689D01*
X47646748Y-70053291D01*
X47688132Y-70011907D01*
X47710530Y-69957835D01*
X47713412Y-69928571D01*
X47713412Y-69785714D01*
X48328328Y-69785714D01*
X48328328Y-70000000D01*
X48331210Y-70029264D01*
X48333273Y-70034244D01*
X48333655Y-70039619D01*
X48344164Y-70067082D01*
X48415593Y-70209939D01*
X48431258Y-70234825D01*
X48475473Y-70273171D01*
X48530996Y-70291679D01*
X48589376Y-70287530D01*
X48641725Y-70261356D01*
X48680072Y-70217140D01*
X48698579Y-70161618D01*
X48694430Y-70103238D01*
X48683921Y-70075774D01*
X48628328Y-69964589D01*
X48628328Y-69810054D01*
X48680861Y-69652455D01*
X48781468Y-69551848D01*
X48887827Y-69498669D01*
X49139649Y-69435714D01*
X49317007Y-69435714D01*
X49568828Y-69498668D01*
X49675188Y-69551849D01*
X49775794Y-69652454D01*
X49828328Y-69810056D01*
X49828328Y-69904228D01*
X49775794Y-70061830D01*
X49773340Y-70064285D01*
X49485471Y-70064285D01*
X49485471Y-69928571D01*
X49482589Y-69899307D01*
X49460191Y-69845235D01*
X49418807Y-69803851D01*
X49364735Y-69781453D01*
X49306207Y-69781453D01*
X49252135Y-69803851D01*
X49210751Y-69845235D01*
X49188353Y-69899307D01*
X49185471Y-69928571D01*
X49185471Y-70214285D01*
X49188353Y-70243547D01*
X49188353Y-70243549D01*
X49210751Y-70297621D01*
X49252135Y-70339005D01*
X49306207Y-70361403D01*
X49335471Y-70364285D01*
X49835471Y-70364285D01*
X49864735Y-70361403D01*
X49918807Y-70339005D01*
X49918810Y-70339001D01*
X49941536Y-70320352D01*
X50012965Y-70248924D01*
X50031620Y-70226193D01*
X50033681Y-70221216D01*
X50037215Y-70217142D01*
X50049203Y-70190291D01*
X50112633Y-70000000D01*
X50743244Y-70000000D01*
X50743244Y-70357142D01*
X50746126Y-70386406D01*
X50748187Y-70391383D01*
X50748570Y-70396761D01*
X50759080Y-70424224D01*
X50830509Y-70567082D01*
X50838436Y-70579675D01*
X50839952Y-70583335D01*
X50843333Y-70587454D01*
X50846174Y-70591968D01*
X50849167Y-70594564D01*
X50858607Y-70606066D01*
X50930035Y-70677494D01*
X50941537Y-70686934D01*
X50944133Y-70689927D01*
X50948642Y-70692765D01*
X50952765Y-70696149D01*
X50956427Y-70697665D01*
X50969019Y-70705592D01*
X51111875Y-70777021D01*
X51139339Y-70787530D01*
X51144713Y-70787911D01*
X51149694Y-70789975D01*
X51178958Y-70792857D01*
X51321816Y-70792857D01*
X51336627Y-70791398D01*
X51340577Y-70791679D01*
X51345771Y-70790497D01*
X51351080Y-70789975D01*
X51354741Y-70788458D01*
X51369251Y-70785159D01*
X51583535Y-70713730D01*
X51610386Y-70701742D01*
X51614456Y-70698211D01*
X51619436Y-70696149D01*
X51642167Y-70677494D01*
X52243244Y-70076417D01*
X52243244Y-70642857D01*
X52246126Y-70672121D01*
X52268524Y-70726193D01*
X52309908Y-70767577D01*
X52363980Y-70789975D01*
X52422508Y-70789975D01*
X52476580Y-70767577D01*
X52517964Y-70726193D01*
X52540362Y-70672121D01*
X52543244Y-70642857D01*
X52543244Y-69714285D01*
X52540362Y-69685021D01*
X52530409Y-69660993D01*
X52517965Y-69630950D01*
X52476579Y-69589564D01*
X52444905Y-69576444D01*
X52422508Y-69567167D01*
X52363980Y-69567167D01*
X52349309Y-69573244D01*
X52309908Y-69589564D01*
X52287178Y-69608219D01*
X51455073Y-70440323D01*
X51297475Y-70492857D01*
X51214368Y-70492857D01*
X51124955Y-70448150D01*
X51087951Y-70411146D01*
X51043244Y-70321732D01*
X51043244Y-70035410D01*
X51087951Y-69945996D01*
X51142167Y-69891780D01*
X51160822Y-69869050D01*
X51183218Y-69814977D01*
X51183218Y-69756451D01*
X51160822Y-69702379D01*
X51119436Y-69660993D01*
X51065364Y-69638597D01*
X51006838Y-69638597D01*
X50952765Y-69660993D01*
X50930035Y-69679648D01*
X50858607Y-69751076D01*
X50849167Y-69762577D01*
X50846174Y-69765174D01*
X50843333Y-69769687D01*
X50839952Y-69773807D01*
X50838436Y-69777466D01*
X50830509Y-69790060D01*
X50759080Y-69932918D01*
X50748570Y-69960381D01*
X50748187Y-69965758D01*
X50746126Y-69970736D01*
X50743244Y-70000000D01*
X50112633Y-70000000D01*
X50120631Y-69976005D01*
X50123930Y-69961492D01*
X50125446Y-69957835D01*
X50125968Y-69952532D01*
X50127151Y-69947331D01*
X50126869Y-69943376D01*
X50128328Y-69928571D01*
X50128328Y-69785714D01*
X50126869Y-69770908D01*
X50127151Y-69766954D01*
X50125968Y-69761752D01*
X50125446Y-69756450D01*
X50123930Y-69752792D01*
X50120631Y-69738280D01*
X50049203Y-69523994D01*
X50037215Y-69497143D01*
X50033683Y-69493071D01*
X50031621Y-69488092D01*
X50012966Y-69465362D01*
X49904587Y-69356984D01*
X50671816Y-69356984D01*
X50683174Y-69414399D01*
X50715639Y-69463098D01*
X50764269Y-69495664D01*
X50821658Y-69507142D01*
X50879073Y-69495784D01*
X50905021Y-69481950D01*
X52833592Y-68196235D01*
X52856343Y-68177605D01*
X52888909Y-68128975D01*
X52900387Y-68071585D01*
X52889029Y-68014171D01*
X52856564Y-67965472D01*
X52807934Y-67932906D01*
X52750545Y-67921428D01*
X52693130Y-67932786D01*
X52667182Y-67946620D01*
X50738611Y-69232334D01*
X50715860Y-69250965D01*
X50683294Y-69299595D01*
X50671816Y-69356984D01*
X49904587Y-69356984D01*
X49870108Y-69322505D01*
X49858606Y-69313065D01*
X49856010Y-69310072D01*
X49851496Y-69307231D01*
X49847377Y-69303850D01*
X49843717Y-69302334D01*
X49831124Y-69294407D01*
X49688267Y-69222978D01*
X49686126Y-69222158D01*
X49685256Y-69221514D01*
X49672978Y-69217127D01*
X49660804Y-69212469D01*
X49659723Y-69212392D01*
X49657565Y-69211621D01*
X49371851Y-69140193D01*
X49366779Y-69139443D01*
X49364735Y-69138596D01*
X49353712Y-69137510D01*
X49342762Y-69135891D01*
X49340574Y-69136216D01*
X49335471Y-69135714D01*
X49121185Y-69135714D01*
X49116081Y-69136216D01*
X49113894Y-69135891D01*
X49102943Y-69137510D01*
X49091921Y-69138596D01*
X49089876Y-69139443D01*
X49084805Y-69140193D01*
X48799091Y-69211621D01*
X48796932Y-69212392D01*
X48795852Y-69212469D01*
X48783671Y-69217129D01*
X48771400Y-69221514D01*
X48770530Y-69222158D01*
X48768388Y-69222978D01*
X48625532Y-69294407D01*
X48612940Y-69302333D01*
X48609278Y-69303850D01*
X48605155Y-69307233D01*
X48600646Y-69310072D01*
X48598050Y-69313064D01*
X48586548Y-69322505D01*
X48443691Y-69465362D01*
X48425036Y-69488093D01*
X48422973Y-69493072D01*
X48419443Y-69497143D01*
X48407454Y-69523994D01*
X48336026Y-69738280D01*
X48332727Y-69752787D01*
X48331210Y-69756450D01*
X48330687Y-69761758D01*
X48329506Y-69766953D01*
X48329786Y-69770902D01*
X48328328Y-69785714D01*
X47713412Y-69785714D01*
X47713412Y-69214285D01*
X47710530Y-69185021D01*
X47688132Y-69130949D01*
X47646748Y-69089565D01*
X47592676Y-69067167D01*
X47563412Y-69064285D01*
X46063412Y-69064285D01*
X46034148Y-69067167D01*
X45980076Y-69089565D01*
X45938692Y-69130949D01*
X45916294Y-69185021D01*
X45913412Y-69214285D01*
X45746745Y-69214285D01*
X45746745Y-67857143D01*
X45913412Y-67857143D01*
X45913412Y-68714286D01*
X45916294Y-68743550D01*
X45938692Y-68797622D01*
X45980076Y-68839006D01*
X46034148Y-68861404D01*
X46092676Y-68861404D01*
X46146748Y-68839006D01*
X46188132Y-68797622D01*
X46210530Y-68743550D01*
X46213412Y-68714286D01*
X46213412Y-68435714D01*
X47563412Y-68435714D01*
X47592676Y-68432832D01*
X47646748Y-68410434D01*
X47688132Y-68369050D01*
X47710530Y-68314978D01*
X47710530Y-68256450D01*
X47688132Y-68202378D01*
X47646748Y-68160994D01*
X47592676Y-68138596D01*
X47563412Y-68135714D01*
X46213412Y-68135714D01*
X46213412Y-68071428D01*
X48328328Y-68071428D01*
X48328328Y-68357142D01*
X48331210Y-68386406D01*
X48333273Y-68391386D01*
X48333655Y-68396761D01*
X48344164Y-68424224D01*
X48415593Y-68567081D01*
X48423520Y-68579674D01*
X48425036Y-68583334D01*
X48428417Y-68587453D01*
X48431258Y-68591967D01*
X48434251Y-68594563D01*
X48443691Y-68606065D01*
X48586548Y-68748922D01*
X48609278Y-68767577D01*
X48619581Y-68771844D01*
X48628542Y-68778484D01*
X48656233Y-68788377D01*
X48941947Y-68859806D01*
X48947019Y-68860556D01*
X48949064Y-68861403D01*
X48960083Y-68862488D01*
X48971036Y-68864108D01*
X48973224Y-68863782D01*
X48978328Y-68864285D01*
X49478328Y-68864285D01*
X49483431Y-68863782D01*
X49485619Y-68864108D01*
X49496570Y-68862488D01*
X49507592Y-68861403D01*
X49509636Y-68860556D01*
X49514709Y-68859806D01*
X49800422Y-68788377D01*
X49828113Y-68778484D01*
X49837073Y-68771844D01*
X49847377Y-68767577D01*
X49870108Y-68748922D01*
X50012966Y-68606065D01*
X50022409Y-68594558D01*
X50025399Y-68591966D01*
X50028235Y-68587460D01*
X50031621Y-68583335D01*
X50033138Y-68579671D01*
X50041064Y-68567081D01*
X50112492Y-68424223D01*
X50123002Y-68396760D01*
X50123383Y-68391384D01*
X50125446Y-68386406D01*
X50128328Y-68357142D01*
X50128328Y-68071428D01*
X50125446Y-68042164D01*
X50123383Y-68037185D01*
X50123002Y-68031810D01*
X50112492Y-68004347D01*
X50041064Y-67861489D01*
X50033137Y-67848897D01*
X50031621Y-67845236D01*
X50028237Y-67841113D01*
X50025399Y-67836604D01*
X50022407Y-67834009D01*
X50012966Y-67822505D01*
X49870108Y-67679647D01*
X49847377Y-67660992D01*
X49837073Y-67656724D01*
X49828113Y-67650085D01*
X49800422Y-67640192D01*
X49514708Y-67568764D01*
X49509636Y-67568014D01*
X49507592Y-67567167D01*
X49496569Y-67566081D01*
X49485619Y-67564462D01*
X49483431Y-67564787D01*
X49478328Y-67564285D01*
X48978328Y-67564285D01*
X48973224Y-67564787D01*
X48971037Y-67564462D01*
X48960086Y-67566081D01*
X48949064Y-67567167D01*
X48947019Y-67568014D01*
X48941948Y-67568764D01*
X48656234Y-67640192D01*
X48628543Y-67650085D01*
X48619583Y-67656723D01*
X48609278Y-67660992D01*
X48586548Y-67679647D01*
X48443691Y-67822505D01*
X48434251Y-67834006D01*
X48431258Y-67836603D01*
X48428417Y-67841116D01*
X48425036Y-67845236D01*
X48423520Y-67848895D01*
X48415593Y-67861489D01*
X48344164Y-68004346D01*
X48333655Y-68031809D01*
X48333273Y-68037183D01*
X48331210Y-68042164D01*
X48328328Y-68071428D01*
X46213412Y-68071428D01*
X46213412Y-67857143D01*
X46210530Y-67827879D01*
X46188132Y-67773807D01*
X46146748Y-67732423D01*
X46092676Y-67710025D01*
X46034148Y-67710025D01*
X45980076Y-67732423D01*
X45938692Y-67773807D01*
X45916294Y-67827879D01*
X45913412Y-67857143D01*
X45746745Y-67857143D01*
X45746745Y-66571428D01*
X45913412Y-66571428D01*
X45913412Y-67142857D01*
X45916294Y-67172121D01*
X45918357Y-67177101D01*
X45918739Y-67182476D01*
X45929248Y-67209939D01*
X46000677Y-67352796D01*
X46008605Y-67365391D01*
X46010120Y-67369048D01*
X46013499Y-67373165D01*
X46016342Y-67377682D01*
X46019336Y-67380279D01*
X46028774Y-67391779D01*
X46100202Y-67463208D01*
X46111707Y-67472650D01*
X46114302Y-67475642D01*
X46118812Y-67478481D01*
X46122933Y-67481863D01*
X46126592Y-67483378D01*
X46139187Y-67491307D01*
X46282045Y-67562735D01*
X46309508Y-67573245D01*
X46314883Y-67573626D01*
X46319862Y-67575689D01*
X46349126Y-67578571D01*
X46563412Y-67578571D01*
X46592676Y-67575689D01*
X46597654Y-67573626D01*
X46603030Y-67573245D01*
X46630494Y-67562735D01*
X46773351Y-67491307D01*
X46785944Y-67483379D01*
X46789604Y-67481864D01*
X46793723Y-67478482D01*
X46798237Y-67475642D01*
X46800833Y-67472648D01*
X46812335Y-67463209D01*
X46883764Y-67391780D01*
X46893205Y-67380275D01*
X46896197Y-67377681D01*
X46899035Y-67373171D01*
X46902419Y-67369049D01*
X46903935Y-67365387D01*
X46911862Y-67352796D01*
X46983290Y-67209938D01*
X46984604Y-67206503D01*
X47477393Y-67551456D01*
X47503019Y-67565877D01*
X47560161Y-67578536D01*
X47617797Y-67568365D01*
X47667154Y-67536912D01*
X47700718Y-67488964D01*
X47713377Y-67431822D01*
X47703206Y-67374186D01*
X47671753Y-67324829D01*
X47649431Y-67305686D01*
X46999126Y-66850472D01*
X46999126Y-66721428D01*
X47563412Y-66721428D01*
X47592676Y-66718546D01*
X47646748Y-66696148D01*
X47688132Y-66654764D01*
X47710530Y-66600692D01*
X47710530Y-66542164D01*
X47688132Y-66488092D01*
X47646748Y-66446708D01*
X47592676Y-66424310D01*
X47563412Y-66421428D01*
X46063412Y-66421428D01*
X46034148Y-66424310D01*
X45980076Y-66446708D01*
X45938692Y-66488092D01*
X45916294Y-66542164D01*
X45913412Y-66571428D01*
X45746745Y-66571428D01*
X45746745Y-66214285D01*
X48328328Y-66214285D01*
X48328328Y-67214285D01*
X48331210Y-67243549D01*
X48336834Y-67257127D01*
X48339686Y-67271542D01*
X48347924Y-67283899D01*
X48353608Y-67297621D01*
X48363997Y-67308010D01*
X48372151Y-67320241D01*
X48384493Y-67328506D01*
X48394992Y-67339005D01*
X48408568Y-67344628D01*
X48420781Y-67352807D01*
X48435343Y-67355719D01*
X48449064Y-67361403D01*
X48463760Y-67361403D01*
X48478170Y-67364285D01*
X48492739Y-67361403D01*
X48507592Y-67361403D01*
X48521170Y-67355778D01*
X48535585Y-67352927D01*
X48561533Y-67339093D01*
X49828328Y-66494562D01*
X49828328Y-67214285D01*
X49831210Y-67243549D01*
X49853608Y-67297621D01*
X49894992Y-67339005D01*
X49949064Y-67361403D01*
X50007592Y-67361403D01*
X50061664Y-67339005D01*
X50103048Y-67297621D01*
X50125446Y-67243549D01*
X50128328Y-67214285D01*
X50743244Y-67214285D01*
X50743244Y-67500000D01*
X50746126Y-67529264D01*
X50768524Y-67583336D01*
X50809908Y-67624720D01*
X50863980Y-67647118D01*
X50922508Y-67647118D01*
X50976580Y-67624720D01*
X51017964Y-67583336D01*
X51040362Y-67529264D01*
X51043244Y-67500000D01*
X51043244Y-67249695D01*
X51087951Y-67160281D01*
X51131666Y-67116566D01*
X51311973Y-66996361D01*
X51337719Y-66989924D01*
X51330509Y-67004346D01*
X51319999Y-67031810D01*
X51319617Y-67037185D01*
X51317555Y-67042164D01*
X51314673Y-67071428D01*
X51314673Y-67357142D01*
X51317555Y-67386406D01*
X51319617Y-67391384D01*
X51319999Y-67396760D01*
X51330509Y-67424223D01*
X51401937Y-67567082D01*
X51409865Y-67579676D01*
X51411381Y-67583336D01*
X51414762Y-67587456D01*
X51417602Y-67591967D01*
X51420593Y-67594561D01*
X51430036Y-67606067D01*
X51501465Y-67677495D01*
X51512965Y-67686933D01*
X51515562Y-67689927D01*
X51520074Y-67692767D01*
X51524195Y-67696149D01*
X51527854Y-67697664D01*
X51540448Y-67705592D01*
X51683304Y-67777021D01*
X51710768Y-67787530D01*
X51716142Y-67787911D01*
X51721123Y-67789975D01*
X51750387Y-67792857D01*
X52107530Y-67792857D01*
X52136794Y-67789975D01*
X52141774Y-67787911D01*
X52147149Y-67787530D01*
X52174612Y-67777021D01*
X52317469Y-67705592D01*
X52330064Y-67697663D01*
X52333721Y-67696149D01*
X52337838Y-67692769D01*
X52342355Y-67689927D01*
X52344952Y-67686932D01*
X52356452Y-67677495D01*
X52427881Y-67606067D01*
X52437320Y-67594564D01*
X52440316Y-67591967D01*
X52443157Y-67587452D01*
X52446536Y-67583336D01*
X52448051Y-67579677D01*
X52455980Y-67567081D01*
X52527409Y-67424223D01*
X52537918Y-67396760D01*
X52538299Y-67391384D01*
X52540362Y-67386406D01*
X52543244Y-67357142D01*
X52543244Y-67071428D01*
X52540362Y-67042164D01*
X52538299Y-67037185D01*
X52537918Y-67031810D01*
X52527408Y-67004347D01*
X52455980Y-66861489D01*
X52448053Y-66848897D01*
X52446537Y-66845236D01*
X52443153Y-66841113D01*
X52440315Y-66836604D01*
X52437323Y-66834009D01*
X52427882Y-66822505D01*
X52356453Y-66751076D01*
X52344951Y-66741636D01*
X52342355Y-66738643D01*
X52337841Y-66735802D01*
X52333722Y-66732421D01*
X52330062Y-66730905D01*
X52317469Y-66722978D01*
X52174612Y-66651550D01*
X52147148Y-66641040D01*
X52141772Y-66640658D01*
X52136794Y-66638596D01*
X52107530Y-66635714D01*
X51536101Y-66635714D01*
X51530997Y-66636216D01*
X51528810Y-66635891D01*
X51517859Y-66637510D01*
X51506837Y-66638596D01*
X51504792Y-66639443D01*
X51499721Y-66640193D01*
X51214007Y-66711621D01*
X51196766Y-66717780D01*
X51193129Y-66718500D01*
X51189832Y-66720257D01*
X51186316Y-66721514D01*
X51183337Y-66723720D01*
X51167182Y-66732335D01*
X50952896Y-66875193D01*
X50952817Y-66875257D01*
X50952765Y-66875279D01*
X50941306Y-66884683D01*
X50930145Y-66893823D01*
X50930114Y-66893869D01*
X50930035Y-66893934D01*
X50858607Y-66965362D01*
X50849167Y-66976863D01*
X50846174Y-66979460D01*
X50843333Y-66983973D01*
X50839952Y-66988093D01*
X50838436Y-66991752D01*
X50830509Y-67004346D01*
X50759080Y-67147203D01*
X50748571Y-67174666D01*
X50748189Y-67180040D01*
X50746126Y-67185021D01*
X50743244Y-67214285D01*
X50128328Y-67214285D01*
X50128328Y-66214285D01*
X50125446Y-66185021D01*
X50119823Y-66171446D01*
X50116971Y-66157028D01*
X50108730Y-66144667D01*
X50103048Y-66130949D01*
X50092659Y-66120560D01*
X50084505Y-66108329D01*
X50072162Y-66100063D01*
X50061664Y-66089565D01*
X50048087Y-66083941D01*
X50035875Y-66075763D01*
X50021312Y-66072850D01*
X50007592Y-66067167D01*
X49992896Y-66067167D01*
X49978486Y-66064285D01*
X49963916Y-66067167D01*
X49949064Y-66067167D01*
X49935489Y-66072789D01*
X49921071Y-66075642D01*
X49895123Y-66089477D01*
X48628328Y-66934007D01*
X48628328Y-66214285D01*
X48625446Y-66185021D01*
X48603048Y-66130949D01*
X48561664Y-66089565D01*
X48507592Y-66067167D01*
X48449064Y-66067167D01*
X48394992Y-66089565D01*
X48353608Y-66130949D01*
X48331210Y-66185021D01*
X48328328Y-66214285D01*
X45746745Y-66214285D01*
X45746745Y-65214285D01*
X45913412Y-65214285D01*
X45913412Y-65928571D01*
X45916294Y-65957835D01*
X45938692Y-66011907D01*
X45980076Y-66053291D01*
X46034148Y-66075689D01*
X46092676Y-66075689D01*
X46146748Y-66053291D01*
X46188132Y-66011907D01*
X46210530Y-65957835D01*
X46213412Y-65928571D01*
X46213412Y-65364285D01*
X46627698Y-65364285D01*
X46627698Y-65714285D01*
X46630580Y-65743549D01*
X46652978Y-65797621D01*
X46694362Y-65839005D01*
X46748434Y-65861403D01*
X46806962Y-65861403D01*
X46861034Y-65839005D01*
X46902418Y-65797621D01*
X46924816Y-65743549D01*
X46927698Y-65714285D01*
X46927698Y-65364285D01*
X47413412Y-65364285D01*
X47413412Y-65928571D01*
X47416294Y-65957835D01*
X47438692Y-66011907D01*
X47480076Y-66053291D01*
X47534148Y-66075689D01*
X47592676Y-66075689D01*
X47646748Y-66053291D01*
X47688132Y-66011907D01*
X47710530Y-65957835D01*
X47713412Y-65928571D01*
X47713412Y-65338382D01*
X48329506Y-65338382D01*
X48330839Y-65357143D01*
X48329506Y-65375904D01*
X48332895Y-65386071D01*
X48333655Y-65396763D01*
X48342066Y-65413586D01*
X48348014Y-65431428D01*
X48355036Y-65439524D01*
X48359829Y-65449110D01*
X48374037Y-65461433D01*
X48386361Y-65475642D01*
X48395946Y-65480434D01*
X48404043Y-65487457D01*
X48430894Y-65499445D01*
X49930894Y-65999446D01*
X49959568Y-66005966D01*
X50017948Y-66001816D01*
X50070295Y-65975642D01*
X50108642Y-65931428D01*
X50127151Y-65875904D01*
X50123001Y-65817524D01*
X50096828Y-65765176D01*
X50052613Y-65726829D01*
X50025762Y-65714841D01*
X50024097Y-65714286D01*
X50743244Y-65714286D01*
X50743244Y-65857143D01*
X50746126Y-65886407D01*
X50748189Y-65891387D01*
X50748571Y-65896762D01*
X50759080Y-65924225D01*
X50830509Y-66067082D01*
X50838437Y-66079677D01*
X50839952Y-66083334D01*
X50843331Y-66087451D01*
X50846174Y-66091968D01*
X50849168Y-66094565D01*
X50858606Y-66106065D01*
X50930034Y-66177494D01*
X50941539Y-66186936D01*
X50944134Y-66189928D01*
X50948644Y-66192767D01*
X50952765Y-66196149D01*
X50956424Y-66197664D01*
X50969019Y-66205593D01*
X51111877Y-66277021D01*
X51114013Y-66277838D01*
X51114886Y-66278485D01*
X51127165Y-66282871D01*
X51139340Y-66287531D01*
X51140422Y-66287607D01*
X51142578Y-66288378D01*
X51428292Y-66359807D01*
X51433364Y-66360557D01*
X51435409Y-66361404D01*
X51446428Y-66362489D01*
X51457381Y-66364109D01*
X51459569Y-66363783D01*
X51464673Y-66364286D01*
X51821816Y-66364286D01*
X51826919Y-66363783D01*
X51829107Y-66364109D01*
X51840058Y-66362489D01*
X51851080Y-66361404D01*
X51853124Y-66360557D01*
X51858197Y-66359807D01*
X52143910Y-66288378D01*
X52146065Y-66287607D01*
X52147148Y-66287531D01*
X52159336Y-66282866D01*
X52171601Y-66278485D01*
X52172471Y-66277840D01*
X52174612Y-66277021D01*
X52317469Y-66205593D01*
X52330062Y-66197665D01*
X52333722Y-66196150D01*
X52337841Y-66192768D01*
X52342355Y-66189928D01*
X52344951Y-66186934D01*
X52356453Y-66177495D01*
X52427882Y-66106066D01*
X52437323Y-66094561D01*
X52440315Y-66091967D01*
X52443153Y-66087457D01*
X52446537Y-66083335D01*
X52448053Y-66079673D01*
X52455980Y-66067082D01*
X52527408Y-65924224D01*
X52537918Y-65896761D01*
X52538299Y-65891385D01*
X52540362Y-65886407D01*
X52543244Y-65857143D01*
X52543244Y-65714286D01*
X52540362Y-65685022D01*
X52538299Y-65680043D01*
X52537918Y-65674668D01*
X52527408Y-65647205D01*
X52455980Y-65504347D01*
X52448053Y-65491755D01*
X52446537Y-65488094D01*
X52443153Y-65483971D01*
X52440315Y-65479462D01*
X52437323Y-65476867D01*
X52427882Y-65465363D01*
X52356453Y-65393934D01*
X52344951Y-65384494D01*
X52342355Y-65381501D01*
X52337841Y-65378660D01*
X52333722Y-65375279D01*
X52330062Y-65373763D01*
X52317469Y-65365836D01*
X52174612Y-65294407D01*
X52172471Y-65293587D01*
X52171601Y-65292943D01*
X52159323Y-65288556D01*
X52147149Y-65283898D01*
X52146068Y-65283821D01*
X52143910Y-65283050D01*
X51858196Y-65211622D01*
X51853124Y-65210872D01*
X51851080Y-65210025D01*
X51840057Y-65208939D01*
X51829107Y-65207320D01*
X51826919Y-65207645D01*
X51821816Y-65207143D01*
X51464673Y-65207143D01*
X51459569Y-65207645D01*
X51457382Y-65207320D01*
X51446431Y-65208939D01*
X51435409Y-65210025D01*
X51433364Y-65210872D01*
X51428293Y-65211622D01*
X51142578Y-65283050D01*
X51140419Y-65283821D01*
X51139339Y-65283898D01*
X51127158Y-65288558D01*
X51114887Y-65292943D01*
X51114017Y-65293587D01*
X51111875Y-65294407D01*
X50969019Y-65365836D01*
X50956422Y-65373764D01*
X50952765Y-65375280D01*
X50948647Y-65378659D01*
X50944133Y-65381501D01*
X50941535Y-65384495D01*
X50930034Y-65393935D01*
X50858606Y-65465364D01*
X50849168Y-65476863D01*
X50846174Y-65479461D01*
X50843331Y-65483977D01*
X50839952Y-65488095D01*
X50838437Y-65491751D01*
X50830509Y-65504347D01*
X50759080Y-65647204D01*
X50748571Y-65674667D01*
X50748189Y-65680041D01*
X50746126Y-65685022D01*
X50743244Y-65714286D01*
X50024097Y-65714286D01*
X49699757Y-65606172D01*
X49699757Y-65108113D01*
X50025762Y-64999445D01*
X50052613Y-64987457D01*
X50096828Y-64949110D01*
X50107176Y-64928413D01*
X50671816Y-64928413D01*
X50683174Y-64985828D01*
X50715639Y-65034527D01*
X50764269Y-65067093D01*
X50821658Y-65078571D01*
X50879073Y-65067213D01*
X50905021Y-65053379D01*
X52833592Y-63767664D01*
X52856343Y-63749034D01*
X52888909Y-63700404D01*
X52900387Y-63643014D01*
X52889029Y-63585600D01*
X52856564Y-63536901D01*
X52807934Y-63504335D01*
X52750545Y-63492857D01*
X52693130Y-63504215D01*
X52667182Y-63518049D01*
X50738611Y-64803763D01*
X50715860Y-64822394D01*
X50683294Y-64871024D01*
X50671816Y-64928413D01*
X50107176Y-64928413D01*
X50123001Y-64896762D01*
X50127151Y-64838382D01*
X50108642Y-64782858D01*
X50070295Y-64738644D01*
X50017948Y-64712470D01*
X49959568Y-64708320D01*
X49930894Y-64714840D01*
X48430894Y-65214841D01*
X48404043Y-65226829D01*
X48395946Y-65233851D01*
X48386361Y-65238644D01*
X48374037Y-65252852D01*
X48359829Y-65265176D01*
X48355036Y-65274761D01*
X48348014Y-65282858D01*
X48342066Y-65300699D01*
X48333655Y-65317523D01*
X48332895Y-65328214D01*
X48329506Y-65338382D01*
X47713412Y-65338382D01*
X47713412Y-65214285D01*
X47710530Y-65185021D01*
X47688132Y-65130949D01*
X47646748Y-65089565D01*
X47592676Y-65067167D01*
X47563412Y-65064285D01*
X46063412Y-65064285D01*
X46034148Y-65067167D01*
X45980076Y-65089565D01*
X45938692Y-65130949D01*
X45916294Y-65185021D01*
X45913412Y-65214285D01*
X45746745Y-65214285D01*
X45746745Y-63695525D01*
X45914590Y-63695525D01*
X45918739Y-63753906D01*
X45944913Y-63806253D01*
X45989127Y-63844600D01*
X46015978Y-63856588D01*
X47089069Y-64214286D01*
X46015978Y-64571984D01*
X45989127Y-64583972D01*
X45944913Y-64622319D01*
X45918739Y-64674666D01*
X45914590Y-64733047D01*
X45933098Y-64788571D01*
X45971445Y-64832785D01*
X46023792Y-64858959D01*
X46082173Y-64863108D01*
X46110846Y-64856588D01*
X47610846Y-64356588D01*
X47637697Y-64344600D01*
X47645794Y-64337577D01*
X47655379Y-64332785D01*
X47667700Y-64318578D01*
X47681912Y-64306253D01*
X47686705Y-64296665D01*
X47693726Y-64288571D01*
X47699674Y-64270726D01*
X47708085Y-64253905D01*
X47708844Y-64243217D01*
X47712235Y-64233047D01*
X47710901Y-64214286D01*
X47712235Y-64195525D01*
X47708844Y-64185354D01*
X47708085Y-64174667D01*
X47699674Y-64157845D01*
X47693726Y-64140001D01*
X47686705Y-64131906D01*
X47681912Y-64122319D01*
X47667700Y-64109993D01*
X47655379Y-64095787D01*
X47645794Y-64090994D01*
X47637697Y-64083972D01*
X47610846Y-64071984D01*
X46110846Y-63571984D01*
X46108401Y-63571428D01*
X48328328Y-63571428D01*
X48328328Y-64142857D01*
X48331210Y-64172121D01*
X48333273Y-64177101D01*
X48333655Y-64182476D01*
X48344164Y-64209939D01*
X48415593Y-64352796D01*
X48423521Y-64365391D01*
X48425036Y-64369048D01*
X48428415Y-64373165D01*
X48431258Y-64377682D01*
X48434252Y-64380279D01*
X48443690Y-64391779D01*
X48515118Y-64463208D01*
X48526623Y-64472650D01*
X48529218Y-64475642D01*
X48533728Y-64478481D01*
X48537849Y-64481863D01*
X48541508Y-64483378D01*
X48554103Y-64491307D01*
X48696961Y-64562735D01*
X48724424Y-64573245D01*
X48729799Y-64573626D01*
X48734778Y-64575689D01*
X48764042Y-64578571D01*
X48978328Y-64578571D01*
X49007592Y-64575689D01*
X49012570Y-64573626D01*
X49017946Y-64573245D01*
X49045410Y-64562735D01*
X49188267Y-64491307D01*
X49200860Y-64483379D01*
X49204520Y-64481864D01*
X49208639Y-64478482D01*
X49213153Y-64475642D01*
X49215749Y-64472648D01*
X49227251Y-64463209D01*
X49298680Y-64391780D01*
X49308121Y-64380275D01*
X49311113Y-64377681D01*
X49313951Y-64373171D01*
X49317335Y-64369049D01*
X49318851Y-64365387D01*
X49326778Y-64352796D01*
X49398206Y-64209938D01*
X49408716Y-64182475D01*
X49409097Y-64177099D01*
X49411160Y-64172121D01*
X49414042Y-64142857D01*
X49414042Y-63721428D01*
X49978328Y-63721428D01*
X50007592Y-63718546D01*
X50061664Y-63696148D01*
X50103048Y-63654764D01*
X50125446Y-63600692D01*
X50125446Y-63542164D01*
X50103048Y-63488092D01*
X50061664Y-63446708D01*
X50007592Y-63424310D01*
X49978328Y-63421428D01*
X48478328Y-63421428D01*
X48449064Y-63424310D01*
X48394992Y-63446708D01*
X48353608Y-63488092D01*
X48331210Y-63542164D01*
X48328328Y-63571428D01*
X46108401Y-63571428D01*
X46082173Y-63565464D01*
X46023792Y-63569613D01*
X45971445Y-63595787D01*
X45933098Y-63640001D01*
X45914590Y-63695525D01*
X45746745Y-63695525D01*
X45746745Y-62367619D01*
X45913778Y-62367619D01*
X45916294Y-62376843D01*
X45916294Y-62386406D01*
X45923929Y-62404838D01*
X45929178Y-62424083D01*
X45935032Y-62431642D01*
X45938692Y-62440478D01*
X45952799Y-62454585D01*
X45965013Y-62470357D01*
X45977276Y-62479062D01*
X45980076Y-62481862D01*
X45982823Y-62483000D01*
X45988991Y-62487378D01*
X46998577Y-63064285D01*
X46063412Y-63064285D01*
X46034148Y-63067167D01*
X45980076Y-63089565D01*
X45938692Y-63130949D01*
X45916294Y-63185021D01*
X45916294Y-63243549D01*
X45938692Y-63297621D01*
X45980076Y-63339005D01*
X46034148Y-63361403D01*
X46063412Y-63364285D01*
X47563412Y-63364285D01*
X47570938Y-63363543D01*
X47573890Y-63363919D01*
X47577711Y-63362876D01*
X47592676Y-63361403D01*
X47611108Y-63353767D01*
X47630353Y-63348519D01*
X47637912Y-63342664D01*
X47646748Y-63339005D01*
X47660855Y-63324897D01*
X47676627Y-63312684D01*
X47681371Y-63304381D01*
X47688132Y-63297621D01*
X47695766Y-63279190D01*
X47705665Y-63261868D01*
X47706870Y-63252382D01*
X47710530Y-63243549D01*
X47710530Y-63223599D01*
X47713046Y-63203808D01*
X47710530Y-63194582D01*
X47710530Y-63185021D01*
X47702896Y-63166592D01*
X47697647Y-63147344D01*
X47691790Y-63139782D01*
X47688132Y-63130949D01*
X47674026Y-63116843D01*
X47661811Y-63101070D01*
X47649547Y-63092364D01*
X47646748Y-63089565D01*
X47644000Y-63088426D01*
X47637833Y-63084049D01*
X46707916Y-62552668D01*
X48329506Y-62552668D01*
X48330839Y-62571429D01*
X48329506Y-62590190D01*
X48332895Y-62600357D01*
X48333655Y-62611049D01*
X48342066Y-62627872D01*
X48348014Y-62645714D01*
X48355036Y-62653810D01*
X48359829Y-62663396D01*
X48374037Y-62675719D01*
X48386361Y-62689928D01*
X48395946Y-62694720D01*
X48404043Y-62701743D01*
X48430894Y-62713731D01*
X49930894Y-63213732D01*
X49959568Y-63220252D01*
X50017948Y-63216102D01*
X50070295Y-63189928D01*
X50108642Y-63145714D01*
X50127151Y-63090190D01*
X50123001Y-63031810D01*
X50096828Y-62979462D01*
X50052613Y-62941115D01*
X50025762Y-62929127D01*
X49699757Y-62820458D01*
X49699757Y-62714286D01*
X50743244Y-62714286D01*
X50743244Y-62857143D01*
X50746126Y-62886407D01*
X50748189Y-62891387D01*
X50748571Y-62896762D01*
X50759080Y-62924225D01*
X50830509Y-63067082D01*
X50838437Y-63079677D01*
X50839952Y-63083334D01*
X50843331Y-63087451D01*
X50846174Y-63091968D01*
X50849168Y-63094565D01*
X50858606Y-63106065D01*
X50930034Y-63177494D01*
X50941539Y-63186936D01*
X50944134Y-63189928D01*
X50948644Y-63192767D01*
X50952765Y-63196149D01*
X50956424Y-63197664D01*
X50969019Y-63205593D01*
X51111877Y-63277021D01*
X51114013Y-63277838D01*
X51114886Y-63278485D01*
X51127165Y-63282871D01*
X51139340Y-63287531D01*
X51140422Y-63287607D01*
X51142578Y-63288378D01*
X51428292Y-63359807D01*
X51433364Y-63360557D01*
X51435409Y-63361404D01*
X51446428Y-63362489D01*
X51457381Y-63364109D01*
X51459569Y-63363783D01*
X51464673Y-63364286D01*
X51821816Y-63364286D01*
X51826919Y-63363783D01*
X51829107Y-63364109D01*
X51840058Y-63362489D01*
X51851080Y-63361404D01*
X51853124Y-63360557D01*
X51858197Y-63359807D01*
X52143910Y-63288378D01*
X52146065Y-63287607D01*
X52147148Y-63287531D01*
X52159336Y-63282866D01*
X52171601Y-63278485D01*
X52172471Y-63277840D01*
X52174612Y-63277021D01*
X52317469Y-63205593D01*
X52330062Y-63197665D01*
X52333722Y-63196150D01*
X52337841Y-63192768D01*
X52342355Y-63189928D01*
X52344951Y-63186934D01*
X52356453Y-63177495D01*
X52427882Y-63106066D01*
X52437323Y-63094561D01*
X52440315Y-63091967D01*
X52443153Y-63087457D01*
X52446537Y-63083335D01*
X52448053Y-63079673D01*
X52455980Y-63067082D01*
X52527408Y-62924224D01*
X52537918Y-62896761D01*
X52538299Y-62891385D01*
X52540362Y-62886407D01*
X52543244Y-62857143D01*
X52543244Y-62714286D01*
X52540362Y-62685022D01*
X52538299Y-62680043D01*
X52537918Y-62674668D01*
X52527408Y-62647205D01*
X52455980Y-62504347D01*
X52448053Y-62491755D01*
X52446537Y-62488094D01*
X52443153Y-62483971D01*
X52440315Y-62479462D01*
X52437323Y-62476867D01*
X52427882Y-62465363D01*
X52356453Y-62393934D01*
X52344951Y-62384494D01*
X52342355Y-62381501D01*
X52337841Y-62378660D01*
X52333722Y-62375279D01*
X52330062Y-62373763D01*
X52317469Y-62365836D01*
X52174612Y-62294407D01*
X52172471Y-62293587D01*
X52171601Y-62292943D01*
X52159323Y-62288556D01*
X52147149Y-62283898D01*
X52146068Y-62283821D01*
X52143910Y-62283050D01*
X51858196Y-62211622D01*
X51853124Y-62210872D01*
X51851080Y-62210025D01*
X51840057Y-62208939D01*
X51829107Y-62207320D01*
X51826919Y-62207645D01*
X51821816Y-62207143D01*
X51464673Y-62207143D01*
X51459569Y-62207645D01*
X51457382Y-62207320D01*
X51446431Y-62208939D01*
X51435409Y-62210025D01*
X51433364Y-62210872D01*
X51428293Y-62211622D01*
X51142578Y-62283050D01*
X51140419Y-62283821D01*
X51139339Y-62283898D01*
X51127158Y-62288558D01*
X51114887Y-62292943D01*
X51114017Y-62293587D01*
X51111875Y-62294407D01*
X50969019Y-62365836D01*
X50956422Y-62373764D01*
X50952765Y-62375280D01*
X50948647Y-62378659D01*
X50944133Y-62381501D01*
X50941535Y-62384495D01*
X50930034Y-62393935D01*
X50858606Y-62465364D01*
X50849168Y-62476863D01*
X50846174Y-62479461D01*
X50843331Y-62483977D01*
X50839952Y-62488095D01*
X50838437Y-62491751D01*
X50830509Y-62504347D01*
X50759080Y-62647204D01*
X50748571Y-62674667D01*
X50748189Y-62680041D01*
X50746126Y-62685022D01*
X50743244Y-62714286D01*
X49699757Y-62714286D01*
X49699757Y-62322399D01*
X50025762Y-62213731D01*
X50052613Y-62201743D01*
X50096828Y-62163396D01*
X50123001Y-62111048D01*
X50127151Y-62052668D01*
X50108642Y-61997144D01*
X50070295Y-61952930D01*
X50017948Y-61926756D01*
X49959568Y-61922606D01*
X49930894Y-61929126D01*
X48430894Y-62429127D01*
X48404043Y-62441115D01*
X48395946Y-62448137D01*
X48386361Y-62452930D01*
X48374037Y-62467138D01*
X48359829Y-62479462D01*
X48355036Y-62489047D01*
X48348014Y-62497144D01*
X48342066Y-62514985D01*
X48333655Y-62531809D01*
X48332895Y-62542500D01*
X48329506Y-62552668D01*
X46707916Y-62552668D01*
X46628246Y-62507142D01*
X47563412Y-62507142D01*
X47592676Y-62504260D01*
X47646748Y-62481862D01*
X47688132Y-62440478D01*
X47710530Y-62386406D01*
X47710530Y-62327878D01*
X47688132Y-62273806D01*
X47646748Y-62232422D01*
X47592676Y-62210024D01*
X47563412Y-62207142D01*
X46063412Y-62207142D01*
X46055886Y-62207883D01*
X46052935Y-62207508D01*
X46049114Y-62208550D01*
X46034148Y-62210024D01*
X46015715Y-62217659D01*
X45996471Y-62222908D01*
X45988911Y-62228762D01*
X45980076Y-62232422D01*
X45965968Y-62246529D01*
X45950197Y-62258743D01*
X45945452Y-62267045D01*
X45938692Y-62273806D01*
X45931057Y-62292236D01*
X45921159Y-62309559D01*
X45919953Y-62319044D01*
X45916294Y-62327878D01*
X45916294Y-62347827D01*
X45913778Y-62367619D01*
X45746745Y-62367619D01*
X45746745Y-61613592D01*
X45916294Y-61613592D01*
X45916294Y-61672120D01*
X45938692Y-61726192D01*
X45980076Y-61767576D01*
X46034148Y-61789974D01*
X46063412Y-61792856D01*
X47563412Y-61792856D01*
X47592676Y-61789974D01*
X47646748Y-61767576D01*
X47688132Y-61726192D01*
X47710530Y-61672120D01*
X47710530Y-61613592D01*
X47688132Y-61559520D01*
X47646748Y-61518136D01*
X47592676Y-61495738D01*
X47563412Y-61492856D01*
X46063412Y-61492856D01*
X46034148Y-61495738D01*
X45980076Y-61518136D01*
X45938692Y-61559520D01*
X45916294Y-61613592D01*
X45746745Y-61613592D01*
X45746745Y-60785714D01*
X48328328Y-60785714D01*
X48328328Y-61357143D01*
X48331210Y-61386407D01*
X48333273Y-61391387D01*
X48333655Y-61396762D01*
X48344164Y-61424225D01*
X48415593Y-61567082D01*
X48423521Y-61579677D01*
X48425036Y-61583334D01*
X48428415Y-61587451D01*
X48431258Y-61591968D01*
X48434252Y-61594565D01*
X48443690Y-61606065D01*
X48515118Y-61677494D01*
X48526623Y-61686936D01*
X48529218Y-61689928D01*
X48533728Y-61692767D01*
X48537849Y-61696149D01*
X48541508Y-61697664D01*
X48554103Y-61705593D01*
X48696961Y-61777021D01*
X48724424Y-61787531D01*
X48729799Y-61787912D01*
X48734778Y-61789975D01*
X48764042Y-61792857D01*
X48978328Y-61792857D01*
X49007592Y-61789975D01*
X49012570Y-61787912D01*
X49017946Y-61787531D01*
X49045410Y-61777021D01*
X49188267Y-61705593D01*
X49200860Y-61697665D01*
X49204520Y-61696150D01*
X49208639Y-61692768D01*
X49213153Y-61689928D01*
X49215749Y-61686934D01*
X49227251Y-61677495D01*
X49298680Y-61606066D01*
X49308121Y-61594561D01*
X49311113Y-61591967D01*
X49313951Y-61587457D01*
X49317335Y-61583335D01*
X49318851Y-61579673D01*
X49326778Y-61567082D01*
X49398206Y-61424224D01*
X49408716Y-61396761D01*
X49409097Y-61391385D01*
X49411160Y-61386407D01*
X49414042Y-61357143D01*
X49414042Y-60935714D01*
X49978328Y-60935714D01*
X50007592Y-60932832D01*
X50061664Y-60910434D01*
X50103048Y-60869050D01*
X50107980Y-60857143D01*
X50743244Y-60857143D01*
X50743244Y-61785715D01*
X50744767Y-61801187D01*
X50744505Y-61805127D01*
X50745423Y-61807841D01*
X50746126Y-61814979D01*
X50755449Y-61837487D01*
X50763256Y-61860569D01*
X50766587Y-61864376D01*
X50768524Y-61869051D01*
X50785753Y-61886280D01*
X50801797Y-61904616D01*
X50806331Y-61906858D01*
X50809908Y-61910435D01*
X50832424Y-61919761D01*
X50854260Y-61930560D01*
X50859304Y-61930896D01*
X50863980Y-61932833D01*
X50888347Y-61932833D01*
X50912656Y-61934454D01*
X50917449Y-61932833D01*
X50922508Y-61932833D01*
X50945016Y-61923509D01*
X50968098Y-61915703D01*
X50973934Y-61911531D01*
X50976580Y-61910435D01*
X50979369Y-61907645D01*
X50992020Y-61898602D01*
X51342801Y-61591667D01*
X51401937Y-61709940D01*
X51409865Y-61722534D01*
X51411381Y-61726194D01*
X51414762Y-61730314D01*
X51417602Y-61734825D01*
X51420593Y-61737419D01*
X51430036Y-61748925D01*
X51501465Y-61820353D01*
X51512965Y-61829791D01*
X51515562Y-61832785D01*
X51520074Y-61835625D01*
X51524195Y-61839007D01*
X51527854Y-61840522D01*
X51540448Y-61848450D01*
X51683304Y-61919879D01*
X51710768Y-61930388D01*
X51716142Y-61930769D01*
X51721123Y-61932833D01*
X51750387Y-61935715D01*
X52107530Y-61935715D01*
X52136794Y-61932833D01*
X52141774Y-61930769D01*
X52147149Y-61930388D01*
X52174612Y-61919879D01*
X52317469Y-61848450D01*
X52330064Y-61840521D01*
X52333721Y-61839007D01*
X52337838Y-61835627D01*
X52342355Y-61832785D01*
X52344952Y-61829790D01*
X52356452Y-61820353D01*
X52427881Y-61748925D01*
X52437320Y-61737422D01*
X52440316Y-61734825D01*
X52443157Y-61730310D01*
X52446536Y-61726194D01*
X52448051Y-61722535D01*
X52455980Y-61709939D01*
X52527409Y-61567081D01*
X52537918Y-61539618D01*
X52538299Y-61534242D01*
X52540362Y-61529264D01*
X52543244Y-61500000D01*
X52543244Y-61071429D01*
X52540362Y-61042165D01*
X52538299Y-61037186D01*
X52537918Y-61031811D01*
X52527408Y-61004348D01*
X52455980Y-60861490D01*
X52448053Y-60848898D01*
X52446537Y-60845237D01*
X52443153Y-60841114D01*
X52440315Y-60836605D01*
X52437323Y-60834010D01*
X52427882Y-60822506D01*
X52356453Y-60751077D01*
X52333722Y-60732422D01*
X52279650Y-60710025D01*
X52221124Y-60710025D01*
X52167052Y-60732422D01*
X52125666Y-60773808D01*
X52103269Y-60827880D01*
X52103269Y-60886406D01*
X52125666Y-60940478D01*
X52144321Y-60963209D01*
X52198537Y-61017425D01*
X52243244Y-61106838D01*
X52243244Y-61464590D01*
X52198538Y-61554002D01*
X52161534Y-61591007D01*
X52072120Y-61635715D01*
X51785797Y-61635715D01*
X51696383Y-61591007D01*
X51659379Y-61554004D01*
X51614673Y-61464591D01*
X51614673Y-61285715D01*
X51613148Y-61270237D01*
X51613411Y-61266303D01*
X51612494Y-61263592D01*
X51611791Y-61256451D01*
X51602464Y-61233936D01*
X51594661Y-61210861D01*
X51591329Y-61207053D01*
X51589393Y-61202379D01*
X51572163Y-61185149D01*
X51556120Y-61166814D01*
X51551585Y-61164571D01*
X51548009Y-61160995D01*
X51525492Y-61151668D01*
X51503657Y-61140870D01*
X51498612Y-61140533D01*
X51493937Y-61138597D01*
X51469561Y-61138597D01*
X51445261Y-61136977D01*
X51440471Y-61138597D01*
X51435409Y-61138597D01*
X51412897Y-61147921D01*
X51389818Y-61155727D01*
X51383981Y-61159899D01*
X51381337Y-61160995D01*
X51378546Y-61163785D01*
X51365897Y-61172829D01*
X51043244Y-61455149D01*
X51043244Y-60857143D01*
X51040362Y-60827879D01*
X51017964Y-60773807D01*
X50976580Y-60732423D01*
X50922508Y-60710025D01*
X50863980Y-60710025D01*
X50809908Y-60732423D01*
X50768524Y-60773807D01*
X50746126Y-60827879D01*
X50743244Y-60857143D01*
X50107980Y-60857143D01*
X50125446Y-60814978D01*
X50125446Y-60756450D01*
X50103048Y-60702378D01*
X50061664Y-60660994D01*
X50007592Y-60638596D01*
X49978328Y-60635714D01*
X48478328Y-60635714D01*
X48449064Y-60638596D01*
X48394992Y-60660994D01*
X48353608Y-60702378D01*
X48331210Y-60756450D01*
X48328328Y-60785714D01*
X45746745Y-60785714D01*
X45746745Y-60042164D01*
X49688353Y-60042164D01*
X49688353Y-60100692D01*
X49693698Y-60113595D01*
X49710750Y-60154763D01*
X49729405Y-60177494D01*
X49800834Y-60248923D01*
X49823565Y-60267578D01*
X49877637Y-60289975D01*
X49877638Y-60289975D01*
X49936164Y-60289975D01*
X49958561Y-60280697D01*
X49990235Y-60267578D01*
X49990236Y-60267577D01*
X50012967Y-60248922D01*
X50084395Y-60177493D01*
X50103049Y-60154763D01*
X50120101Y-60113595D01*
X50125446Y-60100692D01*
X50125446Y-60042164D01*
X50112325Y-60010489D01*
X50103049Y-59988092D01*
X50084394Y-59965362D01*
X50012966Y-59893934D01*
X49990235Y-59875279D01*
X49936163Y-59852882D01*
X49877637Y-59852882D01*
X49823565Y-59875279D01*
X49800835Y-59893933D01*
X49729406Y-59965361D01*
X49710751Y-59988092D01*
X49710750Y-59988093D01*
X49697630Y-60019767D01*
X49688353Y-60042164D01*
X45746745Y-60042164D01*
X45746745Y-58510476D01*
X48328694Y-58510476D01*
X48331210Y-58519700D01*
X48331210Y-58529263D01*
X48338845Y-58547695D01*
X48344094Y-58566940D01*
X48349948Y-58574499D01*
X48353608Y-58583335D01*
X48367715Y-58597442D01*
X48379929Y-58613214D01*
X48392192Y-58621919D01*
X48394992Y-58624719D01*
X48397739Y-58625857D01*
X48403907Y-58630235D01*
X49413493Y-59207142D01*
X48478328Y-59207142D01*
X48449064Y-59210024D01*
X48394992Y-59232422D01*
X48353608Y-59273806D01*
X48331210Y-59327878D01*
X48331210Y-59386406D01*
X48353608Y-59440478D01*
X48394992Y-59481862D01*
X48449064Y-59504260D01*
X48478328Y-59507142D01*
X49978328Y-59507142D01*
X49985854Y-59506400D01*
X49988806Y-59506776D01*
X49992627Y-59505733D01*
X50007592Y-59504260D01*
X50026024Y-59496624D01*
X50045269Y-59491376D01*
X50052828Y-59485521D01*
X50061664Y-59481862D01*
X50075771Y-59467754D01*
X50091543Y-59455541D01*
X50096287Y-59447238D01*
X50103048Y-59440478D01*
X50110682Y-59422047D01*
X50120581Y-59404725D01*
X50121786Y-59395239D01*
X50125446Y-59386406D01*
X50125446Y-59366456D01*
X50127962Y-59346665D01*
X50125446Y-59337439D01*
X50125446Y-59327878D01*
X50117812Y-59309449D01*
X50112563Y-59290201D01*
X50106706Y-59282639D01*
X50103048Y-59273806D01*
X50088942Y-59259700D01*
X50076727Y-59243927D01*
X50064463Y-59235221D01*
X50061664Y-59232422D01*
X50058916Y-59231283D01*
X50052749Y-59226906D01*
X49043162Y-58649999D01*
X49978328Y-58649999D01*
X50007592Y-58647117D01*
X50061664Y-58624719D01*
X50103048Y-58583335D01*
X50125446Y-58529263D01*
X50125446Y-58470735D01*
X50103048Y-58416663D01*
X50061664Y-58375279D01*
X50007592Y-58352881D01*
X49978328Y-58349999D01*
X48478328Y-58349999D01*
X48470802Y-58350740D01*
X48467851Y-58350365D01*
X48464030Y-58351407D01*
X48449064Y-58352881D01*
X48430631Y-58360516D01*
X48411387Y-58365765D01*
X48403827Y-58371619D01*
X48394992Y-58375279D01*
X48380884Y-58389386D01*
X48365113Y-58401600D01*
X48360368Y-58409902D01*
X48353608Y-58416663D01*
X48345973Y-58435093D01*
X48336075Y-58452416D01*
X48334869Y-58461901D01*
X48331210Y-58470735D01*
X48331210Y-58490684D01*
X48328694Y-58510476D01*
X45746745Y-58510476D01*
X45746745Y-58183332D01*
X53067054Y-58183332D01*
X53067054Y-74816667D01*
G37*
D11*
X64485714Y-69812319D02*
X64485714Y-70526604D01*
X64485714Y-70526604D02*
X64533333Y-70669461D01*
X64533333Y-70669461D02*
X64628571Y-70764700D01*
X64628571Y-70764700D02*
X64771428Y-70812319D01*
X64771428Y-70812319D02*
X64866666Y-70812319D01*
X64009523Y-70812319D02*
X64009523Y-69812319D01*
X64009523Y-69812319D02*
X63628571Y-69812319D01*
X63628571Y-69812319D02*
X63533333Y-69859938D01*
X63533333Y-69859938D02*
X63485714Y-69907557D01*
X63485714Y-69907557D02*
X63438095Y-70002795D01*
X63438095Y-70002795D02*
X63438095Y-70145652D01*
X63438095Y-70145652D02*
X63485714Y-70240890D01*
X63485714Y-70240890D02*
X63533333Y-70288509D01*
X63533333Y-70288509D02*
X63628571Y-70336128D01*
X63628571Y-70336128D02*
X64009523Y-70336128D01*
X62485714Y-70812319D02*
X63057142Y-70812319D01*
X62771428Y-70812319D02*
X62771428Y-69812319D01*
X62771428Y-69812319D02*
X62866666Y-69955176D01*
X62866666Y-69955176D02*
X62961904Y-70050414D01*
X62961904Y-70050414D02*
X63057142Y-70098033D01*
X61866666Y-69812319D02*
X61771428Y-69812319D01*
X61771428Y-69812319D02*
X61676190Y-69859938D01*
X61676190Y-69859938D02*
X61628571Y-69907557D01*
X61628571Y-69907557D02*
X61580952Y-70002795D01*
X61580952Y-70002795D02*
X61533333Y-70193271D01*
X61533333Y-70193271D02*
X61533333Y-70431366D01*
X61533333Y-70431366D02*
X61580952Y-70621842D01*
X61580952Y-70621842D02*
X61628571Y-70717080D01*
X61628571Y-70717080D02*
X61676190Y-70764700D01*
X61676190Y-70764700D02*
X61771428Y-70812319D01*
X61771428Y-70812319D02*
X61866666Y-70812319D01*
X61866666Y-70812319D02*
X61961904Y-70764700D01*
X61961904Y-70764700D02*
X62009523Y-70717080D01*
X62009523Y-70717080D02*
X62057142Y-70621842D01*
X62057142Y-70621842D02*
X62104761Y-70431366D01*
X62104761Y-70431366D02*
X62104761Y-70193271D01*
X62104761Y-70193271D02*
X62057142Y-70002795D01*
X62057142Y-70002795D02*
X62009523Y-69907557D01*
X62009523Y-69907557D02*
X61961904Y-69859938D01*
X61961904Y-69859938D02*
X61866666Y-69812319D01*
X60580952Y-70812319D02*
X61152380Y-70812319D01*
X60866666Y-70812319D02*
X60866666Y-69812319D01*
X60866666Y-69812319D02*
X60961904Y-69955176D01*
X60961904Y-69955176D02*
X61057142Y-70050414D01*
X61057142Y-70050414D02*
X61152380Y-70098033D01*
D12*
%TO.C,U203*%
X78740000Y-66300000D02*
X78740000Y-64350000D01*
X78740000Y-66300000D02*
X78740000Y-68250000D01*
X83860000Y-66300000D02*
X83860000Y-64350000D01*
X83860000Y-66300000D02*
X83860000Y-68250000D01*
X84095000Y-69240000D02*
X83765000Y-69000000D01*
X84095000Y-68760000D01*
X84095000Y-69240000D01*
G36*
X84095000Y-69240000D02*
G01*
X83765000Y-69000000D01*
X84095000Y-68760000D01*
X84095000Y-69240000D01*
G37*
%TO.C,C602*%
X75915748Y-64890000D02*
X73084252Y-64890000D01*
X75915748Y-70110000D02*
X73084252Y-70110000D01*
%TO.C,C202*%
X80840580Y-70290000D02*
X80559420Y-70290000D01*
X80840580Y-71310000D02*
X80559420Y-71310000D01*
%TO.C,C201*%
X83859420Y-70290000D02*
X84140580Y-70290000D01*
X83859420Y-71310000D02*
X84140580Y-71310000D01*
%TO.C,U202*%
X81300000Y-60115000D02*
X80150000Y-60115000D01*
X81300000Y-60115000D02*
X82450000Y-60115000D01*
X81300000Y-62485000D02*
X80150000Y-62485000D01*
X81300000Y-62485000D02*
X82450000Y-62485000D01*
X79015000Y-62050000D02*
X78685000Y-62290000D01*
X78685000Y-61810000D01*
X79015000Y-62050000D01*
G36*
X79015000Y-62050000D02*
G01*
X78685000Y-62290000D01*
X78685000Y-61810000D01*
X79015000Y-62050000D01*
G37*
%TO.C,C302*%
X80840580Y-85290000D02*
X80559420Y-85290000D01*
X80840580Y-86310000D02*
X80559420Y-86310000D01*
%TO.C,C603*%
X67688748Y-56440000D02*
X69111252Y-56440000D01*
X67688748Y-59160000D02*
X69111252Y-59160000D01*
%TO.C,C301*%
X83759420Y-85290000D02*
X84040580Y-85290000D01*
X83759420Y-86310000D02*
X84040580Y-86310000D01*
%TO.C,U302*%
X81300000Y-75115000D02*
X80150000Y-75115000D01*
X81300000Y-75115000D02*
X82450000Y-75115000D01*
X81300000Y-77485000D02*
X80150000Y-77485000D01*
X81300000Y-77485000D02*
X82450000Y-77485000D01*
X79015000Y-77050000D02*
X78685000Y-77290000D01*
X78685000Y-76810000D01*
X79015000Y-77050000D01*
G36*
X79015000Y-77050000D02*
G01*
X78685000Y-77290000D01*
X78685000Y-76810000D01*
X79015000Y-77050000D01*
G37*
%TO.C,JP101*%
X60650000Y-71857500D02*
X60650000Y-72457500D01*
X61300000Y-73157500D02*
X64100000Y-73157500D01*
X63900000Y-73357500D02*
X63600000Y-73657500D01*
X63900000Y-73357500D02*
X64200000Y-73657500D01*
X64100000Y-71157500D02*
X61300000Y-71157500D01*
X64200000Y-73657500D02*
X63600000Y-73657500D01*
X64750000Y-72457500D02*
X64750000Y-71857500D01*
X60650000Y-71857500D02*
G75*
G02*
X61350000Y-71157500I700000J0D01*
G01*
X61350000Y-73157500D02*
G75*
G02*
X60650000Y-72457500I0J700000D01*
G01*
X64050000Y-71157500D02*
G75*
G02*
X64750000Y-71857500I1J-699999D01*
G01*
X64750000Y-72457500D02*
G75*
G02*
X64050000Y-73157500I-699999J-1D01*
G01*
%TO.C,U303*%
X78740000Y-81300000D02*
X78740000Y-79350000D01*
X78740000Y-81300000D02*
X78740000Y-83250000D01*
X83860000Y-81300000D02*
X83860000Y-79350000D01*
X83860000Y-81300000D02*
X83860000Y-83250000D01*
X84095000Y-84240000D02*
X83765000Y-84000000D01*
X84095000Y-83760000D01*
X84095000Y-84240000D01*
G36*
X84095000Y-84240000D02*
G01*
X83765000Y-84000000D01*
X84095000Y-83760000D01*
X84095000Y-84240000D01*
G37*
%TO.C,C601*%
X75915748Y-57190000D02*
X73084252Y-57190000D01*
X75915748Y-62410000D02*
X73084252Y-62410000D01*
%TO.C,C401*%
X83859420Y-100290000D02*
X84140580Y-100290000D01*
X83859420Y-101310000D02*
X84140580Y-101310000D01*
%TO.C,C604*%
X67688748Y-59740000D02*
X69111252Y-59740000D01*
X67688748Y-62460000D02*
X69111252Y-62460000D01*
%TO.C,C502*%
X67288748Y-66840000D02*
X68711252Y-66840000D01*
X67288748Y-69560000D02*
X68711252Y-69560000D01*
%TO.C,U403*%
X78740000Y-96300000D02*
X78740000Y-94350000D01*
X78740000Y-96300000D02*
X78740000Y-98250000D01*
X83860000Y-96300000D02*
X83860000Y-94350000D01*
X83860000Y-96300000D02*
X83860000Y-98250000D01*
X84095000Y-99240000D02*
X83765000Y-99000000D01*
X84095000Y-98760000D01*
X84095000Y-99240000D01*
G36*
X84095000Y-99240000D02*
G01*
X83765000Y-99000000D01*
X84095000Y-98760000D01*
X84095000Y-99240000D01*
G37*
%TO.C,C303*%
X84390000Y-82715748D02*
X84390000Y-79884252D01*
X89610000Y-82715748D02*
X89610000Y-79884252D01*
%TO.C,C203*%
X84390000Y-67715748D02*
X84390000Y-64884252D01*
X89610000Y-67715748D02*
X89610000Y-64884252D01*
%TO.C,C403*%
X84390000Y-97715748D02*
X84390000Y-94884252D01*
X89610000Y-97715748D02*
X89610000Y-94884252D01*
%TO.C,U402*%
X81300000Y-90115000D02*
X80150000Y-90115000D01*
X81300000Y-90115000D02*
X82450000Y-90115000D01*
X81300000Y-92485000D02*
X80150000Y-92485000D01*
X81300000Y-92485000D02*
X82450000Y-92485000D01*
X79015000Y-92050000D02*
X78685000Y-92290000D01*
X78685000Y-91810000D01*
X79015000Y-92050000D01*
G36*
X79015000Y-92050000D02*
G01*
X78685000Y-92290000D01*
X78685000Y-91810000D01*
X79015000Y-92050000D01*
G37*
%TO.C,C402*%
X80840580Y-100290000D02*
X80559420Y-100290000D01*
X80840580Y-101310000D02*
X80559420Y-101310000D01*
%TD*%
M02*
