M48
; DRILL file {KiCad 9.0.2-9.0.2-0~ubuntu22.04.1} date 2025-07-01T08:49:21+0200
; FORMAT={-:-/ absolute / metric / decimal}
; #@! TF.CreationDate,2025-07-01T08:49:21+02:00
; #@! TF.GenerationSoftware,Kicad,Pcbnew,9.0.2-9.0.2-0~ubuntu22.04.1
; #@! TF.FileFunction,Plated,1,6,PTH
FMAT,2
METRIC
; #@! TA.AperFunction,Plated,PTH,ViaDrill
T1C0.300
; #@! TA.AperFunction,Plated,PTH,ComponentDrill
T2C0.500
; #@! TA.AperFunction,Plated,PTH,ComponentDrill
T3C0.600
; #@! TA.AperFunction,Plated,PTH,ComponentDrill
T4C0.750
; #@! TA.AperFunction,Plated,PTH,ComponentDrill
T5C1.000
; #@! TA.AperFunction,Plated,PTH,ComponentDrill
T6C1.100
; #@! TA.AperFunction,Plated,PTH,ComponentDrill
T7C1.600
; #@! TA.AperFunction,Plated,PTH,ComponentDrill
T8C2.700
; #@! TA.AperFunction,Plated,PTH,ComponentDrill
T9C3.200
%
G90
G05
T1
X45.95Y-97.53
X47.0Y-64.95
X47.0Y-72.95
X47.0Y-80.95
X47.36Y-94.6
X48.4Y-71.0
X49.0Y-62.9
X49.1Y-98.8
X49.1Y-100.1
X49.1Y-101.3
X49.36Y-94.6
X49.59Y-80.96
X49.6Y-59.02
X49.6Y-64.96
X49.6Y-67.02
X49.6Y-72.96
X49.6Y-75.02
X49.8Y-96.26
X50.3Y-79.054
X50.83Y-85.99
X51.0Y-65.8
X51.32Y-80.1
X51.32Y-81.0
X51.38Y-94.6
X51.8Y-75.3
X51.9Y-58.6
X51.9Y-62.2
X52.22Y-80.1
X52.22Y-81.0
X52.6Y-91.4
X52.7Y-66.4
X52.96Y-86.0
X53.1Y-54.59
X53.12Y-80.1
X53.12Y-81.0
X53.675Y-75.625
X53.9Y-86.5
X54.1Y-66.0
X54.6Y-55.3
X54.91Y-95.178
X54.91Y-96.078
X55.0Y-85.4
X55.2Y-61.0
X55.2Y-91.4
X55.4Y-56.4
X55.81Y-95.178
X55.81Y-96.078
X55.9Y-69.8
X55.9Y-72.6
X56.145Y-58.115
X56.2Y-101.6
X56.6Y-85.5
X56.71Y-95.178
X56.71Y-96.078
X56.94Y-58.201
X57.079Y-100.605
X57.2Y-86.3
X57.5Y-62.1
X57.56Y-55.03
X57.7Y-91.4
X57.774Y-81.077
X57.87Y-98.72
X57.952Y-59.2
X58.052Y-86.074
X58.573Y-76.678
X58.98Y-93.97
X59.109Y-78.053
X59.303Y-79.549
X59.4Y-73.9
X59.5Y-64.0
X59.5Y-70.7
X59.655Y-96.455
X59.695Y-78.851
X59.778Y-98.903
X59.8Y-77.65
X59.95Y-52.0
X60.06Y-82.3
X60.09Y-55.02
X60.505Y-96.455
X60.537Y-98.628
X60.66Y-81.512
X60.7Y-75.65
X60.8Y-71.0
X61.133Y-62.15
X61.37Y-58.9
X61.38Y-55.04
X61.941Y-67.159
X62.05Y-52.0
X62.27Y-98.72
X62.6Y-77.6
X62.6Y-78.8
X62.6Y-80.0
X62.6Y-81.2
X62.6Y-82.4
X62.64Y-55.05
X62.64Y-58.9
X62.8Y-74.51
X63.33Y-101.03
X63.7Y-74.1
X63.8Y-77.6
X63.8Y-78.8
X63.8Y-80.0
X63.8Y-81.2
X63.8Y-82.4
X64.25Y-75.833
X64.6Y-68.7
X64.7Y-69.3
X64.7Y-75.1
X65.0Y-77.6
X65.0Y-78.8
X65.0Y-80.0
X65.0Y-81.2
X65.0Y-82.4
X65.4Y-94.8
X66.2Y-77.6
X66.2Y-78.8
X66.2Y-80.0
X66.2Y-81.2
X66.2Y-82.4
X66.253Y-74.909
X66.3Y-59.4
X66.47Y-84.62
X66.525Y-68.2
X66.925Y-57.8
X66.925Y-61.1
X67.041Y-74.769
X67.4Y-77.6
X67.4Y-78.8
X67.4Y-80.0
X67.4Y-81.2
X67.4Y-82.4
X67.452Y-75.523
X67.5Y-59.4
X67.6Y-70.3
X67.7Y-72.9
X67.7Y-85.2
X67.84Y-74.802
X68.657Y-74.816
X68.872Y-87.788
X69.057Y-83.369
X69.06Y-54.49
X69.252Y-98.9
X69.3Y-96.0
X69.31Y-84.129
X69.43Y-75.27
X69.475Y-68.2
X69.55Y-78.075
X69.55Y-78.925
X69.65Y-102.292
X69.74Y-93.6
X69.8Y-73.3
X69.826Y-84.874
X69.875Y-57.8
X69.875Y-61.1
X70.0Y-91.1
X70.03Y-76.2
X70.042Y-85.658
X70.37Y-81.746
X70.676Y-75.576
X71.4Y-85.6
X71.5Y-93.9
X71.526Y-94.774
X71.7Y-87.9
X71.95Y-58.2
X71.95Y-59.0
X71.95Y-59.8
X71.95Y-60.6
X71.95Y-61.4
X71.95Y-65.9
X71.95Y-66.7
X71.95Y-67.5
X71.95Y-68.3
X71.95Y-69.1
X72.197Y-79.629
X72.677Y-85.225
X72.801Y-80.854
X72.801Y-83.6
X73.3Y-80.229
X73.4Y-94.4
X74.2Y-82.6
X74.2Y-102.898
X77.05Y-58.2
X77.05Y-59.0
X77.05Y-59.8
X77.05Y-60.6
X77.05Y-61.4
X77.05Y-65.9
X77.05Y-66.7
X77.05Y-67.5
X77.05Y-68.3
X77.05Y-69.1
X77.1Y-91.9
X77.3Y-79.5
X77.3Y-81.3
X77.5Y-94.699
X77.7Y-86.3
X78.0Y-64.1
X78.125Y-75.582
X78.3Y-83.5
X78.5Y-91.65
X78.7Y-76.8
X78.851Y-61.65
X78.871Y-92.459
X78.9Y-75.1
X79.0Y-90.1
X79.032Y-95.899
X79.143Y-80.96
X79.4Y-89.3
X79.468Y-60.189
X79.5Y-72.0
X79.6Y-59.4
X79.8Y-66.6
X80.234Y-96.186
X80.324Y-81.263
X80.378Y-66.047
X81.016Y-96.357
X81.116Y-66.357
X81.131Y-81.42
X81.4Y-87.9
X81.7Y-72.0
X81.8Y-96.2
X81.826Y-101.764
X81.9Y-66.2
X81.9Y-66.2
X81.9Y-81.2
X81.9Y-81.2
X82.346Y-58.602
X82.346Y-73.602
X82.346Y-88.602
X82.5Y-86.6
X82.551Y-71.57
X82.59Y-101.497
X83.2Y-66.935
X83.2Y-81.935
X83.2Y-96.935
X83.3Y-65.665
X83.3Y-95.665
X83.319Y-80.629
X83.55Y-88.245
X83.6Y-58.2
X83.6Y-73.2
X84.005Y-63.5
X84.6Y-58.8
X84.6Y-73.8
X84.6Y-88.8
X84.609Y-62.35
X84.693Y-63.176
X84.693Y-78.176
X84.693Y-93.176
X84.7Y-92.2
X84.728Y-77.35
X84.745Y-64.2
X84.745Y-79.2
X84.745Y-94.2
X85.15Y-101.95
X85.195Y-63.75
X85.195Y-78.75
X85.195Y-93.75
X85.2Y-72.0
X85.4Y-63.2
X85.4Y-68.85
X85.4Y-78.2
X85.4Y-83.85
X85.4Y-93.2
X85.4Y-98.85
X85.725Y-70.4
X85.771Y-85.4
X85.8Y-100.4
X86.08Y-67.415
X86.08Y-82.415
X86.08Y-97.415
X86.2Y-60.5
X86.2Y-68.85
X86.2Y-75.5
X86.2Y-83.85
X86.2Y-90.5
X86.2Y-98.85
X86.65Y-60.95
X86.65Y-75.95
X86.65Y-90.95
X86.88Y-67.415
X86.88Y-82.415
X86.88Y-97.415
X87.0Y-68.85
X87.0Y-83.85
X87.0Y-98.85
X87.68Y-67.415
X87.68Y-82.415
X87.68Y-97.415
X87.8Y-68.85
X87.8Y-83.85
X87.8Y-98.85
X88.48Y-67.415
X88.48Y-82.415
X88.48Y-97.415
X88.6Y-68.85
X88.6Y-83.85
X88.6Y-87.2
X88.6Y-98.85
X88.7Y-102.3
X88.8Y-72.5
X89.28Y-67.415
X89.28Y-82.415
X89.28Y-97.415
T2
X46.6Y-54.0
X46.6Y-106.0
X47.303Y-52.303
X47.303Y-55.697
X47.303Y-104.303
X47.303Y-107.697
X49.0Y-51.6
X49.0Y-56.4
X49.0Y-103.6
X49.0Y-108.4
X50.697Y-52.303
X50.697Y-55.697
X50.697Y-104.303
X50.697Y-107.697
X51.4Y-54.0
X51.4Y-106.0
X93.6Y-54.0
X93.6Y-106.0
X94.303Y-52.303
X94.303Y-55.697
X94.303Y-104.303
X94.303Y-107.697
X96.0Y-51.6
X96.0Y-56.4
X96.0Y-103.6
X96.0Y-108.4
X97.697Y-52.303
X97.697Y-55.697
X97.697Y-104.303
X97.697Y-107.697
X98.4Y-54.0
X98.4Y-106.0
T4
X48.3Y-84.6
X48.3Y-86.6
X48.3Y-88.6
X48.3Y-90.6
T5
X67.9Y-105.46
X67.9Y-108.0
X69.46Y-63.65
X70.44Y-105.46
X70.44Y-108.0
X72.0Y-63.65
X72.98Y-105.46
X72.98Y-108.0
X74.54Y-63.65
X75.52Y-105.46
X75.52Y-108.0
X78.06Y-105.46
X78.06Y-108.0
X80.6Y-105.46
X80.6Y-108.0
X83.14Y-105.46
X83.14Y-108.0
X85.68Y-105.46
X85.68Y-108.0
X88.22Y-105.46
X88.22Y-108.0
X90.76Y-105.46
X90.76Y-108.0
T6
X75.5Y-72.0
X75.5Y-75.4
X75.7Y-84.9
X75.7Y-88.3
X75.7Y-97.8
X75.7Y-101.2
T7
X95.4Y-74.92
X95.4Y-80.0
X95.4Y-85.08
T8
X72.4Y-54.0
X77.4Y-54.0
X83.7Y-54.0
X88.7Y-54.0
T9
X49.0Y-54.0
X49.0Y-106.0
X96.0Y-54.0
X96.0Y-106.0
T3
G00X55.76Y-102.42
M15
G01X55.76Y-103.52
M16
G05
G00X55.76Y-106.85
M15
G01X55.76Y-107.45
M16
G05
G00X64.4Y-102.42
M15
G01X64.4Y-103.52
M16
G05
G00X64.4Y-106.85
M15
G01X64.4Y-107.45
M16
G05
M30
