%TF.GenerationSoftware,KiCad,Pcbnew,9.0.2-9.0.2-0~ubuntu22.04.1*%
%TF.CreationDate,2025-07-01T08:49:19+02:00*%
%TF.ProjectId,Inverter_MIC4605_SQJQ910EL,496e7665-7274-4657-925f-4d4943343630,rev?*%
%TF.SameCoordinates,Original*%
%TF.FileFunction,Paste,Top*%
%TF.FilePolarity,Positive*%
%FSLAX46Y46*%
G04 Gerber Fmt 4.6, Leading zero omitted, Abs format (unit mm)*
G04 Created by KiCad (PCBNEW 9.0.2-9.0.2-0~ubuntu22.04.1) date 2025-07-01 08:49:19*
%MOMM*%
%LPD*%
G01*
G04 APERTURE LIST*
G04 Aperture macros list*
%AMRoundRect*
0 Rectangle with rounded corners*
0 $1 Rounding radius*
0 $2 $3 $4 $5 $6 $7 $8 $9 X,Y pos of 4 corners*
0 Add a 4 corners polygon primitive as box body*
4,1,4,$2,$3,$4,$5,$6,$7,$8,$9,$2,$3,0*
0 Add four circle primitives for the rounded corners*
1,1,$1+$1,$2,$3*
1,1,$1+$1,$4,$5*
1,1,$1+$1,$6,$7*
1,1,$1+$1,$8,$9*
0 Add four rect primitives between the rounded corners*
20,1,$1+$1,$2,$3,$4,$5,0*
20,1,$1+$1,$4,$5,$6,$7,0*
20,1,$1+$1,$6,$7,$8,$9,0*
20,1,$1+$1,$8,$9,$2,$3,0*%
G04 Aperture macros list end*
%ADD10RoundRect,0.098000X0.098000X0.119000X-0.098000X0.119000X-0.098000X-0.119000X0.098000X-0.119000X0*%
%ADD11RoundRect,0.094500X-0.094500X-0.129500X0.094500X-0.129500X0.094500X0.129500X-0.094500X0.129500X0*%
%ADD12RoundRect,0.094500X0.129500X-0.094500X0.129500X0.094500X-0.129500X0.094500X-0.129500X-0.094500X0*%
%ADD13RoundRect,0.094500X0.094500X0.129500X-0.094500X0.129500X-0.094500X-0.129500X0.094500X-0.129500X0*%
%ADD14RoundRect,0.094500X-0.129500X0.094500X-0.129500X-0.094500X0.129500X-0.094500X0.129500X0.094500X0*%
%ADD15RoundRect,0.088900X0.800100X-0.845600X0.800100X0.845600X-0.800100X0.845600X-0.800100X-0.845600X0*%
%ADD16RoundRect,0.053340X0.391160X-0.213360X0.391160X0.213360X-0.391160X0.213360X-0.391160X-0.213360X0*%
%ADD17RoundRect,0.098000X-0.119000X0.098000X-0.119000X-0.098000X0.119000X-0.098000X0.119000X0.098000X0*%
%ADD18R,0.504000X0.287000*%
%ADD19R,0.357000X0.409500*%
%ADD20R,0.287000X0.329000*%
%ADD21R,2.793000X1.211000*%
%ADD22RoundRect,0.153125X0.179375X-0.153125X0.179375X0.153125X-0.179375X0.153125X-0.179375X-0.153125X0*%
%ADD23R,0.700000X0.437500*%
%ADD24RoundRect,0.088900X-0.800100X0.845600X-0.800100X-0.845600X0.800100X-0.845600X0.800100X0.845600X0*%
%ADD25RoundRect,0.053340X-0.391160X0.213360X-0.391160X-0.213360X0.391160X-0.213360X0.391160X0.213360X0*%
%ADD26RoundRect,0.105000X0.411250X0.105000X-0.411250X0.105000X-0.411250X-0.105000X0.411250X-0.105000X0*%
%ADD27RoundRect,0.175000X-0.332500X0.175000X-0.332500X-0.175000X0.332500X-0.175000X0.332500X0.175000X0*%
%ADD28R,1.191260X2.595880*%
%ADD29RoundRect,0.262500X0.262500X-0.437500X0.262500X0.437500X-0.262500X0.437500X-0.262500X-0.437500X0*%
%ADD30RoundRect,0.350000X0.980000X-0.350000X0.980000X0.350000X-0.980000X0.350000X-0.980000X-0.350000X0*%
%ADD31RoundRect,0.098000X-0.098000X-0.119000X0.098000X-0.119000X0.098000X0.119000X-0.098000X0.119000X0*%
%ADD32R,2.595880X1.191260*%
%ADD33RoundRect,0.153125X-0.153125X-0.179375X0.153125X-0.179375X0.153125X0.179375X-0.153125X0.179375X0*%
%ADD34RoundRect,0.175000X0.175000X0.332500X-0.175000X0.332500X-0.175000X-0.332500X0.175000X-0.332500X0*%
%ADD35R,1.022350X0.355600*%
%ADD36RoundRect,0.105000X-0.105000X0.358750X-0.105000X-0.358750X0.105000X-0.358750X0.105000X0.358750X0*%
%ADD37R,0.350000X0.280000*%
%ADD38R,1.050000X1.050000*%
%ADD39RoundRect,0.157500X-0.157500X-0.175000X0.157500X-0.175000X0.157500X0.175000X-0.157500X0.175000X0*%
%ADD40R,1.680000X0.518000*%
%ADD41RoundRect,0.098000X0.119000X-0.098000X0.119000X0.098000X-0.119000X0.098000X-0.119000X-0.098000X0*%
%ADD42R,1.750000X0.840000*%
%ADD43RoundRect,0.153125X-0.179375X0.153125X-0.179375X-0.153125X0.179375X-0.153125X0.179375X0.153125X0*%
%ADD44R,0.420000X1.015000*%
%ADD45R,0.210000X1.015000*%
%ADD46RoundRect,0.175000X-0.227500X-0.770000X0.227500X-0.770000X0.227500X0.770000X-0.227500X0.770000X0*%
%ADD47RoundRect,0.250000X-0.315000X-0.315000X0.315000X-0.315000X0.315000X0.315000X-0.315000X0.315000X0*%
%ADD48RoundRect,0.043750X-0.262500X-0.043750X0.262500X-0.043750X0.262500X0.043750X-0.262500X0.043750X0*%
%ADD49RoundRect,0.043750X-0.043750X-0.262500X0.043750X-0.262500X0.043750X0.262500X-0.043750X0.262500X0*%
%ADD50RoundRect,0.153125X0.153125X0.179375X-0.153125X0.179375X-0.153125X-0.179375X0.153125X-0.179375X0*%
%ADD51RoundRect,0.105000X0.105000X-0.577500X0.105000X0.577500X-0.105000X0.577500X-0.105000X-0.577500X0*%
%ADD52RoundRect,0.063000X0.252000X-0.462000X0.252000X0.462000X-0.252000X0.462000X-0.252000X-0.462000X0*%
%ADD53R,0.518000X1.680000*%
G04 APERTURE END LIST*
D10*
%TO.C,C305*%
X82080000Y-75400000D03*
X81120000Y-75400000D03*
%TD*%
D11*
%TO.C,R111*%
X53600000Y-54600000D03*
X54620000Y-54600000D03*
%TD*%
D12*
%TO.C,R208*%
X89400000Y-70610000D03*
X89400000Y-69590000D03*
%TD*%
D13*
%TO.C,R105*%
X56020000Y-78000000D03*
X55000000Y-78000000D03*
%TD*%
D14*
%TO.C,R114*%
X57880000Y-99290000D03*
X57880000Y-100310000D03*
%TD*%
D15*
%TO.C,D102*%
X52200000Y-78650000D03*
D16*
X52200000Y-76299000D03*
%TD*%
D17*
%TO.C,C104*%
X67000000Y-84620000D03*
X67000000Y-85580000D03*
%TD*%
D12*
%TO.C,R103*%
X49600000Y-68610000D03*
X49600000Y-67590000D03*
%TD*%
%TO.C,R404*%
X81700000Y-95610000D03*
X81700000Y-94590000D03*
%TD*%
D10*
%TO.C,C102*%
X62180000Y-75300000D03*
X61220000Y-75300000D03*
%TD*%
D17*
%TO.C,C110*%
X49600000Y-71420000D03*
X49600000Y-72380000D03*
%TD*%
D18*
%TO.C,U301*%
X83885000Y-79395000D03*
X83885000Y-80665000D03*
X83885000Y-81935000D03*
X83885000Y-83205000D03*
D19*
X86600000Y-79027500D03*
D20*
X89470000Y-79085000D03*
D21*
X87680000Y-80185000D03*
X87680000Y-82415000D03*
D20*
X89470000Y-83515000D03*
D19*
X86600000Y-83572500D03*
%TD*%
D22*
%TO.C,D302*%
X80400000Y-83775000D03*
X80400000Y-82200000D03*
%TD*%
D12*
%TO.C,R107*%
X49600000Y-78510000D03*
X49600000Y-77490000D03*
%TD*%
D13*
%TO.C,R409*%
X84210000Y-99900000D03*
X83190000Y-99900000D03*
%TD*%
D10*
%TO.C,C405*%
X82080000Y-90400000D03*
X81120000Y-90400000D03*
%TD*%
D14*
%TO.C,R205*%
X82700000Y-64590000D03*
X82700000Y-65610000D03*
%TD*%
D12*
%TO.C,R202*%
X82700000Y-68010000D03*
X82700000Y-66990000D03*
%TD*%
D13*
%TO.C,R303*%
X82110000Y-76400000D03*
X81090000Y-76400000D03*
%TD*%
D14*
%TO.C,R109*%
X51700000Y-64790000D03*
X51700000Y-65810000D03*
%TD*%
D23*
%TO.C,D203*%
X88200000Y-70387500D03*
X88200000Y-71612500D03*
%TD*%
D24*
%TO.C,D106*%
X55800000Y-97749000D03*
D25*
X55800000Y-100100000D03*
%TD*%
D26*
%TO.C,D304*%
X86537500Y-86950000D03*
X86537500Y-85050000D03*
X84662500Y-86000000D03*
%TD*%
D27*
%TO.C,C503*%
X58490000Y-64000000D03*
X58490000Y-65900000D03*
%TD*%
D28*
%TO.C,SW105*%
X67949999Y-52000000D03*
X62050001Y-52000000D03*
%TD*%
D29*
%TO.C,U101*%
X53600000Y-74250000D03*
X55900000Y-74250000D03*
X58200000Y-74250000D03*
D30*
X55900000Y-67950000D03*
%TD*%
D11*
%TO.C,R206*%
X81690000Y-63700000D03*
X82710000Y-63700000D03*
%TD*%
D31*
%TO.C,C139*%
X67540000Y-54500000D03*
X68500000Y-54500000D03*
%TD*%
D32*
%TO.C,SW102*%
X47000000Y-67050001D03*
X47000000Y-72949999D03*
%TD*%
D18*
%TO.C,U401*%
X83885000Y-94395000D03*
X83885000Y-95665000D03*
X83885000Y-96935000D03*
X83885000Y-98205000D03*
D19*
X86600000Y-94027500D03*
D20*
X89470000Y-94085000D03*
D21*
X87680000Y-95185000D03*
X87680000Y-97415000D03*
D20*
X89470000Y-98515000D03*
D19*
X86600000Y-98572500D03*
%TD*%
D33*
%TO.C,D108*%
X67200000Y-98200000D03*
X68775000Y-98200000D03*
%TD*%
D22*
%TO.C,D202*%
X80400000Y-68775000D03*
X80400000Y-67200000D03*
%TD*%
D14*
%TO.C,R410*%
X89400000Y-101490000D03*
X89400000Y-102510000D03*
%TD*%
D13*
%TO.C,R203*%
X82110000Y-61400000D03*
X81090000Y-61400000D03*
%TD*%
D14*
%TO.C,R405*%
X82700000Y-94590000D03*
X82700000Y-95610000D03*
%TD*%
D10*
%TO.C,C304*%
X82080000Y-77400000D03*
X81120000Y-77400000D03*
%TD*%
D34*
%TO.C,C109*%
X56450000Y-76500000D03*
X54550000Y-76500000D03*
%TD*%
D28*
%TO.C,SW104*%
X59949999Y-52000000D03*
X54050001Y-52000000D03*
%TD*%
D35*
%TO.C,U404*%
X89024150Y-92605000D03*
X89024150Y-91335000D03*
X89024150Y-90065000D03*
X89024150Y-88795000D03*
X83575850Y-88795000D03*
X83575850Y-90065000D03*
X83575850Y-91335000D03*
X83575850Y-92605000D03*
%TD*%
D26*
%TO.C,D204*%
X86537500Y-71950000D03*
X86537500Y-70050000D03*
X84662500Y-71000000D03*
%TD*%
D14*
%TO.C,R310*%
X89400000Y-86490000D03*
X89400000Y-87510000D03*
%TD*%
D36*
%TO.C,U103*%
X61030000Y-97562500D03*
X60080000Y-97562500D03*
X59130000Y-97562500D03*
X59130000Y-99837500D03*
X60080000Y-99837500D03*
X61030000Y-99837500D03*
%TD*%
D10*
%TO.C,C142*%
X50800000Y-94600000D03*
X49840000Y-94600000D03*
%TD*%
%TO.C,C140*%
X52380000Y-86000000D03*
X51420000Y-86000000D03*
%TD*%
%TO.C,C306*%
X82080000Y-74400000D03*
X81120000Y-74400000D03*
%TD*%
D37*
%TO.C,U501*%
X65200000Y-72750000D03*
X65200000Y-71750000D03*
X65200000Y-70750000D03*
X65200000Y-69750000D03*
X65200000Y-68750000D03*
D38*
X64700000Y-64000000D03*
X60500000Y-64000000D03*
D37*
X60000000Y-68750000D03*
X60000000Y-69750000D03*
X60000000Y-70750000D03*
X60000000Y-71750000D03*
X60000000Y-72750000D03*
D38*
X62600000Y-71150000D03*
%TD*%
D13*
%TO.C,R309*%
X84210000Y-84900000D03*
X83190000Y-84900000D03*
%TD*%
D10*
%TO.C,C404*%
X82080000Y-92400000D03*
X81120000Y-92400000D03*
%TD*%
D11*
%TO.C,R113*%
X65065000Y-96700000D03*
X66085000Y-96700000D03*
%TD*%
%TO.C,R407*%
X81690000Y-98900000D03*
X82710000Y-98900000D03*
%TD*%
D18*
%TO.C,U201*%
X83885000Y-64395000D03*
X83885000Y-65665000D03*
X83885000Y-66935000D03*
X83885000Y-68205000D03*
D19*
X86600000Y-64027500D03*
D20*
X89470000Y-64085000D03*
D21*
X87680000Y-65185000D03*
X87680000Y-67415000D03*
D20*
X89470000Y-68515000D03*
D19*
X86600000Y-68572500D03*
%TD*%
D13*
%TO.C,R209*%
X84210000Y-69900000D03*
X83190000Y-69900000D03*
%TD*%
D10*
%TO.C,C204*%
X82080000Y-62400000D03*
X81120000Y-62400000D03*
%TD*%
D17*
%TO.C,C128*%
X49600000Y-79420000D03*
X49600000Y-80380000D03*
%TD*%
D12*
%TO.C,R101*%
X49600000Y-60610000D03*
X49600000Y-59590000D03*
%TD*%
D39*
%TO.C,C108*%
X60225000Y-73900000D03*
X61775000Y-73900000D03*
%TD*%
D31*
%TO.C,C504*%
X66120000Y-70300000D03*
X67080000Y-70300000D03*
%TD*%
D40*
%TO.C,J107*%
X47450000Y-96260000D03*
X51350000Y-96260000D03*
X47450000Y-97530000D03*
X51350000Y-97530000D03*
X47450000Y-98800000D03*
X51350000Y-98800000D03*
X47450000Y-100070000D03*
X51350000Y-100070000D03*
X47450000Y-101340000D03*
X51350000Y-101340000D03*
%TD*%
D17*
%TO.C,C107*%
X49600000Y-63420000D03*
X49600000Y-64380000D03*
%TD*%
D32*
%TO.C,SW103*%
X47000000Y-75050001D03*
X47000000Y-80949999D03*
%TD*%
D41*
%TO.C,C407*%
X80200000Y-90380000D03*
X80200000Y-89420000D03*
%TD*%
D22*
%TO.C,D402*%
X80400000Y-98775000D03*
X80400000Y-97200000D03*
%TD*%
D11*
%TO.C,R207*%
X81690000Y-68900000D03*
X82710000Y-68900000D03*
%TD*%
D12*
%TO.C,R304*%
X81700000Y-80610000D03*
X81700000Y-79590000D03*
%TD*%
D10*
%TO.C,C406*%
X82080000Y-89400000D03*
X81120000Y-89400000D03*
%TD*%
D11*
%TO.C,R307*%
X81690000Y-83900000D03*
X82710000Y-83900000D03*
%TD*%
D23*
%TO.C,D303*%
X88200000Y-85387500D03*
X88200000Y-86612500D03*
%TD*%
D33*
%TO.C,D105*%
X55025000Y-63600000D03*
X56600000Y-63600000D03*
%TD*%
D13*
%TO.C,R403*%
X82110000Y-91400000D03*
X81090000Y-91400000D03*
%TD*%
D12*
%TO.C,R308*%
X89400000Y-85610000D03*
X89400000Y-84590000D03*
%TD*%
D23*
%TO.C,D403*%
X88200000Y-100387500D03*
X88200000Y-101612500D03*
%TD*%
D41*
%TO.C,C101*%
X60300000Y-77180000D03*
X60300000Y-76220000D03*
%TD*%
D10*
%TO.C,C206*%
X82080000Y-59400000D03*
X81120000Y-59400000D03*
%TD*%
%TO.C,C141*%
X48900000Y-94600000D03*
X47940000Y-94600000D03*
%TD*%
D13*
%TO.C,R501*%
X67110000Y-71300000D03*
X66090000Y-71300000D03*
%TD*%
D31*
%TO.C,C409*%
X83220000Y-102100000D03*
X84180000Y-102100000D03*
%TD*%
D12*
%TO.C,R104*%
X49600000Y-70510000D03*
X49600000Y-69490000D03*
%TD*%
D41*
%TO.C,C207*%
X80200000Y-60380000D03*
X80200000Y-59420000D03*
%TD*%
D35*
%TO.C,U304*%
X89024150Y-77605000D03*
X89024150Y-76335000D03*
X89024150Y-75065000D03*
X89024150Y-73795000D03*
X83575850Y-73795000D03*
X83575850Y-75065000D03*
X83575850Y-76335000D03*
X83575850Y-77605000D03*
%TD*%
D33*
%TO.C,D104*%
X51925000Y-63600000D03*
X53500000Y-63600000D03*
%TD*%
D14*
%TO.C,R301*%
X81700000Y-81990000D03*
X81700000Y-83010000D03*
%TD*%
D32*
%TO.C,SW101*%
X47000000Y-59050001D03*
X47000000Y-64949999D03*
%TD*%
D42*
%TO.C,SW106*%
X68200000Y-93600000D03*
X68200000Y-91100000D03*
X68200000Y-88600000D03*
X62700000Y-93600000D03*
X62700000Y-91100000D03*
X62700000Y-88600000D03*
%TD*%
D17*
%TO.C,C208*%
X80199000Y-61420000D03*
X80199000Y-62380000D03*
%TD*%
D43*
%TO.C,D301*%
X80400000Y-78825000D03*
X80400000Y-80400000D03*
%TD*%
D31*
%TO.C,C309*%
X83220000Y-87100000D03*
X84180000Y-87100000D03*
%TD*%
D44*
%TO.C,J106*%
X56830000Y-102055000D03*
X57630000Y-102055000D03*
D45*
X58830000Y-102055000D03*
X59830000Y-102055000D03*
X60330000Y-102055000D03*
X61330000Y-102055000D03*
D44*
X62530000Y-102055000D03*
X63330000Y-102055000D03*
X63330000Y-102055000D03*
X62530000Y-102055000D03*
D45*
X61830000Y-102055000D03*
X60830000Y-102055000D03*
X59330000Y-102055000D03*
X58330000Y-102055000D03*
D44*
X57630000Y-102055000D03*
X56830000Y-102055000D03*
%TD*%
D46*
%TO.C,C501*%
X66525000Y-68200000D03*
X69475000Y-68200000D03*
%TD*%
D14*
%TO.C,R401*%
X81700000Y-96990000D03*
X81700000Y-98010000D03*
%TD*%
D17*
%TO.C,C103*%
X69800000Y-73940000D03*
X69800000Y-74900000D03*
%TD*%
D33*
%TO.C,D103*%
X52825000Y-60000000D03*
X54400000Y-60000000D03*
%TD*%
D12*
%TO.C,R106*%
X49600000Y-76610000D03*
X49600000Y-75590000D03*
%TD*%
D14*
%TO.C,R201*%
X81700000Y-66990000D03*
X81700000Y-68010000D03*
%TD*%
D17*
%TO.C,C105*%
X66000000Y-84620000D03*
X66000000Y-85580000D03*
%TD*%
D41*
%TO.C,C106*%
X59300000Y-77180000D03*
X59300000Y-76220000D03*
%TD*%
D13*
%TO.C,R112*%
X66085000Y-98200000D03*
X65065000Y-98200000D03*
%TD*%
D12*
%TO.C,R115*%
X62280000Y-100310000D03*
X62280000Y-99290000D03*
%TD*%
D47*
%TO.C,U102*%
X62900000Y-77900000D03*
X62900000Y-79300000D03*
X62900000Y-80700000D03*
X62900000Y-82100000D03*
X64300000Y-77900000D03*
X64300000Y-79300000D03*
X64300000Y-80700000D03*
X64300000Y-82100000D03*
X65700000Y-77900000D03*
X65700000Y-79300000D03*
X65700000Y-80700000D03*
X65700000Y-82100000D03*
X67100000Y-77900000D03*
X67100000Y-79300000D03*
X67100000Y-80700000D03*
X67100000Y-82100000D03*
D48*
X61562500Y-77250000D03*
X61562500Y-77750000D03*
X61562500Y-78250000D03*
X61562500Y-78750000D03*
X61562500Y-79250000D03*
X61562500Y-79750000D03*
X61562500Y-80250000D03*
X61562500Y-80750000D03*
X61562500Y-81250000D03*
X61562500Y-81750000D03*
X61562500Y-82250000D03*
X61562500Y-82750000D03*
D49*
X62250000Y-83437500D03*
X62750000Y-83437500D03*
X63250000Y-83437500D03*
X63750000Y-83437500D03*
X64250000Y-83437500D03*
X64750000Y-83437500D03*
X65250000Y-83437500D03*
X65750000Y-83437500D03*
X66250000Y-83437500D03*
X66750000Y-83437500D03*
X67250000Y-83437500D03*
X67750000Y-83437500D03*
D48*
X68437500Y-82750000D03*
X68437500Y-82250000D03*
X68437500Y-81750000D03*
X68437500Y-81250000D03*
X68437500Y-80750000D03*
X68437500Y-80250000D03*
X68437500Y-79750000D03*
X68437500Y-79250000D03*
X68437500Y-78750000D03*
X68437500Y-78250000D03*
X68437500Y-77750000D03*
X68437500Y-77250000D03*
D49*
X67750000Y-76562500D03*
X67250000Y-76562500D03*
X66750000Y-76562500D03*
X66250000Y-76562500D03*
X65750000Y-76562500D03*
X65250000Y-76562500D03*
X64750000Y-76562500D03*
X64250000Y-76562500D03*
X63750000Y-76562500D03*
X63250000Y-76562500D03*
X62750000Y-76562500D03*
X62250000Y-76562500D03*
%TD*%
D10*
%TO.C,C119*%
X55960000Y-86000000D03*
X55000000Y-86000000D03*
%TD*%
D33*
%TO.C,D110*%
X52825000Y-56400000D03*
X54400000Y-56400000D03*
%TD*%
D41*
%TO.C,C307*%
X80200000Y-75380000D03*
X80200000Y-74420000D03*
%TD*%
D12*
%TO.C,R204*%
X81700000Y-65610000D03*
X81700000Y-64590000D03*
%TD*%
D50*
%TO.C,D109*%
X68775000Y-96700000D03*
X67200000Y-96700000D03*
%TD*%
D11*
%TO.C,R406*%
X81690000Y-93700000D03*
X82710000Y-93700000D03*
%TD*%
D10*
%TO.C,C205*%
X82080000Y-60400000D03*
X81120000Y-60400000D03*
%TD*%
D43*
%TO.C,D401*%
X80400000Y-93825000D03*
X80400000Y-95400000D03*
%TD*%
D11*
%TO.C,R503*%
X66090000Y-73300000D03*
X67110000Y-73300000D03*
%TD*%
D35*
%TO.C,U204*%
X89024150Y-62605000D03*
X89024150Y-61335000D03*
X89024150Y-60065000D03*
X89024150Y-58795000D03*
X83575850Y-58795000D03*
X83575850Y-60065000D03*
X83575850Y-61335000D03*
X83575850Y-62605000D03*
%TD*%
D11*
%TO.C,R502*%
X66090000Y-72300000D03*
X67110000Y-72300000D03*
%TD*%
D51*
%TO.C,U104*%
X51360000Y-92700000D03*
X52630000Y-92700000D03*
X53900000Y-92700000D03*
X55170000Y-92700000D03*
X56440000Y-92700000D03*
X57710000Y-92700000D03*
X58980000Y-92700000D03*
X60250000Y-92700000D03*
X60250000Y-87750000D03*
X58980000Y-87750000D03*
X57710000Y-87750000D03*
X56440000Y-87750000D03*
X55170000Y-87750000D03*
X53900000Y-87750000D03*
X52630000Y-87750000D03*
X51360000Y-87750000D03*
%TD*%
D14*
%TO.C,R110*%
X54800000Y-64790000D03*
X54800000Y-65810000D03*
%TD*%
D26*
%TO.C,D404*%
X86537500Y-101950000D03*
X86537500Y-100050000D03*
X84662500Y-101000000D03*
%TD*%
D14*
%TO.C,R116*%
X52600000Y-57590000D03*
X52600000Y-58610000D03*
%TD*%
D31*
%TO.C,C209*%
X83220000Y-72100000D03*
X84180000Y-72100000D03*
%TD*%
D43*
%TO.C,D201*%
X80400000Y-63825000D03*
X80400000Y-65400000D03*
%TD*%
D52*
%TO.C,D101*%
X55000000Y-84450000D03*
X58300000Y-84450000D03*
X58300000Y-79550000D03*
X55000000Y-79550000D03*
%TD*%
D12*
%TO.C,R402*%
X82700000Y-98010000D03*
X82700000Y-96990000D03*
%TD*%
D24*
%TO.C,D107*%
X52200000Y-82449000D03*
D25*
X52200000Y-84800000D03*
%TD*%
D14*
%TO.C,R210*%
X89400000Y-71490000D03*
X89400000Y-72510000D03*
%TD*%
%TO.C,R305*%
X82700000Y-79590000D03*
X82700000Y-80610000D03*
%TD*%
%TO.C,R108*%
X52600000Y-61190000D03*
X52600000Y-62210000D03*
%TD*%
D17*
%TO.C,C408*%
X80199000Y-91420000D03*
X80199000Y-92380000D03*
%TD*%
%TO.C,C308*%
X80200000Y-76420000D03*
X80200000Y-77380000D03*
%TD*%
D53*
%TO.C,J104*%
X63910000Y-56550000D03*
X63910000Y-60450000D03*
X62640000Y-56550000D03*
X62640000Y-60450000D03*
X61370000Y-56550000D03*
X61370000Y-60450000D03*
X60100000Y-56550000D03*
X60100000Y-60450000D03*
X58830000Y-56550000D03*
X58830000Y-60450000D03*
X57560000Y-56550000D03*
X57560000Y-60450000D03*
X56290000Y-56550000D03*
X56290000Y-60450000D03*
%TD*%
D12*
%TO.C,R102*%
X49600000Y-62510000D03*
X49600000Y-61490000D03*
%TD*%
%TO.C,R408*%
X89400000Y-100610000D03*
X89400000Y-99590000D03*
%TD*%
D11*
%TO.C,R306*%
X81690000Y-78700000D03*
X82710000Y-78700000D03*
%TD*%
D12*
%TO.C,R302*%
X82700000Y-83010000D03*
X82700000Y-81990000D03*
%TD*%
M02*
