%TF.GenerationSoftware,KiCad,Pcbnew,9.0.2-9.0.2-0~ubuntu22.04.1*%
%TF.CreationDate,2025-07-01T08:49:19+02:00*%
%TF.ProjectId,Inverter_MIC4605_SQJQ910EL,496e7665-7274-4657-925f-4d4943343630,rev?*%
%TF.SameCoordinates,Original*%
%TF.FileFunction,Paste,Bot*%
%TF.FilePolarity,Positive*%
%FSLAX46Y46*%
G04 Gerber Fmt 4.6, Leading zero omitted, Abs format (unit mm)*
G04 Created by KiCad (PCBNEW 9.0.2-9.0.2-0~ubuntu22.04.1) date 2025-07-01 08:49:19*
%MOMM*%
%LPD*%
G01*
G04 APERTURE LIST*
G04 Aperture macros list*
%AMRoundRect*
0 Rectangle with rounded corners*
0 $1 Rounding radius*
0 $2 $3 $4 $5 $6 $7 $8 $9 X,Y pos of 4 corners*
0 Add a 4 corners polygon primitive as box body*
4,1,4,$2,$3,$4,$5,$6,$7,$8,$9,$2,$3,0*
0 Add four circle primitives for the rounded corners*
1,1,$1+$1,$2,$3*
1,1,$1+$1,$4,$5*
1,1,$1+$1,$6,$7*
1,1,$1+$1,$8,$9*
0 Add four rect primitives between the rounded corners*
20,1,$1+$1,$2,$3,$4,$5,0*
20,1,$1+$1,$4,$5,$6,$7,0*
20,1,$1+$1,$6,$7,$8,$9,0*
20,1,$1+$1,$8,$9,$2,$3,0*%
G04 Aperture macros list end*
%ADD10RoundRect,0.105000X0.105000X-0.577500X0.105000X0.577500X-0.105000X0.577500X-0.105000X-0.577500X0*%
%ADD11RoundRect,0.175000X0.455000X1.715000X-0.455000X1.715000X-0.455000X-1.715000X0.455000X-1.715000X0*%
%ADD12RoundRect,0.157500X0.157500X0.175000X-0.157500X0.175000X-0.157500X-0.175000X0.157500X-0.175000X0*%
%ADD13RoundRect,0.157500X-0.157500X-0.175000X0.157500X-0.175000X0.157500X0.175000X-0.157500X0.175000X0*%
%ADD14RoundRect,0.061250X-0.376250X-0.061250X0.376250X-0.061250X0.376250X0.061250X-0.376250X0.061250X0*%
%ADD15RoundRect,0.175000X-0.227500X-0.770000X0.227500X-0.770000X0.227500X0.770000X-0.227500X0.770000X0*%
%ADD16RoundRect,0.175000X1.715000X-0.455000X1.715000X0.455000X-1.715000X0.455000X-1.715000X-0.455000X0*%
G04 APERTURE END LIST*
D10*
%TO.C,U203*%
X83205000Y-68775000D03*
X81935000Y-68775000D03*
X80665000Y-68775000D03*
X79395000Y-68775000D03*
X79395000Y-63825000D03*
X80665000Y-63825000D03*
X81935000Y-63825000D03*
X83205000Y-63825000D03*
%TD*%
D11*
%TO.C,C602*%
X77050000Y-67500000D03*
X71950000Y-67500000D03*
%TD*%
D12*
%TO.C,C202*%
X81475000Y-70800000D03*
X79925000Y-70800000D03*
%TD*%
D13*
%TO.C,C201*%
X83225000Y-70800000D03*
X84775000Y-70800000D03*
%TD*%
D14*
%TO.C,U202*%
X79900000Y-62050000D03*
X79900000Y-61550000D03*
X79900000Y-61050000D03*
X79900000Y-60550000D03*
X82700000Y-60550000D03*
X82700000Y-61050000D03*
X82700000Y-61550000D03*
X82700000Y-62050000D03*
%TD*%
D12*
%TO.C,C302*%
X81475000Y-85800000D03*
X79925000Y-85800000D03*
%TD*%
D15*
%TO.C,C603*%
X66925000Y-57800000D03*
X69875000Y-57800000D03*
%TD*%
D13*
%TO.C,C301*%
X83125000Y-85800000D03*
X84675000Y-85800000D03*
%TD*%
D14*
%TO.C,U302*%
X79900000Y-77050000D03*
X79900000Y-76550000D03*
X79900000Y-76050000D03*
X79900000Y-75550000D03*
X82700000Y-75550000D03*
X82700000Y-76050000D03*
X82700000Y-76550000D03*
X82700000Y-77050000D03*
%TD*%
D10*
%TO.C,U303*%
X83205000Y-83775000D03*
X81935000Y-83775000D03*
X80665000Y-83775000D03*
X79395000Y-83775000D03*
X79395000Y-78825000D03*
X80665000Y-78825000D03*
X81935000Y-78825000D03*
X83205000Y-78825000D03*
%TD*%
D11*
%TO.C,C601*%
X77050000Y-59800000D03*
X71950000Y-59800000D03*
%TD*%
D13*
%TO.C,C401*%
X83225000Y-100800000D03*
X84775000Y-100800000D03*
%TD*%
D15*
%TO.C,C604*%
X66925000Y-61100000D03*
X69875000Y-61100000D03*
%TD*%
%TO.C,C502*%
X66525000Y-68200000D03*
X69475000Y-68200000D03*
%TD*%
D10*
%TO.C,U403*%
X83205000Y-98775000D03*
X81935000Y-98775000D03*
X80665000Y-98775000D03*
X79395000Y-98775000D03*
X79395000Y-93825000D03*
X80665000Y-93825000D03*
X81935000Y-93825000D03*
X83205000Y-93825000D03*
%TD*%
D16*
%TO.C,C303*%
X87000000Y-83850000D03*
X87000000Y-78750000D03*
%TD*%
%TO.C,C203*%
X87000000Y-68850000D03*
X87000000Y-63750000D03*
%TD*%
%TO.C,C403*%
X87000000Y-98850000D03*
X87000000Y-93750000D03*
%TD*%
D14*
%TO.C,U402*%
X79900000Y-92050000D03*
X79900000Y-91550000D03*
X79900000Y-91050000D03*
X79900000Y-90550000D03*
X82700000Y-90550000D03*
X82700000Y-91050000D03*
X82700000Y-91550000D03*
X82700000Y-92050000D03*
%TD*%
D12*
%TO.C,C402*%
X81475000Y-100800000D03*
X79925000Y-100800000D03*
%TD*%
M02*
