%TF.GenerationSoftware,KiCad,Pcbnew,9.0.4-9.0.4-0~ubuntu25.04.1*%
%TF.CreationDate,2025-11-25T08:35:23+01:00*%
%TF.ProjectId,Inverter_MIC4605_SQJQ910EL,496e7665-7274-4657-925f-4d4943343630,rev?*%
%TF.SameCoordinates,Original*%
%TF.FileFunction,Paste,Top*%
%TF.FilePolarity,Positive*%
%FSLAX46Y46*%
G04 Gerber Fmt 4.6, Leading zero omitted, Abs format (unit mm)*
G04 Created by KiCad (PCBNEW 9.0.4-9.0.4-0~ubuntu25.04.1) date 2025-11-25 08:35:23*
%MOMM*%
%LPD*%
G01*
G04 APERTURE LIST*
G04 Aperture macros list*
%AMRoundRect*
0 Rectangle with rounded corners*
0 $1 Rounding radius*
0 $2 $3 $4 $5 $6 $7 $8 $9 X,Y pos of 4 corners*
0 Add a 4 corners polygon primitive as box body*
4,1,4,$2,$3,$4,$5,$6,$7,$8,$9,$2,$3,0*
0 Add four circle primitives for the rounded corners*
1,1,$1+$1,$2,$3*
1,1,$1+$1,$4,$5*
1,1,$1+$1,$6,$7*
1,1,$1+$1,$8,$9*
0 Add four rect primitives between the rounded corners*
20,1,$1+$1,$2,$3,$4,$5,0*
20,1,$1+$1,$4,$5,$6,$7,0*
20,1,$1+$1,$6,$7,$8,$9,0*
20,1,$1+$1,$8,$9,$2,$3,0*%
G04 Aperture macros list end*
%ADD10RoundRect,0.098000X0.098000X0.119000X-0.098000X0.119000X-0.098000X-0.119000X0.098000X-0.119000X0*%
%ADD11RoundRect,0.094500X-0.094500X-0.129500X0.094500X-0.129500X0.094500X0.129500X-0.094500X0.129500X0*%
%ADD12RoundRect,0.094500X0.094500X0.129500X-0.094500X0.129500X-0.094500X-0.129500X0.094500X-0.129500X0*%
%ADD13RoundRect,0.088900X0.800100X-0.845600X0.800100X0.845600X-0.800100X0.845600X-0.800100X-0.845600X0*%
%ADD14RoundRect,0.053340X0.391160X-0.213360X0.391160X0.213360X-0.391160X0.213360X-0.391160X-0.213360X0*%
%ADD15RoundRect,0.157500X-0.157500X-0.175000X0.157500X-0.175000X0.157500X0.175000X-0.157500X0.175000X0*%
%ADD16RoundRect,0.098000X-0.119000X0.098000X-0.119000X-0.098000X0.119000X-0.098000X0.119000X0.098000X0*%
%ADD17RoundRect,0.094500X0.129500X-0.094500X0.129500X0.094500X-0.129500X0.094500X-0.129500X-0.094500X0*%
%ADD18RoundRect,0.061250X-0.376250X-0.061250X0.376250X-0.061250X0.376250X0.061250X-0.376250X0.061250X0*%
%ADD19RoundRect,0.098000X-0.098000X-0.119000X0.098000X-0.119000X0.098000X0.119000X-0.098000X0.119000X0*%
%ADD20R,0.574000X0.805000*%
%ADD21R,0.350000X0.385000*%
%ADD22R,0.595000X0.749000*%
%ADD23R,3.143000X2.135000*%
%ADD24RoundRect,0.175000X-0.227500X-0.770000X0.227500X-0.770000X0.227500X0.770000X-0.227500X0.770000X0*%
%ADD25RoundRect,0.105000X-0.577500X-0.105000X0.577500X-0.105000X0.577500X0.105000X-0.577500X0.105000X0*%
%ADD26RoundRect,0.094500X-0.129500X0.094500X-0.129500X-0.094500X0.129500X-0.094500X0.129500X0.094500X0*%
%ADD27RoundRect,0.088900X-0.800100X0.845600X-0.800100X-0.845600X0.800100X-0.845600X0.800100X0.845600X0*%
%ADD28RoundRect,0.053340X-0.391160X0.213360X-0.391160X-0.213360X0.391160X-0.213360X0.391160X0.213360X0*%
%ADD29RoundRect,0.175000X-0.332500X0.175000X-0.332500X-0.175000X0.332500X-0.175000X0.332500X0.175000X0*%
%ADD30R,1.191260X2.595880*%
%ADD31RoundRect,0.262500X-0.262500X0.437500X-0.262500X-0.437500X0.262500X-0.437500X0.262500X0.437500X0*%
%ADD32RoundRect,0.350000X-0.980000X0.350000X-0.980000X-0.350000X0.980000X-0.350000X0.980000X0.350000X0*%
%ADD33R,2.595880X1.191260*%
%ADD34RoundRect,0.153125X-0.153125X-0.179375X0.153125X-0.179375X0.153125X0.179375X-0.153125X0.179375X0*%
%ADD35RoundRect,0.105000X-0.411250X-0.105000X0.411250X-0.105000X0.411250X0.105000X-0.411250X0.105000X0*%
%ADD36RoundRect,0.175000X0.175000X0.332500X-0.175000X0.332500X-0.175000X-0.332500X0.175000X-0.332500X0*%
%ADD37R,1.022350X0.355600*%
%ADD38RoundRect,0.105000X0.358750X0.105000X-0.358750X0.105000X-0.358750X-0.105000X0.358750X-0.105000X0*%
%ADD39RoundRect,0.175000X0.227500X0.770000X-0.227500X0.770000X-0.227500X-0.770000X0.227500X-0.770000X0*%
%ADD40RoundRect,0.098000X0.119000X-0.098000X0.119000X0.098000X-0.119000X0.098000X-0.119000X-0.098000X0*%
%ADD41RoundRect,0.175000X0.332500X-0.175000X0.332500X0.175000X-0.332500X0.175000X-0.332500X-0.175000X0*%
%ADD42R,0.350000X0.280000*%
%ADD43R,1.050000X1.050000*%
%ADD44R,0.700000X0.437500*%
%ADD45RoundRect,0.157500X0.175000X-0.157500X0.175000X0.157500X-0.175000X0.157500X-0.175000X-0.157500X0*%
%ADD46R,1.680000X0.518000*%
%ADD47R,1.750000X0.840000*%
%ADD48R,1.015000X0.420000*%
%ADD49R,1.015000X0.210000*%
%ADD50RoundRect,0.250000X-0.315000X-0.315000X0.315000X-0.315000X0.315000X0.315000X-0.315000X0.315000X0*%
%ADD51RoundRect,0.043750X-0.262500X-0.043750X0.262500X-0.043750X0.262500X0.043750X-0.262500X0.043750X0*%
%ADD52RoundRect,0.043750X-0.043750X-0.262500X0.043750X-0.262500X0.043750X0.262500X-0.043750X0.262500X0*%
%ADD53RoundRect,0.153125X0.153125X0.179375X-0.153125X0.179375X-0.153125X-0.179375X0.153125X-0.179375X0*%
%ADD54RoundRect,0.105000X0.105000X-0.577500X0.105000X0.577500X-0.105000X0.577500X-0.105000X-0.577500X0*%
%ADD55RoundRect,0.063000X0.252000X-0.462000X0.252000X0.462000X-0.252000X0.462000X-0.252000X-0.462000X0*%
%ADD56R,0.518000X1.680000*%
G04 APERTURE END LIST*
D10*
%TO.C,C404*%
X92080000Y-93700000D03*
X91120000Y-93700000D03*
%TD*%
D11*
%TO.C,R112*%
X53600000Y-54600000D03*
X54620000Y-54600000D03*
%TD*%
D12*
%TO.C,R105*%
X56020000Y-78000000D03*
X55000000Y-78000000D03*
%TD*%
%TO.C,R115*%
X55860000Y-94780000D03*
X54840000Y-94780000D03*
%TD*%
D13*
%TO.C,D101*%
X69300000Y-72898500D03*
D14*
X69300000Y-70547500D03*
%TD*%
D10*
%TO.C,C306*%
X92080000Y-72700000D03*
X91120000Y-72700000D03*
%TD*%
D15*
%TO.C,C202*%
X86350000Y-59500000D03*
X87900000Y-59500000D03*
%TD*%
D16*
%TO.C,C104*%
X67000000Y-84620000D03*
X67000000Y-85580000D03*
%TD*%
D17*
%TO.C,R103*%
X49600000Y-68610000D03*
X49600000Y-67590000D03*
%TD*%
D16*
%TO.C,C408*%
X90100000Y-92720000D03*
X90100000Y-93680000D03*
%TD*%
D18*
%TO.C,U402*%
X82700000Y-102250000D03*
X82700000Y-102750000D03*
X82700000Y-103250000D03*
X82700000Y-103750000D03*
X85500000Y-103750000D03*
X85500000Y-103250000D03*
X85500000Y-102750000D03*
X85500000Y-102250000D03*
%TD*%
D19*
%TO.C,C407*%
X82240000Y-104800000D03*
X83200000Y-104800000D03*
%TD*%
D10*
%TO.C,C102*%
X62180000Y-75300000D03*
X61220000Y-75300000D03*
%TD*%
D16*
%TO.C,C110*%
X49600000Y-71420000D03*
X49600000Y-72380000D03*
%TD*%
D20*
%TO.C,U301*%
X91860000Y-77860000D03*
X91860000Y-79890000D03*
X91860000Y-81920000D03*
X91860000Y-83950000D03*
D21*
X99300000Y-77180000D03*
D22*
X94635000Y-77315000D03*
D23*
X97305000Y-78980000D03*
X97305000Y-82830000D03*
D22*
X94635000Y-84495000D03*
D21*
X99300000Y-84630000D03*
%TD*%
D17*
%TO.C,R107*%
X49600000Y-78510000D03*
X49600000Y-77490000D03*
%TD*%
D12*
%TO.C,R208*%
X92710000Y-67800000D03*
X91690000Y-67800000D03*
%TD*%
D24*
%TO.C,C703*%
X71725000Y-71500000D03*
X74675000Y-71500000D03*
%TD*%
D25*
%TO.C,U403*%
X83925000Y-97095000D03*
X83925000Y-98365000D03*
X83925000Y-99635000D03*
X83925000Y-100905000D03*
X88875000Y-100905000D03*
X88875000Y-99635000D03*
X88875000Y-98365000D03*
X88875000Y-97095000D03*
%TD*%
D17*
%TO.C,R302*%
X90700000Y-82800000D03*
X90700000Y-81780000D03*
%TD*%
D26*
%TO.C,R110*%
X51700000Y-64790000D03*
X51700000Y-65810000D03*
%TD*%
D19*
%TO.C,C309*%
X92720000Y-87800000D03*
X93680000Y-87800000D03*
%TD*%
D27*
%TO.C,D103*%
X60600000Y-98749000D03*
D28*
X60600000Y-101100000D03*
%TD*%
D29*
%TO.C,C503*%
X58490000Y-64000000D03*
X58490000Y-65900000D03*
%TD*%
D30*
%TO.C,SW105*%
X67949999Y-52000000D03*
X62050001Y-52000000D03*
%TD*%
D31*
%TO.C,U101*%
X58200000Y-67950000D03*
X55900000Y-67950000D03*
X53600000Y-67950000D03*
D32*
X55900000Y-74250000D03*
%TD*%
D19*
%TO.C,C139*%
X67540000Y-54500000D03*
X68500000Y-54500000D03*
%TD*%
D11*
%TO.C,R206*%
X80002500Y-62500000D03*
X81022500Y-62500000D03*
%TD*%
D33*
%TO.C,SW102*%
X47000000Y-67050001D03*
X47000000Y-72949999D03*
%TD*%
D20*
%TO.C,U401*%
X91860000Y-95860000D03*
X91860000Y-97890000D03*
X91860000Y-99920000D03*
X91860000Y-101950000D03*
D21*
X99300000Y-95180000D03*
D22*
X94635000Y-95315000D03*
D23*
X97305000Y-96980000D03*
X97305000Y-100830000D03*
D22*
X94635000Y-102495000D03*
D21*
X99300000Y-102630000D03*
%TD*%
D17*
%TO.C,R202*%
X90700000Y-64800000D03*
X90700000Y-63780000D03*
%TD*%
D26*
%TO.C,R205*%
X90700000Y-60880000D03*
X90700000Y-61900000D03*
%TD*%
D34*
%TO.C,D109*%
X70357500Y-94200000D03*
X71932500Y-94200000D03*
%TD*%
%TO.C,D201*%
X79712500Y-61210000D03*
X81287500Y-61210000D03*
%TD*%
D19*
%TO.C,C307*%
X82240000Y-86800000D03*
X83200000Y-86800000D03*
%TD*%
D18*
%TO.C,U202*%
X82700000Y-66250000D03*
X82700000Y-66750000D03*
X82700000Y-67250000D03*
X82700000Y-67750000D03*
X85500000Y-67750000D03*
X85500000Y-67250000D03*
X85500000Y-66750000D03*
X85500000Y-66250000D03*
%TD*%
D12*
%TO.C,R403*%
X92110000Y-92700000D03*
X91090000Y-92700000D03*
%TD*%
D11*
%TO.C,R306*%
X80002500Y-80500000D03*
X81022500Y-80500000D03*
%TD*%
D12*
%TO.C,R308*%
X92710000Y-85800000D03*
X91690000Y-85800000D03*
%TD*%
D19*
%TO.C,C209*%
X92720000Y-69800000D03*
X93680000Y-69800000D03*
%TD*%
D26*
%TO.C,R405*%
X90700000Y-96880000D03*
X90700000Y-97900000D03*
%TD*%
%TO.C,R404*%
X90700000Y-94990000D03*
X90700000Y-96010000D03*
%TD*%
D12*
%TO.C,R203*%
X97410000Y-51500000D03*
X96390000Y-51500000D03*
%TD*%
D11*
%TO.C,R406*%
X80002500Y-98500000D03*
X81022500Y-98500000D03*
%TD*%
D34*
%TO.C,D402*%
X79725000Y-100800000D03*
X81300000Y-100800000D03*
%TD*%
D35*
%TO.C,D404*%
X89362500Y-104000000D03*
X89362500Y-105900000D03*
X91237500Y-104950000D03*
%TD*%
D36*
%TO.C,C109*%
X56450000Y-76500000D03*
X54550000Y-76500000D03*
%TD*%
D30*
%TO.C,SW104*%
X59949999Y-52000000D03*
X54050001Y-52000000D03*
%TD*%
D12*
%TO.C,R303*%
X92110000Y-74700000D03*
X91090000Y-74700000D03*
%TD*%
D18*
%TO.C,U302*%
X82700000Y-84250000D03*
X82700000Y-84750000D03*
X82700000Y-85250000D03*
X82700000Y-85750000D03*
X85500000Y-85750000D03*
X85500000Y-85250000D03*
X85500000Y-84750000D03*
X85500000Y-84250000D03*
%TD*%
D35*
%TO.C,D304*%
X89362500Y-86000000D03*
X89362500Y-87900000D03*
X91237500Y-86950000D03*
%TD*%
D11*
%TO.C,R210*%
X93590000Y-67800000D03*
X94610000Y-67800000D03*
%TD*%
D12*
%TO.C,R408*%
X92710000Y-103800000D03*
X91690000Y-103800000D03*
%TD*%
D37*
%TO.C,U404*%
X99024150Y-93705000D03*
X99024150Y-92435000D03*
X99024150Y-91165000D03*
X99024150Y-89895000D03*
X93575850Y-89895000D03*
X93575850Y-91165000D03*
X93575850Y-92435000D03*
X93575850Y-93705000D03*
%TD*%
D38*
%TO.C,U103*%
X57587500Y-97930000D03*
X57587500Y-96980000D03*
X57587500Y-96030000D03*
X55312500Y-96030000D03*
X55312500Y-96980000D03*
X55312500Y-97930000D03*
%TD*%
D39*
%TO.C,C701*%
X78875000Y-68200000D03*
X75925000Y-68200000D03*
%TD*%
D10*
%TO.C,C142*%
X50750000Y-82660000D03*
X49790000Y-82660000D03*
%TD*%
D40*
%TO.C,C140*%
X54600000Y-88280000D03*
X54600000Y-87320000D03*
%TD*%
D34*
%TO.C,D301*%
X79712500Y-79210000D03*
X81287500Y-79210000D03*
%TD*%
D41*
%TO.C,C502*%
X66800000Y-69050000D03*
X66800000Y-67150000D03*
%TD*%
D42*
%TO.C,U501*%
X65200000Y-72750000D03*
X65200000Y-71750000D03*
X65200000Y-70750000D03*
X65200000Y-69750000D03*
X65200000Y-68750000D03*
D43*
X64700000Y-64000000D03*
X60500000Y-64000000D03*
D42*
X60000000Y-68750000D03*
X60000000Y-69750000D03*
X60000000Y-70750000D03*
X60000000Y-71750000D03*
X60000000Y-72750000D03*
D43*
X62600000Y-71150000D03*
%TD*%
D11*
%TO.C,R114*%
X68222500Y-92700000D03*
X69242500Y-92700000D03*
%TD*%
D16*
%TO.C,C308*%
X90100000Y-74720000D03*
X90100000Y-75680000D03*
%TD*%
D10*
%TO.C,C304*%
X92080000Y-75700000D03*
X91120000Y-75700000D03*
%TD*%
D11*
%TO.C,R207*%
X80002500Y-63500000D03*
X81022500Y-63500000D03*
%TD*%
D20*
%TO.C,U201*%
X91860000Y-59860000D03*
X91860000Y-61890000D03*
X91860000Y-63920000D03*
X91860000Y-65950000D03*
D21*
X99300000Y-59180000D03*
D22*
X94635000Y-59315000D03*
D23*
X97305000Y-60980000D03*
X97305000Y-64830000D03*
D22*
X94635000Y-66495000D03*
D21*
X99300000Y-66630000D03*
%TD*%
D25*
%TO.C,U203*%
X83925000Y-61095000D03*
X83925000Y-62365000D03*
X83925000Y-63635000D03*
X83925000Y-64905000D03*
X88875000Y-64905000D03*
X88875000Y-63635000D03*
X88875000Y-62365000D03*
X88875000Y-61095000D03*
%TD*%
D11*
%TO.C,R410*%
X93590000Y-103800000D03*
X94610000Y-103800000D03*
%TD*%
D34*
%TO.C,D202*%
X79725000Y-64800000D03*
X81300000Y-64800000D03*
%TD*%
D44*
%TO.C,D303*%
X87700000Y-87512500D03*
X87700000Y-86287500D03*
%TD*%
D34*
%TO.C,D401*%
X79712500Y-97210000D03*
X81287500Y-97210000D03*
%TD*%
D15*
%TO.C,C402*%
X86350000Y-95500000D03*
X87900000Y-95500000D03*
%TD*%
D10*
%TO.C,C204*%
X92080000Y-57700000D03*
X91120000Y-57700000D03*
%TD*%
D44*
%TO.C,D403*%
X87700000Y-105512500D03*
X87700000Y-104287500D03*
%TD*%
D11*
%TO.C,R209*%
X92690000Y-68800000D03*
X93710000Y-68800000D03*
%TD*%
D16*
%TO.C,C128*%
X49600000Y-79420000D03*
X49600000Y-80380000D03*
%TD*%
D26*
%TO.C,R305*%
X90700000Y-78880000D03*
X90700000Y-79900000D03*
%TD*%
D24*
%TO.C,C704*%
X71225000Y-68200000D03*
X74175000Y-68200000D03*
%TD*%
D17*
%TO.C,R101*%
X49600000Y-60610000D03*
X49600000Y-59590000D03*
%TD*%
D19*
%TO.C,C207*%
X82240000Y-68800000D03*
X83200000Y-68800000D03*
%TD*%
D45*
%TO.C,C108*%
X51500000Y-68975000D03*
X51500000Y-67425000D03*
%TD*%
D19*
%TO.C,C504*%
X66120000Y-70300000D03*
X67080000Y-70300000D03*
%TD*%
D37*
%TO.C,U304*%
X99024150Y-75705000D03*
X99024150Y-74435000D03*
X99024150Y-73165000D03*
X99024150Y-71895000D03*
X93575850Y-71895000D03*
X93575850Y-73165000D03*
X93575850Y-74435000D03*
X93575850Y-75705000D03*
%TD*%
D46*
%TO.C,J107*%
X47400000Y-84320000D03*
X51300000Y-84320000D03*
X47400000Y-85590000D03*
X51300000Y-85590000D03*
X47400000Y-86860000D03*
X51300000Y-86860000D03*
X47400000Y-88130000D03*
X51300000Y-88130000D03*
X47400000Y-89400000D03*
X51300000Y-89400000D03*
%TD*%
D16*
%TO.C,C107*%
X49600000Y-63420000D03*
X49600000Y-64380000D03*
%TD*%
D33*
%TO.C,SW103*%
X47000000Y-75050001D03*
X47000000Y-80949999D03*
%TD*%
D17*
%TO.C,R401*%
X90700000Y-102700000D03*
X90700000Y-101680000D03*
%TD*%
D11*
%TO.C,R309*%
X92690000Y-86800000D03*
X93710000Y-86800000D03*
%TD*%
D17*
%TO.C,R201*%
X90700000Y-66700000D03*
X90700000Y-65680000D03*
%TD*%
%TO.C,R301*%
X90700000Y-84700000D03*
X90700000Y-83680000D03*
%TD*%
D34*
%TO.C,D108*%
X55025000Y-63600000D03*
X56600000Y-63600000D03*
%TD*%
D44*
%TO.C,D203*%
X87700000Y-69512500D03*
X87700000Y-68287500D03*
%TD*%
D25*
%TO.C,U303*%
X83925000Y-79095000D03*
X83925000Y-80365000D03*
X83925000Y-81635000D03*
X83925000Y-82905000D03*
X88875000Y-82905000D03*
X88875000Y-81635000D03*
X88875000Y-80365000D03*
X88875000Y-79095000D03*
%TD*%
D40*
%TO.C,C101*%
X60300000Y-77180000D03*
X60300000Y-76220000D03*
%TD*%
D10*
%TO.C,C206*%
X95480000Y-52500000D03*
X94520000Y-52500000D03*
%TD*%
%TO.C,C141*%
X48850000Y-82660000D03*
X47890000Y-82660000D03*
%TD*%
D12*
%TO.C,R501*%
X67110000Y-71300000D03*
X66090000Y-71300000D03*
%TD*%
D17*
%TO.C,R104*%
X49600000Y-70510000D03*
X49600000Y-69490000D03*
%TD*%
D26*
%TO.C,R204*%
X90700000Y-58990000D03*
X90700000Y-60010000D03*
%TD*%
D10*
%TO.C,C405*%
X92080000Y-91700000D03*
X91120000Y-91700000D03*
%TD*%
D34*
%TO.C,D107*%
X51925000Y-63600000D03*
X53500000Y-63600000D03*
%TD*%
D33*
%TO.C,SW101*%
X47000000Y-59050001D03*
X47000000Y-64949999D03*
%TD*%
D39*
%TO.C,C702*%
X79375000Y-71500000D03*
X76425000Y-71500000D03*
%TD*%
D17*
%TO.C,R402*%
X90700000Y-100800000D03*
X90700000Y-99780000D03*
%TD*%
D47*
%TO.C,SW106*%
X79600000Y-92500000D03*
X79600000Y-90000000D03*
X79600000Y-87500000D03*
X74100000Y-92500000D03*
X74100000Y-90000000D03*
X74100000Y-87500000D03*
%TD*%
D10*
%TO.C,C406*%
X92080000Y-90700000D03*
X91120000Y-90700000D03*
%TD*%
D19*
%TO.C,C409*%
X92720000Y-105800000D03*
X93680000Y-105800000D03*
%TD*%
D10*
%TO.C,C208*%
X95480000Y-51500000D03*
X94520000Y-51500000D03*
%TD*%
D48*
%TO.C,J106*%
X53095000Y-93730000D03*
X53095000Y-94530000D03*
D49*
X53095000Y-95730000D03*
X53095000Y-96730000D03*
X53095000Y-97230000D03*
X53095000Y-98230000D03*
D48*
X53095000Y-99430000D03*
X53095000Y-100230000D03*
X53095000Y-100230000D03*
X53095000Y-99430000D03*
D49*
X53095000Y-98730000D03*
X53095000Y-97730000D03*
X53095000Y-96230000D03*
X53095000Y-95230000D03*
D48*
X53095000Y-94530000D03*
X53095000Y-93730000D03*
%TD*%
D10*
%TO.C,C103*%
X70780000Y-77100000D03*
X69820000Y-77100000D03*
%TD*%
D34*
%TO.C,D106*%
X52825000Y-60000000D03*
X54400000Y-60000000D03*
%TD*%
D11*
%TO.C,R409*%
X92690000Y-104800000D03*
X93710000Y-104800000D03*
%TD*%
D17*
%TO.C,R106*%
X49600000Y-76610000D03*
X49600000Y-75590000D03*
%TD*%
D16*
%TO.C,C105*%
X66000000Y-84620000D03*
X66000000Y-85580000D03*
%TD*%
D15*
%TO.C,C301*%
X83350000Y-77500000D03*
X84900000Y-77500000D03*
%TD*%
D40*
%TO.C,C106*%
X59300000Y-77180000D03*
X59300000Y-76220000D03*
%TD*%
D12*
%TO.C,R113*%
X69242500Y-94200000D03*
X68222500Y-94200000D03*
%TD*%
D11*
%TO.C,R116*%
X54840000Y-99180000D03*
X55860000Y-99180000D03*
%TD*%
D50*
%TO.C,U102*%
X62900000Y-77900000D03*
X62900000Y-79300000D03*
X62900000Y-80700000D03*
X62900000Y-82100000D03*
X64300000Y-77900000D03*
X64300000Y-79300000D03*
X64300000Y-80700000D03*
X64300000Y-82100000D03*
X65700000Y-77900000D03*
X65700000Y-79300000D03*
X65700000Y-80700000D03*
X65700000Y-82100000D03*
X67100000Y-77900000D03*
X67100000Y-79300000D03*
X67100000Y-80700000D03*
X67100000Y-82100000D03*
D51*
X61562500Y-77250000D03*
X61562500Y-77750000D03*
X61562500Y-78250000D03*
X61562500Y-78750000D03*
X61562500Y-79250000D03*
X61562500Y-79750000D03*
X61562500Y-80250000D03*
X61562500Y-80750000D03*
X61562500Y-81250000D03*
X61562500Y-81750000D03*
X61562500Y-82250000D03*
X61562500Y-82750000D03*
D52*
X62250000Y-83437500D03*
X62750000Y-83437500D03*
X63250000Y-83437500D03*
X63750000Y-83437500D03*
X64250000Y-83437500D03*
X64750000Y-83437500D03*
X65250000Y-83437500D03*
X65750000Y-83437500D03*
X66250000Y-83437500D03*
X66750000Y-83437500D03*
X67250000Y-83437500D03*
X67750000Y-83437500D03*
D51*
X68437500Y-82750000D03*
X68437500Y-82250000D03*
X68437500Y-81750000D03*
X68437500Y-81250000D03*
X68437500Y-80750000D03*
X68437500Y-80250000D03*
X68437500Y-79750000D03*
X68437500Y-79250000D03*
X68437500Y-78750000D03*
X68437500Y-78250000D03*
X68437500Y-77750000D03*
X68437500Y-77250000D03*
D52*
X67750000Y-76562500D03*
X67250000Y-76562500D03*
X66750000Y-76562500D03*
X66250000Y-76562500D03*
X65750000Y-76562500D03*
X65250000Y-76562500D03*
X64750000Y-76562500D03*
X64250000Y-76562500D03*
X63750000Y-76562500D03*
X63250000Y-76562500D03*
X62750000Y-76562500D03*
X62250000Y-76562500D03*
%TD*%
D19*
%TO.C,C119*%
X54120000Y-86100000D03*
X55080000Y-86100000D03*
%TD*%
D10*
%TO.C,C305*%
X92080000Y-73700000D03*
X91120000Y-73700000D03*
%TD*%
D34*
%TO.C,D105*%
X52825000Y-56400000D03*
X54400000Y-56400000D03*
%TD*%
D15*
%TO.C,C401*%
X83350000Y-95500000D03*
X84900000Y-95500000D03*
%TD*%
D26*
%TO.C,R304*%
X90700000Y-76990000D03*
X90700000Y-78010000D03*
%TD*%
D53*
%TO.C,D110*%
X71932500Y-92700000D03*
X70357500Y-92700000D03*
%TD*%
D19*
%TO.C,C205*%
X96420000Y-52500000D03*
X97380000Y-52500000D03*
%TD*%
D11*
%TO.C,R503*%
X66090000Y-73300000D03*
X67110000Y-73300000D03*
%TD*%
D37*
%TO.C,U204*%
X99024150Y-57705000D03*
X99024150Y-56435000D03*
X99024150Y-55165000D03*
X99024150Y-53895000D03*
X93575850Y-53895000D03*
X93575850Y-55165000D03*
X93575850Y-56435000D03*
X93575850Y-57705000D03*
%TD*%
D35*
%TO.C,D204*%
X89362500Y-68000000D03*
X89362500Y-69900000D03*
X91237500Y-68950000D03*
%TD*%
D11*
%TO.C,R502*%
X66090000Y-72300000D03*
X67110000Y-72300000D03*
%TD*%
D54*
%TO.C,U104*%
X55880000Y-93000000D03*
X57150000Y-93000000D03*
X58420000Y-93000000D03*
X59690000Y-93000000D03*
X60960000Y-93000000D03*
X62230000Y-93000000D03*
X63500000Y-93000000D03*
X64770000Y-93000000D03*
X64770000Y-88050000D03*
X63500000Y-88050000D03*
X62230000Y-88050000D03*
X60960000Y-88050000D03*
X59690000Y-88050000D03*
X58420000Y-88050000D03*
X57150000Y-88050000D03*
X55880000Y-88050000D03*
%TD*%
D26*
%TO.C,R111*%
X54800000Y-64790000D03*
X54800000Y-65810000D03*
%TD*%
D39*
%TO.C,C303*%
X98925000Y-86900000D03*
X95975000Y-86900000D03*
%TD*%
%TO.C,C203*%
X98925000Y-68900000D03*
X95975000Y-68900000D03*
%TD*%
D26*
%TO.C,R108*%
X52600000Y-57590000D03*
X52600000Y-58610000D03*
%TD*%
D55*
%TO.C,D102*%
X55000000Y-84450000D03*
X58300000Y-84450000D03*
X58300000Y-79550000D03*
X55000000Y-79550000D03*
%TD*%
D27*
%TO.C,D104*%
X74600000Y-98749000D03*
D28*
X74600000Y-101100000D03*
%TD*%
D15*
%TO.C,C302*%
X86350000Y-77500000D03*
X87900000Y-77500000D03*
%TD*%
D34*
%TO.C,D302*%
X79725000Y-82800000D03*
X81300000Y-82800000D03*
%TD*%
D11*
%TO.C,R407*%
X80002500Y-99500000D03*
X81022500Y-99500000D03*
%TD*%
D39*
%TO.C,C403*%
X98925000Y-104900000D03*
X95975000Y-104900000D03*
%TD*%
D26*
%TO.C,R109*%
X52600000Y-61190000D03*
X52600000Y-62210000D03*
%TD*%
D15*
%TO.C,C201*%
X83350000Y-59500000D03*
X84900000Y-59500000D03*
%TD*%
D56*
%TO.C,J104*%
X63910000Y-56550000D03*
X63910000Y-60450000D03*
X62640000Y-56550000D03*
X62640000Y-60450000D03*
X61370000Y-56550000D03*
X61370000Y-60450000D03*
X60100000Y-56550000D03*
X60100000Y-60450000D03*
X58830000Y-56550000D03*
X58830000Y-60450000D03*
X57560000Y-56550000D03*
X57560000Y-60450000D03*
X56290000Y-56550000D03*
X56290000Y-60450000D03*
%TD*%
D17*
%TO.C,R102*%
X49600000Y-62510000D03*
X49600000Y-61490000D03*
%TD*%
D11*
%TO.C,R307*%
X80002500Y-81500000D03*
X81022500Y-81500000D03*
%TD*%
%TO.C,R310*%
X93590000Y-85800000D03*
X94610000Y-85800000D03*
%TD*%
M02*
