M48
; DRILL file {KiCad 9.0.4-9.0.4-0~ubuntu25.04.1} date 2025-11-25T08:35:37+0100
; FORMAT={-:-/ absolute / metric / decimal}
; #@! TF.CreationDate,2025-11-25T08:35:37+01:00
; #@! TF.GenerationSoftware,Kicad,Pcbnew,9.0.4-9.0.4-0~ubuntu25.04.1
; #@! TF.FileFunction,Plated,1,6,PTH
FMAT,2
METRIC
; #@! TA.AperFunction,Plated,PTH,ViaDrill
T1C0.300
; #@! TA.AperFunction,Plated,PTH,ComponentDrill
T2C0.500
; #@! TA.AperFunction,Plated,PTH,ComponentDrill
T3C0.600
; #@! TA.AperFunction,Plated,PTH,ComponentDrill
T4C0.750
; #@! TA.AperFunction,Plated,PTH,ComponentDrill
T5C1.000
; #@! TA.AperFunction,Plated,PTH,ComponentDrill
T6C1.100
; #@! TA.AperFunction,Plated,PTH,ComponentDrill
T7C1.600
; #@! TA.AperFunction,Plated,PTH,ComponentDrill
T8C2.700
; #@! TA.AperFunction,Plated,PTH,ComponentDrill
T9C3.200
%
G90
G05
T1
X45.9Y-85.59
X46.0Y-57.5
X46.0Y-60.5
X46.0Y-62.0
X46.0Y-63.5
X46.0Y-69.5
X46.0Y-71.0
X46.0Y-77.0
X46.0Y-78.5
X46.0Y-83.0
X46.0Y-92.0
X46.0Y-93.5
X46.0Y-95.0
X46.0Y-96.5
X46.0Y-98.0
X46.0Y-99.5
X46.0Y-101.0
X46.0Y-102.5
X47.0Y-64.95
X47.0Y-72.95
X47.0Y-80.95
X47.31Y-82.66
X48.4Y-71.0
X49.0Y-62.9
X49.05Y-86.86
X49.31Y-82.66
X49.59Y-80.96
X49.6Y-59.02
X49.6Y-64.96
X49.6Y-67.02
X49.6Y-72.96
X49.6Y-75.02
X49.75Y-84.32
X50.3Y-79.054
X50.7Y-66.8
X51.0Y-65.8
X51.33Y-82.66
X51.9Y-58.6
X51.9Y-62.2
X52.0Y-51.0
X52.0Y-109.0
X52.7Y-66.4
X52.8Y-75.6
X52.9Y-87.0
X53.1Y-54.59
X53.5Y-86.1
X53.5Y-109.0
X54.0Y-88.3
X54.072Y-99.426
X54.086Y-94.454
X54.1Y-66.0
X54.12Y-100.23
X54.6Y-55.3
X55.0Y-109.0
X55.08Y-85.4
X55.2Y-61.0
X55.4Y-56.4
X55.863Y-86.782
X55.9Y-69.8
X55.9Y-72.6
X55.9Y-91.4
X56.145Y-58.115
X56.247Y-96.678
X56.43Y-94.77
X56.43Y-99.17
X56.5Y-51.0
X56.5Y-109.0
X56.522Y-97.437
X56.94Y-58.201
X57.1Y-91.5
X57.5Y-62.1
X57.56Y-55.03
X57.774Y-81.077
X58.0Y-51.0
X58.0Y-83.0
X58.0Y-109.0
X58.4Y-86.6
X58.573Y-76.678
X58.744Y-96.044
X58.8Y-83.2
X58.859Y-96.93
X59.109Y-78.053
X59.303Y-79.549
X59.5Y-70.7
X59.5Y-101.1
X59.5Y-109.0
X59.695Y-78.851
X59.8Y-77.65
X59.95Y-52.0
X60.09Y-55.02
X60.61Y-97.078
X60.7Y-75.65
X60.7Y-83.1
X60.8Y-71.0
X61.0Y-109.0
X61.133Y-62.15
X61.37Y-58.9
X61.38Y-55.04
X61.941Y-67.159
X62.05Y-52.0
X62.2Y-84.3
X62.5Y-109.0
X62.6Y-77.6
X62.6Y-78.8
X62.6Y-80.0
X62.6Y-81.2
X62.6Y-82.4
X62.64Y-55.05
X62.64Y-58.9
X62.8Y-74.51
X63.4Y-94.8
X63.635Y-85.213
X63.7Y-74.1
X63.8Y-77.6
X63.8Y-78.8
X63.8Y-80.0
X63.8Y-81.2
X63.8Y-82.4
X64.0Y-51.0
X64.0Y-109.0
X64.25Y-75.833
X64.7Y-75.1
X65.0Y-77.6
X65.0Y-78.8
X65.0Y-80.0
X65.0Y-81.2
X65.0Y-82.4
X65.152Y-84.416
X65.181Y-86.011
X65.229Y-85.212
X65.3Y-68.05
X65.5Y-51.0
X65.5Y-109.0
X66.2Y-77.6
X66.2Y-78.8
X66.2Y-80.0
X66.2Y-81.2
X66.2Y-82.4
X66.253Y-74.909
X66.47Y-84.62
X66.5Y-86.0
X67.0Y-109.0
X67.041Y-74.769
X67.4Y-74.0
X67.4Y-77.6
X67.4Y-78.8
X67.4Y-80.0
X67.4Y-81.2
X67.4Y-82.4
X67.452Y-75.523
X67.6Y-70.3
X67.6Y-71.3
X67.84Y-74.802
X68.5Y-109.0
X68.657Y-74.816
X69.06Y-54.49
X69.375Y-77.294
X69.425Y-74.593
X69.55Y-78.075
X69.55Y-78.925
X70.0Y-51.0
X70.0Y-109.0
X70.03Y-76.2
X70.198Y-83.625
X70.37Y-81.746
X70.8Y-77.6
X71.225Y-67.4
X71.225Y-68.2
X71.225Y-69.0
X71.4Y-83.026
X71.5Y-51.0
X71.5Y-109.0
X71.55Y-76.45
X71.571Y-81.724
X71.725Y-70.6
X71.725Y-71.4
X71.725Y-72.2
X72.192Y-80.314
X72.197Y-79.514
X72.665Y-82.365
X73.0Y-51.0
X73.0Y-109.0
X74.175Y-67.4
X74.175Y-68.2
X74.175Y-69.0
X74.5Y-51.0
X74.5Y-109.0
X74.6Y-97.048
X74.675Y-70.7
X74.675Y-71.5
X74.675Y-72.3
X75.925Y-67.4
X75.925Y-68.2
X75.925Y-69.0
X76.0Y-51.0
X76.0Y-109.0
X76.425Y-70.7
X76.425Y-71.5
X76.425Y-72.3
X77.5Y-51.0
X77.5Y-109.0
X78.875Y-67.5
X78.875Y-68.3
X78.875Y-69.1
X79.0Y-51.0
X79.0Y-109.0
X79.6Y-87.5
X79.6Y-92.5
X80.5Y-51.0
X80.5Y-109.0
X81.124Y-67.35
X81.177Y-91.521
X81.6Y-68.2
X81.6Y-86.2
X81.6Y-104.2
X81.7Y-62.5
X81.7Y-63.5
X81.7Y-80.5
X81.7Y-81.5
X81.7Y-98.5
X81.7Y-99.5
X82.0Y-51.0
X82.0Y-109.0
X82.4Y-77.5
X82.4Y-95.5
X82.507Y-65.328
X83.5Y-51.0
X84.475Y-67.75
X84.475Y-85.75
X84.475Y-103.75
X85.0Y-51.0
X85.5Y-63.635
X85.5Y-65.6
X85.5Y-81.635
X85.5Y-83.6
X85.5Y-99.635
X85.5Y-101.505
X86.5Y-51.0
X86.9Y-69.5
X86.9Y-87.5
X86.9Y-105.5
X87.7Y-67.5
X87.7Y-85.5
X87.7Y-103.5
X88.0Y-51.0
X89.4Y-74.7
X89.4Y-92.7
X89.5Y-51.0
X89.5Y-75.7
X89.5Y-93.7
X89.5Y-109.0
X89.9Y-66.8
X89.9Y-84.8
X89.9Y-102.8
X90.4Y-69.9
X90.4Y-72.7
X90.4Y-73.7
X90.4Y-87.9
X90.4Y-90.7
X90.4Y-91.7
X90.4Y-105.9
X90.7Y-62.7
X90.7Y-68.0
X90.7Y-80.7
X90.7Y-86.0
X90.7Y-98.7
X90.7Y-104.0
X91.0Y-51.0
X91.0Y-109.0
X91.16Y-76.28
X91.16Y-94.28
X91.6Y-61.0
X91.6Y-79.0
X91.6Y-97.0
X92.1Y-76.5
X92.1Y-94.5
X92.3Y-57.1
X92.4Y-61.0
X92.4Y-79.0
X92.4Y-97.0
X92.5Y-51.0
X92.5Y-109.0
X92.8Y-59.0
X92.8Y-59.8
X92.8Y-61.6
X92.8Y-77.0
X92.8Y-77.8
X92.8Y-79.6
X92.8Y-95.0
X92.8Y-95.8
X92.8Y-97.6
X93.2Y-60.6
X93.2Y-78.6
X93.2Y-96.6
X93.5Y-53.1
X93.5Y-65.0
X93.5Y-66.0
X93.5Y-71.1
X93.5Y-83.0
X93.5Y-84.0
X93.5Y-89.1
X93.5Y-101.0
X93.5Y-102.0
X93.6Y-58.8
X93.6Y-59.6
X93.6Y-76.8
X93.6Y-77.6
X93.6Y-94.8
X93.6Y-95.6
X93.9Y-51.5
X93.9Y-52.5
X94.0Y-109.0
X94.5Y-64.0
X94.5Y-65.0
X94.5Y-69.8
X94.5Y-82.0
X94.5Y-83.0
X94.5Y-87.8
X94.5Y-100.0
X94.5Y-101.0
X94.5Y-105.8
X94.6Y-68.7
X94.6Y-86.7
X94.6Y-104.7
X95.5Y-109.0
X95.9Y-51.0
X95.975Y-68.1
X95.975Y-68.9
X95.975Y-69.7
X95.975Y-86.1
X95.975Y-86.9
X95.975Y-87.7
X95.975Y-104.1
X95.975Y-104.9
X95.975Y-105.7
X96.0Y-67.0
X96.0Y-85.0
X96.0Y-103.0
X97.0Y-67.0
X97.0Y-85.0
X97.0Y-103.0
X97.0Y-109.0
X98.0Y-67.0
X98.0Y-85.0
X98.0Y-103.0
X98.1Y-52.5
X98.5Y-51.0
X98.5Y-109.0
X98.925Y-68.1
X98.925Y-68.9
X98.925Y-69.7
X98.925Y-86.1
X98.925Y-86.9
X98.925Y-87.7
X98.925Y-104.1
X98.925Y-104.9
X98.925Y-105.7
X100.0Y-51.0
X100.0Y-109.0
X101.5Y-51.0
X101.5Y-109.0
X103.0Y-51.0
X103.0Y-109.0
X109.0Y-57.5
X109.0Y-59.0
X109.0Y-60.5
X109.0Y-62.0
X109.0Y-63.5
X109.0Y-65.0
X109.0Y-66.5
X109.0Y-68.0
X109.0Y-69.5
X109.0Y-71.0
X109.0Y-72.5
X109.0Y-74.0
X109.0Y-75.5
X109.0Y-77.0
X109.0Y-78.5
X109.0Y-80.0
X109.0Y-81.5
X109.0Y-83.0
X109.0Y-84.5
X109.0Y-86.0
X109.0Y-87.5
X109.0Y-89.0
X109.0Y-90.5
X109.0Y-92.0
X109.0Y-93.5
X109.0Y-95.0
X109.0Y-96.5
X109.0Y-98.0
X109.0Y-99.5
X109.0Y-101.0
X109.0Y-102.5
T2
X46.6Y-54.0
X46.6Y-106.0
X47.303Y-52.303
X47.303Y-55.697
X47.303Y-104.303
X47.303Y-107.697
X49.0Y-51.6
X49.0Y-56.4
X49.0Y-103.6
X49.0Y-108.4
X50.697Y-52.303
X50.697Y-55.697
X50.697Y-104.303
X50.697Y-107.697
X51.4Y-54.0
X51.4Y-106.0
X103.6Y-54.0
X103.6Y-106.0
X104.303Y-52.303
X104.303Y-55.697
X104.303Y-104.303
X104.303Y-107.697
X106.0Y-51.6
X106.0Y-56.4
X106.0Y-103.6
X106.0Y-108.4
X107.697Y-52.303
X107.697Y-55.697
X107.697Y-104.303
X107.697Y-107.697
X108.4Y-54.0
X108.4Y-106.0
T4
X64.6Y-98.45
X66.6Y-98.45
X68.6Y-98.45
X70.6Y-98.45
T5
X56.0Y-104.73
X56.0Y-107.27
X58.54Y-104.73
X58.54Y-107.27
X61.08Y-104.73
X61.08Y-107.27
X63.62Y-104.73
X63.62Y-107.27
X66.16Y-104.73
X66.16Y-107.27
X68.7Y-104.73
X68.7Y-107.27
X69.56Y-63.55
X71.24Y-104.73
X71.24Y-107.27
X72.1Y-63.55
X73.78Y-104.73
X73.78Y-107.27
X74.64Y-63.55
X76.32Y-104.73
X76.32Y-107.27
X78.86Y-104.73
X78.86Y-107.27
T6
X83.1Y-71.6
X83.1Y-89.6
X84.2Y-108.0
X86.6Y-71.6
X86.6Y-89.6
X87.7Y-108.0
T7
X105.4Y-74.92
X105.4Y-80.0
X105.4Y-85.08
T8
X72.4Y-54.0
X77.4Y-54.0
X83.7Y-54.0
X88.7Y-54.0
T9
X49.0Y-54.0
X49.0Y-106.0
X106.0Y-54.0
X106.0Y-106.0
T3
G00X48.3Y-92.66
M15
G01X47.7Y-92.66
M16
G05
G00X48.3Y-101.3
M15
G01X47.7Y-101.3
M16
G05
G00X52.73Y-92.66
M15
G01X51.63Y-92.66
M16
G05
G00X52.73Y-101.3
M15
G01X51.63Y-101.3
M16
G05
M30
