%TF.GenerationSoftware,KiCad,Pcbnew,9.0.4-9.0.4-0~ubuntu25.04.1*%
%TF.CreationDate,2025-11-25T08:35:24+01:00*%
%TF.ProjectId,Inverter_MIC4605_SQJQ910EL,496e7665-7274-4657-925f-4d4943343630,rev?*%
%TF.SameCoordinates,Original*%
%TF.FileFunction,Soldermask,Bot*%
%TF.FilePolarity,Negative*%
%FSLAX46Y46*%
G04 Gerber Fmt 4.6, Leading zero omitted, Abs format (unit mm)*
G04 Created by KiCad (PCBNEW 9.0.4-9.0.4-0~ubuntu25.04.1) date 2025-11-25 08:35:24*
%MOMM*%
%LPD*%
G01*
G04 APERTURE LIST*
G04 Aperture macros list*
%AMRoundRect*
0 Rectangle with rounded corners*
0 $1 Rounding radius*
0 $2 $3 $4 $5 $6 $7 $8 $9 X,Y pos of 4 corners*
0 Add a 4 corners polygon primitive as box body*
4,1,4,$2,$3,$4,$5,$6,$7,$8,$9,$2,$3,0*
0 Add four circle primitives for the rounded corners*
1,1,$1+$1,$2,$3*
1,1,$1+$1,$4,$5*
1,1,$1+$1,$6,$7*
1,1,$1+$1,$8,$9*
0 Add four rect primitives between the rounded corners*
20,1,$1+$1,$2,$3,$4,$5,0*
20,1,$1+$1,$4,$5,$6,$7,0*
20,1,$1+$1,$6,$7,$8,$9,0*
20,1,$1+$1,$8,$9,$2,$3,0*%
%AMFreePoly0*
4,1,23,0.550000,-0.750000,0.000000,-0.750000,0.000000,-0.745722,-0.065263,-0.745722,-0.191342,-0.711940,-0.304381,-0.646677,-0.396677,-0.554381,-0.461940,-0.441342,-0.495722,-0.315263,-0.495722,-0.250000,-0.500000,-0.250000,-0.500000,0.250000,-0.495722,0.250000,-0.495722,0.315263,-0.461940,0.441342,-0.396677,0.554381,-0.304381,0.646677,-0.191342,0.711940,-0.065263,0.745722,0.000000,0.745722,
0.000000,0.750000,0.550000,0.750000,0.550000,-0.750000,0.550000,-0.750000,$1*%
%AMFreePoly1*
4,1,23,0.000000,0.745722,0.065263,0.745722,0.191342,0.711940,0.304381,0.646677,0.396677,0.554381,0.461940,0.441342,0.495722,0.315263,0.495722,0.250000,0.500000,0.250000,0.500000,-0.250000,0.495722,-0.250000,0.495722,-0.315263,0.461940,-0.441342,0.396677,-0.554381,0.304381,-0.646677,0.191342,-0.711940,0.065263,-0.745722,0.000000,-0.745722,0.000000,-0.750000,-0.550000,-0.750000,
-0.550000,0.750000,0.000000,0.750000,0.000000,0.745722,0.000000,0.745722,$1*%
G04 Aperture macros list end*
%ADD10C,2.400000*%
%ADD11RoundRect,0.760000X1.140000X1.140000X-1.140000X1.140000X-1.140000X-1.140000X1.140000X-1.140000X0*%
%ADD12C,3.800000*%
%ADD13C,0.800000*%
%ADD14C,6.400000*%
%ADD15RoundRect,0.760000X-1.140000X-1.140000X1.140000X-1.140000X1.140000X1.140000X-1.140000X1.140000X0*%
%ADD16RoundRect,0.250000X-0.350000X-0.625000X0.350000X-0.625000X0.350000X0.625000X-0.350000X0.625000X0*%
%ADD17O,1.200000X1.750000*%
%ADD18C,2.200000*%
%ADD19C,0.650000*%
%ADD20O,2.100000X1.000000*%
%ADD21O,1.600000X1.000000*%
%ADD22R,1.700000X1.700000*%
%ADD23C,1.700000*%
%ADD24C,1.500000*%
%ADD25FreePoly0,180.000000*%
%ADD26R,1.000000X1.500000*%
%ADD27FreePoly1,180.000000*%
G04 APERTURE END LIST*
%TO.C,JP102*%
G36*
X63450000Y-71407500D02*
G01*
X61950000Y-71407500D01*
X61950000Y-72907500D01*
X63450000Y-72907500D01*
X63450000Y-71407500D01*
G37*
%TD*%
D10*
%TO.C,J110*%
X105400000Y-85080000D03*
X105400000Y-80000000D03*
X105400000Y-74920000D03*
%TD*%
D11*
%TO.C,J101*%
X88700000Y-54000000D03*
D12*
X83700000Y-54000000D03*
%TD*%
D13*
%TO.C,H105*%
X103600000Y-54000000D03*
X104302944Y-52302944D03*
X104302944Y-55697056D03*
X106000000Y-51600000D03*
D14*
X106000000Y-54000000D03*
D13*
X106000000Y-56400000D03*
X107697056Y-52302944D03*
X107697056Y-55697056D03*
X108400000Y-54000000D03*
%TD*%
D15*
%TO.C,J102*%
X72400000Y-54000000D03*
D12*
X77400000Y-54000000D03*
%TD*%
D13*
%TO.C,H101*%
X46600000Y-54000000D03*
X47302944Y-52302944D03*
X47302944Y-55697056D03*
X49000000Y-51600000D03*
D14*
X49000000Y-54000000D03*
D13*
X49000000Y-56400000D03*
X50697056Y-52302944D03*
X50697056Y-55697056D03*
X51400000Y-54000000D03*
%TD*%
%TO.C,H102*%
X103600000Y-106000000D03*
X104302944Y-104302944D03*
X104302944Y-107697056D03*
X106000000Y-103600000D03*
D14*
X106000000Y-106000000D03*
D13*
X106000000Y-108400000D03*
X107697056Y-104302944D03*
X107697056Y-107697056D03*
X108400000Y-106000000D03*
%TD*%
D16*
%TO.C,J108*%
X64600000Y-98450000D03*
D17*
X66600000Y-98450000D03*
X68600000Y-98450000D03*
X70600000Y-98450000D03*
%TD*%
D18*
%TO.C,TP106*%
X83100000Y-71600000D03*
%TD*%
%TO.C,TP108*%
X83100000Y-89600000D03*
%TD*%
%TO.C,TP105*%
X86600000Y-71600000D03*
%TD*%
%TO.C,TP110*%
X84200000Y-108000000D03*
%TD*%
D19*
%TO.C,J106*%
X51650000Y-94090000D03*
X51650000Y-99870000D03*
D20*
X52180000Y-92660000D03*
D21*
X48000000Y-92660000D03*
D20*
X52180000Y-101300000D03*
D21*
X48000000Y-101300000D03*
%TD*%
D18*
%TO.C,TP107*%
X86600000Y-89600000D03*
%TD*%
%TO.C,TP109*%
X87700000Y-108000000D03*
%TD*%
D13*
%TO.C,H106*%
X46600000Y-106000000D03*
X47302944Y-104302944D03*
X47302944Y-107697056D03*
X49000000Y-103600000D03*
D14*
X49000000Y-106000000D03*
D13*
X49000000Y-108400000D03*
X50697056Y-104302944D03*
X50697056Y-107697056D03*
X51400000Y-106000000D03*
%TD*%
D22*
%TO.C,J109*%
X56000000Y-107270000D03*
D23*
X56000000Y-104730000D03*
X58540000Y-107270000D03*
X58540000Y-104730000D03*
X61080000Y-107270000D03*
X61080000Y-104730000D03*
X63620000Y-107270000D03*
X63620000Y-104730000D03*
X66160000Y-107270000D03*
X66160000Y-104730000D03*
X68700000Y-107270000D03*
X68700000Y-104730000D03*
X71240000Y-107270000D03*
X71240000Y-104730000D03*
X73780000Y-107270000D03*
X73780000Y-104730000D03*
X76320000Y-107270000D03*
X76320000Y-104730000D03*
X78860000Y-107270000D03*
X78860000Y-104730000D03*
%TD*%
D24*
%TO.C,U701*%
X74640000Y-63550000D03*
X72100000Y-63550000D03*
X69560000Y-63550000D03*
%TD*%
D25*
%TO.C,JP102*%
X64000000Y-72157500D03*
D26*
X62700000Y-72157500D03*
D27*
X61400000Y-72157500D03*
%TD*%
M02*
